<?xml version="1.0" encoding="UTF-8" standalone="no"?>
<!DOCTYPE svg PUBLIC "-//W3C//DTD SVG 1.1//EN"
 "http://www.w3.org/Graphics/SVG/1.1/DTD/svg11.dtd">
<!-- Generated by graphviz version 2.40.1 (20161225.0304)
 -->
<!-- Title: dependencies Pages: 1 -->
<svg width="1626pt" height="211pt"
 viewBox="0.00 0.00 1626.00 211.00" xmlns="http://www.w3.org/2000/svg" xmlns:xlink="http://www.w3.org/1999/xlink">
<g id="graph0" class="graph" transform="scale(1 1) rotate(0) translate(4 207)">
<title>dependencies</title>
<polygon fill="#ffffff" stroke="transparent" points="-4,4 -4,-207 1622,-207 1622,4 -4,4"/>
<text text-anchor="start" x="788.0091" y="-42.4" font-family="sans-serif" font-weight="bold" font-size="14.00" fill="#000000">Legend</text>
<polygon fill="#ffffb3" stroke="transparent" points="575,-10 575,-30 595,-30 595,-10 575,-10"/>
<text text-anchor="start" x="598.629" y="-15.4" font-family="sans-serif" font-size="14.00" fill="#000000"> &#160;Declarations</text>
<polygon fill="#8dd3c7" stroke="transparent" points="688,-10 688,-30 708,-30 708,-10 688,-10"/>
<text text-anchor="start" x="711.7251" y="-15.4" font-family="sans-serif" font-size="14.00" fill="#000000"> &#160;Module</text>
<polygon fill="#80b1d3" stroke="transparent" points="774,-10 774,-30 794,-30 794,-10 774,-10"/>
<text text-anchor="start" x="797.7812" y="-15.4" font-family="sans-serif" font-size="14.00" fill="#000000"> &#160;Bootstrap</text>
<polygon fill="#fdb462" stroke="transparent" points="871,-10 871,-30 891,-30 891,-10 871,-10"/>
<text text-anchor="start" x="894.6732" y="-15.4" font-family="sans-serif" font-size="14.00" fill="#000000"> &#160;Providers</text>
<polygon fill="#fb8072" stroke="transparent" points="967,-10 967,-30 987,-30 987,-10 967,-10"/>
<text text-anchor="start" x="990.7258" y="-15.4" font-family="sans-serif" font-size="14.00" fill="#000000"> &#160;Exports</text>
<g id="clust1" class="cluster">
<title>cluster_HetznerCloudDataModule</title>
<polygon fill="none" stroke="#000000" stroke-dasharray="1,5" points="8,-70 8,-195 1610,-195 1610,-70 8,-70"/>
</g>
<g id="clust6" class="cluster">
<title>cluster_HetznerCloudDataModule_providers</title>
<polygon fill="none" stroke="#000000" points="16,-78 16,-130 1602,-130 1602,-78 16,-78"/>
</g>
<!-- HetznerCloudDataService -->
<g id="node1" class="node">
<title>HetznerCloudDataService</title>
<ellipse fill="#fdb462" stroke="#000000" cx="1482" cy="-104" rx="112.2763" ry="18"/>
<text text-anchor="middle" x="1482" y="-99.8" font-family="Times,serif" font-size="14.00" fill="#000000">HetznerCloudDataService</text>
</g>
<!-- HetznerCloudDataModule -->
<g id="node10" class="node">
<title>HetznerCloudDataModule</title>
<polygon fill="#8dd3c7" stroke="#000000" points="890.0057,-187 887.0057,-191 866.0057,-191 863.0057,-187 725.9943,-187 725.9943,-151 890.0057,-151 890.0057,-187"/>
<text text-anchor="middle" x="808" y="-164.8" font-family="Times,serif" font-size="14.00" fill="#000000">HetznerCloudDataModule</text>
</g>
<!-- HetznerCloudDataService&#45;&gt;HetznerCloudDataModule -->
<g id="edge1" class="edge">
<title>HetznerCloudDataService&#45;&gt;HetznerCloudDataModule</title>
<path fill="none" stroke="#000000" d="M1482,-122.2921C1482,-144.2057 1482,-178 1482,-178 1482,-178 900.3084,-178 900.3084,-178"/>
<polygon fill="#000000" stroke="#000000" points="900.3085,-174.5001 890.3084,-178 900.3084,-181.5001 900.3085,-174.5001"/>
</g>
<!-- ServersService -->
<g id="node2" class="node">
<title>ServersService</title>
<ellipse fill="#fdb462" stroke="#000000" cx="1283" cy="-104" rx="68.8946" ry="18"/>
<text text-anchor="middle" x="1283" y="-99.8" font-family="Times,serif" font-size="14.00" fill="#000000">ServersService</text>
</g>
<!-- ServersService&#45;&gt;HetznerCloudDataModule -->
<g id="edge2" class="edge">
<title>ServersService&#45;&gt;HetznerCloudDataModule</title>
<path fill="none" stroke="#000000" d="M1283,-122.1061C1283,-141.3391 1283,-169 1283,-169 1283,-169 900.1964,-169 900.1964,-169"/>
<polygon fill="#000000" stroke="#000000" points="900.1964,-165.5001 890.1964,-169 900.1964,-172.5001 900.1964,-165.5001"/>
</g>
<!-- ProjectsService -->
<g id="node3" class="node">
<title>ProjectsService</title>
<ellipse fill="#fdb462" stroke="#000000" cx="1125" cy="-104" rx="71.1998" ry="18"/>
<text text-anchor="middle" x="1125" y="-99.8" font-family="Times,serif" font-size="14.00" fill="#000000">ProjectsService</text>
</g>
<!-- ProjectsService&#45;&gt;HetznerCloudDataModule -->
<g id="edge3" class="edge">
<title>ProjectsService&#45;&gt;HetznerCloudDataModule</title>
<path fill="none" stroke="#000000" d="M1125,-122.027C1125,-138.3976 1125,-160 1125,-160 1125,-160 900.0476,-160 900.0476,-160"/>
<polygon fill="#000000" stroke="#000000" points="900.0477,-156.5001 890.0476,-160 900.0476,-163.5001 900.0477,-156.5001"/>
</g>
<!-- PricingService -->
<g id="node4" class="node">
<title>PricingService</title>
<ellipse fill="#fdb462" stroke="#000000" cx="968" cy="-104" rx="67.7721" ry="18"/>
<text text-anchor="middle" x="968" y="-99.8" font-family="Times,serif" font-size="14.00" fill="#000000">PricingService</text>
</g>
<!-- PricingService&#45;&gt;HetznerCloudDataModule -->
<g id="edge4" class="edge">
<title>PricingService&#45;&gt;HetznerCloudDataModule</title>
<path fill="none" stroke="#000000" d="M899.9263,-104C891.6348,-104 886.0194,-104 886.0194,-104 886.0194,-104 886.0194,-140.8939 886.0194,-140.8939"/>
<polygon fill="#000000" stroke="#000000" points="882.5195,-140.8938 886.0194,-150.8939 889.5195,-140.8939 882.5195,-140.8938"/>
</g>
<!-- SshKeysService -->
<g id="node5" class="node">
<title>SshKeysService</title>
<ellipse fill="#fdb462" stroke="#000000" cx="808" cy="-104" rx="73.5734" ry="18"/>
<text text-anchor="middle" x="808" y="-99.8" font-family="Times,serif" font-size="14.00" fill="#000000">SshKeysService</text>
</g>
<!-- SshKeysService&#45;&gt;HetznerCloudDataModule -->
<g id="edge5" class="edge">
<title>SshKeysService&#45;&gt;HetznerCloudDataModule</title>
<path fill="none" stroke="#000000" d="M808,-122.1061C808,-122.1061 808,-140.991 808,-140.991"/>
<polygon fill="#000000" stroke="#000000" points="804.5001,-140.9909 808,-150.991 811.5001,-140.991 804.5001,-140.9909"/>
</g>
<!-- ImagesService -->
<g id="node6" class="node">
<title>ImagesService</title>
<ellipse fill="#fdb462" stroke="#000000" cx="648" cy="-104" rx="67.7529" ry="18"/>
<text text-anchor="middle" x="648" y="-99.8" font-family="Times,serif" font-size="14.00" fill="#000000">ImagesService</text>
</g>
<!-- ImagesService&#45;&gt;HetznerCloudDataModule -->
<g id="edge6" class="edge">
<title>ImagesService&#45;&gt;HetznerCloudDataModule</title>
<path fill="none" stroke="#000000" d="M716.0737,-104C724.3652,-104 729.9806,-104 729.9806,-104 729.9806,-104 729.9806,-140.8939 729.9806,-140.8939"/>
<polygon fill="#000000" stroke="#000000" points="726.4807,-140.8938 729.9806,-150.8939 733.4807,-140.8939 726.4807,-140.8938"/>
</g>
<!-- LocationsService -->
<g id="node7" class="node">
<title>LocationsService</title>
<ellipse fill="#fdb462" stroke="#000000" cx="484" cy="-104" rx="78.1462" ry="18"/>
<text text-anchor="middle" x="484" y="-99.8" font-family="Times,serif" font-size="14.00" fill="#000000">LocationsService</text>
</g>
<!-- LocationsService&#45;&gt;HetznerCloudDataModule -->
<g id="edge7" class="edge">
<title>LocationsService&#45;&gt;HetznerCloudDataModule</title>
<path fill="none" stroke="#000000" d="M484,-122.027C484,-138.3976 484,-160 484,-160 484,-160 715.8223,-160 715.8223,-160"/>
<polygon fill="#000000" stroke="#000000" points="715.8223,-163.5001 725.8223,-160 715.8222,-156.5001 715.8223,-163.5001"/>
</g>
<!-- FloatingIpsService -->
<g id="node8" class="node">
<title>FloatingIpsService</title>
<ellipse fill="#fdb462" stroke="#000000" cx="304" cy="-104" rx="83.9643" ry="18"/>
<text text-anchor="middle" x="304" y="-99.8" font-family="Times,serif" font-size="14.00" fill="#000000">FloatingIpsService</text>
</g>
<!-- FloatingIpsService&#45;&gt;HetznerCloudDataModule -->
<g id="edge8" class="edge">
<title>FloatingIpsService&#45;&gt;HetznerCloudDataModule</title>
<path fill="none" stroke="#000000" d="M304,-122.1061C304,-141.3391 304,-169 304,-169 304,-169 715.902,-169 715.902,-169"/>
<polygon fill="#000000" stroke="#000000" points="715.902,-172.5001 725.902,-169 715.9019,-165.5001 715.902,-172.5001"/>
</g>
<!-- ServerTypesService -->
<g id="node9" class="node">
<title>ServerTypesService</title>
<ellipse fill="#fdb462" stroke="#000000" cx="113" cy="-104" rx="88.5812" ry="18"/>
<text text-anchor="middle" x="113" y="-99.8" font-family="Times,serif" font-size="14.00" fill="#000000">ServerTypesService</text>
</g>
<!-- ServerTypesService&#45;&gt;HetznerCloudDataModule -->
<g id="edge9" class="edge">
<title>ServerTypesService&#45;&gt;HetznerCloudDataModule</title>
<path fill="none" stroke="#000000" d="M113,-122.2921C113,-144.2057 113,-178 113,-178 113,-178 715.8883,-178 715.8883,-178"/>
<polygon fill="#000000" stroke="#000000" points="715.8884,-181.5001 725.8883,-178 715.8883,-174.5001 715.8884,-181.5001"/>
</g>
</g>
</svg>
