<?xml version="1.0" encoding="UTF-8" standalone="no"?>
<!DOCTYPE svg PUBLIC "-//W3C//DTD SVG 1.1//EN"
 "http://www.w3.org/Graphics/SVG/1.1/DTD/svg11.dtd">
<!-- Generated by graphviz version 2.40.1 (20161225.0304)
 -->
<!-- Title: dependencies Pages: 1 -->
<svg width="1878pt" height="211pt"
 viewBox="0.00 0.00 1878.00 211.00" xmlns="http://www.w3.org/2000/svg" xmlns:xlink="http://www.w3.org/1999/xlink">
<g id="graph0" class="graph" transform="scale(1 1) rotate(0) translate(4 207)">
<title>dependencies</title>
<polygon fill="#ffffff" stroke="transparent" points="-4,4 -4,-207 1874,-207 1874,4 -4,4"/>
<text text-anchor="start" x="914.0091" y="-42.4" font-family="sans-serif" font-weight="bold" font-size="14.00" fill="#000000">Legend</text>
<polygon fill="#ffffb3" stroke="transparent" points="701,-10 701,-30 721,-30 721,-10 701,-10"/>
<text text-anchor="start" x="724.629" y="-15.4" font-family="sans-serif" font-size="14.00" fill="#000000"> &#160;Declarations</text>
<polygon fill="#8dd3c7" stroke="transparent" points="814,-10 814,-30 834,-30 834,-10 814,-10"/>
<text text-anchor="start" x="837.7251" y="-15.4" font-family="sans-serif" font-size="14.00" fill="#000000"> &#160;Module</text>
<polygon fill="#80b1d3" stroke="transparent" points="900,-10 900,-30 920,-30 920,-10 900,-10"/>
<text text-anchor="start" x="923.7812" y="-15.4" font-family="sans-serif" font-size="14.00" fill="#000000"> &#160;Bootstrap</text>
<polygon fill="#fdb462" stroke="transparent" points="997,-10 997,-30 1017,-30 1017,-10 997,-10"/>
<text text-anchor="start" x="1020.6732" y="-15.4" font-family="sans-serif" font-size="14.00" fill="#000000"> &#160;Providers</text>
<polygon fill="#fb8072" stroke="transparent" points="1093,-10 1093,-30 1113,-30 1113,-10 1093,-10"/>
<text text-anchor="start" x="1116.7258" y="-15.4" font-family="sans-serif" font-size="14.00" fill="#000000"> &#160;Exports</text>
<g id="clust1" class="cluster">
<title>cluster_HetznerCloudDataModule</title>
<polygon fill="none" stroke="#000000" stroke-dasharray="1,5" points="8,-70 8,-195 1862,-195 1862,-70 8,-70"/>
</g>
<g id="clust6" class="cluster">
<title>cluster_HetznerCloudDataModule_providers</title>
<polygon fill="none" stroke="#000000" points="16,-78 16,-130 1854,-130 1854,-78 16,-78"/>
</g>
<!-- HetznerCloudMenuService -->
<g id="node1" class="node">
<title>HetznerCloudMenuService</title>
<ellipse fill="#fdb462" stroke="#000000" cx="1729" cy="-104" rx="116.875" ry="18"/>
<text text-anchor="middle" x="1729" y="-99.8" font-family="Times,serif" font-size="14.00" fill="#000000">HetznerCloudMenuService</text>
</g>
<!-- HetznerCloudDataModule -->
<g id="node11" class="node">
<title>HetznerCloudDataModule</title>
<polygon fill="#8dd3c7" stroke="#000000" points="970.0057,-187 967.0057,-191 946.0057,-191 943.0057,-187 805.9943,-187 805.9943,-151 970.0057,-151 970.0057,-187"/>
<text text-anchor="middle" x="888" y="-164.8" font-family="Times,serif" font-size="14.00" fill="#000000">HetznerCloudDataModule</text>
</g>
<!-- HetznerCloudMenuService&#45;&gt;HetznerCloudDataModule -->
<g id="edge1" class="edge">
<title>HetznerCloudMenuService&#45;&gt;HetznerCloudDataModule</title>
<path fill="none" stroke="#000000" d="M1729,-122.0109C1729,-144.4852 1729,-180 1729,-180 1729,-180 980.1699,-180 980.1699,-180"/>
<polygon fill="#000000" stroke="#000000" points="980.1699,-176.5001 970.1699,-180 980.1698,-183.5001 980.1699,-176.5001"/>
</g>
<!-- HetznerCloudDataService -->
<g id="node2" class="node">
<title>HetznerCloudDataService</title>
<ellipse fill="#fdb462" stroke="#000000" cx="1482" cy="-104" rx="112.2763" ry="18"/>
<text text-anchor="middle" x="1482" y="-99.8" font-family="Times,serif" font-size="14.00" fill="#000000">HetznerCloudDataService</text>
</g>
<!-- HetznerCloudDataService&#45;&gt;HetznerCloudDataModule -->
<g id="edge2" class="edge">
<title>HetznerCloudDataService&#45;&gt;HetznerCloudDataModule</title>
<path fill="none" stroke="#000000" d="M1482,-122.1289C1482,-142.5724 1482,-173 1482,-173 1482,-173 980.2811,-173 980.2811,-173"/>
<polygon fill="#000000" stroke="#000000" points="980.2811,-169.5001 970.2811,-173 980.2811,-176.5001 980.2811,-169.5001"/>
</g>
<!-- ServersService -->
<g id="node3" class="node">
<title>ServersService</title>
<ellipse fill="#fdb462" stroke="#000000" cx="1283" cy="-104" rx="68.8946" ry="18"/>
<text text-anchor="middle" x="1283" y="-99.8" font-family="Times,serif" font-size="14.00" fill="#000000">ServersService</text>
</g>
<!-- ServersService&#45;&gt;HetznerCloudDataModule -->
<g id="edge3" class="edge">
<title>ServersService&#45;&gt;HetznerCloudDataModule</title>
<path fill="none" stroke="#000000" d="M1283,-122.2667C1283,-140.5552 1283,-166 1283,-166 1283,-166 980.3241,-166 980.3241,-166"/>
<polygon fill="#000000" stroke="#000000" points="980.3242,-162.5001 970.3241,-166 980.3241,-169.5001 980.3242,-162.5001"/>
</g>
<!-- ProjectsService -->
<g id="node4" class="node">
<title>ProjectsService</title>
<ellipse fill="#fdb462" stroke="#000000" cx="1125" cy="-104" rx="71.1998" ry="18"/>
<text text-anchor="middle" x="1125" y="-99.8" font-family="Times,serif" font-size="14.00" fill="#000000">ProjectsService</text>
</g>
<!-- ProjectsService&#45;&gt;HetznerCloudDataModule -->
<g id="edge4" class="edge">
<title>ProjectsService&#45;&gt;HetznerCloudDataModule</title>
<path fill="none" stroke="#000000" d="M1125,-122.0091C1125,-138.0494 1125,-159 1125,-159 1125,-159 980.226,-159 980.226,-159"/>
<polygon fill="#000000" stroke="#000000" points="980.226,-155.5001 970.226,-159 980.2259,-162.5001 980.226,-155.5001"/>
</g>
<!-- PricingService -->
<g id="node5" class="node">
<title>PricingService</title>
<ellipse fill="#fdb462" stroke="#000000" cx="968" cy="-104" rx="67.7721" ry="18"/>
<text text-anchor="middle" x="968" y="-99.8" font-family="Times,serif" font-size="14.00" fill="#000000">PricingService</text>
</g>
<!-- PricingService&#45;&gt;HetznerCloudDataModule -->
<g id="edge5" class="edge">
<title>PricingService&#45;&gt;HetznerCloudDataModule</title>
<path fill="none" stroke="#000000" d="M935.1833,-120.0674C935.1833,-120.0674 935.1833,-140.8237 935.1833,-140.8237"/>
<polygon fill="#000000" stroke="#000000" points="931.6834,-140.8236 935.1833,-150.8237 938.6834,-140.8237 931.6834,-140.8236"/>
</g>
<!-- SshKeysService -->
<g id="node6" class="node">
<title>SshKeysService</title>
<ellipse fill="#fdb462" stroke="#000000" cx="808" cy="-104" rx="73.5734" ry="18"/>
<text text-anchor="middle" x="808" y="-99.8" font-family="Times,serif" font-size="14.00" fill="#000000">SshKeysService</text>
</g>
<!-- SshKeysService&#45;&gt;HetznerCloudDataModule -->
<g id="edge6" class="edge">
<title>SshKeysService&#45;&gt;HetznerCloudDataModule</title>
<path fill="none" stroke="#000000" d="M843.7669,-120.0674C843.7669,-120.0674 843.7669,-140.8237 843.7669,-140.8237"/>
<polygon fill="#000000" stroke="#000000" points="840.267,-140.8236 843.7669,-150.8237 847.267,-140.8237 840.267,-140.8236"/>
</g>
<!-- ImagesService -->
<g id="node7" class="node">
<title>ImagesService</title>
<ellipse fill="#fdb462" stroke="#000000" cx="648" cy="-104" rx="67.7529" ry="18"/>
<text text-anchor="middle" x="648" y="-99.8" font-family="Times,serif" font-size="14.00" fill="#000000">ImagesService</text>
</g>
<!-- ImagesService&#45;&gt;HetznerCloudDataModule -->
<g id="edge7" class="edge">
<title>ImagesService&#45;&gt;HetznerCloudDataModule</title>
<path fill="none" stroke="#000000" d="M648,-122.0091C648,-138.0494 648,-159 648,-159 648,-159 795.7414,-159 795.7414,-159"/>
<polygon fill="#000000" stroke="#000000" points="795.7414,-162.5001 805.7414,-159 795.7414,-155.5001 795.7414,-162.5001"/>
</g>
<!-- LocationsService -->
<g id="node8" class="node">
<title>LocationsService</title>
<ellipse fill="#fdb462" stroke="#000000" cx="484" cy="-104" rx="78.1462" ry="18"/>
<text text-anchor="middle" x="484" y="-99.8" font-family="Times,serif" font-size="14.00" fill="#000000">LocationsService</text>
</g>
<!-- LocationsService&#45;&gt;HetznerCloudDataModule -->
<g id="edge8" class="edge">
<title>LocationsService&#45;&gt;HetznerCloudDataModule</title>
<path fill="none" stroke="#000000" d="M484,-122.2667C484,-140.5552 484,-166 484,-166 484,-166 795.7576,-166 795.7576,-166"/>
<polygon fill="#000000" stroke="#000000" points="795.7577,-169.5001 805.7576,-166 795.7576,-162.5001 795.7577,-169.5001"/>
</g>
<!-- FloatingIpsService -->
<g id="node9" class="node">
<title>FloatingIpsService</title>
<ellipse fill="#fdb462" stroke="#000000" cx="304" cy="-104" rx="83.9643" ry="18"/>
<text text-anchor="middle" x="304" y="-99.8" font-family="Times,serif" font-size="14.00" fill="#000000">FloatingIpsService</text>
</g>
<!-- FloatingIpsService&#45;&gt;HetznerCloudDataModule -->
<g id="edge9" class="edge">
<title>FloatingIpsService&#45;&gt;HetznerCloudDataModule</title>
<path fill="none" stroke="#000000" d="M304,-122.1289C304,-142.5724 304,-173 304,-173 304,-173 795.8743,-173 795.8743,-173"/>
<polygon fill="#000000" stroke="#000000" points="795.8743,-176.5001 805.8743,-173 795.8742,-169.5001 795.8743,-176.5001"/>
</g>
<!-- ServerTypesService -->
<g id="node10" class="node">
<title>ServerTypesService</title>
<ellipse fill="#fdb462" stroke="#000000" cx="113" cy="-104" rx="88.5812" ry="18"/>
<text text-anchor="middle" x="113" y="-99.8" font-family="Times,serif" font-size="14.00" fill="#000000">ServerTypesService</text>
</g>
<!-- ServerTypesService&#45;&gt;HetznerCloudDataModule -->
<g id="edge10" class="edge">
<title>ServerTypesService&#45;&gt;HetznerCloudDataModule</title>
<path fill="none" stroke="#000000" d="M113,-122.0109C113,-144.4852 113,-180 113,-180 113,-180 795.7951,-180 795.7951,-180"/>
<polygon fill="#000000" stroke="#000000" points="795.7952,-183.5001 805.7951,-180 795.7951,-176.5001 795.7952,-183.5001"/>
</g>
</g>
</svg>
