<?xml version="1.0" encoding="UTF-8" standalone="no"?>
<!DOCTYPE svg PUBLIC "-//W3C//DTD SVG 1.1//EN"
 "http://www.w3.org/Graphics/SVG/1.1/DTD/svg11.dtd">
<!-- Generated by graphviz version 2.40.1 (20161225.0304)
 -->
<!-- Title: dependencies Pages: 1 -->
<svg width="1440pt" height="211pt"
 viewBox="0.00 0.00 1440.00 211.00" xmlns="http://www.w3.org/2000/svg" xmlns:xlink="http://www.w3.org/1999/xlink">
<g id="graph0" class="graph" transform="scale(1 1) rotate(0) translate(4 207)">
<title>dependencies</title>
<polygon fill="#ffffff" stroke="transparent" points="-4,4 -4,-207 1436,-207 1436,4 -4,4"/>
<text text-anchor="start" x="695.0091" y="-42.4" font-family="sans-serif" font-weight="bold" font-size="14.00" fill="#000000">Legend</text>
<polygon fill="#ffffb3" stroke="transparent" points="482,-10 482,-30 502,-30 502,-10 482,-10"/>
<text text-anchor="start" x="505.629" y="-15.4" font-family="sans-serif" font-size="14.00" fill="#000000"> &#160;Declarations</text>
<polygon fill="#8dd3c7" stroke="transparent" points="595,-10 595,-30 615,-30 615,-10 595,-10"/>
<text text-anchor="start" x="618.7251" y="-15.4" font-family="sans-serif" font-size="14.00" fill="#000000"> &#160;Module</text>
<polygon fill="#80b1d3" stroke="transparent" points="681,-10 681,-30 701,-30 701,-10 681,-10"/>
<text text-anchor="start" x="704.7812" y="-15.4" font-family="sans-serif" font-size="14.00" fill="#000000"> &#160;Bootstrap</text>
<polygon fill="#fdb462" stroke="transparent" points="778,-10 778,-30 798,-30 798,-10 778,-10"/>
<text text-anchor="start" x="801.6732" y="-15.4" font-family="sans-serif" font-size="14.00" fill="#000000"> &#160;Providers</text>
<polygon fill="#fb8072" stroke="transparent" points="874,-10 874,-30 894,-30 894,-10 874,-10"/>
<text text-anchor="start" x="897.7258" y="-15.4" font-family="sans-serif" font-size="14.00" fill="#000000"> &#160;Exports</text>
<g id="clust1" class="cluster">
<title>cluster_HetznerCloudDataModule</title>
<polygon fill="none" stroke="#000000" stroke-dasharray="1,5" points="8,-70 8,-195 1424,-195 1424,-70 8,-70"/>
</g>
<g id="clust6" class="cluster">
<title>cluster_HetznerCloudDataModule_providers</title>
<polygon fill="none" stroke="#000000" points="16,-78 16,-130 1416,-130 1416,-78 16,-78"/>
</g>
<!-- HetznerCloudDataService -->
<g id="node1" class="node">
<title>HetznerCloudDataService</title>
<ellipse fill="#fdb462" stroke="#000000" cx="1296" cy="-104" rx="112.2763" ry="18"/>
<text text-anchor="middle" x="1296" y="-99.8" font-family="Times,serif" font-size="14.00" fill="#000000">HetznerCloudDataService</text>
</g>
<!-- HetznerCloudDataModule -->
<g id="node9" class="node">
<title>HetznerCloudDataModule</title>
<polygon fill="#8dd3c7" stroke="#000000" points="784.0057,-187 781.0057,-191 760.0057,-191 757.0057,-187 619.9943,-187 619.9943,-151 784.0057,-151 784.0057,-187"/>
<text text-anchor="middle" x="702" y="-164.8" font-family="Times,serif" font-size="14.00" fill="#000000">HetznerCloudDataModule</text>
</g>
<!-- HetznerCloudDataService&#45;&gt;HetznerCloudDataModule -->
<g id="edge1" class="edge">
<title>HetznerCloudDataService&#45;&gt;HetznerCloudDataModule</title>
<path fill="none" stroke="#000000" d="M1296,-122.2921C1296,-144.2057 1296,-178 1296,-178 1296,-178 794.2811,-178 794.2811,-178"/>
<polygon fill="#000000" stroke="#000000" points="794.2811,-174.5001 784.2811,-178 794.2811,-181.5001 794.2811,-174.5001"/>
</g>
<!-- ServersService -->
<g id="node2" class="node">
<title>ServersService</title>
<ellipse fill="#fdb462" stroke="#000000" cx="1097" cy="-104" rx="68.8946" ry="18"/>
<text text-anchor="middle" x="1097" y="-99.8" font-family="Times,serif" font-size="14.00" fill="#000000">ServersService</text>
</g>
<!-- ServersService&#45;&gt;HetznerCloudDataModule -->
<g id="edge2" class="edge">
<title>ServersService&#45;&gt;HetznerCloudDataModule</title>
<path fill="none" stroke="#000000" d="M1097,-122.1061C1097,-141.3391 1097,-169 1097,-169 1097,-169 794.3241,-169 794.3241,-169"/>
<polygon fill="#000000" stroke="#000000" points="794.3242,-165.5001 784.3241,-169 794.3241,-172.5001 794.3242,-165.5001"/>
</g>
<!-- ProjectsService -->
<g id="node3" class="node">
<title>ProjectsService</title>
<ellipse fill="#fdb462" stroke="#000000" cx="939" cy="-104" rx="71.1998" ry="18"/>
<text text-anchor="middle" x="939" y="-99.8" font-family="Times,serif" font-size="14.00" fill="#000000">ProjectsService</text>
</g>
<!-- ProjectsService&#45;&gt;HetznerCloudDataModule -->
<g id="edge3" class="edge">
<title>ProjectsService&#45;&gt;HetznerCloudDataModule</title>
<path fill="none" stroke="#000000" d="M939,-122.027C939,-138.3976 939,-160 939,-160 939,-160 794.226,-160 794.226,-160"/>
<polygon fill="#000000" stroke="#000000" points="794.226,-156.5001 784.226,-160 794.2259,-163.5001 794.226,-156.5001"/>
</g>
<!-- PricingService -->
<g id="node4" class="node">
<title>PricingService</title>
<ellipse fill="#fdb462" stroke="#000000" cx="782" cy="-104" rx="67.7721" ry="18"/>
<text text-anchor="middle" x="782" y="-99.8" font-family="Times,serif" font-size="14.00" fill="#000000">PricingService</text>
</g>
<!-- PricingService&#45;&gt;HetznerCloudDataModule -->
<g id="edge4" class="edge">
<title>PricingService&#45;&gt;HetznerCloudDataModule</title>
<path fill="none" stroke="#000000" d="M749.1833,-120.0674C749.1833,-120.0674 749.1833,-140.8237 749.1833,-140.8237"/>
<polygon fill="#000000" stroke="#000000" points="745.6834,-140.8236 749.1833,-150.8237 752.6834,-140.8237 745.6834,-140.8236"/>
</g>
<!-- SshKeysService -->
<g id="node5" class="node">
<title>SshKeysService</title>
<ellipse fill="#fdb462" stroke="#000000" cx="622" cy="-104" rx="73.5734" ry="18"/>
<text text-anchor="middle" x="622" y="-99.8" font-family="Times,serif" font-size="14.00" fill="#000000">SshKeysService</text>
</g>
<!-- SshKeysService&#45;&gt;HetznerCloudDataModule -->
<g id="edge5" class="edge">
<title>SshKeysService&#45;&gt;HetznerCloudDataModule</title>
<path fill="none" stroke="#000000" d="M657.7669,-120.0674C657.7669,-120.0674 657.7669,-140.8237 657.7669,-140.8237"/>
<polygon fill="#000000" stroke="#000000" points="654.267,-140.8236 657.7669,-150.8237 661.267,-140.8237 654.267,-140.8236"/>
</g>
<!-- ImagesService -->
<g id="node6" class="node">
<title>ImagesService</title>
<ellipse fill="#fdb462" stroke="#000000" cx="462" cy="-104" rx="67.7529" ry="18"/>
<text text-anchor="middle" x="462" y="-99.8" font-family="Times,serif" font-size="14.00" fill="#000000">ImagesService</text>
</g>
<!-- ImagesService&#45;&gt;HetznerCloudDataModule -->
<g id="edge6" class="edge">
<title>ImagesService&#45;&gt;HetznerCloudDataModule</title>
<path fill="none" stroke="#000000" d="M462,-122.027C462,-138.3976 462,-160 462,-160 462,-160 609.7414,-160 609.7414,-160"/>
<polygon fill="#000000" stroke="#000000" points="609.7414,-163.5001 619.7414,-160 609.7414,-156.5001 609.7414,-163.5001"/>
</g>
<!-- LocationsService -->
<g id="node7" class="node">
<title>LocationsService</title>
<ellipse fill="#fdb462" stroke="#000000" cx="298" cy="-104" rx="78.1462" ry="18"/>
<text text-anchor="middle" x="298" y="-99.8" font-family="Times,serif" font-size="14.00" fill="#000000">LocationsService</text>
</g>
<!-- LocationsService&#45;&gt;HetznerCloudDataModule -->
<g id="edge7" class="edge">
<title>LocationsService&#45;&gt;HetznerCloudDataModule</title>
<path fill="none" stroke="#000000" d="M298,-122.1061C298,-141.3391 298,-169 298,-169 298,-169 609.7576,-169 609.7576,-169"/>
<polygon fill="#000000" stroke="#000000" points="609.7577,-172.5001 619.7576,-169 609.7576,-165.5001 609.7577,-172.5001"/>
</g>
<!-- ServerTypesService -->
<g id="node8" class="node">
<title>ServerTypesService</title>
<ellipse fill="#fdb462" stroke="#000000" cx="113" cy="-104" rx="88.5812" ry="18"/>
<text text-anchor="middle" x="113" y="-99.8" font-family="Times,serif" font-size="14.00" fill="#000000">ServerTypesService</text>
</g>
<!-- ServerTypesService&#45;&gt;HetznerCloudDataModule -->
<g id="edge8" class="edge">
<title>ServerTypesService&#45;&gt;HetznerCloudDataModule</title>
<path fill="none" stroke="#000000" d="M113,-122.2921C113,-144.2057 113,-178 113,-178 113,-178 609.7922,-178 609.7922,-178"/>
<polygon fill="#000000" stroke="#000000" points="609.7922,-181.5001 619.7922,-178 609.7922,-174.5001 609.7922,-181.5001"/>
</g>
</g>
</svg>
