<?xml version="1.0" encoding="UTF-8" standalone="no"?>
<!DOCTYPE svg PUBLIC "-//W3C//DTD SVG 1.1//EN"
 "http://www.w3.org/Graphics/SVG/1.1/DTD/svg11.dtd">
<!-- Generated by graphviz version 2.40.1 (20161225.0304)
 -->
<!-- Title: dependencies Pages: 1 -->
<svg width="508pt" height="211pt"
 viewBox="0.00 0.00 508.00 211.00" xmlns="http://www.w3.org/2000/svg" xmlns:xlink="http://www.w3.org/1999/xlink">
<g id="graph0" class="graph" transform="scale(1 1) rotate(0) translate(4 207)">
<title>dependencies</title>
<polygon fill="#ffffff" stroke="transparent" points="-4,4 -4,-207 504,-207 504,4 -4,4"/>
<text text-anchor="start" x="229.0091" y="-42.4" font-family="sans-serif" font-weight="bold" font-size="14.00" fill="#000000">Legend</text>
<polygon fill="#ffffb3" stroke="transparent" points="16,-10 16,-30 36,-30 36,-10 16,-10"/>
<text text-anchor="start" x="39.629" y="-15.4" font-family="sans-serif" font-size="14.00" fill="#000000"> &#160;Declarations</text>
<polygon fill="#8dd3c7" stroke="transparent" points="129,-10 129,-30 149,-30 149,-10 129,-10"/>
<text text-anchor="start" x="152.7251" y="-15.4" font-family="sans-serif" font-size="14.00" fill="#000000"> &#160;Module</text>
<polygon fill="#80b1d3" stroke="transparent" points="215,-10 215,-30 235,-30 235,-10 215,-10"/>
<text text-anchor="start" x="238.7812" y="-15.4" font-family="sans-serif" font-size="14.00" fill="#000000"> &#160;Bootstrap</text>
<polygon fill="#fdb462" stroke="transparent" points="312,-10 312,-30 332,-30 332,-10 312,-10"/>
<text text-anchor="start" x="335.6732" y="-15.4" font-family="sans-serif" font-size="14.00" fill="#000000"> &#160;Providers</text>
<polygon fill="#fb8072" stroke="transparent" points="408,-10 408,-30 428,-30 428,-10 408,-10"/>
<text text-anchor="start" x="431.7258" y="-15.4" font-family="sans-serif" font-size="14.00" fill="#000000"> &#160;Exports</text>
<g id="clust1" class="cluster">
<title>cluster_HetznerCloudDataModule</title>
<polygon fill="none" stroke="#000000" stroke-dasharray="1,5" points="8,-70 8,-195 492,-195 492,-70 8,-70"/>
</g>
<g id="clust6" class="cluster">
<title>cluster_HetznerCloudDataModule_providers</title>
<polygon fill="none" stroke="#000000" points="16,-78 16,-130 484,-130 484,-78 16,-78"/>
</g>
<!-- ServersService -->
<g id="node1" class="node">
<title>ServersService</title>
<ellipse fill="#fdb462" stroke="#000000" cx="407" cy="-104" rx="68.8946" ry="18"/>
<text text-anchor="middle" x="407" y="-99.8" font-family="Times,serif" font-size="14.00" fill="#000000">ServersService</text>
</g>
<!-- HetznerCloudDataModule -->
<g id="node4" class="node">
<title>HetznerCloudDataModule</title>
<polygon fill="#8dd3c7" stroke="#000000" points="331.0057,-187 328.0057,-191 307.0057,-191 304.0057,-187 166.9943,-187 166.9943,-151 331.0057,-151 331.0057,-187"/>
<text text-anchor="middle" x="249" y="-164.8" font-family="Times,serif" font-size="14.00" fill="#000000">HetznerCloudDataModule</text>
</g>
<!-- ServersService&#45;&gt;HetznerCloudDataModule -->
<g id="edge1" class="edge">
<title>ServersService&#45;&gt;HetznerCloudDataModule</title>
<path fill="none" stroke="#000000" d="M338.0275,-104C330.6013,-104 325.6762,-104 325.6762,-104 325.6762,-104 325.6762,-140.8939 325.6762,-140.8939"/>
<polygon fill="#000000" stroke="#000000" points="322.1763,-140.8938 325.6762,-150.8939 329.1763,-140.8939 322.1763,-140.8938"/>
</g>
<!-- ProjectsService -->
<g id="node2" class="node">
<title>ProjectsService</title>
<ellipse fill="#fdb462" stroke="#000000" cx="249" cy="-104" rx="71.1998" ry="18"/>
<text text-anchor="middle" x="249" y="-99.8" font-family="Times,serif" font-size="14.00" fill="#000000">ProjectsService</text>
</g>
<!-- ProjectsService&#45;&gt;HetznerCloudDataModule -->
<g id="edge2" class="edge">
<title>ProjectsService&#45;&gt;HetznerCloudDataModule</title>
<path fill="none" stroke="#000000" d="M249,-122.1061C249,-122.1061 249,-140.991 249,-140.991"/>
<polygon fill="#000000" stroke="#000000" points="245.5001,-140.9909 249,-150.991 252.5001,-140.991 245.5001,-140.9909"/>
</g>
<!-- PricingService -->
<g id="node3" class="node">
<title>PricingService</title>
<ellipse fill="#fdb462" stroke="#000000" cx="92" cy="-104" rx="67.7721" ry="18"/>
<text text-anchor="middle" x="92" y="-99.8" font-family="Times,serif" font-size="14.00" fill="#000000">PricingService</text>
</g>
<!-- PricingService&#45;&gt;HetznerCloudDataModule -->
<g id="edge3" class="edge">
<title>PricingService&#45;&gt;HetznerCloudDataModule</title>
<path fill="none" stroke="#000000" d="M160.1244,-104C167.4593,-104 172.3238,-104 172.3238,-104 172.3238,-104 172.3238,-140.8939 172.3238,-140.8939"/>
<polygon fill="#000000" stroke="#000000" points="168.8239,-140.8938 172.3238,-150.8939 175.8239,-140.8939 168.8239,-140.8938"/>
</g>
</g>
</svg>
