<?xml version="1.0" encoding="UTF-8" standalone="no"?>
<!DOCTYPE svg PUBLIC "-//W3C//DTD SVG 1.1//EN"
 "http://www.w3.org/Graphics/SVG/1.1/DTD/svg11.dtd">
<!-- Generated by graphviz version 2.40.1 (20161225.0304)
 -->
<!-- Title: dependencies Pages: 1 -->
<svg width="504pt" height="284pt"
 viewBox="0.00 0.00 504.00 284.00" xmlns="http://www.w3.org/2000/svg" xmlns:xlink="http://www.w3.org/1999/xlink">
<g id="graph0" class="graph" transform="scale(1 1) rotate(0) translate(4 280)">
<title>dependencies</title>
<polygon fill="#ffffff" stroke="transparent" points="-4,4 -4,-280 500,-280 500,4 -4,4"/>
<text text-anchor="start" x="227.0091" y="-42.4" font-family="sans-serif" font-weight="bold" font-size="14.00" fill="#000000">Legend</text>
<polygon fill="#ffffb3" stroke="transparent" points="14,-10 14,-30 34,-30 34,-10 14,-10"/>
<text text-anchor="start" x="37.629" y="-15.4" font-family="sans-serif" font-size="14.00" fill="#000000"> &#160;Declarations</text>
<polygon fill="#8dd3c7" stroke="transparent" points="127,-10 127,-30 147,-30 147,-10 127,-10"/>
<text text-anchor="start" x="150.7251" y="-15.4" font-family="sans-serif" font-size="14.00" fill="#000000"> &#160;Module</text>
<polygon fill="#80b1d3" stroke="transparent" points="213,-10 213,-30 233,-30 233,-10 213,-10"/>
<text text-anchor="start" x="236.7812" y="-15.4" font-family="sans-serif" font-size="14.00" fill="#000000"> &#160;Bootstrap</text>
<polygon fill="#fdb462" stroke="transparent" points="310,-10 310,-30 330,-30 330,-10 310,-10"/>
<text text-anchor="start" x="333.6732" y="-15.4" font-family="sans-serif" font-size="14.00" fill="#000000"> &#160;Providers</text>
<polygon fill="#fb8072" stroke="transparent" points="406,-10 406,-30 426,-30 426,-10 406,-10"/>
<text text-anchor="start" x="429.7258" y="-15.4" font-family="sans-serif" font-size="14.00" fill="#000000"> &#160;Exports</text>
<g id="clust1" class="cluster">
<title>cluster_PipesModule</title>
<polygon fill="none" stroke="#000000" stroke-dasharray="1,5" points="63,-70 63,-268 433,-268 433,-70 63,-70"/>
</g>
<g id="clust2" class="cluster">
<title>cluster_PipesModule_declarations</title>
<polygon fill="none" stroke="#000000" points="76,-78 76,-130 420,-130 420,-78 76,-78"/>
</g>
<g id="clust7" class="cluster">
<title>cluster_PipesModule_exports</title>
<polygon fill="none" stroke="#000000" points="71,-208 71,-260 425,-260 425,-208 71,-208"/>
</g>
<!-- FileSizePipe -->
<g id="node1" class="node">
<title>FileSizePipe</title>
<polygon fill="#ffffb3" stroke="#000000" points="412.2689,-122 325.7311,-122 325.7311,-86 412.2689,-86 412.2689,-122"/>
<text text-anchor="middle" x="369" y="-99.8" font-family="Times,serif" font-size="14.00" fill="#000000">FileSizePipe</text>
</g>
<!-- PipesModule -->
<g id="node4" class="node">
<title>PipesModule</title>
<polygon fill="#8dd3c7" stroke="#000000" points="294.8823,-187 291.8823,-191 270.8823,-191 267.8823,-187 205.1177,-187 205.1177,-151 294.8823,-151 294.8823,-187"/>
<text text-anchor="middle" x="250" y="-164.8" font-family="Times,serif" font-size="14.00" fill="#000000">PipesModule</text>
</g>
<!-- FileSizePipe&#45;&gt;PipesModule -->
<g id="edge1" class="edge">
<title>FileSizePipe&#45;&gt;PipesModule</title>
<path fill="none" stroke="#000000" d="M383.8781,-122.0225C383.8781,-139.3734 383.8781,-163 383.8781,-163 383.8781,-163 304.9519,-163 304.9519,-163"/>
<polygon fill="#000000" stroke="#000000" points="304.9519,-159.5001 294.9519,-163 304.9519,-166.5001 304.9519,-159.5001"/>
</g>
<!-- PriceReplacePipe -->
<g id="node2" class="node">
<title>PriceReplacePipe</title>
<polygon fill="#ffffb3" stroke="#000000" points="307.2367,-122 192.7633,-122 192.7633,-86 307.2367,-86 307.2367,-122"/>
<text text-anchor="middle" x="250" y="-99.8" font-family="Times,serif" font-size="14.00" fill="#000000">PriceReplacePipe</text>
</g>
<!-- PriceReplacePipe&#45;&gt;PipesModule -->
<g id="edge2" class="edge">
<title>PriceReplacePipe&#45;&gt;PipesModule</title>
<path fill="none" stroke="#000000" d="M250,-122.1061C250,-122.1061 250,-140.991 250,-140.991"/>
<polygon fill="#000000" stroke="#000000" points="246.5001,-140.9909 250,-150.991 253.5001,-140.991 246.5001,-140.9909"/>
</g>
<!-- TruncatePipe -->
<g id="node3" class="node">
<title>TruncatePipe</title>
<polygon fill="#ffffb3" stroke="#000000" points="174.1361,-122 83.8639,-122 83.8639,-86 174.1361,-86 174.1361,-122"/>
<text text-anchor="middle" x="129" y="-99.8" font-family="Times,serif" font-size="14.00" fill="#000000">TruncatePipe</text>
</g>
<!-- TruncatePipe&#45;&gt;PipesModule -->
<g id="edge3" class="edge">
<title>TruncatePipe&#45;&gt;PipesModule</title>
<path fill="none" stroke="#000000" d="M143.2726,-122.0225C143.2726,-139.3734 143.2726,-163 143.2726,-163 143.2726,-163 195.0473,-163 195.0473,-163"/>
<polygon fill="#000000" stroke="#000000" points="195.0473,-166.5001 205.0473,-163 195.0473,-159.5001 195.0473,-166.5001"/>
</g>
<!-- FileSizePipe  -->
<g id="node5" class="node">
<title>FileSizePipe </title>
<polygon fill="#fb8072" stroke="#000000" points="417.269,-252 326.731,-252 326.731,-216 417.269,-216 417.269,-252"/>
<text text-anchor="middle" x="372" y="-229.8" font-family="Times,serif" font-size="14.00" fill="#000000">FileSizePipe </text>
</g>
<!-- PipesModule&#45;&gt;FileSizePipe  -->
<g id="edge4" class="edge">
<title>PipesModule&#45;&gt;FileSizePipe </title>
<path fill="none" stroke="#000000" stroke-dasharray="5,2" d="M294.9928,-175C323.6326,-175 355.3719,-175 355.3719,-175 355.3719,-175 355.3719,-205.9775 355.3719,-205.9775"/>
<polygon fill="#000000" stroke="#000000" points="351.872,-205.9774 355.3719,-215.9775 358.872,-205.9775 351.872,-205.9774"/>
</g>
<!-- PriceReplacePipe  -->
<g id="node6" class="node">
<title>PriceReplacePipe </title>
<polygon fill="#fb8072" stroke="#000000" points="309.2366,-252 190.7634,-252 190.7634,-216 309.2366,-216 309.2366,-252"/>
<text text-anchor="middle" x="250" y="-229.8" font-family="Times,serif" font-size="14.00" fill="#000000">PriceReplacePipe </text>
</g>
<!-- PipesModule&#45;&gt;PriceReplacePipe  -->
<g id="edge5" class="edge">
<title>PipesModule&#45;&gt;PriceReplacePipe </title>
<path fill="none" stroke="#000000" stroke-dasharray="5,2" d="M250,-187.1061C250,-187.1061 250,-205.991 250,-205.991"/>
<polygon fill="#000000" stroke="#000000" points="246.5001,-205.9909 250,-215.991 253.5001,-205.991 246.5001,-205.9909"/>
</g>
<!-- TruncatePipe  -->
<g id="node7" class="node">
<title>TruncatePipe </title>
<polygon fill="#fb8072" stroke="#000000" points="173.1355,-252 78.8645,-252 78.8645,-216 173.1355,-216 173.1355,-252"/>
<text text-anchor="middle" x="126" y="-229.8" font-family="Times,serif" font-size="14.00" fill="#000000">TruncatePipe </text>
</g>
<!-- PipesModule&#45;&gt;TruncatePipe  -->
<g id="edge6" class="edge">
<title>PipesModule&#45;&gt;TruncatePipe </title>
<path fill="none" stroke="#000000" stroke-dasharray="5,2" d="M204.919,-175C165.153,-175 113.4774,-175 113.4774,-175 113.4774,-175 113.4774,-205.9775 113.4774,-205.9775"/>
<polygon fill="#000000" stroke="#000000" points="109.9775,-205.9774 113.4774,-215.9775 116.9775,-205.9775 109.9775,-205.9774"/>
</g>
</g>
</svg>
