<?xml version="1.0" encoding="UTF-8" standalone="no"?>
<!DOCTYPE svg PUBLIC "-//W3C//DTD SVG 1.1//EN"
 "http://www.w3.org/Graphics/SVG/1.1/DTD/svg11.dtd">
<!-- Generated by graphviz version 2.40.1 (20161225.0304)
 -->
<!-- Title: dependencies Pages: 1 -->
<svg width="504pt" height="284pt"
 viewBox="0.00 0.00 504.00 284.00" xmlns="http://www.w3.org/2000/svg" xmlns:xlink="http://www.w3.org/1999/xlink">
<g id="graph0" class="graph" transform="scale(1 1) rotate(0) translate(4 280)">
<title>dependencies</title>
<polygon fill="#ffffff" stroke="transparent" points="-4,4 -4,-280 500,-280 500,4 -4,4"/>
<text text-anchor="start" x="227.0091" y="-42.4" font-family="sans-serif" font-weight="bold" font-size="14.00" fill="#000000">Legend</text>
<polygon fill="#ffffb3" stroke="transparent" points="14,-10 14,-30 34,-30 34,-10 14,-10"/>
<text text-anchor="start" x="37.629" y="-15.4" font-family="sans-serif" font-size="14.00" fill="#000000"> &#160;Declarations</text>
<polygon fill="#8dd3c7" stroke="transparent" points="127,-10 127,-30 147,-30 147,-10 127,-10"/>
<text text-anchor="start" x="150.7251" y="-15.4" font-family="sans-serif" font-size="14.00" fill="#000000"> &#160;Module</text>
<polygon fill="#80b1d3" stroke="transparent" points="213,-10 213,-30 233,-30 233,-10 213,-10"/>
<text text-anchor="start" x="236.7812" y="-15.4" font-family="sans-serif" font-size="14.00" fill="#000000"> &#160;Bootstrap</text>
<polygon fill="#fdb462" stroke="transparent" points="310,-10 310,-30 330,-30 330,-10 310,-10"/>
<text text-anchor="start" x="333.6732" y="-15.4" font-family="sans-serif" font-size="14.00" fill="#000000"> &#160;Providers</text>
<polygon fill="#fb8072" stroke="transparent" points="406,-10 406,-30 426,-30 426,-10 406,-10"/>
<text text-anchor="start" x="429.7258" y="-15.4" font-family="sans-serif" font-size="14.00" fill="#000000"> &#160;Exports</text>
<g id="clust1" class="cluster">
<title>cluster_PipesModule</title>
<polygon fill="none" stroke="#000000" stroke-dasharray="1,5" points="119,-70 119,-268 377,-268 377,-70 119,-70"/>
</g>
<g id="clust2" class="cluster">
<title>cluster_PipesModule_declarations</title>
<polygon fill="none" stroke="#000000" points="131,-78 131,-130 366,-130 366,-78 131,-78"/>
</g>
<g id="clust6" class="cluster">
<title>cluster_PipesModule_exports</title>
<polygon fill="none" stroke="#000000" points="127,-208 127,-260 369,-260 369,-208 127,-208"/>
</g>
<!-- FileSizePipe -->
<g id="node1" class="node">
<title>FileSizePipe</title>
<polygon fill="#ffffb3" stroke="#000000" points="358.2689,-122 271.7311,-122 271.7311,-86 358.2689,-86 358.2689,-122"/>
<text text-anchor="middle" x="315" y="-99.8" font-family="Times,serif" font-size="14.00" fill="#000000">FileSizePipe</text>
</g>
<!-- PipesModule -->
<g id="node3" class="node">
<title>PipesModule</title>
<polygon fill="#8dd3c7" stroke="#000000" points="241.8823,-187 238.8823,-191 217.8823,-191 214.8823,-187 152.1177,-187 152.1177,-151 241.8823,-151 241.8823,-187"/>
<text text-anchor="middle" x="197" y="-164.8" font-family="Times,serif" font-size="14.00" fill="#000000">PipesModule</text>
</g>
<!-- FileSizePipe&#45;&gt;PipesModule -->
<g id="edge1" class="edge">
<title>FileSizePipe&#45;&gt;PipesModule</title>
<path fill="none" stroke="#000000" d="M329.4614,-122.0225C329.4614,-139.3734 329.4614,-163 329.4614,-163 329.4614,-163 252.2152,-163 252.2152,-163"/>
<polygon fill="#000000" stroke="#000000" points="252.2153,-159.5001 242.2152,-163 252.2152,-166.5001 252.2153,-159.5001"/>
</g>
<!-- PriceReplacePipe -->
<g id="node2" class="node">
<title>PriceReplacePipe</title>
<polygon fill="#ffffb3" stroke="#000000" points="253.2367,-122 138.7633,-122 138.7633,-86 253.2367,-86 253.2367,-122"/>
<text text-anchor="middle" x="196" y="-99.8" font-family="Times,serif" font-size="14.00" fill="#000000">PriceReplacePipe</text>
</g>
<!-- PriceReplacePipe&#45;&gt;PipesModule -->
<g id="edge2" class="edge">
<title>PriceReplacePipe&#45;&gt;PipesModule</title>
<path fill="none" stroke="#000000" d="M197,-122.1061C197,-122.1061 197,-140.991 197,-140.991"/>
<polygon fill="#000000" stroke="#000000" points="193.5001,-140.9909 197,-150.991 200.5001,-140.991 193.5001,-140.9909"/>
</g>
<!-- FileSizePipe  -->
<g id="node4" class="node">
<title>FileSizePipe </title>
<polygon fill="#fb8072" stroke="#000000" points="361.269,-252 270.731,-252 270.731,-216 361.269,-216 361.269,-252"/>
<text text-anchor="middle" x="316" y="-229.8" font-family="Times,serif" font-size="14.00" fill="#000000">FileSizePipe </text>
</g>
<!-- PipesModule&#45;&gt;FileSizePipe  -->
<g id="edge3" class="edge">
<title>PipesModule&#45;&gt;FileSizePipe </title>
<path fill="none" stroke="#000000" stroke-dasharray="5,2" d="M242.1123,-175C270.0138,-175 300.5386,-175 300.5386,-175 300.5386,-175 300.5386,-205.9775 300.5386,-205.9775"/>
<polygon fill="#000000" stroke="#000000" points="297.0387,-205.9774 300.5386,-215.9775 304.0387,-205.9775 297.0387,-205.9774"/>
</g>
<!-- PriceReplacePipe  -->
<g id="node5" class="node">
<title>PriceReplacePipe </title>
<polygon fill="#fb8072" stroke="#000000" points="253.2366,-252 134.7634,-252 134.7634,-216 253.2366,-216 253.2366,-252"/>
<text text-anchor="middle" x="194" y="-229.8" font-family="Times,serif" font-size="14.00" fill="#000000">PriceReplacePipe </text>
</g>
<!-- PipesModule&#45;&gt;PriceReplacePipe  -->
<g id="edge4" class="edge">
<title>PipesModule&#45;&gt;PriceReplacePipe </title>
<path fill="none" stroke="#000000" stroke-dasharray="5,2" d="M197,-187.1061C197,-187.1061 197,-205.991 197,-205.991"/>
<polygon fill="#000000" stroke="#000000" points="193.5001,-205.9909 197,-215.991 200.5001,-205.991 193.5001,-205.9909"/>
</g>
</g>
</svg>
