<svg xmlns="http://www.w3.org/2000/svg"
     style="display: none;">

  <symbol id="options"
          viewBox="0 0 28 6">
    <title>Options Icon</title>
    <rect height="6"
          rx="3"
          width="6"/>
    <rect height="6"
          rx="3"
          width="6"
          x="11"/>
    <rect height="6"
          rx="3"
          width="6"
          x="22"/>
  </symbol>
  <symbol id="lock" viewBox="0 0 13 16">
    <title>Lock Icon</title>
    <path class="lock-body"
          d="M6.06 11.244l-1.033 2.33H8.06l-.968-2.34a1.277 1.277 0 1 0-1.032.01zM.953 6.28h11.094c.383 0 .693.31.693.693v8.32c0 .383-.31.694-.693.694H.953a.693.693 0 0 1-.693-.694v-8.32c0-.383.31-.693.693-.693z"></path>
    <path class="lock-bolt ng-trigger ng-trigger-lock-bolt"
          d="M9.535 15.2V4.897a2.952 2.952 0 0 0-5.904 0v1.824H1.82V4.696a4.696 4.696 0 0 1 9.392 0V15.2H9.535z"
          style="transform: translateY(0px);"></path>
  </symbol>
  <symbol id="logo-hetzner"
          viewBox="0 0 170 33">
    <title>Hetzner Logo</title>
    <path fill="#D50C2D"
          d="M142 15.7c.6 0 1.2.5 1.2 1.2v2.2c0 .6-.5 1.2-1.2 1.2h-18.7c-.6 0-1.2-.5-1.2-1.2V1.2c0-.6.5-1.2 1.2-1.2H142c.6 0 1.2.5 1.2 1.2v2.2c0 .6-.5 1.2-1.2 1.2h-15.2v3.3H139c.6 0 1.2.5 1.2 1.2v2.2c0 .6-.5 1.2-1.2 1.2h-12.2v3.3l15.2-.1zM20.9 0h-2.3c-.6 0-1.2.5-1.2 1.2v6.6H4.7V1.1C4.7.5 4.2 0 3.5 0H1.2C.5 0 0 .5 0 1.2v18c0 .6.5 1.2 1.2 1.2h2.3c.6 0 1.2-.5 1.2-1.2v-6.7h12.8v6.7c0 .6.5 1.2 1.2 1.2H21c.6 0 1.2-.5 1.2-1.2v-18C22.1.5 21.6 0 20.9 0zM45 15.7H29.8v-3.3H42c.6 0 1.2-.5 1.2-1.2V9c0-.6-.5-1.2-1.2-1.2H29.8V4.6H45c.6 0 1.2-.5 1.2-1.2V1.2C46.2.5 45.7 0 45 0H26.3c-.6 0-1.2.5-1.2 1.2v17.9c0 .6.5 1.2 1.2 1.2H45c.6 0 1.2-.5 1.2-1.2v-2.2c0-.7-.5-1.2-1.2-1.2zM69.2 0H49.8c-.6 0-1.2.5-1.2 1.2v2.2c0 .6.5 1.2 1.2 1.2h7.4v14.5c0 .6.5 1.2 1.2 1.2h2.5c.6 0 1.2-.5 1.2-1.2V4.6h7.2c.6 0 1.2-.5 1.2-1.2V1.2C70.3.6 69.8 0 69.2 0zm24.2 15.6h-13L93.2 4.4c.5-.4.9-1.3.9-1.9V1.2c0-.6-.5-1.2-1.2-1.2H74c-.6 0-1.2.5-1.2 1.2v2.2c0 .6.5 1.2 1.2 1.2h12.2c-.2.1-12.7 11.1-12.7 11.1-.5.4-.9 1.3-.9 1.9v1.5c0 .6.5 1.2 1.2 1.2h19.6c.6 0 1.2-.5 1.2-1.2v-2.3c0-.7-.6-1.2-1.2-1.2zm26.1-8.5v-.4c0-1.4-.4-2.6-1-3.7-1.2-1.8-2.8-2.8-4.9-3H98.2c-.7 0-1.2.5-1.2 1.2v17.9c0 .6.5 1.2 1.2 1.2h2.5c.6 0 1.1-.5 1.2-1.1V4.7h9.9c1.7 0 3.1 1.4 3.1 3.1v11.4c0 .6.5 1.2 1.2 1.2h2.4c.6 0 1.2-.5 1.2-1.2V7.1h-.2zm43.4 5.8c.2.2 6.5 6.6 6.5 6.6.4.5.3.8-.3.8H165c-.6 0-1.4-.4-1.8-.8l-5.3-5.3c-.4-.5-1.3-.8-2-.8h-5.4v5.8c0 .6-.5 1.2-1.2 1.2h-2.2c-.6 0-1.2-.5-1.2-1.2v-18c0-.6.5-1.2 1.2-1.2h14.8c2 .1 3.7 1.1 4.8 2.9.7 1.1 1 2.3 1 3.7 0 1.7-.5 3.1-1.5 4.4-.8 1.1-2 1.6-3.3 1.9zm.2-5.9v-.7c0-.9-.8-1.7-1.7-1.7h-11v4.1h11c1 0 1.7-.8 1.7-1.7z"
    />
    <path fill="#59595B"
          d="M0 31.8h94.6v1.1H0v-1.1zm152.9 0h16.7v1.1h-16.7v-1.1zm-53.2-6.6c-2 0-2.8.9-2.8 2.9V30c0 2.1.8 2.9 2.8 2.9h4.1c2 0 2.8-.9 2.8-2.9v-1.9c0-2.1-.8-2.9-2.8-2.9h-4.1zm-1.3 5.2v-2.7c0-.9.4-1.2 1.4-1.2h3.9c1 0 1.4.3 1.4 1.2v2.7c0 .9-.4 1.2-1.4 1.2h-3.9c-1 .1-1.4-.3-1.4-1.2zm18-5.1h1.5v7.6H116s-5.3-5.1-6.1-5.9v5.9h-1.5v-7.6h1.8s5.3 5.1 6.1 5.9c.1-1.1.1-5.9.1-5.9zm3.4 0h1.5v6.3h5.5v1.3h-7v-7.6zm8.3 0h1.5v7.6h-1.5v-7.6zm11.4 0h1.5v7.6h-1.8s-5.3-5.1-6.1-5.9v5.9h-1.5v-7.6h1.8s5.3 5.1 6.1 5.9v-5.9zm3.5 0h7.5v1.3h-6v1.7h5.8v1.3h-5.8v1.9h6.1v1.3H143v-7.5z"
    />
  </symbol>

  <symbol id="server" viewBox="0 0 23 18">
    <path d="M0 0v18h23V0H0zm2 7.4h18.9v3.2H2V7.4zm18.9 8.5H2v-3.2h18.9v3.2zM2 5.3V2.1h18.9v3.2H2z"/>
    <path
      d="M17.6 2.7c-.5 0-1 .4-1 1 0 .5.4 1 1 1 .5 0 1-.4 1-1 0-.5-.4-1-1-1zM17.6 8c-.5 0-1 .4-1 1 0 .5.4 1 1 1 .5 0 1-.4 1-1 0-.5-.4-1-1-1zM17.6 15.3c.5 0 1-.4 1-1 0-.5-.4-1-1-1-.5 0-1 .4-1 1s.5 1 1 1z"/>
  </symbol>

  <symbol id="key" viewBox="0 0 20 8">
    <path
      d="M20 2.9H7.7C7.2 1.2 5.7 0 3.9 0 1.8 0 0 1.8 0 3.9c0 2.2 1.8 3.9 3.9 3.9 2 0 3.6-1.4 3.9-3.3h8.8V8h1.7V4.6H20V2.9zM3.9 6.2c-1.3 0-2.3-1-2.3-2.3s1-2.3 2.3-2.3 2.3 1 2.3 2.3-1 2.3-2.3 2.3z"/>
  </symbol>

  <symbol id="server-illustration"
          viewBox="0 0 23 25">
    <path
      d="M19.2868098,17.6380368 L19.5935583,17.1779141 L22.047546,17.1779141 L22.047546,25 L19.5935583,25 L19.2868098,24.5398773 L2.7607362,24.5398773 L2.45398773,25 L0,25 L0,17.1395706 L2.45398773,17.1395706 L2.7607362,17.5996933 L19.3251534,17.5996933 L19.2868098,17.6380368 L19.2868098,17.6380368 Z M9.31748466,19.6702454 L9.31748466,20.5904908 L10.0843558,21.0506135 L10.851227,20.5904908 L10.851227,19.6702454 L10.0843558,19.2101227 L9.31748466,19.6702454 Z M11.6564417,19.6702454 L11.6564417,20.5904908 L12.4233129,21.0506135 L13.190184,20.5904908 L13.190184,19.6702454 L12.4233129,19.2101227 L11.6564417,19.6702454 Z M14.0337423,19.6702454 L14.0337423,20.5904908 L14.8006135,21.0506135 L15.5674847,20.5904908 L15.5674847,19.6702454 L14.8006135,19.2101227 L14.0337423,19.6702454 Z M16.4110429,19.6702454 L16.4110429,20.5904908 L17.1779141,21.0506135 L17.9447853,20.5904908 L17.9447853,19.6702454 L17.1779141,19.2101227 L16.4110429,19.6702454 Z M10.506135,21.5874233 L10.506135,22.5076687 L11.2730061,22.9677914 L12.0398773,22.5076687 L12.0398773,21.5874233 L11.2730061,21.1273006 L10.506135,21.5874233 Z M12.845092,21.5874233 L12.845092,22.5076687 L13.6119632,22.9677914 L14.3788344,22.5076687 L14.3788344,21.5874233 L13.6119632,21.1273006 L12.845092,21.5874233 Z M15.2223926,21.5874233 L15.2223926,22.5076687 L15.9892638,22.9677914 L16.756135,22.5076687 L16.756135,21.5874233 L15.9892638,21.1273006 L15.2223926,21.5874233 Z M17.5996933,21.5874233 L17.5996933,22.5076687 L18.3665644,22.9677914 L19.1334356,22.5076687 L19.1334356,21.5874233 L18.3665644,21.1273006 L17.5996933,21.5874233 Z M4.52453988,19.4018405 C3.60429448,19.4018405 2.87576687,20.1303681 2.87576687,21.0506135 C2.87576687,21.9708589 3.60429448,22.6993865 4.52453988,22.6993865 C5.44478528,22.6993865 6.17331288,21.9708589 6.17331288,21.0506135 C6.17331288,20.1303681 5.44478528,19.4018405 4.52453988,19.4018405 Z M4.52453988,21.9708589 C4.02607362,21.9708589 3.60429448,21.5490798 3.60429448,21.0506135 C3.60429448,20.5521472 4.02607362,20.1303681 4.52453988,20.1303681 C5.02300613,20.1303681 5.44478528,20.5521472 5.44478528,21.0506135 C5.44478528,21.5490798 5.02300613,21.9708589 4.52453988,21.9708589 Z M19.2868098,9.04907975 L19.5935583,8.58895706 L22.047546,8.58895706 L22.047546,16.4110429 L19.5935583,16.4110429 L19.2868098,15.9509202 L2.7607362,15.9509202 L2.45398773,16.4110429 L0,16.4110429 L0,8.58895706 L2.45398773,8.58895706 L2.7607362,9.04907975 L19.2868098,9.04907975 L19.2868098,9.04907975 Z M9.31748466,11.0812883 L9.31748466,12.0015337 L10.0843558,12.4616564 L10.851227,12.0015337 L10.851227,11.0812883 L10.0843558,10.6211656 L9.31748466,11.0812883 Z M11.6564417,11.0812883 L11.6564417,12.0015337 L12.4233129,12.4616564 L13.190184,12.0015337 L13.190184,11.0812883 L12.4233129,10.6211656 L11.6564417,11.0812883 Z M14.0337423,11.0812883 L14.0337423,12.0015337 L14.8006135,12.4616564 L15.5674847,12.0015337 L15.5674847,11.0812883 L14.8006135,10.6211656 L14.0337423,11.0812883 Z M16.4110429,11.0812883 L16.4110429,12.0015337 L17.1779141,12.4616564 L17.9447853,12.0015337 L17.9447853,11.0812883 L17.1779141,10.6211656 L16.4110429,11.0812883 Z M10.506135,12.9984663 L10.506135,13.9187117 L11.2730061,14.3788344 L12.0398773,13.9187117 L12.0398773,12.9984663 L11.2730061,12.5383436 L10.506135,12.9984663 Z M12.845092,12.9984663 L12.845092,13.9187117 L13.6119632,14.3788344 L14.3788344,13.9187117 L14.3788344,12.9984663 L13.6119632,12.5383436 L12.845092,12.9984663 Z M15.2223926,12.9984663 L15.2223926,13.9187117 L15.9892638,14.3788344 L16.756135,13.9187117 L16.756135,12.9984663 L15.9892638,12.5383436 L15.2223926,12.9984663 Z M17.5996933,12.9984663 L17.5996933,13.9187117 L18.3665644,14.3788344 L19.1334356,13.9187117 L19.1334356,12.9984663 L18.3665644,12.5383436 L17.5996933,12.9984663 Z M4.52453988,10.8128834 C3.60429448,10.8128834 2.87576687,11.541411 2.87576687,12.4616564 C2.87576687,13.3819018 3.60429448,14.1104294 4.52453988,14.1104294 C5.44478528,14.1104294 6.17331288,13.3819018 6.17331288,12.4616564 C6.17331288,11.541411 5.44478528,10.8128834 4.52453988,10.8128834 Z M4.52453988,13.3819018 C4.02607362,13.3819018 3.60429448,12.9601227 3.60429448,12.4616564 C3.60429448,11.9631902 4.02607362,11.541411 4.52453988,11.541411 C5.02300613,11.541411 5.44478528,11.9631902 5.44478528,12.4616564 C5.44478528,12.9984663 5.02300613,13.3819018 4.52453988,13.3819018 Z M19.2868098,0.460122699 L19.5935583,0 L22.047546,0 L22.047546,7.82208589 L19.5935583,7.82208589 L19.2868098,7.36196319 L2.7607362,7.36196319 L2.45398773,7.82208589 L0,7.82208589 L0,0 L2.45398773,0 L2.7607362,0.460122699 L19.2868098,0.460122699 Z M9.31748466,2.49233129 L9.31748466,3.41257669 L10.0843558,3.87269939 L10.851227,3.41257669 L10.851227,2.49233129 L10.0843558,2.03220859 L9.31748466,2.49233129 Z M11.6564417,2.49233129 L11.6564417,3.41257669 L12.4233129,3.87269939 L13.190184,3.41257669 L13.190184,2.49233129 L12.4233129,2.03220859 L11.6564417,2.49233129 Z M14.0337423,2.49233129 L14.0337423,3.41257669 L14.8006135,3.87269939 L15.5674847,3.41257669 L15.5674847,2.49233129 L14.8006135,2.03220859 L14.0337423,2.49233129 Z M16.4110429,2.49233129 L16.4110429,3.41257669 L17.1779141,3.87269939 L17.9447853,3.41257669 L17.9447853,2.49233129 L17.1779141,2.03220859 L16.4110429,2.49233129 Z M10.506135,4.4095092 L10.506135,5.3297546 L11.2730061,5.7898773 L12.0398773,5.3297546 L12.0398773,4.4095092 L11.2730061,3.9493865 L10.506135,4.4095092 Z M12.845092,4.4095092 L12.845092,5.3297546 L13.6119632,5.7898773 L14.3788344,5.3297546 L14.3788344,4.4095092 L13.6119632,3.9493865 L12.845092,4.4095092 Z M15.2223926,4.4095092 L15.2223926,5.3297546 L15.9892638,5.7898773 L16.756135,5.3297546 L16.756135,4.4095092 L15.9892638,3.9493865 L15.2223926,4.4095092 Z M17.5996933,4.4095092 L17.5996933,5.3297546 L18.3665644,5.7898773 L19.1334356,5.3297546 L19.1334356,4.4095092 L18.3665644,3.9493865 L17.5996933,4.4095092 Z M4.52453988,2.22392638 C3.60429448,2.22392638 2.87576687,2.95245399 2.87576687,3.87269939 C2.87576687,4.79294479 3.60429448,5.52147239 4.52453988,5.52147239 C5.44478528,5.52147239 6.17331288,4.79294479 6.17331288,3.87269939 C6.17331288,2.99079755 5.44478528,2.22392638 4.52453988,2.22392638 Z M4.52453988,4.83128834 C4.02607362,4.83128834 3.60429448,4.4095092 3.60429448,3.91104294 C3.60429448,3.41257669 4.02607362,2.99079755 4.52453988,2.99079755 C5.02300613,2.99079755 5.44478528,3.41257669 5.44478528,3.91104294 C5.44478528,4.4095092 5.02300613,4.83128834 4.52453988,4.83128834 Z"></path>
  </symbol>

  <symbol id="floating-ip-illustration"
          viewBox="0 0 78 82">
    <path
      d="M37.735.946c8.96 0 17.181 5.362 20.765 13.457 5.06 0 9.908 1.997 13.597 5.676 1.792 1.788 3.162 3.785 4.111 6.098.949 2.313 1.476 4.836 1.476 7.359 0 5.046-1.898 9.777-5.481 13.351-1.792 1.787-3.69 3.154-5.903 4.1-2.319.946-4.743 1.472-7.168 1.472h-43.11c-4.006 0-7.8-1.577-10.646-4.415C2.53 45.205.949 41.42.949 37.426s1.58-7.78 4.427-10.618c2.635-2.629 6.113-4.205 9.802-4.416.211-5.571 2.53-10.828 6.536-14.823C26.035 3.26 31.727.946 37.735.946zM35.385 39V24.781h-2.93V39h2.93zm5.644-5.01h2.569c1.686 0 3.006-.402 3.96-1.206.953-.804 1.43-1.902 1.43-3.296 0-.918-.218-1.736-.654-2.456-.436-.72-1.06-1.274-1.87-1.665-.81-.39-1.75-.586-2.818-.586H38.1V39h2.93v-5.01zm0-2.373v-4.463h2.686c.723.013 1.289.235 1.7.664.41.43.614.993.614 1.69 0 .677-.203 1.198-.61 1.562-.407.365-.998.547-1.773.547H41.03zM62.61 61.395l.844-1.262H70.2V81.58h-6.746l-.843-1.261H17.18l-.843 1.261H9.592V60.133h6.746l.843 1.262h45.43zm-27.405 5.572v2.523l2.109 1.261 2.108-1.261v-2.523l-2.108-1.262-2.109 1.262zm6.43 0v2.523l2.108 1.261 2.108-1.261v-2.523l-2.108-1.262-2.108 1.262zm6.64 0v2.523l2.109 1.261 2.108-1.261v-2.523l-2.108-1.262-2.108 1.262zm6.43 0v2.523l2.109 1.261 2.108-1.261v-2.523l-2.108-1.262-2.109 1.262zm-16.232 5.256v2.523l2.108 1.262 2.108-1.262v-2.523l-2.108-1.261-2.108 1.261zm6.43 0v2.523l2.108 1.262 2.108-1.262v-2.523l-2.108-1.261-2.108 1.261zm6.535 0v2.523l2.108 1.262 2.108-1.262v-2.523l-2.108-1.261-2.108 1.261zm6.535 0v2.523l2.108 1.262 2.108-1.262v-2.523l-2.108-1.261-2.108 1.261zM22.03 66.231c-2.53 0-4.533 1.997-4.533 4.52 0 2.523 2.003 4.52 4.533 4.52 2.53 0 4.532-1.997 4.532-4.52 0-2.523-2.003-4.52-4.532-4.52zm0 7.043c-1.37 0-2.53-1.156-2.53-2.523 0-1.366 1.16-2.523 2.53-2.523 1.37 0 2.53 1.157 2.53 2.523 0 1.472-1.16 2.523-2.53 2.523z"
    />
  </symbol>

  <symbol id="snapshot-illustration"
          viewBox="0 0 94 76">
    <circle cx="59.9"
            cy="34.1"
            r="33.8"
            fill="#f8f8f8"
            opacity=".4"/>
    <circle cx="59.9"
            cy="34.1"
            r="26.8"
            fill="#f8f8f8"
            opacity=".6"/>
    <circle cx="59.9"
            cy="34.1"
            r="20"
            fill="#f8f8f8"
            opacity=".8"/>
    <g transform="translate(0 12)">
      <path fill="#B8BDCC"
            d="M67.5 9.6h-12c-2.2-1-4.6-2.8-7.2-6 0 0-1.5-3.1-4.3-3.1H27.9c-2.8 0-4.3 3.1-4.3 3.1-2.6 3.2-5 5.1-7.2 6h-12C2.1 9.6.2 11.5.2 13.8V59c0 2.3 1.9 4.2 4.2 4.2h63.2c2.3 0 4.2-1.9 4.2-4.2V13.7c-.1-2.3-1.9-4.1-4.3-4.1zM35.9 52.7c-9 0-16.2-7.3-16.2-16.2 0-9 7.3-16.2 16.2-16.2 9 0 16.2 7.3 16.2 16.2.1 8.9-7.2 16.2-16.2 16.2zm24-25.4c-2.8 0-5.1-2.3-5.1-5.1S57 17 59.9 17c2.8 0 5.1 2.3 5.1 5.1s-2.3 5.2-5.1 5.2z"
      />
      <circle cx="35.9"
              cy="36.5"
              r="11"
              fill="#FFF"
              opacity=".5"/>
      <circle cx="59.9"
              cy="22.1"
              r="3.3"
              fill="#FFF"
              opacity=".5"/>
    </g>
  </symbol>


  <symbol id="backup-illustration"
          viewBox="0 0 76 89">
    <path d="M44.7 57.1L40.8 61 30 50.1V29h5.4v18.8z"/>
    <path d="M6.4 66L0 70.5c2.1 2.9 4.5 5.5 7.2 7.8l5-6C10 70.5 8.1 68.4 6.4 66z"
          opacity=".2"/>
    <path
      d="M36.4 80.3c-.8.1-1.5.1-2.3.1-3.2 0-6.4-.5-9.5-1.4v.1L22 86.4c3.9 1.2 7.9 1.8 12.1 1.8.9 0 1.9 0 2.8-.1l-.5-7.8z"

      opacity=".6"/>
    <path d="M14 74l-5 6c3.5 2.6 7.3 4.7 11.3 6.1l2.6-7.4C19.7 77.6 16.7 76 14 74z"
          opacity=".4"/>
    <path
      d="M50.3 77c-1.7.9-3.5 1.6-5.3 2.2-.6.2-1.2.4-1.8.5-.2 0-.4.1-.5.1-.4.1-.9.2-1.3.3-.2 0-.4.1-.6.1-.6.1-1.1.2-1.7.3H39v.1l.5 7.7c.5-.1 1-.1 1.5-.2.2 0 .5-.1.7-.1.4-.1.9-.2 1.3-.2l1.2-.3c.3-.1.6-.1 1-.2.7-.2 1.5-.4 2.2-.6 2.3-.7 4.5-1.6 6.6-2.7l-3.7-7z"

      opacity=".8"/>
    <path
      d="M73.8 33.5C66.9 11.5 43.3-.7 21.3 6.2c-1.5.5-2.9 1-4.3 1.6L9.9 0 1 27.4l28.2-6-6.6-7.3c.4-.1.7-.3 1.1-.4 17.9-5.6 37 4.3 42.7 22.2 4.8 15.4-1.8 31.6-15.1 39.5v.1l3.6 6.9c16.5-9.7 24.9-29.9 18.9-48.9z"
    />
  </symbol>

  <symbol id="project-illustration"
          viewBox="0 0 330 250">
    <path
      d="M1 8v234c0 4.418 3.582 8 8 8h284c4.418 0 8-3.582 8-8V38c0-4.418-3.582-8-8-8H134.314c-2.122 0-4.157-.843-5.657-2.343L103.343 2.343C101.843.843 99.808 0 97.686 0H9C4.582 0 1 3.582 1 8z"

      fill="#B3B9C6"/>
    <path
      d="M36.413 60h284.733c4.418 0 8 3.582 8 8 0 .42-.033.838-.1 1.25l-27.558 174c-.615 3.888-3.966 6.75-7.9 6.75H8.853c-4.418 0-8-3.582-8-8 0-.42.033-.838.1-1.25l27.558-174c.615-3.888 3.966-6.75 7.9-6.75z"

      fill="#BEC5D4"/>
  </symbol>

  <symbol id="network" viewBox="0 0 21 18">
    <path
      d="M21 6.6V0H0v6.6h9.5v5.7h-.7c-.6 0-1.1.5-1.1 1.1v.7H3.4V16h4.3v.7c0 .6.5 1.1 1.1 1.1h3.4c.6 0 1.1-.5 1.1-1.1V16h4.3v-1.9h-4.3v-.7c0-.6-.5-1.1-1.1-1.1h-.7V6.6H21zm-9.4 9.7H9.4v-2.2h2.2v2.2zM1.7 1.7h17.6v3.2H1.7V1.7z"/>
    <circle cx="16.5" cy="3.3" r="1"/>
  </symbol>

  <symbol id="disk" viewBox="0 0 18 18">
    <path
      d="M9 18c-4.9 0-9-4.1-9-9s4.1-9 9-9 9 4 9 9c0 4.9-4.1 9-9 9zM9 1.4C4.8 1.4 1.4 4.8 1.4 9s3.4 7.6 7.6 7.6 7.6-3.4 7.6-7.6S13.2 1.4 9 1.4z"/>
    <path
      d="M9 11.4c-1.4 0-2.4-1.1-2.4-2.4S7.7 6.6 9 6.6s2.4 1.1 2.4 2.4-1 2.4-2.4 2.4zm0-3.3c-.5 0-.9.4-.9.9s.4.9.9.9.9-.4.9-.9-.4-.9-.9-.9zm2.9-1.3c-.2 0-.3-.1-.5-.2-.3-.3-.3-.8 0-1l.9-.9c.3-.3.8-.3 1 0 .3.3.3.8 0 1l-.9.8c-.1.2-.3.3-.5.3zm-6.8 6.8c-.2 0-.3-.1-.5-.2-.3-.3-.3-.8 0-1l.9-.9c.3-.3.8-.3 1 0 .3.3.3.8 0 1l-.9.8c-.1.2-.3.3-.5.3z"/>
  </symbol>

  <symbol id="sitemap"
          viewBox="0 0 28 28">
    <path
      d="M28 19.5v5c0 0.8-0.7 1.5-1.5 1.5h-5c-0.8 0-1.5-0.7-1.5-1.5v-5c0-0.8 0.7-1.5 1.5-1.5h1.5v-3h-8v3h1.5c0.8 0 1.5 0.7 1.5 1.5v5c0 0.8-0.7 1.5-1.5 1.5h-5c-0.8 0-1.5-0.7-1.5-1.5v-5c0-0.8 0.7-1.5 1.5-1.5h1.5v-3h-8v3h1.5c0.8 0 1.5 0.7 1.5 1.5v5c0 0.8-0.7 1.5-1.5 1.5h-5c-0.8 0-1.5-0.7-1.5-1.5v-5c0-0.8 0.7-1.5 1.5-1.5h1.5v-3c0-1.1 0.9-2 2-2h8v-3h-1.5c-0.8 0-1.5-0.7-1.5-1.5v-5c0-0.8 0.7-1.5 1.5-1.5h5c0.8 0 1.5 0.7 1.5 1.5v5c0 0.8-0.7 1.5-1.5 1.5h-1.5v3h8c1.1 0 2 0.9 2 2v3h1.5c0.8 0 1.5 0.7 1.5 1.5z"
    />
  </symbol>

  <symbol id="thumbtack" viewBox="0 0 13 18">
    <path
      d="M13 12.5l-3-4.9.4-3.1h1.4V0H1.3v4.5h1.4L3 7.6l-3 4.9h5.7l.7 5.5h.4l.6-5.5H13zM2.8 1.5h7.4V3H2.8V1.5zm1.8 6.4l-.4-3.4h4.5l-.3 3.4 1.9 3H2.7l1.9-3z"/>
  </symbol>

  <symbol id="arrow-updown"
          viewBox="0 0 10 11">
    <title>Arrow Up/Down</title>
    <path fill="none"
          stroke-width="2"
          d="M1 7l4 4 4-4M9 4L5 0 1 4"/>
  </symbol>

  <symbol id="arrow-down"
          viewBox="0 0 10 7">
    <title>Arrow Down</title>
    <path fill="none"
          stroke-width="2"
          d="M1 1l4 4 4-4"/>
  </symbol>

  <symbol id="arrow-up"
          viewBox="0 0 10 7">
    <title>Arrow Up</title>
    <path fill="none"
          stroke-width="2"
          d="M8 5L4 1 0 5"/>
  </symbol>

  <symbol id="arrow-right"
          viewBox="0 0 13 10">
    <path d="M9.112 3.916L6.816 1.502 8.245 0 13 5l-4.755 5-1.429-1.502 2.296-2.414H0V3.916z"/>
  </symbol>

  <symbol id="clear"
          viewBox="0 0 24 24">
    <title>Clear Content</title>
    <path d="M19 6.41L17.59 5 12 10.59 6.41 5 5 6.41 10.59 12 5 17.59 6.41 19 12 13.41 17.59 19 19 17.59 13.41 12z"/>
  </symbol>

  <symbol id="bell" viewBox="0 0 20.5 22">
    <title>Notifications</title>
    <g stroke-width="1.7" fill="none" fill-rule="evenodd">
      <path
        d="M12.0010258 18.1941176H2.06365341c-.23735955-.062382-.45108535-.1895222-.64117745-.3814205C1.14082533 17.5283703 1 17.1916674 1 16.8025885c.37059295-.314256.70783253-.6434767 1.01171875-.9876618.30388622-.3441852.61889022-.7912518.94501202-1.3411998.3261218-.5499481.60221354-1.1429192.82827524-1.7789136.2260617-.6359943.41135817-1.4066698.55588942-2.31202639.14453125-.90535661.21679687-1.87805382.21679687-2.91809162 0-1.13730752.43359375-2.19418044 1.30078125-3.17061878.8671875-.97643836 2.00490787-1.56940954 3.41316104-1.77891355-.05929484-.14216344-.08894226-.28806802-.08894226-.43771375 0-.29929144.103766-.55368918.31129808-.7631932C9.70152242 1.104752 9.95352566 1 10.25 1s.54847758.104752.7560096.31425603c.2075321.209504.3112981.46390174.3112981.76319318 0 .14964573-.0296474.29555031-.0889423.43771375 1.4082532.20950401 2.5459735.80247519 3.413161 1.77891355.8671875.97643834 1.3007813 2.03331127 1.3007813 3.17061878 0 1.0400378.0722656 2.01273501.2167968 2.91809162.1445313.90535659.3298278 1.67603209.5558895 2.31202639.2260617.6359944.5021534 1.2289655.8282752 1.7789136.3261218.549948.6411258.9970146.945012 1.3411998.3038863.3441851.6411259.6734058 1.0117188.9876618 0 .3890789-.1408253.7257818-.422476 1.0101086-.1900921.1918983-.4038179.3190385-.6411774.3814205h-6.4353208z"/>
      <path
        d="M12.7529412 18.6294118c0 1.3231361-1.071883 2.3957499-2.39411767 2.3957499s-2.39411765-1.0726138-2.39411765-2.3957499"
        stroke-linecap="round"/>
    </g>
  </symbol>

  <symbol id="user" viewBox="0 0 16 18">
    <path
      d="M15.16,18a.84.84,0,0,1-.85-.82V15.36c0-1.47-2.23-2.71-4.88-2.71H6.57c-2.65,0-4.88,1.24-4.88,2.71v1.82A.84.84,0,0,1,.84,18,.83.83,0,0,1,0,17.18V15.36C0,12.92,2.89,11,6.57,11H9.43C13.12,11,16,12.92,16,15.36v1.82A.83.83,0,0,1,15.16,18Z"/>
    <path d="M8,1.69A3.31,3.31,0,1,1,4.69,5,3.31,3.31,0,0,1,8,1.69M8,0a5,5,0,1,0,5,5A5,5,0,0,0,8,0Z"/>
  </symbol>

  <symbol id="history"
          viewBox="0 0 24 24">
    <title>History</title>
    <path
      d="M11,7V12.11L15.71,14.9L16.5,13.62L12.5,11.25V7M12.5,2C8.97,2 5.91,3.92 4.27,6.77L2,4.5V11H8.5L5.75,8.25C6.96,5.73 9.5,4 12.5,4A7.5,7.5 0 0,1 20,11.5A7.5,7.5 0 0,1 12.5,19C9.23,19 6.47,16.91 5.44,14H3.34C4.44,18.03 8.11,21 12.5,21C17.74,21 22,16.75 22,11.5A9.5,9.5 0 0,0 12.5,2Z"
    />
  </symbol>

  <symbol id="sliders"
          viewBox="0 0 1000 1000">
    <title>Sliders</title>
    <g>
      <path
        d="M173.3,336.7C83.5,336.7,10,263.2,10,173.3C10,83.5,83.5,10,173.3,10c89.8,0,163.3,73.5,163.3,163.3C336.7,263.2,263.2,336.7,173.3,336.7z M173.3,91.7c-44.9,0-81.7,36.8-81.7,81.7c0,44.9,36.7,81.7,81.7,81.7c44.9,0,81.7-36.8,81.7-81.7C255,128.4,218.3,91.7,173.3,91.7z"
      />
      <path
        d="M663.3,663.3C573.5,663.3,500,589.8,500,500s73.5-163.3,163.3-163.3c89.8,0,163.3,73.5,163.3,163.3S753.2,663.3,663.3,663.3z M663.3,418.3c-44.9,0-81.7,36.7-81.7,81.7s36.8,81.7,81.7,81.7c44.9,0,81.7-36.7,81.7-81.7S708.3,418.3,663.3,418.3z"
      />
      <path
        d="M949.2,214.2H295.8c-24.5,0-40.8-16.3-40.8-40.8s16.3-40.8,40.8-40.8h653.3c24.5,0,40.8,16.3,40.8,40.8S973.7,214.2,949.2,214.2z"
      />
      <path
        d="M949.2,540.8H785.8c-24.5,0-40.8-16.3-40.8-40.8c0-24.5,16.3-40.8,40.8-40.8h163.3c24.5,0,40.8,16.3,40.8,40.8C990,524.5,973.7,540.8,949.2,540.8z"
      />
      <path
        d="M540.8,540.8h-490C26.3,540.8,10,524.5,10,500c0-24.5,16.3-40.8,40.8-40.8h490c24.5,0,40.8,16.3,40.8,40.8C581.7,524.5,565.3,540.8,540.8,540.8z"
      />
      <path
        d="M418.3,990C328.5,990,255,916.5,255,826.7c0-89.8,73.5-163.3,163.3-163.3c89.8,0,163.3,73.5,163.3,163.3C581.7,916.5,508.2,990,418.3,990z M418.3,745c-44.9,0-81.7,36.8-81.7,81.7c0,44.9,36.8,81.7,81.7,81.7c44.9,0,81.7-36.8,81.7-81.7C500,781.8,463.2,745,418.3,745z"
      />
      <path
        d="M949.2,867.5H540.8c-24.5,0-40.8-16.3-40.8-40.8c0-24.5,16.3-40.8,40.8-40.8h408.3c24.5,0,40.8,16.3,40.8,40.8C990,851.2,973.7,867.5,949.2,867.5z"
      />
      <path
        d="M295.8,867.5h-245c-24.5,0-40.8-16.3-40.8-40.8c0-24.5,16.3-40.8,40.8-40.8h245c24.5,0,40.8,16.3,40.8,40.8C336.7,851.2,320.3,867.5,295.8,867.5z"
      />
    </g>
  </symbol>
  <symbol id="check"
          viewBox="0 0 16 12">
    <title>Checkmark</title>
    <path d="M5.8839907 12L0 6.2088167l2.9187935-2.8739366 2.9651972 2.9187935L12.2382057 0l2.9203403 2.8723898"/>
  </symbol>

  <symbol id="exclamation"
          viewBox="0 0 4 20">
    <title>Exclamation Mark</title>
    <path d="M0 13V0h3.8711111v13H0zm0 6.36097V15h3.8699999v4.36097H0z"/>
  </symbol>

  <symbol id="info"
          viewBox="0 0 20 20">
    <title>Info Icon</title>
    <path
      d="M9 15h2V9H9v6zm1-15C4.48 0 0 4.48 0 10s4.48 10 10 10 10-4.48 10-10S15.52 0 10 0zm0 18c-4.41 0-8-3.59-8-8s3.59-8 8-8 8 3.59 8 8-3.59 8-8 8zM9 7h2V5H9v2z"
    />
  </symbol>

  <symbol id="running"
          viewBox="0 0 24 24">
    <title>Running</title>
    <path
      d="M12 4V1L8 5l4 4V6c3.31 0 6 2.69 6 6 0 1.01-.25 1.97-.7 2.8l1.46 1.46C19.54 15.03 20 13.57 20 12c0-4.42-3.58-8-8-8zm0 14c-3.31 0-6-2.69-6-6 0-1.01.25-1.97.7-2.8L5.24 7.74C4.46 8.97 4 10.43 4 12c0 4.42 3.58 8 8 8v3l4-4-4-4v3z"
    />
  </symbol>

  <symbol id="flag-FI"
          viewBox="0 0 83 50">
    <title>Finnish flag</title>
    <path fill="#FFF"
          d="M0 0h83v50H0z"/>
    <path fill="#222C8B"
          d="M22 18V0h14v18h47v14H36v18H22V32H0V18z"/>
  </symbol>

  <symbol id="flag-DE"
          viewBox="0 0 83 50">
    <title>German flag</title>
    <path fill="#FFF351"
          d="M0 33.3333333h83V50H0z"/>
    <path fill="#F36565"
          d="M0 16.6666667h83v16.6666667H0z"/>
    <path fill="#4B4040"
          d="M0 0h83v16.6666667H0z"/>
  </symbol>

  <symbol id="logo-debian"
          viewBox="0 0 41 50">
    <title>Debian Logo</title>
    <path
      d="M24.4092809 26.2830275c-.8278315.0114679.1566292.4247707 1.2373708.590367.2985168-.2321101.5693932-.4669725.8107865-.6954128-.6730449.1642201-1.3580674.1678899-2.0481573.1050458m4.4432022-1.1027523c.4929214-.6775229.8522472-1.419266.9789326-2.1862385-.1105618.546789-.4086179 1.0188073-.6891685 1.5169725-1.5474045.9701835-.145573-.5761468-.0009214-1.1637615-1.663955 2.0853211-.2284943 1.2504587-.2888427 1.8330275m1.6763371-4.2495413c.1085-1.4844036-.3185-1.0151376-.462-.4486238.1675.0798165.3 1.0463303.462.4486238M21.2702472.64174312c.4417865.086.9545168.152.8826517.2665.4832472-.115.5928876-.221-.8826517-.2665"
    />
    <path d="M22.1795618.88623853l-.339.07.3155-.028.0235-.042"/>
    <path
      d="M35.9288989 21.493578c.0492921 1.3330275-.3915731 1.9798165-.7891349 3.1247706l-.7154269.3559633c-.5855169 1.1321101.0566629.7188074-.3625506 1.6192661-.9139775.8091743-2.7737191 2.5321101-3.3689101 2.6894495-.4344157-.009633.2943708-.5105504.3897303-.7068807-1.2235505.8366972-.9816966 1.2559633-2.852955 1.7642202l-.0548202-.1211009c-4.6150337 2.1619266-11.0257753-2.1224771-10.9414719-7.9683487-.0492922.3711009-.140045.2784404-.2423147.4284404-.2381685-3.0077982 1.3949214-6.0288991 4.1492922-7.2623853 2.6940225-1.3279817 5.8524045-.7830275 7.7821685 1.0077981-1.0600112-1.3825688-3.1698989-2.8481651-5.6704382-2.7110091-2.4494045.0385321-4.7407977 1.5885321-5.5055168 3.2711009-1.2548764.7866972-1.4004495 3.0325688-1.9472697 3.443578-.7356966 5.3839449 1.3838652 7.7100917 4.9692921 10.4463302.5643259.3788991.1589326.4362386.2354045.7247707-1.1913033-.5555046-2.2821797-1.3940367-3.1791123-2.4206422.4758764.693578.9895281 1.3678899 1.6533595 1.8977064-1.1231236-.3788991-2.6235393-2.7100917-3.0616404-2.8050459 1.9362135 3.4518349 7.8554157 6.0536698 10.9548314 4.7628441-1.4340786.0527523-3.2560449.0293578-4.8674831-.5637615-.6767304-.346789-1.5971573-1.0651376-1.4326966-1.1995413 4.2299101 1.5733945 8.5994044 1.1917431 12.2594606-1.7298165.9310225-.7220183 1.948191-1.9504587 2.2421012-1.9674312-.4427079.662844.0755505.3188074-.264427.9041285.9277977-1.4899083-.4030899-.6064221.9591236-2.5729358l.5030562.6899082c-.1870337-1.2366972 1.542337-2.7385321 1.3668202-4.6944954.3966404-.5981651.4427079.643578.0216517 2.0197248.5841348-1.5266055.1538651-1.7720184.3040449-3.0316514.1621573.4233945.3749888.8733945.4841686 1.3201835-.3805169-1.4752294.3906516-2.4844037.5813707-3.3417431-.187955-.0830275-.5873595.6522936-.678573-1.090367.0133596-.7568807.2114494-.396789.2879214-.5830275-.1492585-.0853211-.5408315-.6655963-.779-1.7784404.1727528-.2614679.4615955.6779817.6965393.7165138-.1511011-.8848624-.411382-1.5596331-.4219775-2.2385321-.6864045-1.4284404-.2427753.1903669-.7997304-.6133028-.7306292-2.269266.6062472-.5266055.6965393-1.5577982 1.1074607 1.5977065 1.739045 4.0738533 2.028809 5.0995413-.2211236-1.2504587-.5786067-2.4619266-1.0148651-3.6339449.3362921.1408257-.5417528-2.5729358.4371797-.7756881C38.9357191 8.58073394 35.506 5.00091743 32.3508427 3.32110092c.3860449.35183486.8734382.79357798.698382.86284403-1.5690562-.93027523-1.2931123-1.0027523-1.5179213-1.39587156-1.2783708-.5178899-1.3622135.0417431-2.2089326.0009174-2.4093259-1.2724771-2.8736854-1.137156-5.0909101-1.9344037l.1008876.469266c-1.5962359-.5293578-1.8597416.20091743-3.5849663.00183486-.1050337-.08165137.552809-.29541284 1.0941011-.3738532-1.5432584.2027523-1.4709325-.3027523-2.9810224.0559633.3722247-.26009175.7656404-.4321101 1.1627415-.653211-1.2585618.07614677-3.0045168.7293578-2.465528.1353211-2.0527641.9119266-5.6985394 2.19220182-7.7443933 4.10229356l-.06449438-.42798166c-.9374719 1.1206422-4.08802248 3.346789-4.3390899 4.79816516l-.25060673.0582569c-.487854.82247705-.8034158 1.7545872-1.1903821 2.6009174-.6380337 1.0825688-.93516857.4165138-.84441577.5862386-1.2548764 2.5334862-1.8781685 4.6623853-2.4166966 6.4082568.38374157.571101.0092135 3.4380734.15432584 5.7325689C.2317191 35.6807339 8.8490899 46.6834862 18.2684944 49.2238532c1.3806404.4917431 3.4338652.4729358 5.1802809.5233945-2.0605955-.5866972-2.3268652-.3110092-4.3340225-1.0077982-1.4478989-.678899-1.7653034-1.4541284-2.790764-2.3403669l.4058539.7142202c-2.0113034-.7087156-1.1696517-.8770643-2.8059663-1.3931193l.4334944-.5637615c-.6518539-.0490826-1.7266068-1.0940367-2.0205169-1.672477l-.7131236.0279816c-.8568539-1.0527523-1.313382-1.8114679-1.2802134-2.3990826l-.2303371.4087156c-.26120227-.4463302-3.15239328-3.9481651-1.65243823-3.1330275-.27870786-.2536697-.64908988-.412844-1.05079775-1.1394495l.30542697-.3477065c-.7218765-.9247706-1.3285843-2.1100917-1.2825169-2.5050458.3851236.5178899.6523146.6146789.9167416.703211-1.8228877-4.5036697-1.9251573-.2481652-3.3057978-4.5844037l.2920674-.0233945c-.22388766-.3357798-.3597865-.7004587-.5399101-1.0582569l.12714603-1.2614679c-1.31246067-1.5110091-.3671573-6.4247706-.1778202-9.1197247.1312921-1.0958716 1.09548312-2.2623853 1.8288764-4.0917431l-.44685395-.0766055c.85408994-1.4834863 4.8766967-5.9577982 6.739663-5.72752298.9024607-1.12889908-.1792023-.00412844-.3556405-.2885321 1.9822809-2.04266056 2.6055731-1.44311928 3.9433708-1.81055047 1.4428315-.8527523-1.2382921.3325688-.554191-.32522936 2.4940899-.6344037 1.7676068-1.4422019 5.0213483-1.7642202.3432023.1944954-.7965056.3004587-1.0825842.5527523 2.0781011-1.0123854 6.5761236-.7821101 9.4977191.5619266 3.3901011 1.5775229 7.198955 6.2408257 7.3491348 10.6284404l.1709101.0458715c-.0866067 1.7440367.2681124 3.7610092-.346427 5.6137615l.4182922-.8770642"
    />
    <path
      d="M15.373618 27.4146789l-.1160899.5779817c.5440562.7357798.9757079 1.5330275 1.6704045 2.1082568-.4998315-.9715596-.8711348-1.3729357-1.5543146-2.6862385m1.2862022-.0504587c-.2879213-.3169725-.4583708-.6986239-.6490899-1.0788991.182427.6683486.5560337 1.2426606.9038427 1.8266055l-.2547528-.7477064m22.7591461-4.9256881l-.121618.3036697c-.2229663 1.5770643-.7043708 3.1376147-1.4423708 4.5844037.8153933-1.5266055 1.3428652-3.1963303 1.5639888-4.8880734M21.4337865.2685C21.9935056.046 22.8098202.1465 23.4036292 0c-.7739326.0705-1.5441798.1125-2.3047528.219l.3349101.0495M1.78373034 10.6509174c.12898876 1.1889909-.8983146 1.6504587.22757303.8665138.60348315-1.3536697-.23586517-.3738532-.22757303-.8665138M.46390317 16.1536697c.2815-.7926605.3325-1.2688073.44-1.7275229-.778.9123853-.358 1.1068807-.44 1.7275229"
    />
  </symbol>

  <symbol id="logo-ubuntu"
          viewBox="0 0 49 50">
    <title>Ubuntu Logo</title>
    <path
      d="M4.62048446 20.3802849C2.06814476 20.3802849 0 22.4484297 0 25.0007694c0 2.551363 2.06814476 4.6197519 4.62048446 4.6197519 2.551363 0 4.61975194-2.0683889 4.61975194-4.6197519 0-2.5525839-2.06814477-4.6204845-4.61975194-4.6204845zM37.6099573 41.3796457c-2.2100093 1.2758036-2.966457 4.1003961-1.6911418 6.3094287 1.2760478 2.2100092 4.1003961 2.9669453 6.3104053 1.6911417 2.2092768-1.2755594 2.9662129-4.1001519 1.6904093-6.309917-1.2755594-2.2090325-4.1003961-2.9662128-6.3096728-1.6906534zM14.6564805 25.0000368c0-4.566278 2.269099-8.5995266 5.7390406-11.0417443l-3.3778884-5.6582194c-4.0435038 2.7015293-7.051226 6.8314704-8.3006589 11.6685362 1.4594216 1.1896106 2.3919181 3.0011296 2.3919181 5.0319159 0 2.0302979-.9324965 3.841817-2.39216228 5.0311833 1.24918874 4.8375542 4.25715518 8.9674953 8.30065898 11.6687804l3.3781325-5.6587077c-3.4699416-2.4417294-5.7390406-6.4747338-5.7390406-11.0417444zm13.496659-13.496659c7.0509818 0 12.8347061 5.406233 13.4409875 12.2997233l6.5848558-.0962041c-.3240175-5.0895407-2.5472121-9.6599697-5.963924-13.0190568-1.7565801.6636621-3.7859013.5630628-5.5397955-.4497665-1.7560918-1.01380605-2.8580443-2.7239933-3.159842-4.57995177-1.7072572-.47247463-3.5041258-.73007708-5.3620377-.73007708-3.195247 0-6.213957.75009926-8.8954642 2.07840003l3.2098974 5.75271432c1.7280119-.8040614 3.6535597-1.2557814 5.6853227-1.2557814zm0 26.9935622c-2.0320072 0-3.9573108-.4517199-5.6855668-1.2557814l-3.2103858 5.7532027c2.6817514 1.3278124 5.7007055 2.0781559 8.8959526 2.0781559 1.8579118 0 3.6547805-.2576025 5.3622818-.7300771.3017977-1.8559585 1.4039944-3.5661457 3.1603303-4.5806843 1.7538942-1.012341 3.7832155-1.1129402 5.5397956-.449034 3.4164677-3.3593312 5.6396623-7.9297603 5.9631914-13.0193009l-6.5848557-.0962042C40.9880898 33.0916838 35.2041213 38.49694 28.1531395 38.49694zm9.4560852-29.8767562c2.2097651 1.27629194 5.0346018.51911167 6.309917-1.68992088 1.2760478-2.21000924.5196-5.03460175-1.6904092-6.3106495C40.0192116-.655946 37.1946191.1009901 35.9185713 2.31099932c-1.2755594 2.20903256-.5186233 5.03386925 1.6906534 6.3091845z"
    />
  </symbol>

  <symbol id="logo-fedora"
          viewBox="0 0 72 71">
    <g fill="none">
      <path fill="currentColor"
            d="M36.0227666.27700027C16.5782096.27700027.81390614 16.0340329.80011077 35.4758859v27.2577662c.0104775 4.4143956 3.5906101 7.9881438 8.00778117 7.9881438H36.0367207c19.4468086-.00762 35.2092203-15.7728309 35.2092203-35.2211053 0-19.4534497-15.7698703-35.22369033-35.2231744-35.22369033zm10.3420041 8.3395422c9.0785208 0 16.5230226 7.44450443 16.5230226 16.52302263 0 9.0785234-7.4444965 16.5230225-16.5230226 16.5230225h-8.725564v8.7524378c0 7.4206681-4.8907541 13.7002544-11.6246141 15.790767-1.5522258.4873678-3.200445.7503425-4.9066767.7503425-9.0785235 0-16.52353855-7.4450204-16.52353855-16.5235386 0-9.0785234 7.44501245-16.5230225 16.52353855-16.5230225h8.725048V25.157652c0-7.4217609 4.8919315-13.7016965 11.6271965-15.791283 1.5515246-.48683598 3.1992966-.74982652 4.9046103-.74982652zm-.0005292 7.81502693c-4.8131967 0-8.7176397 3.898937-8.7260826 8.7121311v7.581966c0 .6068193.4415314 1.1079692 1.0206091 1.2087119h7.7059894c4.8969295 0 8.7942949-3.8978813 8.7942949-8.7948133 0-4.2270071-2.9050694-7.7071114-6.849192-8.5808713-.4897702-.0596821-1.0185003-.1271244-1.9456188-.1271244zM21.1079026 41.6382989c-4.8969294 0-8.7948134 3.8973654-8.7948134 8.7942974 0 4.2280073 2.9066384 7.7091725 6.8522955 8.5819032.4887675.0595815 1.0171668.1266084 1.942002.1266084 4.8131968 0 8.7176371-3.8989369 8.7260799-8.7121311v-7.581966c0-.6068192-.4411001-1.1079692-1.0200904-1.2087119h-7.7054736z"
      />
      <path fill="#000"
            d="M46.3642547 8.61654248c-1.7052977 0-3.3526041.26298524-4.9040943.7498265 1.5494952-.4807241 3.1966085-.74000782 4.9040943-.74000782 1.3850779 0 2.3698385.1563026 3.6519723.49144237 1.8695326.48924633 3.397197 2.02201987 3.3977262 3.80493587 0 2.1550656-1.5642352 3.7227721-3.9026041 3.7227721-.4822984 0-.8331703-.0418015-1.2066455-.0873337 3.9467393.8718947 6.8543619 4.3527318 6.8543619 8.5813873 0 4.8968421-3.8979713 8.7948133-8.7948108 8.7948133h-7.7054735c.0692467.0120386.1397053.0211932.2123916.0211932l5.7319491.0010583c2.1357484 0 3.861263 1.7036441 3.861263 3.8452425.0010584 2.1549148-1.7432787 3.8514469-3.9020882 3.8514469h-6.92309v.009816h8.725048c9.0786161 0 16.5235386-7.4449224 16.5235386-16.5235385 0-9.0786108-7.4451104-16.52302257-16.5235386-16.52302257v-.00003175zM21.1073999 33.9095738c-9.078616 0-16.52302255 7.4451129-16.52302255 16.5235385 0 9.0784202 7.44459435 16.5230226 16.52302255 16.5230226 1.7052952 0 3.3525751-.2629959 4.9040917-.7498265-1.5495216.4807241-3.1966058.7400078-4.9040917.7400078-1.3850778 0-2.3693252-.1562973-3.6514589-.4914424-1.8695326-.4892463-3.397713-2.0220199-3.3982422-3.8049358 0-2.1550656 1.5642352-3.7227721 3.9026041-3.7227721.4822984 0 .8331703.0418015 1.2066455.0873336-3.9466334-.8718576-6.8538459-4.3525677-6.8538459-8.5813872 0-4.89703 3.8974553-8.7948134 8.7942974-8.7948134h7.7059895c-.0692361-.0120385-.1397053-.0211931-.2123916-.0211931l-5.7324651-.0010584c-2.1357484 0-3.861263-1.7036441-3.861263-3.8452424-.0010583-2.1549148 1.7432761-3.8514443 3.9020856-3.8514443h6.9236086v-.009816l-8.725564.0000291z"

            opacity="0.331974638"/>
    </g>
  </symbol>

  <symbol id="logo-centos"
          viewBox="0 0 37 36">
    <path
      d="M18.5416667.3375801l-4.3738932 4.37440912h3.5351852V14.9248026l.838708.838708.8392266-.839224V4.71198922h3.5351825L18.5416667.33758012zM5.95535567 5.5512158v6.1861858l2.5001061-2.5001061 7.22178083 7.2217808h1.1864895v-1.1864922L9.6419513 8.0508033l2.4995902-2.4995875H5.95535567zm7.37319393 0l-2.4995902 2.4995875 6.0347727 6.0347753V5.5512158h-3.5351825zm6.8910517 0v8.5343628l6.0352886-6.0347753-2.4995875-2.4995875h-3.5357011zm4.7221906 0l2.4995902 2.4995875-7.2217808 7.2217808v1.1864922h1.1870054l7.2212649-7.2217808 2.5001061 2.5001061V5.5512158h-6.1861858zM8.45546176 10.424301l-2.5001061 2.5001061v3.5346692h8.53487884L8.45546176 10.424301zm20.17240984 0l-6.0352886 6.0347753h8.5353947v-3.5346692l-2.5001061-2.5001061zM5.11664768 13.7631151L.74223592 18.1370109l4.37441176 4.3738905v-3.5346666H15.3289424l.8392266-.8392239-.8392266-.8392266H5.11664768v-3.5346692zm26.85055662.0005185v3.5341507H21.7538724l-.839224.8392266.839224.8392239h10.2133319v3.5341507l4.3738932-4.3733746-4.3738932-4.3733773zM5.95535567 19.8149428v3.5346692l2.5001061 2.5001061 6.03477273-6.0347753H5.95535567zm9.72188693 0l-7.22178084 7.2217808-2.5001061-2.5001034v6.1861831h6.18618584l-2.4995902-2.4995875 7.2217808-7.2217808v-1.1864922h-1.1864895zm4.5423587 0v1.1864922l7.2217808 7.2217808-2.4995902 2.4995875h6.1861858v-6.1861831l-2.5001061 2.5001034-7.2212649-7.2217808h-1.1870054zm2.3729817 0l6.0352886 6.0347753 2.5001061-2.5001061v-3.5346692H22.592583zm-4.0509163.6955658l-.838708.838708v10.2128133h-3.5351852l4.3738932 4.3738932 4.3744091-4.3738932h-3.5351825V21.3497325l-.8392266-.8392239zm-1.6779346 1.6779345l-6.0347727 6.0347727 2.4995902 2.4995875h3.5351825v-8.5343602zm3.3558692 0v8.5343602h3.5357011l2.4995875-2.4995875-6.0352886-6.0347727z"
    />
  </symbol>

  <symbol id="terminal"
          viewBox="0 0 18 12">
    <title>Terminal Icon</title>
    <path d="M0 10l4.5-4L0 2l2.25-2L9 6l-6.75 6M18 12H9v-2h9"/>
  </symbol>

  <symbol id="save"
          viewBox="0 0 20 20">
    <path
      d="M15.763338 0L20 4.23666205V17.9166667C20 19.0672599 19.0672599 20 17.9166667 20H2.08333333C.9327401 20 0 19.0672599 0 17.9166667V2.08333333C0 .9327401.9327401 0 2.08333333 0H15.763338zM2 2v5h11V2H2zm7.5 16c1.9329966 0 3.5-1.5670034 3.5-3.5S11.4329966 11 9.5 11C7.56700338 11 6 12.5670034 6 14.5S7.56700338 18 9.5 18z"
    />
  </symbol>

  <symbol id="attachment"
          viewBox="0 0 13 15">
    <path
      d="M11.92 5.125L4.576 12.47a2.093 2.093 0 0 1-1.49.617 2.092 2.092 0 0 1-1.49-.617 2.093 2.093 0 0 1-.615-1.49c0-.563.219-1.092.616-1.49L9.71 1.375c.51-.51 1.403-.51 1.914 0a1.355 1.355 0 0 1 0 1.913l-7.286 7.287a.586.586 0 0 1-.808 0 .569.569 0 0 1 0-.808l5.252-5.252a.488.488 0 0 0 0-.694.5.5 0 0 0-.692 0L2.838 9.075a1.539 1.539 0 0 0-.454 1.097c0 .415.161.804.454 1.097.584.584 1.608.585 2.194 0l7.285-7.287A2.32 2.32 0 0 0 13 2.331c0-.623-.242-1.209-.683-1.649A2.317 2.317 0 0 0 10.668 0a2.32 2.32 0 0 0-1.65.682L.903 8.798A3.065 3.065 0 0 0 0 10.98c0 .825.32 1.6.903 2.182a3.063 3.063 0 0 0 2.182.903c.825 0 1.6-.32 2.183-.903l7.345-7.346a.487.487 0 0 0 0-.692.501.501 0 0 0-.692 0z"
    />
  </symbol>

  <symbol id="app-switcher" viewBox="0 0 18 18">
    <path
      d="M3.37,1.8V3.37H1.8V1.8H3.37M4.11,0H1.06A1.05,1.05,0,0,0,0,1.06V4.11A1.05,1.05,0,0,0,1.06,5.17H4.11A1.05,1.05,0,0,0,5.17,4.11V1.06A1.05,1.05,0,0,0,4.11,0Z"/>
    <path
      d="M9.79,1.8V3.37H8.21V1.8H9.79M10.53,0H7.47A1.06,1.06,0,0,0,6.41,1.06V4.11A1.06,1.06,0,0,0,7.47,5.17h3.06a1.06,1.06,0,0,0,1.06-1.06V1.06A1.06,1.06,0,0,0,10.53,0Z"/>
    <path
      d="M16.2,1.8V3.37H14.63V1.8H16.2M16.94,0H13.89a1.05,1.05,0,0,0-1.06,1.06V4.11a1.05,1.05,0,0,0,1.06,1.06h3.05A1.05,1.05,0,0,0,18,4.11V1.06A1.05,1.05,0,0,0,16.94,0Z"/>
    <path
      d="M3.37,8.21V9.79H1.8V8.21H3.37m.74-1.8H1.06A1.06,1.06,0,0,0,0,7.47v3.06a1.06,1.06,0,0,0,1.06,1.06H4.11a1.06,1.06,0,0,0,1.06-1.06V7.47A1.06,1.06,0,0,0,4.11,6.41Z"/>
    <path
      d="M9.79,8.21V9.79H8.21V8.21H9.79m.74-1.8H7.47A1.07,1.07,0,0,0,6.41,7.47v3.06a1.07,1.07,0,0,0,1.06,1.06h3.06a1.07,1.07,0,0,0,1.06-1.06V7.47a1.07,1.07,0,0,0-1.06-1.06Z"/>
    <path
      d="M16.2,8.21V9.79H14.63V8.21H16.2m.74-1.8H13.89a1.06,1.06,0,0,0-1.06,1.06v3.06a1.06,1.06,0,0,0,1.06,1.06h3.05A1.06,1.06,0,0,0,18,10.53V7.47a1.06,1.06,0,0,0-1.06-1.06Z"/>
    <path
      d="M3.37,14.63V16.2H1.8V14.63H3.37m.74-1.8H1.06A1.05,1.05,0,0,0,0,13.89v3.05A1.05,1.05,0,0,0,1.06,18H4.11a1.05,1.05,0,0,0,1.06-1.06V13.89a1.05,1.05,0,0,0-1.06-1.06Z"/>
    <path
      d="M9.79,14.63V16.2H8.21V14.63H9.79m.74-1.8H7.47a1.06,1.06,0,0,0-1.06,1.06v3.05A1.06,1.06,0,0,0,7.47,18h3.06a1.06,1.06,0,0,0,1.06-1.06V13.89a1.06,1.06,0,0,0-1.06-1.06Z"/>
    <path
      d="M16.2,14.63V16.2H14.63V14.63H16.2m.74-1.8H13.89a1.05,1.05,0,0,0-1.06,1.06v3.05A1.05,1.05,0,0,0,13.89,18h3.05A1.05,1.05,0,0,0,18,16.94V13.89a1.05,1.05,0,0,0-1.06-1.06Z"/>
  </symbol>

  <symbol id="hetzner-robot"
          viewBox="0 0 20 20">
    <title>Icon Robot Hetzner</title>
    <circle fill="#D50C2D"
            cx="10"
            cy="10"
            r="10"/>
    <path fill="#FFF"
          d="M12.6 11.2l2.8 2.8c.2.2.1.4-.1.4h-1.8c-.3 0-.6-.2-.8-.4l-2.3-2.3c-.2-.2-.6-.4-.9-.4H7.2v2.5c0 .3-.2.5-.5.5h-1c-.3 0-.5-.2-.5-.5V6.1c0-.3.2-.5.5-.5h6.4c.9 0 1.6.5 2.1 1.3.3.5.5 1 .5 1.6 0 .7-.2 1.4-.7 1.9-.3.4-.9.7-1.4.8m.1-2.6V8.3c0-.4-.3-.7-.7-.7H7.2v1.8H12c.4 0 .7-.4.7-.8z"
    />
  </symbol>

  <symbol id="hetzner-cloud" viewBox="0 0 20 20">
    <title>Icon Cloud Hetzner</title>
    <circle fill="#D50C2D" cx="10" cy="10" r="10"/>
    <path fill="#FFF"
          d="M10.9 14.3H8.1c-1 0-2-.4-2.6-1.5C5 12 4.9 11 4.9 10c0-1 .1-2 .6-2.8C6.1 6.1 7 5.7 8 5.7c1.9-.1 3.9 0 5.8 0 .5 0 .6.2.6.8 0 1.3 0 1.3-1 1.3H9.1c-.3 0-.5 0-.8.1-.7.1-1.1.5-1.2 1.2-.1.6-.1 1.1 0 1.7.1.8.5 1.3 1.2 1.4.5.1 1 .1 1.5.1h3.9c.6 0 .7.1.7.9v.4c0 .6-.2.8-.7.8-.9 0-1.9 0-2.8-.1z"/>
  </symbol>
  <symbol id="hetzner-website"
          viewBox="0 0 20 20">
    <title>Icon Hetzner Website</title>
    <circle fill="#D50C2D"
            cx="10"
            cy="10"
            r="10"/>
    <path fill="#FFF"
          d="M14.3 5.7h-1c-.3 0-.5.2-.5.5v2.9H7.3V6.2c0-.3-.2-.5-.5-.5h-1c-.3 0-.5.2-.5.5v7.7c0 .3.2.5.5.5h1c.3 0 .5-.2.5-.5V11h5.5v2.9c0 .3.2.5.5.5h1c.3 0 .5-.2.5-.5V6.2c-.1-.3-.3-.5-.5-.5"
    />
  </symbol>

  <symbol id="external-link"
          viewBox="0 0 576 512">
    <path
      d="M576 24v127.984c0 21.461-25.96 31.98-40.971 16.971l-35.707-35.709-243.523 243.523c-9.373 9.373-24.568 9.373-33.941 0l-22.627-22.627c-9.373-9.373-9.373-24.569 0-33.941L442.756 76.676l-35.703-35.705C391.982 25.9 402.656 0 424.024 0H552c13.255 0 24 10.745 24 24zM407.029 270.794l-16 16A23.999 23.999 0 0 0 384 303.765V448H64V128h264a24.003 24.003 0 0 0 16.97-7.029l16-16C376.089 89.851 365.381 64 344 64H48C21.49 64 0 85.49 0 112v352c0 26.51 21.49 48 48 48h352c26.51 0 48-21.49 48-48V287.764c0-21.382-25.852-32.09-40.971-16.97z"
    />
  </symbol>

  <symbol id="project-owner-indicator" viewBox="0 0 18 17">
    <path
      d="M1.6 15.4h14.9V17H1.6v-1.6zM16.4 14.6H1.6L0 3l5.4 4.8L9 0l3.6 7.9L18 3l-1.6 11.6zM2.9 13.1h12.2l.9-6.2-3.8 3.5L9 3.5l-3.1 6.8L2 6.9l.9 6.2z"/>
  </symbol>

  <symbol id="lightning"
          viewBox="0 0 8 19">
    <path d="M6.34 0L0 10.303h3.729z"/>
    <path d="M1.66 18.182L4.271 7.879H8z"/>
    <path d="M1.962 7.879h4.377v2.424H1.962z"/>
  </symbol>

  <symbol id="plus"
          viewBox="0 0 8 9">
    <path
      d="M3.2 4.06V1.09a.2.2 0 0 1 .2-.199h1.2a.2.2 0 0 1 .2.198v2.97h3c.11 0 .2.09.2.198v1.189a.2.2 0 0 1-.2.198h-3v2.97c0 .11-.09.198-.2.198H3.4a.2.2 0 0 1-.2-.198v-2.97h-3a.2.2 0 0 1-.2-.198V4.257a.2.2 0 0 1 .2-.198h3z"
    />
  </symbol>

  <symbol id="minus"
          viewBox="0 0 6 2">
    <path
      d="M5.85.06c.083 0 .15.088.15.197v1.189c0 .109-.067.198-.15.198H.15c-.083 0-.15-.09-.15-.198V.257C0 .148.067.06.15.06h5.7z"
    />
  </symbol>

  <symbol id="magnifier"
          viewBox="0 0 16 16">
    <path
      d="M10.549 12.063a6.602 6.602 0 0 1-8.574-9.988 6.6 6.6 0 0 1 9.988 8.574l2.976 2.976c.26.26.155.788-.236 1.178-.39.39-.918.496-1.178.236l-2.976-2.976zm-.513-1.927c1.797-1.796 1.765-4.74-.07-6.576-1.836-1.835-4.78-1.867-6.576-.07-1.797 1.796-1.765 4.74.07 6.576 1.836 1.835 4.78 1.867 6.576.07z"/>
  </symbol>

  <symbol id="empty-braces"
          viewBox="0 0 51 68">
    <path
      d="M18 7.125c-3.1 0-4.65 1.425-4.65 4.275v16.275c0 3.5-1.65 5.55-4.95 6.15 3.3.55 4.95 2.575 4.95 6.075v17.625c0 1.3.362 2.2 1.088 2.7.725.5 2.112.75 4.162.75v6.975h-2.55c-6.8 0-10.2-3.3-10.2-9.9v-16.2c0-1.65-.3-2.812-.9-3.487-.6-.676-1.55-1.013-2.85-1.013H.3v-6.975h1.8c1.3 0 2.25-.35 2.85-1.05.6-.7.9-1.9.9-3.6v-15.6c0-6.6 3.4-9.9 10.2-9.9h2.55V7.2c-.15-.05-.35-.075-.6-.075zM34.95 67.95H32.4v-6.975c2.05 0 3.437-.25 4.163-.75.725-.5 1.087-1.4 1.087-2.7V39.9c0-3.5 1.65-5.525 4.95-6.075-3.3-.6-4.95-2.65-4.95-6.15V11.4c0-1.55-.412-2.662-1.237-3.338-.826-.675-1.638-1.012-2.438-1.012h-.225l-1.35.15V.225h2.55c6.8 0 10.2 3.3 10.2 9.9v15.6c0 1.7.3 2.9.9 3.6.6.7 1.55 1.05 2.85 1.05h1.8v6.975h-1.8c-1.3 0-2.25.337-2.85 1.013-.6.675-.9 1.837-.9 3.487v16.2c0 6.6-3.4 9.9-10.2 9.9z"/>
  </symbol>


  <symbol id="traffic" viewBox="0 0 23 18" width="100%" height="100%">
    <title>Traffic</title>
    <polygon
      points="21.66 10.6 17.72 14.35 17.72 1.03 15.76 1.03 15.76 14.35 11.82 10.6 10.48 12.05 16.74 18 23 12.05 21.66 10.6"></polygon>
    <polygon
      points="11.18 7.4 12.52 5.95 6.26 0 0 5.95 1.34 7.4 5.28 3.65 5.28 16.97 7.24 16.97 7.24 3.65 11.18 7.4"></polygon>
  </symbol>

  <symbol id="cpu" viewBox="0 0 18 24" width="100%" height="100%">
    <path
      d="M12.8,7H5.2A1.2,1.2,0,0,0,4,8.2v7.6A1.2,1.2,0,0,0,5.2,17h7.6A1.2,1.2,0,0,0,14,15.8V8.2A1.2,1.2,0,0,0,12.8,7ZM12,15H6V9h6Z"></path>
    <path
      d="M15,3H3A3,3,0,0,0,0,6V18a3,3,0,0,0,3,3H15a3,3,0,0,0,3-3V6A3,3,0,0,0,15,3Zm1,15a1,1,0,0,1-1,1H3a1,1,0,0,1-1-1V6A1,1,0,0,1,3,5H15a1,1,0,0,1,1,1Z"></path>
    <path d="M6,.85A.85.85,0,0,0,5.15,0h-.3A.85.85,0,0,0,4,.85V2H6Z"></path>
    <path d="M10,.85A.85.85,0,0,0,9.15,0h-.3A.85.85,0,0,0,8,.85V2h2Z"></path>
    <path d="M14,.85A.85.85,0,0,0,13.15,0h-.3A.85.85,0,0,0,12,.85V2h2Z"></path>
    <path d="M4,23.15a.85.85,0,0,0,.85.85h.3A.85.85,0,0,0,6,23.15V22H4Z"></path>
    <path d="M8,23.15a.85.85,0,0,0,.85.85h.3a.85.85,0,0,0,.85-.85V22H8Z"></path>
    <path d="M12,23.15a.85.85,0,0,0,.85.85h.3a.85.85,0,0,0,.85-.85V22H12Z"></path>
  </symbol>

  <symbol id="ram" viewBox="0 0 20 20" width="100%" height="100%">
    <g fill="none" fill-rule="evenodd" transform="rotate(45 7.135 14.29)">
      <rect height="17.078" rx="3" stroke="#D80024" stroke-width="1.7" width="9.567" x=".85" y=".85"></rect>
      <rect height="1.114" rx=".557" stroke="#D80024" stroke-width="1.7" width="3.3" x="3.924" y="8.667"></rect>
      <rect height="1.114" rx=".557" stroke="#D80024" stroke-width="1.7" width="3.3" x="3.924" y="12.983"></rect>
      <rect height="1.114" rx=".557" stroke="#D80024" stroke-width="1.7" width="3.3" x="3.924" y="4.35"></rect>
      <rect fill="#D80024" height="15.045" rx="1" width="2.865" x="10.267" y="1.867"></rect>
    </g>
  </symbol>

  <symbol id="nvmedisk" viewBox="0 0 21 22" width="100%" height="100%">
    <g fill="none" fill-rule="evenodd" transform="rotate(-46 16.2849 9.0537)">
      <path
        d="M1.3558 8.2866v.6599c0 1.1874.9626 2.15 2.15 2.15H17.395c1.1874 0 2.15-.9626 2.15-2.15V3.0056c0-1.1874-.9626-2.15-2.15-2.15H3.5058c-1.1874 0-2.15.9626-2.15 2.15v1.2707C2.21 4.5426 2.83 5.3396 2.83 6.2815c0 .9418-.62 1.7388-1.4742 2.0051z"
        stroke="#D80024" stroke-width="1.7"></path>
      <rect fill="#D80024" height="5.2165" rx="1" width="3.6438" x="19" y="2.0992"></rect>
      <rect fill="#D80024" height="1.0181" rx=".5091" width="2.7926" x="19.8512" y="8.3968"></rect>
      <path
        d="M7.556 7.3924h-.767L5.6554 5.4017v1.9907H4.884V4.1932h.7713l1.1316 1.9907V4.1932h.769v3.1992zm1.8092-.8701l.6372-2.3291h.8613L9.787 7.3924h-.8437L7.8754 4.1932h.8548l.635 2.329zm2.8243-2.3291l.7142 2.2258.7119-2.2258h1.0151v3.1992h-.7734v-.747l.0747-1.5294-.7735 2.2764h-.5097l-.7757-2.2786.0747 1.5315v.7471h-.7712V4.1932h1.013zm4.1274 3.2432c-.3647 0-.6599-.1088-.8855-.3263-.2256-.2176-.3384-.5006-.3384-.8493v-.0615c0-.2432.045-.4578.1352-.6438.09-.186.2215-.33.3944-.4318.1728-.1018.3779-.1527.6152-.1527.334 0 .5977.1037.791.311.1934.2072.29.4961.29.8668v.2878h-1.4721c.0264.1333.0842.238.1736.3142.0893.0762.205.1143.3471.1143.2344 0 .4175-.082.5494-.2461l.3383.3999c-.0922.1274-.223.2289-.3922.3043-.1692.0754-.3512.1132-.546.1132zm-.0835-1.894c-.2168 0-.3457.1435-.3867.4306h.747v-.0572c.003-.1186-.027-.2105-.09-.2757-.063-.0652-.1531-.0978-.2703-.0978z"
        fill="#D50C2D"></path>
    </g>
  </symbol>
  <symbol id="euro" viewBox="0 0 17 16" width="100%" height="100%">

    <path
      d="M3.05198839 7.43791616C3.54130295 2.4803801 7.4074291-.29867895 11.3600486.02553798c2.0234337.16597386 3.6898144 1.07022612 4.9469874 2.68295894l-1.3407598 1.04516189c-.9656722-1.23878838-2.1966889-1.90679281-3.7452048-2.03381113-3.16717042-.25978982-6.26344482 2.03514885-6.50583757 6.25494223.24239275 4.21979339 3.33866715 6.51473209 6.50583757 6.25494219 1.5485159-.1270183 2.7795326-.7950227 3.7452048-2.0338111l1.3407598 1.0451619c-1.257173 1.6127328-2.9235537 2.5169851-4.9469874 2.6829589-3.9526195.324217-7.81874565-2.4548421-8.30806021-7.41237814H3c0-.1814886.00429737-.36045919.01275682-.53687375C3.00429737 7.79837535 3 7.61940476 3 7.43791616h.05198839z"
      fill-rule="nonzero"></path>
    <path d="M0 8.5h11.4285714v1.70000005H0zM0 5.5h11.4285714v1.70000005H0z"></path>
  </symbol>
  <symbol id="map-DE-Nuremberg" viewBox="0 0 110 150" xmlns="http://www.w3.org/2000/svg" class="ng-star-inserted"
          style="">

    <path class="map-icon__map" fill="#dddfe6" d="M36.2,12.6L35.1,13l-0.3,0.1v0.1l0.2,0.2l0.4-0.2L36,13l0.1-0.1h0.1V12.6z M34.2,10.9L33.9,11h-0.1l-0.1,0.1
        l-0.1,0.1l-0.1,0.1v0.2l-0.1,0.2l0.1,0.1l0.7,0.4h0.3l0.6,0.1h0.1v-0.1l0.3-0.6l-0.1-0.4v-0.1L35.2,11L35,10.9h-0.3L34.6,11
        l-0.3-0.1H34.2z M60.5,16.6l0.3,0.2h0.1h-0.1l-0.1-0.1v-0.2l0.4-0.1h0.2l0.1,0.1h0.1v0.6l0.8,0.1h1.4v-0.1l-0.2-0.5l-0.2-0.3
        l-0.5-0.9l-0.6-0.3L61.3,15l-0.1-0.1H61l-0.1,0.2l-0.1,0.1l-0.1,0.2l-0.1,0.2v0.2l-0.1,0.1v0.6L60.5,16.6z M32.4,11.2v-0.1l0.1-1.4
        l-0.1-0.1l0.1-0.3V9.1L32.6,9L33,8.8l0.1,0.1L33.3,9l0.3,0.2h0.1L34.2,9l0.3-0.3h-0.7l-0.3-0.3l-0.3-0.3l-0.1-1l0.2-0.4l0.1-0.1
        l0.2-0.2h0.2L34,6.2l0.3-0.5l-0.4-0.2h-0.3v0.1l-0.1,0.1l-0.3,0.8l-0.1,0.1l-0.3,0.6l-0.1,0.5l-0.2,0.5l-0.1,0.2v0.8l-0.1,1.6
        L32.4,11.2L32.4,11.2z M32.9,11.8l0.2-0.1L33,11.6v0.1l-0.5,0.4l-0.1,0.2v0.4l0.3,0.3l0.1,0.2l0.1,0.2h0.3l0.2-0.1l0.1-0.1v-0.1
        L33.3,13l-0.2-0.2l-0.3-0.6V12L32.9,11.8L32.9,11.8z M35.9,14.7l-0.4,0.2h-0.1v0.4l0.1,0.1l0.1,0.2l0.1,0.1h0.2l0.2-0.1h0.1l0.1-0.1
        l0.2-0.4l0.1-0.3v-0.3h-0.2L35.9,14.7L35.9,14.7z M34.6,14.1v0.1h0.1l0.2,0.2h0.3v-0.1l-0.1-0.2L35,14l-0.1,0.1L34.6,14
        C34.6,14,34.6,14.1,34.6,14.1z M81,16.2L81,16.2l0.7-0.2l0.1-0.1l0.1-0.1l-0.1-0.1h-0.1l-0.4,0.2L81.2,16l-0.1,0.1V16H81l-0.1,0.1
        H81V16.2z M89.4,21.1l0.4,0.4l0.1,0.9l0.7,1v0.1l0.7-0.4l0.1-0.2l-0.3-0.3v-0.3h0.6l0.3,0.3l0.4,0.5l0.1,0.1l0.1,0.2v0.9l-0.7-0.1
        l-0.1-0.3l-0.1-0.3l-0.1-0.1h-0.1l-0.4,0.1L91,23.8v0.3h0.1l0.2,0.3l0.1,0.2l0.1,0.4l-0.1,0.2v0.2h-0.1l-0.1,0.1l-0.3,0.1l-0.2,0.2
        h-0.2L90.4,26l0.1,0.2h0.2l0.3,0.1h0.2l0.4-0.1l0.5-0.1l0.8-0.4l1.3-0.2v0.1h0.1l0.2-1.1L93.8,24l-0.7-0.7l-0.9-0.9L92,22.3
        l-0.3-0.1l-0.1-0.1h-0.2L91.3,22l-0.4-0.1l-0.1-0.1l-0.1-0.1l-0.2-0.2l-0.2-0.2v-0.1L90,20.5l-0.1-0.1h-0.3l-0.1,0.1l-0.1,0.1
        l-0.1,0.1v0.2L89.4,21.1z M64.5,24.8l0.1,0.1V25h0.2l0.6,0.2l0.2-0.5l0.2-0.4V24h-0.1l-0.1-0.1L65.4,24h-0.2l-0.4,0.2l-0.2,0.2
        l-0.1,0.1V24.8L64.5,24.8z M84.8,13.8l-0.5,0.1h-0.8L83,14.1l-0.2,0.1l0.1,0.4l0.1,0.2h0.6l0.4,0.4l-0.1,0.3h-0.1l-0.3,0.1l-0.2,0.1
        H83l-0.2,0.5v0.1h0.1l0.9,0.2h0.1l-0.2,0.2l-1,0.5h-0.1v0.1l-0.1,0.4v0.2l0.3,0.9h0.1l2.7,0.9l0.2-0.1v-0.1l0.1-0.1l-0.1-0.1v-0.1
        L85.6,19h-0.1v0.1l-0.1,0.1l-0.2,0.1h-0.1V19l0.7-0.8l0.6-0.5l0.2-0.1v-0.1l1.8-0.2l0.3,0.4v0.1l-0.1,0.1L88.5,18l-0.2,0.1v0.3
        l0.4-0.1l0.2-0.3l0.2-0.4l-0.2-0.3l-0.3-0.5l-0.2-0.2l-0.2-0.2v0.1h-0.5v-0.1l-0.2-0.2l-0.2-0.4l-0.1-0.1v-0.6l0.1-0.1l0.2-0.3
        l0.4-0.3H88l0.1-0.1l0.1-0.2l0.1-0.2l-0.1-0.4h-0.1L88,13.3l-0.2-0.1h-0.5l-0.4,0.1h-0.1l-0.3,0.1L86,13.5h-0.3l-0.1-0.1h-0.1v-0.1
        l-0.2-0.1L85.2,13l-0.1-0.2L85,12.6v-0.2l0.1-0.2v-0.1h0.1l0.1-0.1h0.2v-0.1h0.1v-0.4H85l-0.8,0.2h-0.1L84,11.8l-0.3,0.3l-0.3,0.2
        v0.1l-0.5,1.3v0.2l0.1-0.1l0.5-0.5l0.1-0.3v-0.3l0.2-0.4l0.2-0.1l0.1,0.1v0.4L84,12.9l-0.1,0.2l-0.1,0.1v0.1l-0.1,0.3l0.1,0.2
        l0.4-0.2l0.4-0.2l1.2,0.4v0.1l0.4-0.1l0.3-0.1v1.4h-0.4l-0.5-0.2h-0.1l-0.7-0.4v-0.1L84.8,13.8z M29,28.7v0.1h0.1v-0.6H29l-0.1,0.1
        v0.4H29z M81.9,15.6v0.1V15.6l0.1-0.1l0.2-1.1l0.1-0.6l0.4-0.2l-0.5-0.2l-0.3,1.8v0.3L81.9,15.6z"></path>
    <path class="map-icon__map" fill="#dddfe6" d="M82.5,15.8v0.1l0.1,0.1l0.1-0.1l0.8-0.4l0.1-0.1l-0.1-0.2v-0.1L83.3,15H83l-0.1,0.1l-0.2,0.2v0.1L82.5,15.8z
         M14.7,31.3l0.4,0.3h0.1v-0.1h0.2l0.1,0.2l0.1-0.1l-0.1-0.2l-0.2-0.2l0.9-0.2l-0.1-0.1l-0.3-0.3h-0.2l-0.9,0.2l-0.1,0.1L14.5,31
        l0.1,0.1L14.7,31.3z M28,21.2h0.1l0.2-0.3v-0.1l-0.2,0.1L28,20.8h-0.1l-0.1,0.1l0.1,0.3H28z M19.8,29.3l0.1,0.1H20l0.4-0.1l1.3-0.1
        l0.1-0.1H22V29h-0.1v-0.1h-1.6L20.1,29l-0.2,0.1h-0.1l-0.1,0.1L19.8,29.3z M36.3,23.1l-0.1,0.1l-0.1,0.1v0.2l0.1,0.1h0.2v-0.4
        C36.4,23.2,36.3,23.1,36.3,23.1z M38,16.2l0.4,0.1l0.1-0.1l0.2-0.1l0.1-0.2h0.1l0.2-0.4v-0.2L39,15.2h-0.5l-0.2-0.1l-0.6,0.4h-0.1
        V16l0.2,0.1L38,16.2L38,16.2z M17,29.8h0.3l0.8-0.1l0.6-0.1H19l0.2,0.1h0.1v-0.1l-0.2-0.1h-0.5l-1.2,0.1L17,29.7h-0.1L17,29.8z
         M22.4,29l0.3,0.1h0.2v-0.2l-0.1-0.1h-0.4l-0.3,0.1l0.1,0.1H22.4z M27.5,28.3v-0.2l0.1-0.1l0.7,0.2l0.3,0.1v-0.1L28.4,28h-0.2
        l-0.3-0.1h-0.5L27.3,28L27.5,28.3z M25.4,28.6h0.1l0.2-0.2h0.6l0.7-0.1l-0.1-0.1l-0.2-0.1h-1.1l-0.1,0.1l-0.1,0.1v0.2V28.6z
         M23.3,29.1l0.4-0.4l0.5-0.1h0.7l-0.1,0.1H25v-0.2h-0.2l-0.2-0.1h-1.1l-0.1,0.1h-0.1l-0.1,0.2V29L23.3,29.1z"></path>
    <path class="map-icon__map" fill="#dddfe6" d="M106.2,70.9l-0.8-1.9v-0.7l-0.2-0.4l-0.1-0.1l-0.3-0.2l-1.5-0.5H103l-0.2-0.1l-0.2-0.1l-0.3-0.6h0.1l0.1-0.3
        l0.2-0.3l0.1-0.4l-0.1-0.8l-0.1-0.2l-0.1-0.1l-0.1-0.1l-0.1-0.1l-0.3-0.3l-0.3-0.3l-0.1-0.1l-0.5-1.1l-0.2-0.1V62l-0.2-0.2v-0.3
        l0.1-0.1l0.3-0.3l0.2-0.1l0.5-0.7l0.1-0.6l0.1-1.1l-0.1-0.1l0.2-0.4l0.1-0.1v-0.1l0.1-0.5v-0.1l-0.2-0.2V57l-0.1-0.1h-0.1l-0.1-0.1
        h-0.2l-0.1-0.1v-0.1l-0.1-0.1l-0.1-0.5l0.1-0.1l0.1-0.1l0.1-0.2v-1.3l-0.2-0.2V54h-0.1l-0.8-0.2h-0.2l-0.1-0.1l-0.1-0.2H100l-0.2-1
        L99.7,52v-0.1l-0.2-0.2v-0.2l0.1-0.4v-0.2h0.1v-0.1l0.3-0.1l0.1-0.2l0.3-0.5v-0.1l0.1-0.1l-0.1-1.4l-0.4-0.5l-0.1-0.1l-0.3-0.2
        l-0.1-0.1h-0.1l-0.1-0.1L99,47.3l-0.1-0.1L98.6,47l-0.2-0.1L98,46.6v-0.2h-0.1L97.6,46l-0.2-0.3l-0.3-0.3l-1.4-0.8l-0.6-0.3h-0.3
        l-0.1-0.1h-0.1V44l-0.1-0.1l0.1-0.2l0.2-0.2l0.1-0.2V43l-0.2-0.7L94.6,42l0.1-0.2l0.2-0.2l0.4-0.3h0.1l0.2-0.1l0.3-0.2l0.2-0.2
        l0.6-0.6v-0.1l0.1-0.2l0.1-0.4L97,39v-0.1l0.1-0.5l-0.2-0.2v-0.1L96.8,38v-0.3l0.1-0.3l0.1-0.1l0.4-0.6l0.2-0.4v-0.1l-0.1-0.1
        L97.4,36h-0.1l-0.2-0.5V35l-0.4-1.3l-0.3-0.8v-0.4l-0.3-0.4l-0.2-0.4l-0.1-0.4V30l-0.4-1.1l-0.2-1v-0.2L95,27.6h-0.1l-0.1-0.1
        l-0.1,0.1v0.1l-0.2,0.1L94.3,28h-0.8l-0.3-0.1l-1.1-0.4H92l-0.3-0.3l-0.3-0.3l-1-0.6h-0.1l-0.1-0.2V26l0.3-0.4l0.3-0.3l0.1-0.2H91
        V25h0.1v0.1l0.1-0.1l0.1-0.1v-0.1l-0.1-0.1l-0.1-0.2l-0.7-0.7l-0.6-1.2v-0.9l-0.1-0.2l-0.2-0.1l-0.6-0.7l-0.6,0.2l-1.6,0.5l-0.2,0.2
        l0.1,0.3l0.1,0.1l0.1,0.1l-0.1,0.1l-0.2-0.1h-0.2l-0.2-0.4v-0.2L86,21.3v-0.1l-0.3-0.1l-0.1,0.1h-0.1V21l0.3-0.2l-0.4-0.2H85
        l-0.1-0.1l-0.1-0.1v-0.1l-0.3-0.6l-0.1-0.1l-1-0.5h-0.2l-0.3,0.2l-0.4-0.5l-0.3-0.9l-0.1-0.2l0.2-0.3l-0.7-1l-0.4-0.1l-0.7,0.3
        l-0.3,0.2l-0.1,0.3v0.3L80,17.5l-0.2,0.2h-0.1l-0.3,0.1l-0.8-0.4l-0.9-0.2l-1,0.5l-0.9,0.7L75.3,19l-0.1,0.2v0.1l0.1,0.2h0.1
        l0.3,0.1h0.1v0.1h-0.7l-0.3-0.3l-0.1-0.5l0.1-0.3l0.5-1.1l0.1-0.1l1.6-0.6l0.5-0.3l0.6-0.2h0.3l0.1,0.1v0.2h0.8l0.7-0.1h0.4v-0.1
        l0.5-0.3V16h-0.8l-0.8,0.1h-1.9L76.7,16l-0.1-0.1h-0.1l-0.3-0.3l-0.4,0.7l-0.5,0.9l-0.7,1.4l-0.1,0.2l-0.1,0.1L74.3,19l-0.1,0.1
        h-0.1l-0.2,0.1l-0.6,0.4L73,19.8L72.9,20l-0.1,0.1l-0.3,0.6l-0.3,0.6l-0.5-0.1L71,21.1l-1.2,0.5l-0.2,0.1h-0.8l-0.2-0.1h-0.9
        l-1.3,1.1l-0.3,0.4l-0.2,0.2v0.2l0.1,0.2l0.3-0.4l0.1-0.2l0.1-0.1l0.1-0.2l0.3-0.3H67l0.1,0.2V23l-0.5,0.7l-0.1,0.1v0.1h-0.2
        L66,24.1l-0.1,0.1l-0.2,0.3l-0.1,1v0.2l-0.3,0.4L65.2,26L65,25.9l-0.1-0.1h-0.1v-0.2l-0.2-0.1l-0.4-0.2l-0.3,0.1l-0.1,0.1l-0.2,0.1
        v0.1h-0.1l-0.1-0.1h-0.1l-0.1-0.1l-0.1-0.2v-0.1l0.1-0.3l-0.6-0.6l-0.1-0.1h-1l-0.4,0.1H61l-0.1,0.1l-0.5,0.3l-0.8,0.6l-0.1-0.1
        h-0.2v-0.5l-0.1-0.1h-0.9v-0.1l-0.1-0.1v-0.1l-0.1-0.2l-0.2-0.3v-0.2l0.1-0.1v-0.1l0.6-0.6l0.1,0.1l0.4,0.1l0.1-0.1h0.1l0.1-0.1
        l0.4-0.6l0.5-0.4l0.6-0.4l0.1-0.1l0.5-0.4l-0.1-1l-0.2-1.2v-0.4l0.1-0.2l0.1-0.6l-1.5,0.1h-0.2L59.3,18L59,18.2l-0.2,0.3l-0.1,0.1
        l-0.4,0.3L58.1,19h-0.9v-0.1l-0.4-0.4v-0.1l-0.1-0.1l-0.1-0.1L56.4,18h-0.2l-2.1-1.1l-0.3-0.1h-0.2l-0.1-0.1h-0.1l-0.2,0.1l-0.8,0.4
        l-0.1,0.1l-0.4,0.8v0.3L51.6,18v-0.1l0.1-0.2l0.3-0.1l-0.2-0.7v-0.1l0.2-0.3l0.1-0.1l-0.3-0.3h-0.1l-0.3-0.2h-0.2L50.5,16l-0.9,0.2
        l-0.1,0.1l-0.3,0.1l-0.1,0.1h-0.6v-0.1l-0.1-0.1l-0.1-0.2l0.1-0.1h0.1l0.1,0.1h0.1l0.3-0.2l0.4-0.2l0.3-0.2l0.2-0.1l0.1-0.2l0.3-0.5
        v-1l0.1-0.5v-0.4l-0.6-1.9l-0.2-0.3l-0.3-0.2l-0.2-0.1v0.1H49l0.1,0.1l-0.3,0.6h-0.2L48.5,11h-0.2l-1-1.2l-0.6-0.2L46,9.3l0.2-0.4
        V8.8l-0.4-0.1l-0.9,0.8l-0.2,0.1h-0.2l-0.3,0.1l-0.1-0.1l-0.5,0.1v0.2l-0.3,0.2h-0.2L42.3,10l-0.1-0.3V9.5l0.1-0.1l-0.1-0.1
        l-0.4-0.2l-0.5-0.2h-1.1l-0.1-0.1H40V8.7l-0.1-0.1l-0.5-0.2h-0.1l-0.1-0.1h-0.5L38,8.2h-0.1l-0.1,0.1h-1.1l-0.2-0.1l-0.2-0.1H36
        l-0.3,0.6v0.7l0.4,0.4l0.3,0.5h0.1l0.1,0.3l0.2,0.7l0.3,1h0.1l0.2,0.2l0.3,0.2l0.2,0.1l0.5,0.7l1.2,1.6l0.2,0.5V16l-0.1,0.2h-0.1
        L38.7,17l-0.2,0.1l-0.2,0.1l-0.2,0.1l-0.2-0.2h-0.3l-1.1,0.2l-0.1,0.4v0.4l-0.5,0.3h-0.1l-0.2-0.2v-0.1l-0.2,0.1h-0.1v0.2l-0.1,0.1
        V19l0.1,0.2h0.1l0.8,0.4v0.1l0.1-0.1h0.1h-0.2l0.1-0.2l0.2-0.1l0.4-0.1h0.9v0.1l0.1,0.1v0.1l0.1,0.1v0.1h-0.1H38v0.2l-0.1,0.6
        l-0.1,0.3l-0.2,0.4l-0.1,0.1l0.1,0.1l0.1,0.5l0.1,0.1l0.1,0.1l0.1,0.1l0.1,0.1l0.3-0.2l0.2-0.1l0.2,0.1l0.6,1.2v0.2l-0.1,0.1v0.1
        l-0.1,0.1l-0.1,0.1h-0.3v-0.1l-0.1-0.1l-0.4-0.1l-0.2,0.1l-0.2,0.1L37.6,24h0.1l0.4,0.6l0.2,0.6l0.1,0.2l0.1,0.3l0.2,0.2l0.3,0.3
        l0.2,0.1h0.2l0.2-0.1h0.1v0.4l-0.1,0.1l-0.2,0.1l0.1,0.2l0.1,0.3l0.1,0.1l-0.4-0.1l-0.4,0.1h-0.1v0.1h-1.2l-0.3-0.1h-0.1l-0.1-0.1
        l-0.2-0.1l-0.4-0.3l-0.3-0.3v-0.2h-0.4l-0.4,0.1l-0.1,0.2l-0.4,0.5l-0.2,0.4l-0.1,0.3L34,29.8v0.7l0.2,0.5l0.1,0.4l-0.1,0.2l0.5,1.1
        l-0.4-0.3h-0.6l-0.6-0.3L32.9,32l-0.2-0.3l-0.1-0.2l-0.1-0.1l-0.2-0.2h-0.2l-0.2,0.1l-0.2,0.1l-0.2,0.2v0.1l-0.1,0.1v0.1l-0.1,0.2
        v0.8h0.4l0.3-0.1l0.1,0.1V33l0.1,0.3l-0.1,0.6v0.2L32,34.2l-0.1,0.3l-0.1,0.1l-0.1,0.2l-0.1,0.1L31.5,35l-0.1,0.1h-0.2L31,35h-0.1
        v-0.1h-0.1v-0.1l-0.1-0.2l-0.2-0.3l-0.2-0.2H30l-0.1,0.1h-0.1L29.7,34l-0.1-0.1l-0.1-0.1v-0.1l-0.1-0.1v-0.5l0.2,0.1h0.2l0.4-0.2
        h0.1l0.2-0.1v-0.1l0.1-0.1v-0.2L30,31.1L29.9,31l-0.1-0.2l-0.5-0.1l-0.1-0.3v-0.1l-0.1-0.4v-0.1l0.1-0.1v-0.2L29,29.4l-0.5-0.1H28
        l-1.1,0.1l-0.6,0.1h-0.7l-0.8,0.2l-0.6,0.2L23.9,30h-0.1l-0.2-0.1l-0.1-0.1h-0.1v-0.1l-1.3-0.1l-0.3,0.1h-0.5l-0.5,0.2l-0.1,0.2
        l-0.5,0.3L20,30.6l-0.8,0.8l-0.1,0.2l0.1,0.1l0.3,0.2l0.1,0.1l0.2,0.3l-0.2,0.2l-0.3,0.3l-0.2-0.2l-0.6-0.3l-0.3,2.2V35L18,35.3
        l0.1,0.1l0.1,0.2v0.1h0.1l0.4,0.1h1.2l0.5,0.1h0.2l0.2,0.1l0.4,0.1h-0.6v0.1l-0.1,0.4l-0.2,0.8l-0.1,0.9l-0.1,0.4l-0.2,0.2l-0.1,0.4
        v0.3l0.2,0.2v0.6l0.1,1.2L20,41.8l-0.1,0.3l-0.2,0.7L19,43.9l-0.4,0.5l-0.2,0.7l-0.1,1v0.7l-0.2,1.3L18,48.2v0.1h-0.1l-0.3-0.1
        l-0.1-0.1L17.3,48l-0.9-0.1l-1.1-0.1h-0.1l-0.3,0.1h-0.2l-0.3,0.3v1.4l-0.2,0.5v0.2l-0.1,0.4l0.6,0.5l0.2,0.1l1.7,0.4l0.1,0.1
        l0.1-0.1l0.2-0.1l0.1-0.2l0.1-0.1l0.1-0.1l0.3,0.5l0.4,0.9l0.1,0.3v0.4l-0.2,0.2l-0.1,0.3l-0.2,0.5l-0.1,0.1l0.1,0.2v0.1l0.1,0.3
        l0.2,0.3l-0.4,0.2l-1.3,0.9l-0.4,0.3v0.4l-0.1,0.1l-0.1,0.1h-0.1l-1,0.4l-0.3,0.4l-0.3,0.6l0.5,0.2l0.7,0.7l0.1,0.1V60l-0.1,0.1
        l-0.4,0.6l-0.2,0.2l-0.3,0.2L14,61.2l-0.1,0.1L13.7,61l-0.1-0.1h-0.2l-1,0.3l-0.5,0.2l-0.3,0.2h-1l-0.3-0.1h-0.1v0.2l0.2,0.6h-0.1
        l-0.2-0.1l-0.3-0.3l-0.6-0.4H9.1L9,61.4H8.1l-0.3,0.2l-0.9,0.1H6.5L5.8,62l-0.3,0.4l0.3,1.3l0.3,1.1v0.1l0.6,0.2v1l0.6,0.6l0.1,0.1
        l0.4,0.8l0.1,0.2L8,68.5V69l-0.1,0.3l-0.1,0.5l0.1,0.6l-0.4,0.5l-1.2,1.6l-0.2,0.6v0.5l0.1,0.2h0.3l0.1-0.1l0.3-0.2h0.2l0.2,0.1H7.2
        l-0.4,0.2l-0.2,0.5l-1.3,0.9l-1.1,0.4l-0.5,0.2H3.6v0.1l0.1,0.5L4,77l0.2,0.2l0.4-0.1h0.8l-0.1,0.2l-0.1,0.2V78l0.5,0.1l0.2,0.1
        L6,78.3v0.1l-0.1,0.1l-0.1,0.3l0.1,0.1V79L6,79.1l-0.2,0.5l-0.2-0.1v-0.1H5.5l-0.2,0.1l-0.1,0.1l-0.1,0.1l-0.3,0.9l0.5,0.8l0.8,0.4
        l0.1,0.1l0.2,0.6l0.1,0.1l0.1,0.3L6.7,83l0.2,0.2H6.6l0.2,0.2l0.6,0.2l-0.2,0.6l-0.5,0.6v0.3l0.1,0.3l0.4,0.5h0.2v-0.1h0.3l0.4,0.1
        h0.1V86l0.2,0.1l0.1,0.1l0.3,0.5v0.4l-0.1,0.4v0.2l-0.1,0.2v0.3L9,88.7h0.1v0.1l0.1,0.1l0.1,0.2H9l-0.4,0.1L8.2,89L8,89.1H7.9
        l-0.2,0.4v0.2l-1.3,0.8l-0.1,0.1v0.2l0.1,0.7l-0.5,0.4l-0.3,1.2l-0.1,0.6l0.3,1L6,95.2v0.2l0.1,0.1l0.6,1L7,96.9l1,0.6L8.5,98h0.1
        l0.1,0.1l0.2,0.1h0.3l0.1-0.1L9.4,98l0.2,0.1l0.2,0.2L9.9,99v0.1L9.6,100l-1,1.7l-0.2,0.2H8.2v0.1H8.1l-0.2,0.4H7.8l0.3,0.4
        l-0.2,0.3H7.8v0.1l0.1,1.1l0.1,0.1h0.2l0.1-0.1h0.3l0.4,0.1l0.8,0.6h0.1l0.1,0.1v0.2H9.9l-0.1,0.1v0.1l0.3,1v0.1l0.2,0.4l0.1,0.1
        l0.1,0.2h0.1l0.3,0.2l0.3,0.3l0.2,0.5v0.4l0.4,0.2l0.1,0.2l-0.3,0.4l0.1,0.2l0.2,0.2l1,0.2l0.3-0.1l0.2-0.2v-0.2l-0.1-0.3l-0.1-0.1
        l-0.1-0.1l0.3-0.2l0.7,0.1l0.2,0.1l0.4,0.1l0.4,0.3l0.2,0.3v0.1l0.1,0.3l0.1,0.6v0.1l0.1,0.1l0.1-0.1l0.3-0.2l0.2-0.5l0.1,0.3
        l0.3,0.2v0.1l0.2,0.1l0.1-0.1l0.1-0.1h0.1l0.7,0.1l0.3,0.1l0.2,0.1h0.2l0.7-0.6l0.1-0.2h-0.1l0.1-0.1l0.1-0.1h0.4l0.4-0.1l0.6,0.3
        v0.6l0.3,0.7l0.3,0.2l0.1,0.1l0.8,0.5l0.5,0.1l0.7,0.1h0.4l0.6-0.2l0.8,0.1l0.2,0.1h0.2l0.6,0.2l0.8,0.4l0.2,0.2l0.1,0.1l0.3,0.2
        l0.5,0.2h0.4l0.6,0.1l0.1,0.1l-0.3,0.1l-0.1,0.1l-0.6,0.9l-0.2,0.3l-0.1,0.2v0.1l-0.1,0.3l-0.1,0.2v0.2l-0.1,0.2v0.1l-0.1,0.1
        l-0.1,0.1l-0.2,0.2l-0.6,0.4l-0.4,0.1h-0.1l-0.1,0.1l-0.1,0.7l-0.9,0.9v0.1l-0.3,0.1l-0.2,0.1l-0.1,0.1l-0.4,0.9l-0.1,0.1v0.1
        l0.1,0.2v0.9l-0.1,0.2h-0.1l-0.4,0.9l-0.3,0.9l-0.1,0.1v0.5l0.1,0.6v0.3h-0.1l-0.3,0.1l-0.1,0.1l-0.1,0.1v0.1l-0.2,0.7l-0.1,0.4v0.2
        h-0.1l-0.4,0.6l-0.4,0.5l-0.3,0.6v0.2l-0.1,0.5v1l0.4,0.5l0.1,0.1v0.1l0.1,0.2v0.1l-0.1,0.1l-0.1,0.2v0.1l-0.3,0.4l-0.4,0.9v0.2
        l0.1,0.2v0.2l-0.1,0.1l-0.2,0.5l-0.1,0.4v0.1l-0.1,0.1l0.1,0.1l0.1,0.5v0.4h-0.1v0.1l-0.3,0.2v0.1l0.1,0.5v0.2l0.8,1l1,0.2l0.1,0.2
        v0.2l-0.5,0.2h-0.1l0.1,0.2l0.3,0.2l0.1,0.1h0.2l0.7-0.2l0.4-0.2h0.1l0.2-0.2v-0.1l0.3-0.2h0.7l0.2,0.3l0.6,0.2l0.7,0.2h0.1l0.8-0.1
        l0.1-0.1v-0.3h0.1l1.1-0.7h0.2l0.5,0.1l0.4,0.1h0.1v0.4l0.3,0.3h0.1l1.2,0.1h0.1l0.3-0.1l0.3-0.1h0.1l-0.1-0.1l-0.2-0.3l0.6-0.5h0.2
        l0.2,0.1l0.2,0.2v0.1h-0.1v0.1l0.1,0.1H33l0.2-0.2l0.2-0.6l0.1-0.1v-0.1l-0.2-0.3h-0.7l-0.2,0.1l-0.1,0.1v0.1l-0.7,0.3v-0.1
        l-0.7-0.5l-0.1-0.1l0.1-0.4l0.6-0.9l0.2-0.3l0.2-0.1l0.2-0.1l0.6-0.1l0.1-0.2l0.1-0.2l0.5,0.1v0.6l0.1,0.1l0.1,0.1l0.1-0.2h0.1v-0.3
        l0.4,0.1l0.3,0.3l0.2,0.3l-0.1,0.1l-0.1,0.2l0.2,0.6l0.7,0.3l0.1,0.1l0.2-0.4l0.8,0.7l0.2,0.2h0.1l0.5-0.2l0.2-0.1l0.1-0.1h0.1
        l0.1-0.1l0.2-0.1l0.2-0.1h0.4l0.1,0.1l0.4,0.1h0.2l0.4,0.2l0.4,0.2h0.2l0.3-0.2v-0.3l-0.5-0.9l-0.3-0.3l-0.1,0.1l-0.1-0.1l-0.5-0.3
        l-0.1-0.1l-0.1-0.1l-0.5-0.5v-0.1l0.1-0.1h0.3v0.1l0.1,0.1l0.4,0.2l1.3,0.9l0.1,0.1v0.1l0.1,0.2l0.1,0.2l0.1,0.1l0.2,0.2l0.5,0.3
        l0.3,0.2l0.2,0.1h0.2l0.1-0.1h0.6l0.8,0.3l0.1,0.1l0.1,0.1l0.1,0.2v0.1l0.2,0.4l0.2,0.2l0.1,0.1h0.5l0.1,0.2l0.1,0.1l0.6,0.2
        l0.6,0.2l0.5-0.6l0.1-0.2l0.1-0.1h0.3l0.3,0.2v0.5l-0.1,0.1v0.1l0.7,0.3h0.6l0.1-0.1l0.4-0.2v0.4l0.4,0.7h0.3l0.4,0.2l0.3,0.3
        l0.1,0.2l0.2,0.3l-0.1,0.2l-0.1,0.1l-0.1,0.1l0.2,0.9l0.8-0.2l0.1-0.1v-0.2l0.1-0.2l0.6,0.1l0.1,0.1v0.2l-0.1,0.2l-0.2,0.1l-0.4,1.1
        l-0.1,0.1v0.3h0.1l0.8-0.1l0.4-0.2l0.6-0.3l0.2-0.3l0.9-1l0.7-1l-0.1-0.7v-0.1l-0.1-0.1h-0.3l-0.1-0.4V139l0.1-0.1h0.4v0.3l-0.1,0.1
        l-0.1,0.1l0.1,0.1l0.3,0.2l0.5,0.1H57l0.1-0.3v-0.2l0.2-0.1h0.2l0.9,0.1v0.3l0.9,0.3l0.4,0.1l0.7-0.3h0.3L61,140l-0.4,0.3l-0.1,0.1
        v0.2l0.1,0.1h0.1l0.6,0.2l0.4,0.4l0.2,0.3l0.1,0.2h-0.2v0.3l0.1,0.1h1.2l0.6-0.3l0.3-0.1v-0.1l0.6-0.2h0.6v0.1l-0.2,0.1l-0.1,0.4
        h-0.1l0.1,0.1l0.5-0.1l0.2-0.1l0.1-0.1v-0.2l0.1-0.2l1-0.8l0.3-0.3v-0.1l0.3-0.3l0.1,0.1h0.1l0.6,0.1L69,140l0.2-0.2v-0.6l0.2-0.4
        l0.3-0.2h1.9l0.5,0.1h0.2l0.2-0.4l0.6-0.2l0.7-0.1l0.6,0.1l0.5-0.1l0.3,0.1l0.5,0.1h0.7l0.2-0.1h0.1V138l-0.1-0.3l-0.1-0.2l-0.2-0.5
        l0.1-0.6l0.7-0.7h0.1l0.1,0.1v0.1l-0.1,0.2v0.1l0.2,0.6l0.8-0.3v0.1l0.3,0.1l0.9,0.1l0.4,0.5l0.4,0.4h0.1l0.9-0.5l0.1-0.3l0.1-0.1
        h0.1l0.7-0.2h0.3l0.7,0.2h0.2l0.5,1l-0.2,0.2l-0.1,0.3v0.1l0.1,0.2l0.1,0.2l0.1,0.1l1.3,0.9l0.6,0.3h0.1l0.4,0.2h0.1l0.5-0.5v-0.6
        h-0.2v-0.1l0.1-0.8v-0.1l0.3-0.5l0.2-0.3h0.1v-0.3l-0.4-0.9l-0.2-0.3h-0.1l-0.3-0.2h-0.1l-0.1,0.1v0.1l-0.1,0.1h-0.8l-0.2-0.1
        l-0.1-0.1v-0.1l0.7-1.3l0.4-0.8v-0.2l-0.5-0.9l-0.4-0.6l-0.2-0.2v-0.1h-0.1l-0.4-0.1h-0.1v-0.1l-0.2-0.7v-0.1l-0.1-0.1l-0.1-0.1
        l-0.4-0.3l-0.5-0.4l-0.1-0.2v-0.1l-0.1-0.1v-0.4l0.1-0.1l0.4-0.4l0.4-0.3l0.2-0.2l0.2-0.4v-0.2l0.1-0.1l0.5-0.1h0.5V127h0.1l0.4-0.5
        v-0.1l0.1-0.1l0.1-0.1l0.7-0.4h0.6l0.1-0.1l0.4-0.3h1l0.7-0.5h0.1l0.9-1h0.1v-0.1l0.2-0.9l0.1-0.1h-0.1v-0.1l-0.1-0.2v-0.3l0.1-0.1
        l0.2-0.6v-0.1l-0.1-0.5l-0.2-0.1l0.4-0.1l0.1-0.1l0.2-0.1l0.1-0.2l0.1-0.3l0.9,0.3l0.9,0.6l0.5,0.3h0.3l0.8-1.1l0.3-0.8V119l-0.3-1
        l-0.2-0.4l0.2-0.3l0.1-0.3l0.1-0.4l-0.2-0.5l-1-1.5h-0.1l-0.1,0.1h-0.1l-0.3,0.1h-0.1l-0.1-0.1l-0.2-0.2l-0.1-0.3l-0.1-0.3l-0.2-0.2
        l-0.5-0.5l-0.6-0.1l-0.3,0.1v0.5h-0.1l-0.8-0.5l-0.2-0.1l-0.1-0.7l-0.2-0.4l-0.1-0.2l-0.5-0.6L89,111l-0.5-0.3h-0.4l-0.1,0.1h-0.1
        l-0.3-0.1l-0.1-0.1l-0.2-0.1l-0.2-0.2v-0.5H87l-0.2-0.2l-0.3-0.2l-0.1-0.2l-1-1.4l-0.4-0.4l-0.3-0.4l-0.3-0.1h-0.1l-0.5-0.1h-0.2
        v0.1l0.1,0.1v0.1h-0.1l-0.9-0.1l-0.2-0.1h-0.1l-0.3-0.5l0.1-0.2l-0.1-0.2l-1.2-0.9l-0.3-0.5l0.1-0.1v-0.8h-0.1v-0.1v0.1h-0.4
        l-0.1-0.2v-0.1l-0.2-0.2l-0.5-1l-0.1-1l-0.1-0.3l-0.8-0.2h-0.1v-0.1l-0.4-0.4l-0.1-0.2v-0.3l0.7-0.5v-0.1l0.1-0.6l0.1-0.3v-0.1
        l0.4-0.6l0.1-0.2l0.1-0.6l-0.5-0.9l-0.1-0.1l-0.3-0.1l-0.2-0.1h-0.3l-0.7-0.4l-0.5-0.6L76,94.4v-0.3l-0.2-0.3l-0.2-0.2h-0.1
        l-0.1,0.1v-0.1l-0.1-0.1l-0.1-0.2v-0.5l0.2-0.2v-0.1l-0.2-0.4L75,91.8l-0.2-0.2h-0.1l-0.5-0.3l-0.1-0.5l0.1-0.1h0.1l0.2-0.1v-0.1
        l-0.2-0.4L74,89.8h1l0.2,0.2l1,1.4v0.5h-0.1v0.2l0.1,0.2h0.1l0.2,0.1h0.3v-0.5h-0.1v-0.1l-0.1-0.1l0.1-0.4v-0.2l0.3-0.6l0.4-0.6
        l1.3-1.6l0.8-0.2l0.9-0.1h0.1l0.7-0.4l0.9-0.5V87l0.1,0.1l0.8,0.5l0.5,0.3l0.1,0.1l0.4-0.3l0.4-0.5v-0.7l0.1-0.4l0.1-0.1l1-0.1
        l0.5,0.2l0.3-0.1l0.3-0.7v-0.2l0.6-0.6l1-0.8l0.4,0.1l0.6,0.3l0.4-0.4l0.1-0.1l0.3-0.8h0.1l-0.1-0.2l1.2-0.8h0.2l1.2-0.2l0.4,0.1
        l0.1,0.1h0.3l0.1-0.1l0.5-0.2v-0.8L94,80.6h0.5l1.5-0.5h0.1l0.2-0.3l0.3-0.1l1.9-1l1-0.4l0.1-0.4v-0.2h-0.1v-0.1h-0.2l-0.6-0.1
        l-0.1-0.1h-0.1l-0.6-0.5v-0.1l0.3-1l0.1-0.1v-0.1h0.2l0.2,0.2v0.1h0.1l0.8,0.3h0.1l0.8-0.1v-0.4l0.1-0.1l0.9,0.8l0.2,0.2l0.4,1.1
        l0.1,0.7l-0.1,0.4v0.1l0.4,0.2l0.9,0.3l0.4,0.1h0.3l0.1-0.1v-0.1l0.1-0.4v-0.4l0.3-0.5l0.2-0.3l0.3-0.4l0.2-0.7l0.2-0.5v-0.3
        l0.1-0.4l0.1-0.2l0.1-0.3l0.3-2.5l0.1-0.2l0.2-0.5v-0.5L106.2,70.9z"></path>
    <path class="map-icon__map" fill="#dddfe6"
          d="M34.5,136.5l-0.1-0.1l-0.4,0.1v0.3l0.1,0.1h0.5v-0.1L34.5,136.5z"></path>
    <g class="map-icon__pin">
      <circle class="map-icon__map" cx="63.5" cy="94.5" r="3" fill="#dddfe6"></circle>
      <path d="M63.5,97.5c1.7,0,3-1.3,3-3s-1.3-3-3-3s-3,1.3-3,3S61.8,97.5,63.5,97.5z M63.5,105.5
            c-1.3-1-6-7.7-6-11s2.7-6,6-6c3.3,0,6,2.7,6,6S64.8,104.5,63.5,105.5z" id="Nuremberg" fill="#d50c2d"></path>
    </g>
  </symbol>
  <symbol id="map-DE-Falkenstein" viewBox="0 0 110 150" xmlns="http://www.w3.org/2000/svg" class="ng-star-inserted"
          style="">

    <path class="map-icon__map" fill="#dddfe6" d="M36.2,12.6L35.1,13l-0.3,0.1v0.1l0.2,0.2l0.4-0.2L36,13l0.1-0.1h0.1V12.6z M34.2,10.9L33.9,11h-0.1l-0.1,0.1
        l-0.1,0.1l-0.1,0.1v0.2l-0.1,0.2l0.1,0.1l0.7,0.4h0.3l0.6,0.1h0.1v-0.1l0.3-0.6l-0.1-0.4v-0.1L35.2,11L35,10.9h-0.3L34.6,11
        l-0.3-0.1H34.2z M60.5,16.6l0.3,0.2h0.1h-0.1l-0.1-0.1v-0.2l0.4-0.1h0.2l0.1,0.1h0.1v0.6l0.8,0.1h1.4v-0.1l-0.2-0.5l-0.2-0.3
        l-0.5-0.9l-0.6-0.3L61.3,15l-0.1-0.1H61l-0.1,0.2l-0.1,0.1l-0.1,0.2l-0.1,0.2v0.2l-0.1,0.1v0.6L60.5,16.6z M32.4,11.2v-0.1l0.1-1.4
        l-0.1-0.1l0.1-0.3V9.1L32.6,9L33,8.8l0.1,0.1L33.3,9l0.3,0.2h0.1L34.2,9l0.3-0.3h-0.7l-0.3-0.3l-0.3-0.3l-0.1-1l0.2-0.4l0.1-0.1
        l0.2-0.2h0.2L34,6.2l0.3-0.5l-0.4-0.2h-0.3v0.1l-0.1,0.1l-0.3,0.8l-0.1,0.1l-0.3,0.6l-0.1,0.5l-0.2,0.5l-0.1,0.2v0.8l-0.1,1.6
        L32.4,11.2L32.4,11.2z M32.9,11.8l0.2-0.1L33,11.6v0.1l-0.5,0.4l-0.1,0.2v0.4l0.3,0.3l0.1,0.2l0.1,0.2h0.3l0.2-0.1l0.1-0.1v-0.1
        L33.3,13l-0.2-0.2l-0.3-0.6V12L32.9,11.8L32.9,11.8z M35.9,14.7l-0.4,0.2h-0.1v0.4l0.1,0.1l0.1,0.2l0.1,0.1h0.2l0.2-0.1h0.1l0.1-0.1
        l0.2-0.4l0.1-0.3v-0.3h-0.2L35.9,14.7L35.9,14.7z M34.6,14.1v0.1h0.1l0.2,0.2h0.3v-0.1l-0.1-0.2L35,14l-0.1,0.1L34.6,14
        C34.6,14,34.6,14.1,34.6,14.1z M81,16.2L81,16.2l0.7-0.2l0.1-0.1l0.1-0.1l-0.1-0.1h-0.1l-0.4,0.2L81.2,16l-0.1,0.1V16H81l-0.1,0.1
        H81V16.2z M89.4,21.1l0.4,0.4l0.1,0.9l0.7,1v0.1l0.7-0.4l0.1-0.2l-0.3-0.3v-0.3h0.6l0.3,0.3l0.4,0.5l0.1,0.1l0.1,0.2v0.9l-0.7-0.1
        l-0.1-0.3l-0.1-0.3l-0.1-0.1h-0.1l-0.4,0.1L91,23.8v0.3h0.1l0.2,0.3l0.1,0.2l0.1,0.4l-0.1,0.2v0.2h-0.1l-0.1,0.1l-0.3,0.1l-0.2,0.2
        h-0.2L90.4,26l0.1,0.2h0.2l0.3,0.1h0.2l0.4-0.1l0.5-0.1l0.8-0.4l1.3-0.2v0.1h0.1l0.2-1.1L93.8,24l-0.7-0.7l-0.9-0.9L92,22.3
        l-0.3-0.1l-0.1-0.1h-0.2L91.3,22l-0.4-0.1l-0.1-0.1l-0.1-0.1l-0.2-0.2l-0.2-0.2v-0.1L90,20.5l-0.1-0.1h-0.3l-0.1,0.1l-0.1,0.1
        l-0.1,0.1v0.2L89.4,21.1z M64.5,24.8l0.1,0.1V25h0.2l0.6,0.2l0.2-0.5l0.2-0.4V24h-0.1l-0.1-0.1L65.4,24h-0.2l-0.4,0.2l-0.2,0.2
        l-0.1,0.1V24.8L64.5,24.8z M84.8,13.8l-0.5,0.1h-0.8L83,14.1l-0.2,0.1l0.1,0.4l0.1,0.2h0.6l0.4,0.4l-0.1,0.3h-0.1l-0.3,0.1l-0.2,0.1
        H83l-0.2,0.5v0.1h0.1l0.9,0.2h0.1l-0.2,0.2l-1,0.5h-0.1v0.1l-0.1,0.4v0.2l0.3,0.9h0.1l2.7,0.9l0.2-0.1v-0.1l0.1-0.1l-0.1-0.1v-0.1
        L85.6,19h-0.1v0.1l-0.1,0.1l-0.2,0.1h-0.1V19l0.7-0.8l0.6-0.5l0.2-0.1v-0.1l1.8-0.2l0.3,0.4v0.1l-0.1,0.1L88.5,18l-0.2,0.1v0.3
        l0.4-0.1l0.2-0.3l0.2-0.4l-0.2-0.3l-0.3-0.5l-0.2-0.2l-0.2-0.2v0.1h-0.5v-0.1l-0.2-0.2l-0.2-0.4l-0.1-0.1v-0.6l0.1-0.1l0.2-0.3
        l0.4-0.3H88l0.1-0.1l0.1-0.2l0.1-0.2l-0.1-0.4h-0.1L88,13.3l-0.2-0.1h-0.5l-0.4,0.1h-0.1l-0.3,0.1L86,13.5h-0.3l-0.1-0.1h-0.1v-0.1
        l-0.2-0.1L85.2,13l-0.1-0.2L85,12.6v-0.2l0.1-0.2v-0.1h0.1l0.1-0.1h0.2v-0.1h0.1v-0.4H85l-0.8,0.2h-0.1L84,11.8l-0.3,0.3l-0.3,0.2
        v0.1l-0.5,1.3v0.2l0.1-0.1l0.5-0.5l0.1-0.3v-0.3l0.2-0.4l0.2-0.1l0.1,0.1v0.4L84,12.9l-0.1,0.2l-0.1,0.1v0.1l-0.1,0.3l0.1,0.2
        l0.4-0.2l0.4-0.2l1.2,0.4v0.1l0.4-0.1l0.3-0.1v1.4h-0.4l-0.5-0.2h-0.1l-0.7-0.4v-0.1L84.8,13.8z M29,28.7v0.1h0.1v-0.6H29l-0.1,0.1
        v0.4H29z M81.9,15.6v0.1V15.6l0.1-0.1l0.2-1.1l0.1-0.6l0.4-0.2l-0.5-0.2l-0.3,1.8v0.3L81.9,15.6z"></path>
    <path class="map-icon__map" fill="#dddfe6" d="M82.5,15.8v0.1l0.1,0.1l0.1-0.1l0.8-0.4l0.1-0.1l-0.1-0.2v-0.1L83.3,15H83l-0.1,0.1l-0.2,0.2v0.1L82.5,15.8z
         M14.7,31.3l0.4,0.3h0.1v-0.1h0.2l0.1,0.2l0.1-0.1l-0.1-0.2l-0.2-0.2l0.9-0.2l-0.1-0.1l-0.3-0.3h-0.2l-0.9,0.2l-0.1,0.1L14.5,31
        l0.1,0.1L14.7,31.3z M28,21.2h0.1l0.2-0.3v-0.1l-0.2,0.1L28,20.8h-0.1l-0.1,0.1l0.1,0.3H28z M19.8,29.3l0.1,0.1H20l0.4-0.1l1.3-0.1
        l0.1-0.1H22V29h-0.1v-0.1h-1.6L20.1,29l-0.2,0.1h-0.1l-0.1,0.1L19.8,29.3z M36.3,23.1l-0.1,0.1l-0.1,0.1v0.2l0.1,0.1h0.2v-0.4
        C36.4,23.2,36.3,23.1,36.3,23.1z M38,16.2l0.4,0.1l0.1-0.1l0.2-0.1l0.1-0.2h0.1l0.2-0.4v-0.2L39,15.2h-0.5l-0.2-0.1l-0.6,0.4h-0.1
        V16l0.2,0.1L38,16.2L38,16.2z M17,29.8h0.3l0.8-0.1l0.6-0.1H19l0.2,0.1h0.1v-0.1l-0.2-0.1h-0.5l-1.2,0.1L17,29.7h-0.1L17,29.8z
         M22.4,29l0.3,0.1h0.2v-0.2l-0.1-0.1h-0.4l-0.3,0.1l0.1,0.1H22.4z M27.5,28.3v-0.2l0.1-0.1l0.7,0.2l0.3,0.1v-0.1L28.4,28h-0.2
        l-0.3-0.1h-0.5L27.3,28L27.5,28.3z M25.4,28.6h0.1l0.2-0.2h0.6l0.7-0.1l-0.1-0.1l-0.2-0.1h-1.1l-0.1,0.1l-0.1,0.1v0.2V28.6z
         M23.3,29.1l0.4-0.4l0.5-0.1h0.7l-0.1,0.1H25v-0.2h-0.2l-0.2-0.1h-1.1l-0.1,0.1h-0.1l-0.1,0.2V29L23.3,29.1z"></path>
    <path class="map-icon__map" fill="#dddfe6" d="M106.2,70.9l-0.8-1.9v-0.7l-0.2-0.4l-0.1-0.1l-0.3-0.2l-1.5-0.5H103l-0.2-0.1l-0.2-0.1l-0.3-0.6h0.1l0.1-0.3
        l0.2-0.3l0.1-0.4l-0.1-0.8l-0.1-0.2l-0.1-0.1l-0.1-0.1l-0.1-0.1l-0.3-0.3l-0.3-0.3l-0.1-0.1l-0.5-1.1l-0.2-0.1V62l-0.2-0.2v-0.3
        l0.1-0.1l0.3-0.3l0.2-0.1l0.5-0.7l0.1-0.6l0.1-1.1l-0.1-0.1l0.2-0.4l0.1-0.1v-0.1l0.1-0.5v-0.1l-0.2-0.2V57l-0.1-0.1h-0.1l-0.1-0.1
        h-0.2l-0.1-0.1v-0.1l-0.1-0.1l-0.1-0.5l0.1-0.1l0.1-0.1l0.1-0.2v-1.3l-0.2-0.2V54h-0.1l-0.8-0.2h-0.2l-0.1-0.1l-0.1-0.2H100l-0.2-1
        L99.7,52v-0.1l-0.2-0.2v-0.2l0.1-0.4v-0.2h0.1v-0.1l0.3-0.1l0.1-0.2l0.3-0.5v-0.1l0.1-0.1l-0.1-1.4l-0.4-0.5l-0.1-0.1l-0.3-0.2
        l-0.1-0.1h-0.1l-0.1-0.1L99,47.3l-0.1-0.1L98.6,47l-0.2-0.1L98,46.6v-0.2h-0.1L97.6,46l-0.2-0.3l-0.3-0.3l-1.4-0.8l-0.6-0.3h-0.3
        l-0.1-0.1h-0.1V44l-0.1-0.1l0.1-0.2l0.2-0.2l0.1-0.2V43l-0.2-0.7L94.6,42l0.1-0.2l0.2-0.2l0.4-0.3h0.1l0.2-0.1l0.3-0.2l0.2-0.2
        l0.6-0.6v-0.1l0.1-0.2l0.1-0.4L97,39v-0.1l0.1-0.5l-0.2-0.2v-0.1L96.8,38v-0.3l0.1-0.3l0.1-0.1l0.4-0.6l0.2-0.4v-0.1l-0.1-0.1
        L97.4,36h-0.1l-0.2-0.5V35l-0.4-1.3l-0.3-0.8v-0.4l-0.3-0.4l-0.2-0.4l-0.1-0.4V30l-0.4-1.1l-0.2-1v-0.2L95,27.6h-0.1l-0.1-0.1
        l-0.1,0.1v0.1l-0.2,0.1L94.3,28h-0.8l-0.3-0.1l-1.1-0.4H92l-0.3-0.3l-0.3-0.3l-1-0.6h-0.1l-0.1-0.2V26l0.3-0.4l0.3-0.3l0.1-0.2H91
        V25h0.1v0.1l0.1-0.1l0.1-0.1v-0.1l-0.1-0.1l-0.1-0.2l-0.7-0.7l-0.6-1.2v-0.9l-0.1-0.2l-0.2-0.1l-0.6-0.7l-0.6,0.2l-1.6,0.5l-0.2,0.2
        l0.1,0.3l0.1,0.1l0.1,0.1l-0.1,0.1l-0.2-0.1h-0.2l-0.2-0.4v-0.2L86,21.3v-0.1l-0.3-0.1l-0.1,0.1h-0.1V21l0.3-0.2l-0.4-0.2H85
        l-0.1-0.1l-0.1-0.1v-0.1l-0.3-0.6l-0.1-0.1l-1-0.5h-0.2l-0.3,0.2l-0.4-0.5l-0.3-0.9l-0.1-0.2l0.2-0.3l-0.7-1l-0.4-0.1l-0.7,0.3
        l-0.3,0.2l-0.1,0.3v0.3L80,17.5l-0.2,0.2h-0.1l-0.3,0.1l-0.8-0.4l-0.9-0.2l-1,0.5l-0.9,0.7L75.3,19l-0.1,0.2v0.1l0.1,0.2h0.1
        l0.3,0.1h0.1v0.1h-0.7l-0.3-0.3l-0.1-0.5l0.1-0.3l0.5-1.1l0.1-0.1l1.6-0.6l0.5-0.3l0.6-0.2h0.3l0.1,0.1v0.2h0.8l0.7-0.1h0.4v-0.1
        l0.5-0.3V16h-0.8l-0.8,0.1h-1.9L76.7,16l-0.1-0.1h-0.1l-0.3-0.3l-0.4,0.7l-0.5,0.9l-0.7,1.4l-0.1,0.2l-0.1,0.1L74.3,19l-0.1,0.1
        h-0.1l-0.2,0.1l-0.6,0.4L73,19.8L72.9,20l-0.1,0.1l-0.3,0.6l-0.3,0.6l-0.5-0.1L71,21.1l-1.2,0.5l-0.2,0.1h-0.8l-0.2-0.1h-0.9
        l-1.3,1.1l-0.3,0.4l-0.2,0.2v0.2l0.1,0.2l0.3-0.4l0.1-0.2l0.1-0.1l0.1-0.2l0.3-0.3H67l0.1,0.2V23l-0.5,0.7l-0.1,0.1v0.1h-0.2
        L66,24.1l-0.1,0.1l-0.2,0.3l-0.1,1v0.2l-0.3,0.4L65.2,26L65,25.9l-0.1-0.1h-0.1v-0.2l-0.2-0.1l-0.4-0.2l-0.3,0.1l-0.1,0.1l-0.2,0.1
        v0.1h-0.1l-0.1-0.1h-0.1l-0.1-0.1l-0.1-0.2v-0.1l0.1-0.3l-0.6-0.6l-0.1-0.1h-1l-0.4,0.1H61l-0.1,0.1l-0.5,0.3l-0.8,0.6l-0.1-0.1
        h-0.2v-0.5l-0.1-0.1h-0.9v-0.1l-0.1-0.1v-0.1l-0.1-0.2l-0.2-0.3v-0.2l0.1-0.1v-0.1l0.6-0.6l0.1,0.1l0.4,0.1l0.1-0.1h0.1l0.1-0.1
        l0.4-0.6l0.5-0.4l0.6-0.4l0.1-0.1l0.5-0.4l-0.1-1l-0.2-1.2v-0.4l0.1-0.2l0.1-0.6l-1.5,0.1h-0.2L59.3,18L59,18.2l-0.2,0.3l-0.1,0.1
        l-0.4,0.3L58.1,19h-0.9v-0.1l-0.4-0.4v-0.1l-0.1-0.1l-0.1-0.1L56.4,18h-0.2l-2.1-1.1l-0.3-0.1h-0.2l-0.1-0.1h-0.1l-0.2,0.1l-0.8,0.4
        l-0.1,0.1l-0.4,0.8v0.3L51.6,18v-0.1l0.1-0.2l0.3-0.1l-0.2-0.7v-0.1l0.2-0.3l0.1-0.1l-0.3-0.3h-0.1l-0.3-0.2h-0.2L50.5,16l-0.9,0.2
        l-0.1,0.1l-0.3,0.1l-0.1,0.1h-0.6v-0.1l-0.1-0.1l-0.1-0.2l0.1-0.1h0.1l0.1,0.1h0.1l0.3-0.2l0.4-0.2l0.3-0.2l0.2-0.1l0.1-0.2l0.3-0.5
        v-1l0.1-0.5v-0.4l-0.6-1.9l-0.2-0.3l-0.3-0.2l-0.2-0.1v0.1H49l0.1,0.1l-0.3,0.6h-0.2L48.5,11h-0.2l-1-1.2l-0.6-0.2L46,9.3l0.2-0.4
        V8.8l-0.4-0.1l-0.9,0.8l-0.2,0.1h-0.2l-0.3,0.1l-0.1-0.1l-0.5,0.1v0.2l-0.3,0.2h-0.2L42.3,10l-0.1-0.3V9.5l0.1-0.1l-0.1-0.1
        l-0.4-0.2l-0.5-0.2h-1.1l-0.1-0.1H40V8.7l-0.1-0.1l-0.5-0.2h-0.1l-0.1-0.1h-0.5L38,8.2h-0.1l-0.1,0.1h-1.1l-0.2-0.1l-0.2-0.1H36
        l-0.3,0.6v0.7l0.4,0.4l0.3,0.5h0.1l0.1,0.3l0.2,0.7l0.3,1h0.1l0.2,0.2l0.3,0.2l0.2,0.1l0.5,0.7l1.2,1.6l0.2,0.5V16l-0.1,0.2h-0.1
        L38.7,17l-0.2,0.1l-0.2,0.1l-0.2,0.1l-0.2-0.2h-0.3l-1.1,0.2l-0.1,0.4v0.4l-0.5,0.3h-0.1l-0.2-0.2v-0.1l-0.2,0.1h-0.1v0.2l-0.1,0.1
        V19l0.1,0.2h0.1l0.8,0.4v0.1l0.1-0.1h0.1h-0.2l0.1-0.2l0.2-0.1l0.4-0.1h0.9v0.1l0.1,0.1v0.1l0.1,0.1v0.1h-0.1H38v0.2l-0.1,0.6
        l-0.1,0.3l-0.2,0.4l-0.1,0.1l0.1,0.1l0.1,0.5l0.1,0.1l0.1,0.1l0.1,0.1l0.1,0.1l0.3-0.2l0.2-0.1l0.2,0.1l0.6,1.2v0.2l-0.1,0.1v0.1
        l-0.1,0.1l-0.1,0.1h-0.3v-0.1l-0.1-0.1l-0.4-0.1l-0.2,0.1l-0.2,0.1L37.6,24h0.1l0.4,0.6l0.2,0.6l0.1,0.2l0.1,0.3l0.2,0.2l0.3,0.3
        l0.2,0.1h0.2l0.2-0.1h0.1v0.4l-0.1,0.1l-0.2,0.1l0.1,0.2l0.1,0.3l0.1,0.1l-0.4-0.1l-0.4,0.1h-0.1v0.1h-1.2l-0.3-0.1h-0.1l-0.1-0.1
        l-0.2-0.1l-0.4-0.3l-0.3-0.3v-0.2h-0.4l-0.4,0.1l-0.1,0.2l-0.4,0.5l-0.2,0.4l-0.1,0.3L34,29.8v0.7l0.2,0.5l0.1,0.4l-0.1,0.2l0.5,1.1
        l-0.4-0.3h-0.6l-0.6-0.3L32.9,32l-0.2-0.3l-0.1-0.2l-0.1-0.1l-0.2-0.2h-0.2l-0.2,0.1l-0.2,0.1l-0.2,0.2v0.1l-0.1,0.1v0.1l-0.1,0.2
        v0.8h0.4l0.3-0.1l0.1,0.1V33l0.1,0.3l-0.1,0.6v0.2L32,34.2l-0.1,0.3l-0.1,0.1l-0.1,0.2l-0.1,0.1L31.5,35l-0.1,0.1h-0.2L31,35h-0.1
        v-0.1h-0.1v-0.1l-0.1-0.2l-0.2-0.3l-0.2-0.2H30l-0.1,0.1h-0.1L29.7,34l-0.1-0.1l-0.1-0.1v-0.1l-0.1-0.1v-0.5l0.2,0.1h0.2l0.4-0.2
        h0.1l0.2-0.1v-0.1l0.1-0.1v-0.2L30,31.1L29.9,31l-0.1-0.2l-0.5-0.1l-0.1-0.3v-0.1l-0.1-0.4v-0.1l0.1-0.1v-0.2L29,29.4l-0.5-0.1H28
        l-1.1,0.1l-0.6,0.1h-0.7l-0.8,0.2l-0.6,0.2L23.9,30h-0.1l-0.2-0.1l-0.1-0.1h-0.1v-0.1l-1.3-0.1l-0.3,0.1h-0.5l-0.5,0.2l-0.1,0.2
        l-0.5,0.3L20,30.6l-0.8,0.8l-0.1,0.2l0.1,0.1l0.3,0.2l0.1,0.1l0.2,0.3l-0.2,0.2l-0.3,0.3l-0.2-0.2l-0.6-0.3l-0.3,2.2V35L18,35.3
        l0.1,0.1l0.1,0.2v0.1h0.1l0.4,0.1h1.2l0.5,0.1h0.2l0.2,0.1l0.4,0.1h-0.6v0.1l-0.1,0.4l-0.2,0.8l-0.1,0.9l-0.1,0.4l-0.2,0.2l-0.1,0.4
        v0.3l0.2,0.2v0.6l0.1,1.2L20,41.8l-0.1,0.3l-0.2,0.7L19,43.9l-0.4,0.5l-0.2,0.7l-0.1,1v0.7l-0.2,1.3L18,48.2v0.1h-0.1l-0.3-0.1
        l-0.1-0.1L17.3,48l-0.9-0.1l-1.1-0.1h-0.1l-0.3,0.1h-0.2l-0.3,0.3v1.4l-0.2,0.5v0.2l-0.1,0.4l0.6,0.5l0.2,0.1l1.7,0.4l0.1,0.1
        l0.1-0.1l0.2-0.1l0.1-0.2l0.1-0.1l0.1-0.1l0.3,0.5l0.4,0.9l0.1,0.3v0.4l-0.2,0.2l-0.1,0.3l-0.2,0.5l-0.1,0.1l0.1,0.2v0.1l0.1,0.3
        l0.2,0.3l-0.4,0.2l-1.3,0.9l-0.4,0.3v0.4l-0.1,0.1l-0.1,0.1h-0.1l-1,0.4l-0.3,0.4l-0.3,0.6l0.5,0.2l0.7,0.7l0.1,0.1V60l-0.1,0.1
        l-0.4,0.6l-0.2,0.2l-0.3,0.2L14,61.2l-0.1,0.1L13.7,61l-0.1-0.1h-0.2l-1,0.3l-0.5,0.2l-0.3,0.2h-1l-0.3-0.1h-0.1v0.2l0.2,0.6h-0.1
        l-0.2-0.1l-0.3-0.3l-0.6-0.4H9.1L9,61.4H8.1l-0.3,0.2l-0.9,0.1H6.5L5.8,62l-0.3,0.4l0.3,1.3l0.3,1.1v0.1l0.6,0.2v1l0.6,0.6l0.1,0.1
        l0.4,0.8l0.1,0.2L8,68.5V69l-0.1,0.3l-0.1,0.5l0.1,0.6l-0.4,0.5l-1.2,1.6l-0.2,0.6v0.5l0.1,0.2h0.3l0.1-0.1l0.3-0.2h0.2l0.2,0.1H7.2
        l-0.4,0.2l-0.2,0.5l-1.3,0.9l-1.1,0.4l-0.5,0.2H3.6v0.1l0.1,0.5L4,77l0.2,0.2l0.4-0.1h0.8l-0.1,0.2l-0.1,0.2V78l0.5,0.1l0.2,0.1
        L6,78.3v0.1l-0.1,0.1l-0.1,0.3l0.1,0.1V79L6,79.1l-0.2,0.5l-0.2-0.1v-0.1H5.5l-0.2,0.1l-0.1,0.1l-0.1,0.1l-0.3,0.9l0.5,0.8l0.8,0.4
        l0.1,0.1l0.2,0.6l0.1,0.1l0.1,0.3L6.7,83l0.2,0.2H6.6l0.2,0.2l0.6,0.2l-0.2,0.6l-0.5,0.6v0.3l0.1,0.3l0.4,0.5h0.2v-0.1h0.3l0.4,0.1
        h0.1V86l0.2,0.1l0.1,0.1l0.3,0.5v0.4l-0.1,0.4v0.2l-0.1,0.2v0.3L9,88.7h0.1v0.1l0.1,0.1l0.1,0.2H9l-0.4,0.1L8.2,89L8,89.1H7.9
        l-0.2,0.4v0.2l-1.3,0.8l-0.1,0.1v0.2l0.1,0.7l-0.5,0.4l-0.3,1.2l-0.1,0.6l0.3,1L6,95.2v0.2l0.1,0.1l0.6,1L7,96.9l1,0.6L8.5,98h0.1
        l0.1,0.1l0.2,0.1h0.3l0.1-0.1L9.4,98l0.2,0.1l0.2,0.2L9.9,99v0.1L9.6,100l-1,1.7l-0.2,0.2H8.2v0.1H8.1l-0.2,0.4H7.8l0.3,0.4
        l-0.2,0.3H7.8v0.1l0.1,1.1l0.1,0.1h0.2l0.1-0.1h0.3l0.4,0.1l0.8,0.6h0.1l0.1,0.1v0.2H9.9l-0.1,0.1v0.1l0.3,1v0.1l0.2,0.4l0.1,0.1
        l0.1,0.2h0.1l0.3,0.2l0.3,0.3l0.2,0.5v0.4l0.4,0.2l0.1,0.2l-0.3,0.4l0.1,0.2l0.2,0.2l1,0.2l0.3-0.1l0.2-0.2v-0.2l-0.1-0.3l-0.1-0.1
        l-0.1-0.1l0.3-0.2l0.7,0.1l0.2,0.1l0.4,0.1l0.4,0.3l0.2,0.3v0.1l0.1,0.3l0.1,0.6v0.1l0.1,0.1l0.1-0.1l0.3-0.2l0.2-0.5l0.1,0.3
        l0.3,0.2v0.1l0.2,0.1l0.1-0.1l0.1-0.1h0.1l0.7,0.1l0.3,0.1l0.2,0.1h0.2l0.7-0.6l0.1-0.2h-0.1l0.1-0.1l0.1-0.1h0.4l0.4-0.1l0.6,0.3
        v0.6l0.3,0.7l0.3,0.2l0.1,0.1l0.8,0.5l0.5,0.1l0.7,0.1h0.4l0.6-0.2l0.8,0.1l0.2,0.1h0.2l0.6,0.2l0.8,0.4l0.2,0.2l0.1,0.1l0.3,0.2
        l0.5,0.2h0.4l0.6,0.1l0.1,0.1l-0.3,0.1l-0.1,0.1l-0.6,0.9l-0.2,0.3l-0.1,0.2v0.1l-0.1,0.3l-0.1,0.2v0.2l-0.1,0.2v0.1l-0.1,0.1
        l-0.1,0.1l-0.2,0.2l-0.6,0.4l-0.4,0.1h-0.1l-0.1,0.1l-0.1,0.7l-0.9,0.9v0.1l-0.3,0.1l-0.2,0.1l-0.1,0.1l-0.4,0.9l-0.1,0.1v0.1
        l0.1,0.2v0.9l-0.1,0.2h-0.1l-0.4,0.9l-0.3,0.9l-0.1,0.1v0.5l0.1,0.6v0.3h-0.1l-0.3,0.1l-0.1,0.1l-0.1,0.1v0.1l-0.2,0.7l-0.1,0.4v0.2
        h-0.1l-0.4,0.6l-0.4,0.5l-0.3,0.6v0.2l-0.1,0.5v1l0.4,0.5l0.1,0.1v0.1l0.1,0.2v0.1l-0.1,0.1l-0.1,0.2v0.1l-0.3,0.4l-0.4,0.9v0.2
        l0.1,0.2v0.2l-0.1,0.1l-0.2,0.5l-0.1,0.4v0.1l-0.1,0.1l0.1,0.1l0.1,0.5v0.4h-0.1v0.1l-0.3,0.2v0.1l0.1,0.5v0.2l0.8,1l1,0.2l0.1,0.2
        v0.2l-0.5,0.2h-0.1l0.1,0.2l0.3,0.2l0.1,0.1h0.2l0.7-0.2l0.4-0.2h0.1l0.2-0.2v-0.1l0.3-0.2h0.7l0.2,0.3l0.6,0.2l0.7,0.2h0.1l0.8-0.1
        l0.1-0.1v-0.3h0.1l1.1-0.7h0.2l0.5,0.1l0.4,0.1h0.1v0.4l0.3,0.3h0.1l1.2,0.1h0.1l0.3-0.1l0.3-0.1h0.1l-0.1-0.1l-0.2-0.3l0.6-0.5h0.2
        l0.2,0.1l0.2,0.2v0.1h-0.1v0.1l0.1,0.1H33l0.2-0.2l0.2-0.6l0.1-0.1v-0.1l-0.2-0.3h-0.7l-0.2,0.1l-0.1,0.1v0.1l-0.7,0.3v-0.1
        l-0.7-0.5l-0.1-0.1l0.1-0.4l0.6-0.9l0.2-0.3l0.2-0.1l0.2-0.1l0.6-0.1l0.1-0.2l0.1-0.2l0.5,0.1v0.6l0.1,0.1l0.1,0.1l0.1-0.2h0.1v-0.3
        l0.4,0.1l0.3,0.3l0.2,0.3l-0.1,0.1l-0.1,0.2l0.2,0.6l0.7,0.3l0.1,0.1l0.2-0.4l0.8,0.7l0.2,0.2h0.1l0.5-0.2l0.2-0.1l0.1-0.1h0.1
        l0.1-0.1l0.2-0.1l0.2-0.1h0.4l0.1,0.1l0.4,0.1h0.2l0.4,0.2l0.4,0.2h0.2l0.3-0.2v-0.3l-0.5-0.9l-0.3-0.3l-0.1,0.1l-0.1-0.1l-0.5-0.3
        l-0.1-0.1l-0.1-0.1l-0.5-0.5v-0.1l0.1-0.1h0.3v0.1l0.1,0.1l0.4,0.2l1.3,0.9l0.1,0.1v0.1l0.1,0.2l0.1,0.2l0.1,0.1l0.2,0.2l0.5,0.3
        l0.3,0.2l0.2,0.1h0.2l0.1-0.1h0.6l0.8,0.3l0.1,0.1l0.1,0.1l0.1,0.2v0.1l0.2,0.4l0.2,0.2l0.1,0.1h0.5l0.1,0.2l0.1,0.1l0.6,0.2
        l0.6,0.2l0.5-0.6l0.1-0.2l0.1-0.1h0.3l0.3,0.2v0.5l-0.1,0.1v0.1l0.7,0.3h0.6l0.1-0.1l0.4-0.2v0.4l0.4,0.7h0.3l0.4,0.2l0.3,0.3
        l0.1,0.2l0.2,0.3l-0.1,0.2l-0.1,0.1l-0.1,0.1l0.2,0.9l0.8-0.2l0.1-0.1v-0.2l0.1-0.2l0.6,0.1l0.1,0.1v0.2l-0.1,0.2l-0.2,0.1l-0.4,1.1
        l-0.1,0.1v0.3h0.1l0.8-0.1l0.4-0.2l0.6-0.3l0.2-0.3l0.9-1l0.7-1l-0.1-0.7v-0.1l-0.1-0.1h-0.3l-0.1-0.4V139l0.1-0.1h0.4v0.3l-0.1,0.1
        l-0.1,0.1l0.1,0.1l0.3,0.2l0.5,0.1H57l0.1-0.3v-0.2l0.2-0.1h0.2l0.9,0.1v0.3l0.9,0.3l0.4,0.1l0.7-0.3h0.3L61,140l-0.4,0.3l-0.1,0.1
        v0.2l0.1,0.1h0.1l0.6,0.2l0.4,0.4l0.2,0.3l0.1,0.2h-0.2v0.3l0.1,0.1h1.2l0.6-0.3l0.3-0.1v-0.1l0.6-0.2h0.6v0.1l-0.2,0.1l-0.1,0.4
        h-0.1l0.1,0.1l0.5-0.1l0.2-0.1l0.1-0.1v-0.2l0.1-0.2l1-0.8l0.3-0.3v-0.1l0.3-0.3l0.1,0.1h0.1l0.6,0.1L69,140l0.2-0.2v-0.6l0.2-0.4
        l0.3-0.2h1.9l0.5,0.1h0.2l0.2-0.4l0.6-0.2l0.7-0.1l0.6,0.1l0.5-0.1l0.3,0.1l0.5,0.1h0.7l0.2-0.1h0.1V138l-0.1-0.3l-0.1-0.2l-0.2-0.5
        l0.1-0.6l0.7-0.7h0.1l0.1,0.1v0.1l-0.1,0.2v0.1l0.2,0.6l0.8-0.3v0.1l0.3,0.1l0.9,0.1l0.4,0.5l0.4,0.4h0.1l0.9-0.5l0.1-0.3l0.1-0.1
        h0.1l0.7-0.2h0.3l0.7,0.2h0.2l0.5,1l-0.2,0.2l-0.1,0.3v0.1l0.1,0.2l0.1,0.2l0.1,0.1l1.3,0.9l0.6,0.3h0.1l0.4,0.2h0.1l0.5-0.5v-0.6
        h-0.2v-0.1l0.1-0.8v-0.1l0.3-0.5l0.2-0.3h0.1v-0.3l-0.4-0.9l-0.2-0.3h-0.1l-0.3-0.2h-0.1l-0.1,0.1v0.1l-0.1,0.1h-0.8l-0.2-0.1
        l-0.1-0.1v-0.1l0.7-1.3l0.4-0.8v-0.2l-0.5-0.9l-0.4-0.6l-0.2-0.2v-0.1h-0.1l-0.4-0.1h-0.1v-0.1l-0.2-0.7v-0.1l-0.1-0.1l-0.1-0.1
        l-0.4-0.3l-0.5-0.4l-0.1-0.2v-0.1l-0.1-0.1v-0.4l0.1-0.1l0.4-0.4l0.4-0.3l0.2-0.2l0.2-0.4v-0.2l0.1-0.1l0.5-0.1h0.5V127h0.1l0.4-0.5
        v-0.1l0.1-0.1l0.1-0.1l0.7-0.4h0.6l0.1-0.1l0.4-0.3h1l0.7-0.5h0.1l0.9-1h0.1v-0.1l0.2-0.9l0.1-0.1h-0.1v-0.1l-0.1-0.2v-0.3l0.1-0.1
        l0.2-0.6v-0.1l-0.1-0.5l-0.2-0.1l0.4-0.1l0.1-0.1l0.2-0.1l0.1-0.2l0.1-0.3l0.9,0.3l0.9,0.6l0.5,0.3h0.3l0.8-1.1l0.3-0.8V119l-0.3-1
        l-0.2-0.4l0.2-0.3l0.1-0.3l0.1-0.4l-0.2-0.5l-1-1.5h-0.1l-0.1,0.1h-0.1l-0.3,0.1h-0.1l-0.1-0.1l-0.2-0.2l-0.1-0.3l-0.1-0.3l-0.2-0.2
        l-0.5-0.5l-0.6-0.1l-0.3,0.1v0.5h-0.1l-0.8-0.5l-0.2-0.1l-0.1-0.7l-0.2-0.4l-0.1-0.2l-0.5-0.6L89,111l-0.5-0.3h-0.4l-0.1,0.1h-0.1
        l-0.3-0.1l-0.1-0.1l-0.2-0.1l-0.2-0.2v-0.5H87l-0.2-0.2l-0.3-0.2l-0.1-0.2l-1-1.4l-0.4-0.4l-0.3-0.4l-0.3-0.1h-0.1l-0.5-0.1h-0.2
        v0.1l0.1,0.1v0.1h-0.1l-0.9-0.1l-0.2-0.1h-0.1l-0.3-0.5l0.1-0.2l-0.1-0.2l-1.2-0.9l-0.3-0.5l0.1-0.1v-0.8h-0.1v-0.1v0.1h-0.4
        l-0.1-0.2v-0.1l-0.2-0.2l-0.5-1l-0.1-1l-0.1-0.3l-0.8-0.2h-0.1v-0.1l-0.4-0.4l-0.1-0.2v-0.3l0.7-0.5v-0.1l0.1-0.6l0.1-0.3v-0.1
        l0.4-0.6l0.1-0.2l0.1-0.6l-0.5-0.9l-0.1-0.1l-0.3-0.1l-0.2-0.1h-0.3l-0.7-0.4l-0.5-0.6L76,94.4v-0.3l-0.2-0.3l-0.2-0.2h-0.1
        l-0.1,0.1v-0.1l-0.1-0.1l-0.1-0.2v-0.5l0.2-0.2v-0.1l-0.2-0.4L75,91.8l-0.2-0.2h-0.1l-0.5-0.3l-0.1-0.5l0.1-0.1h0.1l0.2-0.1v-0.1
        l-0.2-0.4L74,89.8h1l0.2,0.2l1,1.4v0.5h-0.1v0.2l0.1,0.2h0.1l0.2,0.1h0.3v-0.5h-0.1v-0.1l-0.1-0.1l0.1-0.4v-0.2l0.3-0.6l0.4-0.6
        l1.3-1.6l0.8-0.2l0.9-0.1h0.1l0.7-0.4l0.9-0.5V87l0.1,0.1l0.8,0.5l0.5,0.3l0.1,0.1l0.4-0.3l0.4-0.5v-0.7l0.1-0.4l0.1-0.1l1-0.1
        l0.5,0.2l0.3-0.1l0.3-0.7v-0.2l0.6-0.6l1-0.8l0.4,0.1l0.6,0.3l0.4-0.4l0.1-0.1l0.3-0.8h0.1l-0.1-0.2l1.2-0.8h0.2l1.2-0.2l0.4,0.1
        l0.1,0.1h0.3l0.1-0.1l0.5-0.2v-0.8L94,80.6h0.5l1.5-0.5h0.1l0.2-0.3l0.3-0.1l1.9-1l1-0.4l0.1-0.4v-0.2h-0.1v-0.1h-0.2l-0.6-0.1
        l-0.1-0.1h-0.1l-0.6-0.5v-0.1l0.3-1l0.1-0.1v-0.1h0.2l0.2,0.2v0.1h0.1l0.8,0.3h0.1l0.8-0.1v-0.4l0.1-0.1l0.9,0.8l0.2,0.2l0.4,1.1
        l0.1,0.7l-0.1,0.4v0.1l0.4,0.2l0.9,0.3l0.4,0.1h0.3l0.1-0.1v-0.1l0.1-0.4v-0.4l0.3-0.5l0.2-0.3l0.3-0.4l0.2-0.7l0.2-0.5v-0.3
        l0.1-0.4l0.1-0.2l0.1-0.3l0.3-2.5l0.1-0.2l0.2-0.5v-0.5L106.2,70.9z"></path>
    <path class="map-icon__map" fill="#dddfe6"
          d="M34.5,136.5l-0.1-0.1l-0.4,0.1v0.3l0.1,0.1h0.5v-0.1L34.5,136.5z"></path>
    <g class="map-icon__pin map-icon__pin--clickable map-icon__pin--active">
      <circle class="map-icon__map" cx="76.5" cy="74.5" r="3" fill="#dddfe6"></circle>
      <path d="M76.5,77.5c1.7,0,3-1.3,3-3s-1.3-3-3-3s-3,1.3-3,3S74.9,77.5,76.5,77.5z M76.5,85.5
            c-1.3-1-6-7.7-6-11s2.7-6,6-6s6,2.7,6,6S77.8,84.5,76.5,85.5z" id="Falkenstein" fill="#d50c2d"></path>
    </g>
  </symbol>
  <symbol id="map-FI-Helsinki" viewBox="0 0 92 160" xmlns="http://www.w3.org/2000/svg" class="ng-star-inserted"
          style="">
    <path class="map-icon__map" fill="#dddfe6"
          d="M89.9 109.3l-1.7-1.4-.6-1.9-1.2-.9-1.6-1.3-2.2-.9-.9-1.3-2.6-2.9 1.5-1.1 1.7-4.4-.5-2.4-2.7-1.8-.7-2.1v-1.1l.5-.5v-1l-.5-.6.2-.8-2.4-.5-.8-2.8.3-1 1-.3.3-.8-.3-.5.4-.8-.4-.5-1.3-.1.5-1.8.2-1.6.4-1.5-.5-.8 1.3-1 1-.1-.5-3-1.4-4.1-1.2-1.8-1.5-4.1-3.2-5.4.3-1.2 4.9-9.1.2-2.2-2.3-1.6-2.3-4.8-3.6-1.5-1.2-5 1.4-2.5.3-2.3-.4-.7h-1.5l2.6-2.2-.5-1.8.2-1.7 2.5-3.3-1.4-3.7-4.3-2.1-.1-.9-1.4-.8-1.3-2-.8.5-.7-.2-.6.8-2.1 1.6-2.4-.6-1.4.5-.8 2-1.5 1.3-.7 1.1.3.8-.5.9-.9 5.1.2 3.1-.5 1.7-1-.2-.9.5-1.2 1.8.1 1.8-.8-.1-.4.7-1.2-1.5-2.1-.9-2.1-1.5-.9.5-.6 1-1.4.5-1.4.6-.3-.7-1.6-.2-1.5-1.1-.9.4.1-1.7-3.4-7-2.1-.7-1.3.7-.8.9.5 1.4-.3.9-1.6-1.3-1.1 1.1 1.5 1.9.1 1.3 1 .3 1.7 3.4 1.1.3.4 1.1 1.2.5.4 1.3 1.6.4 2.1.9 2.4 2.2v1.4l.3.9.7-.1.3 1.4 1.3 1.3-.6.7-.4.7v.9l.1 2.8-.8 1.9.6 1 1.3.3-.3.8.2.8-1.1.6-.1 1.6 2.4 5.4-.9 1-.2 2.7-.9.8-.2.7-.3.9.3.9-.3.6.4 1.9 1 1v1l.9 1.3v1l.6 1.4v1l.5-.1.4-.6.4.6 1.1.4.3.5-.4.7.3.4.5-.4.2.7.4-.1.3-.3.7.1.4.5h.5l.4.4v.7h.4l.2-.3.9 1.7-.1.6-.3.4v.7l-.3.4.2.5v1.5l-.4.6.2.5.6.4.3.4.1 1.1.5.4-.1.3h-.3l-.6-.6h-.7l-.1.3v.4l.9 1 .2.6-.2.2h-.4l-.1-.6-1-.5h-.9l-.5.3h-1l-.3.4-.3.3-.6.1-.2 1.3-1 .6-.4 2.2-.7.4v.4l-.9.6-1 1-.2.4-.3.6v.7l-.3.2-.4-.3-.4.7-.4.3-.9 1.3v1.1l-.5.1-.6-.5-.3.3-.1 2.2-2.4.1-.3.5h-.3l-.3-.4h-.6l-.5.7-.5.3.2.8-.1.6-.6.4-.1.4-.4.2-.4.4v.2l-.5.3-.2.8-.3-.4-.3.2-.3 1.1h-.4l-.2.3.2.3.2.3.6 1.3-.2.6h-.5l-.4.7-.7.2-1.7-.6-1.2.5h-.6l-.2-.7-.4.4v1.1l-.4.4v.4l.5.5.2.3-.3.1-.4-.1-.3.1-.5-.3-.3.4.6.4.2.5-.1.5-.5.5.1.5-.2.2-.6.1v-.3l-.6.2-.1.9-.3.3h-.5l-.1.2.3.4v.4l-.3.3-.3.3-.1 1 .2.2.3-.3.2.2.1.4-.5.8-.1.8.2.3-.3 1.2.4.5h1v.4l-.5.7v.5l.7.3.1.4-.6.6v.6l-.3.6-.4 1.3.4.7.1.5.4.2.2 1.2.3.2v.2l-.4.1-.1.3.6.8v1.4l.7 1.4-.4-.1-.4-.5h-.3l-.1.3.3.7.4.3v.2l-.6-.2h-.4v.4l.6.3.2.5h-.3l-.3-.1h-.3v.2l.4 1.2-.2 1.2v.3l-.1.2-.4-.2-.3 2-.4.7-.2-.3-.4.2.2 1.2.5.5-.1.4-.3-.3-.3-.6-.4.1-.2.2.3.3v.4l-.7.1.1.3.7.4v.3l-.2.1-.1.3.1.4.1.7.2.3v.9l.5 1.5.8.6.2.9.5-.1.2-1 1-.5.4.1-.4.9-.4-.1-.3.5-.1.4.9-.2h1l.4.4v.4h-.4l-.1.2.5.4.4-.2.2.1-.1 1 .4.1.5.4 1.9-.3.3-.3.4.3-.7 1.2v.5h.7l.5.4 1.2-.3 1.7-1.4.3.5-1.5 1.8.2 1 .8.4-.2 2-.5-.2h-.5l-.1.6.4.6.9.2.2-.3v-.7l.3-.2.3.3-.2.9-.3.4-1.3.5-.3.3.3.5 1-.5 1.3.1.6-.6v-.4l.5-.5.6.1.4.2.8-.1.6.1.3-.2-.1-.5h.9l1.8-.8h1.5l1-.7v1h.2l.4-.3.3.2-.7.8h.5l1.5-1.8v-.5l.1-.2.2.2 1.3-.4.5.3h.7l.3-.4.1.6.5-.4-.1-.7.5.2.4-.5.1-.3 1-.3h1.2l.3-.4v-.7l.8-.1.2.8.6.8h.2l.4-.4.4.3.2-.3-.2-.8.2-.1.4.8.3-.1-.1-.6.2-.1.4.2.3-.1-.5-.8-.1-.6-.4-.6v-.4l.8.7.5.6.3.6.3-.1-.2-.6h.7l.4.6v-.6h.4l.6-.6.9-.1.3-.2.3.2h.5l.4-.3.7.6h.5l.2-.3v-.9l.6-.6 1.4.5 1.1.1.5.7.3-.3.3-.2.3.1h.9l.3-.5.2-.8.2-.2.6.4.5-.4v-.5l2.7-2.5.3-1 1.9-1.6 1-.2.1-1.1 1-1.6.8-.3 2.1-1.5 1.9-3.2.3-.8 1.2-.9 1-2.1 1.5-1.3.6-1.7 1-1.1 2-3.4 1.4-2.2 1-.4 1.7-3.2 2-6.5z"></path>
    <path class="map-icon__map" fill="#dddfe6"
          d="M28.3 97.2l-.4-.3-.2.9.2.4.3-.3zM22.6 102.4l-.2-.2-.5.1.2.6.4-.1zM23.5 103.5l-.5.8h.2l.4-.3h.4l.2-.3-.3-.2zM23.2 104.7l.2.5h.6l.6.3.3-.5v-.5l-.4.1-.7-.3zM21.4 104.8l.3.3.1-.3-.6-.5-.4.4v.6h.3zM18.3 103.4v-.4H18l-.2.4-.2.5h.4zM19.1 104.2l.3-.4-.2-.5h-.4l-.5.5.3.4zM17.7 106.2l.3.3.5.1.3-.5.6.2.2-.5-.4-.8-.4-.1-.2.4h-.5l-.2-.3.4-.3-.1-.3-.3-.3-.4.5-.3-.3-.2.1.4 1.8zM15.1 109.4l.1-.3v-.4l-.3-.1-.3.5.2.3zM17.5 109.8l.1-.5-.1-.4-.3-.3-.2.2v.7l.2.2zM17 111.6l.3-.3-.2-.4-.4.2-.3.5.4.2zM16.4 113.3v-.1l-.2-.5H16l-.1.5.1.2zM16.2 116v-.2l-.3-.4-.2.2-.1.3.3.3zM16 137.1h.3l.2-.3-.1-.3-.3-.2-.1.2-.1.2zM13.2 146.4h-.4l.1 1.5.4.1.4-.9zM12.1 147.1l-.4.3-.1.4.4.7.3-.2.2-.6zM12.4 148.7l.2.7.3.2.2-.2.2-.8-.4-.4zM11.7 149.7v-.5l-.4-.2-.2.5.3.3zM10.6 149.8l.2-.5-.3-.3-.2.2-.2.5.2.1zM11 150.8l-.1-.2-.2-.4-.4.2V151l.2.2zM10 151.2l-.1-.3h-.3l-.2.2.2.6h.5l-.1-.3zM9.1 151.7l-.3.5.3.3.1.6h.6v-.3l.1-.1-.3-.7zM7.9 149.1l-.7-.4-.3.2v.4l1.1.1zM7.5 151.3l.4-.5-.3-.4.2-.4-.2-.2-.3.2-.3.3.3.3-.1.7zM7.5 153.5l-.3.3-.7.6.2.2h.7l1-.3.3-.4-.2-.3zM8.1 152.7l-.2.2.2.3.6.1v-.2l-.3-.4zM6.6 151.8l-.2-.1-.5.6.1.8h.6l-.2-.4.3-.5z"></path>
    <path class="map-icon__map" fill="#dddfe6"
          d="M6 153.3l-.1-.3-.8-.4-.2.2h-.4l-.1-.2.4-1-.5-.4.3-.5.3.1.6.6.8-.2.4-1-.5-.6-.1-.5-.4-.2-.3-.5-.7-.2-.8-.7-.6.2-.6.9.7.1.2.3v.4l.1.2-.2.3-.3-.1.1-.8-.4-.2-.4.5H2l-.4-.1-1 .4-.1.4.2.3-.1.6.3.6h.3l.2-.5.2.1H2l.5.5v.7l.3.3h.5l.2.3.1.5.6-.1.7.4.2.6.3-.1.1.5.5-.3.1-.4-.3-.3zM11.3 155.3l-.7.3-.1.4.6.4.3-.4h.2l.1-.2.1-.2-.3-.2zM45.6 152.9h-.3l-.3.2.2.2.1.1h.5l.1-.1.2-.3h-.3zM46.5 153.3v.4l.1.2h.3l-.1-.8zM47.5 152.1l-.2.1v1.4l.2.2.3-.2v-.2l.1-.1v-.3l-.3-.4zM49.5 153.1l-.1.1-.3.1-.1.2v.3l.7.1.3-.4-.1-.2zM50.8 152.5l.3.4.5-.1-.1-.6zM51.8 151.6l-.1.3.1.2.3.1.3-.1-.2-.5zM53.5 151.2l.2.3.8.1v-.3l-.7-.4zM55.9 151.4l.3.2.3.2.2-.3-.3-.5zM55 150.1l-.6.6.4.3.7-.5-.1-.4zM59.4 152.1h-.1l-.3.3v.3l.5.1.3-.3-.1-.1zM58 150.5l.3.6h.3V150l-.3-.1zM17.6 130.6l.3-.3-.5-.8-.2-.1-.1.6-.2.2.3.4zM14.6 147.4h.5v-.4l-.7-1-.2.2.2.9zM15.5 146.2l-.2.2v.5l.6.8.3.1.2-.7-.3-.3v-.1zM14.8 144.8l-.5.3.1.6.4.4.4-.3-.1-.8zM16.2 157.5l-.5.5.4.2.3-.2.4-.3-.1-.2zM17.5 156l-.2.3.1.4.5.1.1-.2v-.7l-.3-.3zM14 148.1l-.2.2-.1.5.3.2.2-.4zM14.8 149.1h-.4l-.1.4.2.3.5-.1.1-.2zM15.2 149.1l.2.3.1-.2.2-.1-.1-.7-.3.1zM16.6 148.6v.4l.1.1h.3l.2-.3.2-.4-.1-.3zM15.8 151.5h-.9l-.3-.3-.4.1-.1.9 1 .3.3-.1.3-.1v-.4zM16.2 152.7l-.1.1-.3.4.2.3h.7l.3-.2.1-.1v-.3l.1-.4v-.4l-.5.1z"></path>
    <path class="map-icon__map" fill="#dddfe6"
          d="M15.4 151.4l.3-.3v-.5h-.3l-.3.3v.1l-.2.2.2.2zM16.3 151.8l.3.2.5-.3-.5-1.1-.3.2zM19.2 150.8l.4.1.4-.3v-.5l.1-.4-.8-1.2-.1-.3-.5-.3-.2.2-.1.6.4.9.5.4-.1.5zM17.7 152.6l-.1.8.4.1.5-.6.5-.2.2-.3-.5-.3h-.9zM18.2 149.6l-.7-.2-.1.2-.1.3.5.4.5-.1-.1-.3zM18.3 153.5l.2.2 1.2.1.1-.3-1-.4zM19.6 152.5v.6l.7-.1.2-.7-.2-.2zM23.7 150.6l-.2-.4-1.4.3-.6.1-.6-.2-.3.8.1.4.5.2v.4l.3.4h.5zM22.5 153.3l.4-.6-.2-.2h-.5l-.6.8.2.2h.4zM26.4 153.9l-.4-.9.7-1.1-2.8.7-.4-.4-.2.3v.3l-.3.2.3.3v.4l-.8.6-.2.7.4.6.8.1.5-.3.7.3.7-.1.3-.4-.1-.5zM23.6 156l-.2.2.2.5.7.1.2-.2-.4-.5zM22.8 156.4v-.4l-.3-.2-.2.1-.3.2.2.6h.5zM22.3 157.9l.6.3.6-.5v-.4h-.6zM26.9 154.6l.1-.4-.3-.2-.4.4.1.2zM26.7 155.4l-.4-.6-.5.4.2.6.4-.2zM30.1 157.8l-.2.4.2.1.3.1.1-.2h.3l.1-.4-.4.1zM34.7 156.3h-.3l-.4.2-.2.5.4.2.4-.4.5-.4h-.2zM44.9 79.4l.6-.2v-.3l-.3-.3-.3.2h-.4l-.5-.6-1.6.4-.3.6.5 1.1.6-.1.5.3.4-.3-.3-1.1.4-.1zM46.5 78.1l-.4-.2-.2.3.3.3h.4zM35.4 91.9l.1-.2-.1-.3-.4.1v.2l-.1.4h.4z"></path>
    <path class="map-icon__pin map-icon__pin--active" fill="#d50c2d"
          d="M41.5 143.2a3 3 0 0 0 3-3c0-1.7-1.3-3-3-3s-3 1.3-3 3a3 3 0 0 0 3 3zm0 8c-1.3-1-6-7.7-6-11s2.7-6 6-6 6 2.7 6 6-4.7 10-6 11z"
          id="Tuusula"></path>
  </symbol>
</svg>
