<?xml version="1.0" encoding="UTF-8" standalone="no"?>
<!DOCTYPE svg PUBLIC "-//W3C//DTD SVG 1.1//EN"
 "http://www.w3.org/Graphics/SVG/1.1/DTD/svg11.dtd">
<!-- Generated by graphviz version 2.40.1 (20161225.0304)
 -->
<!-- Title: dependencies Pages: 1 -->
<svg width="716pt" height="284pt"
 viewBox="0.00 0.00 716.00 284.00" xmlns="http://www.w3.org/2000/svg" xmlns:xlink="http://www.w3.org/1999/xlink">
<g id="graph0" class="graph" transform="scale(1 1) rotate(0) translate(4 280)">
<title>dependencies</title>
<polygon fill="#ffffff" stroke="transparent" points="-4,4 -4,-280 712,-280 712,4 -4,4"/>
<text text-anchor="start" x="333.0091" y="-42.4" font-family="sans-serif" font-weight="bold" font-size="14.00" fill="#000000">Legend</text>
<polygon fill="#ffffb3" stroke="transparent" points="120,-10 120,-30 140,-30 140,-10 120,-10"/>
<text text-anchor="start" x="143.629" y="-15.4" font-family="sans-serif" font-size="14.00" fill="#000000"> &#160;Declarations</text>
<polygon fill="#8dd3c7" stroke="transparent" points="233,-10 233,-30 253,-30 253,-10 233,-10"/>
<text text-anchor="start" x="256.7251" y="-15.4" font-family="sans-serif" font-size="14.00" fill="#000000"> &#160;Module</text>
<polygon fill="#80b1d3" stroke="transparent" points="319,-10 319,-30 339,-30 339,-10 319,-10"/>
<text text-anchor="start" x="342.7812" y="-15.4" font-family="sans-serif" font-size="14.00" fill="#000000"> &#160;Bootstrap</text>
<polygon fill="#fdb462" stroke="transparent" points="416,-10 416,-30 436,-30 436,-10 416,-10"/>
<text text-anchor="start" x="439.6732" y="-15.4" font-family="sans-serif" font-size="14.00" fill="#000000"> &#160;Providers</text>
<polygon fill="#fb8072" stroke="transparent" points="512,-10 512,-30 532,-30 532,-10 512,-10"/>
<text text-anchor="start" x="535.7258" y="-15.4" font-family="sans-serif" font-size="14.00" fill="#000000"> &#160;Exports</text>
<g id="clust1" class="cluster">
<title>cluster_HetznerAppModule</title>
<polygon fill="none" stroke="#000000" stroke-dasharray="1,5" points="8,-70 8,-268 700,-268 700,-70 8,-70"/>
</g>
<g id="clust2" class="cluster">
<title>cluster_HetznerAppModule_declarations</title>
<polygon fill="none" stroke="#000000" points="348,-78 348,-130 692,-130 692,-78 348,-78"/>
</g>
<g id="clust7" class="cluster">
<title>cluster_HetznerAppModule_exports</title>
<polygon fill="none" stroke="#000000" points="222,-208 222,-260 576,-260 576,-208 222,-208"/>
</g>
<g id="clust9" class="cluster">
<title>cluster_HetznerAppModule_providers</title>
<polygon fill="none" stroke="#000000" points="16,-78 16,-130 340,-130 340,-78 16,-78"/>
</g>
<!-- FileSizePipe -->
<g id="node1" class="node">
<title>FileSizePipe</title>
<polygon fill="#ffffb3" stroke="#000000" points="684.2689,-122 597.7311,-122 597.7311,-86 684.2689,-86 684.2689,-122"/>
<text text-anchor="middle" x="641" y="-99.8" font-family="Times,serif" font-size="14.00" fill="#000000">FileSizePipe</text>
</g>
<!-- HetznerAppModule -->
<g id="node4" class="node">
<title>HetznerAppModule</title>
<polygon fill="#8dd3c7" stroke="#000000" points="464.958,-187 461.958,-191 440.958,-191 437.958,-187 337.042,-187 337.042,-151 464.958,-151 464.958,-187"/>
<text text-anchor="middle" x="401" y="-164.8" font-family="Times,serif" font-size="14.00" fill="#000000">HetznerAppModule</text>
</g>
<!-- FileSizePipe&#45;&gt;HetznerAppModule -->
<g id="edge1" class="edge">
<title>FileSizePipe&#45;&gt;HetznerAppModule</title>
<path fill="none" stroke="#000000" d="M641,-122.1061C641,-141.3391 641,-169 641,-169 641,-169 475.0003,-169 475.0003,-169"/>
<polygon fill="#000000" stroke="#000000" points="475.0004,-165.5001 465.0003,-169 475.0003,-172.5001 475.0004,-165.5001"/>
</g>
<!-- PriceReplacePipe -->
<g id="node2" class="node">
<title>PriceReplacePipe</title>
<polygon fill="#ffffb3" stroke="#000000" points="579.2367,-122 464.7633,-122 464.7633,-86 579.2367,-86 579.2367,-122"/>
<text text-anchor="middle" x="522" y="-99.8" font-family="Times,serif" font-size="14.00" fill="#000000">PriceReplacePipe</text>
</g>
<!-- PriceReplacePipe&#45;&gt;HetznerAppModule -->
<g id="edge2" class="edge">
<title>PriceReplacePipe&#45;&gt;HetznerAppModule</title>
<path fill="none" stroke="#000000" d="M471.4224,-122.027C471.4224,-138.3976 471.4224,-160 471.4224,-160 471.4224,-160 470.8219,-160 470.8219,-160"/>
<polygon fill="#000000" stroke="#000000" points="475.4182,-156.5002 465.4182,-160 475.4181,-163.5002 475.4182,-156.5002"/>
</g>
<!-- TruncatePipe -->
<g id="node3" class="node">
<title>TruncatePipe</title>
<polygon fill="#ffffb3" stroke="#000000" points="446.1361,-122 355.8639,-122 355.8639,-86 446.1361,-86 446.1361,-122"/>
<text text-anchor="middle" x="401" y="-99.8" font-family="Times,serif" font-size="14.00" fill="#000000">TruncatePipe</text>
</g>
<!-- TruncatePipe&#45;&gt;HetznerAppModule -->
<g id="edge3" class="edge">
<title>TruncatePipe&#45;&gt;HetznerAppModule</title>
<path fill="none" stroke="#000000" d="M401,-122.1061C401,-122.1061 401,-140.991 401,-140.991"/>
<polygon fill="#000000" stroke="#000000" points="397.5001,-140.9909 401,-150.991 404.5001,-140.991 397.5001,-140.9909"/>
</g>
<!-- FileSizePipe  -->
<g id="node5" class="node">
<title>FileSizePipe </title>
<polygon fill="#fb8072" stroke="#000000" points="568.269,-252 477.731,-252 477.731,-216 568.269,-216 568.269,-252"/>
<text text-anchor="middle" x="523" y="-229.8" font-family="Times,serif" font-size="14.00" fill="#000000">FileSizePipe </text>
</g>
<!-- HetznerAppModule&#45;&gt;FileSizePipe  -->
<g id="edge4" class="edge">
<title>HetznerAppModule&#45;&gt;FileSizePipe </title>
<path fill="none" stroke="#000000" stroke-dasharray="5,2" d="M465.2155,-178C494.6068,-178 523,-178 523,-178 523,-178 523,-205.973 523,-205.973"/>
<polygon fill="#000000" stroke="#000000" points="519.5001,-205.973 523,-215.973 526.5001,-205.973 519.5001,-205.973"/>
</g>
<!-- PriceReplacePipe  -->
<g id="node6" class="node">
<title>PriceReplacePipe </title>
<polygon fill="#fb8072" stroke="#000000" points="460.2366,-252 341.7634,-252 341.7634,-216 460.2366,-216 460.2366,-252"/>
<text text-anchor="middle" x="401" y="-229.8" font-family="Times,serif" font-size="14.00" fill="#000000">PriceReplacePipe </text>
</g>
<!-- HetznerAppModule&#45;&gt;PriceReplacePipe  -->
<g id="edge5" class="edge">
<title>HetznerAppModule&#45;&gt;PriceReplacePipe </title>
<path fill="none" stroke="#000000" stroke-dasharray="5,2" d="M401,-187.1061C401,-187.1061 401,-205.991 401,-205.991"/>
<polygon fill="#000000" stroke="#000000" points="397.5001,-205.9909 401,-215.991 404.5001,-205.991 397.5001,-205.9909"/>
</g>
<!-- TruncatePipe  -->
<g id="node7" class="node">
<title>TruncatePipe </title>
<polygon fill="#fb8072" stroke="#000000" points="324.1355,-252 229.8645,-252 229.8645,-216 324.1355,-216 324.1355,-252"/>
<text text-anchor="middle" x="277" y="-229.8" font-family="Times,serif" font-size="14.00" fill="#000000">TruncatePipe </text>
</g>
<!-- HetznerAppModule&#45;&gt;TruncatePipe  -->
<g id="edge6" class="edge">
<title>HetznerAppModule&#45;&gt;TruncatePipe </title>
<path fill="none" stroke="#000000" stroke-dasharray="5,2" d="M336.8207,-178C306.5639,-178 277,-178 277,-178 277,-178 277,-205.973 277,-205.973"/>
<polygon fill="#000000" stroke="#000000" points="273.5001,-205.973 277,-215.973 280.5001,-205.973 273.5001,-205.973"/>
</g>
<!-- NetworkProvider -->
<g id="node8" class="node">
<title>NetworkProvider</title>
<ellipse fill="#fdb462" stroke="#000000" cx="254" cy="-104" rx="78.1501" ry="18"/>
<text text-anchor="middle" x="254" y="-99.8" font-family="Times,serif" font-size="14.00" fill="#000000">NetworkProvider</text>
</g>
<!-- NetworkProvider&#45;&gt;HetznerAppModule -->
<g id="edge7" class="edge">
<title>NetworkProvider&#45;&gt;HetznerAppModule</title>
<path fill="none" stroke="#000000" d="M328.0714,-109.993C328.0714,-124.4395 328.0714,-160 328.0714,-160 328.0714,-160 328.9656,-160 328.9656,-160"/>
<polygon fill="#000000" stroke="#000000" points="327.0139,-163.5001 337.0138,-160 327.0138,-156.5001 327.0139,-163.5001"/>
</g>
<!-- ConfigService -->
<g id="node9" class="node">
<title>ConfigService</title>
<ellipse fill="#fdb462" stroke="#000000" cx="91" cy="-104" rx="66.6325" ry="18"/>
<text text-anchor="middle" x="91" y="-99.8" font-family="Times,serif" font-size="14.00" fill="#000000">ConfigService</text>
</g>
<!-- ConfigService&#45;&gt;HetznerAppModule -->
<g id="edge8" class="edge">
<title>ConfigService&#45;&gt;HetznerAppModule</title>
<path fill="none" stroke="#000000" d="M91,-122.1061C91,-141.3391 91,-169 91,-169 91,-169 326.7678,-169 326.7678,-169"/>
<polygon fill="#000000" stroke="#000000" points="326.7678,-172.5001 336.7678,-169 326.7678,-165.5001 326.7678,-172.5001"/>
</g>
</g>
</svg>
