<?xml version="1.0" encoding="UTF-8" standalone="no"?>
<!DOCTYPE svg PUBLIC "-//W3C//DTD SVG 1.1//EN"
 "http://www.w3.org/Graphics/SVG/1.1/DTD/svg11.dtd">
<!-- Generated by graphviz version 2.40.1 (20161225.0304)
 -->
<!-- Title: dependencies Pages: 1 -->
<svg width="504pt" height="211pt"
 viewBox="0.00 0.00 504.00 211.00" xmlns="http://www.w3.org/2000/svg" xmlns:xlink="http://www.w3.org/1999/xlink">
<g id="graph0" class="graph" transform="scale(1 1) rotate(0) translate(4 207)">
<title>dependencies</title>
<polygon fill="#ffffff" stroke="transparent" points="-4,4 -4,-207 500,-207 500,4 -4,4"/>
<text text-anchor="start" x="227.0091" y="-42.4" font-family="sans-serif" font-weight="bold" font-size="14.00" fill="#000000">Legend</text>
<polygon fill="#ffffb3" stroke="transparent" points="14,-10 14,-30 34,-30 34,-10 14,-10"/>
<text text-anchor="start" x="37.629" y="-15.4" font-family="sans-serif" font-size="14.00" fill="#000000"> &#160;Declarations</text>
<polygon fill="#8dd3c7" stroke="transparent" points="127,-10 127,-30 147,-30 147,-10 127,-10"/>
<text text-anchor="start" x="150.7251" y="-15.4" font-family="sans-serif" font-size="14.00" fill="#000000"> &#160;Module</text>
<polygon fill="#80b1d3" stroke="transparent" points="213,-10 213,-30 233,-30 233,-10 213,-10"/>
<text text-anchor="start" x="236.7812" y="-15.4" font-family="sans-serif" font-size="14.00" fill="#000000"> &#160;Bootstrap</text>
<polygon fill="#fdb462" stroke="transparent" points="310,-10 310,-30 330,-30 330,-10 310,-10"/>
<text text-anchor="start" x="333.6732" y="-15.4" font-family="sans-serif" font-size="14.00" fill="#000000"> &#160;Providers</text>
<polygon fill="#fb8072" stroke="transparent" points="406,-10 406,-30 426,-30 426,-10 406,-10"/>
<text text-anchor="start" x="429.7258" y="-15.4" font-family="sans-serif" font-size="14.00" fill="#000000"> &#160;Exports</text>
<g id="clust1" class="cluster">
<title>cluster_HetznerAppModule</title>
<polygon fill="none" stroke="#000000" stroke-dasharray="1,5" points="78,-70 78,-195 418,-195 418,-70 78,-70"/>
</g>
<g id="clust6" class="cluster">
<title>cluster_HetznerAppModule_providers</title>
<polygon fill="none" stroke="#000000" points="86,-78 86,-130 410,-130 410,-78 86,-78"/>
</g>
<!-- NetworkProvider -->
<g id="node1" class="node">
<title>NetworkProvider</title>
<ellipse fill="#fdb462" stroke="#000000" cx="324" cy="-104" rx="78.1501" ry="18"/>
<text text-anchor="middle" x="324" y="-99.8" font-family="Times,serif" font-size="14.00" fill="#000000">NetworkProvider</text>
</g>
<!-- HetznerAppModule -->
<g id="node3" class="node">
<title>HetznerAppModule</title>
<polygon fill="#8dd3c7" stroke="#000000" points="305.958,-187 302.958,-191 281.958,-191 278.958,-187 178.042,-187 178.042,-151 305.958,-151 305.958,-187"/>
<text text-anchor="middle" x="242" y="-164.8" font-family="Times,serif" font-size="14.00" fill="#000000">HetznerAppModule</text>
</g>
<!-- NetworkProvider&#45;&gt;HetznerAppModule -->
<g id="edge1" class="edge">
<title>NetworkProvider&#45;&gt;HetznerAppModule</title>
<path fill="none" stroke="#000000" d="M275.952,-118.4256C275.952,-118.4256 275.952,-140.8939 275.952,-140.8939"/>
<polygon fill="#000000" stroke="#000000" points="272.4521,-140.8938 275.952,-150.8939 279.4521,-140.8939 272.4521,-140.8938"/>
</g>
<!-- ConfigService -->
<g id="node2" class="node">
<title>ConfigService</title>
<ellipse fill="#fdb462" stroke="#000000" cx="161" cy="-104" rx="66.6325" ry="18"/>
<text text-anchor="middle" x="161" y="-99.8" font-family="Times,serif" font-size="14.00" fill="#000000">ConfigService</text>
</g>
<!-- ConfigService&#45;&gt;HetznerAppModule -->
<g id="edge2" class="edge">
<title>ConfigService&#45;&gt;HetznerAppModule</title>
<path fill="none" stroke="#000000" d="M202.9185,-118.104C202.9185,-118.104 202.9185,-140.7209 202.9185,-140.7209"/>
<polygon fill="#000000" stroke="#000000" points="199.4186,-140.7209 202.9185,-150.7209 206.4186,-140.7209 199.4186,-140.7209"/>
</g>
</g>
</svg>
