<svg id="logo-centos" viewBox="0 0 37 36" width="100%" height="100%" xmlns="http://www.w3.org/2000/svg">

  <path
    d="M18.5416667.3375801l-4.3738932 4.37440912h3.5351852V14.9248026l.838708.838708.8392266-.839224V4.71198922h3.5351825L18.5416667.33758012zM5.95535567 5.5512158v6.1861858l2.5001061-2.5001061 7.22178083 7.2217808h1.1864895v-1.1864922L9.6419513 8.0508033l2.4995902-2.4995875H5.95535567zm7.37319393 0l-2.4995902 2.4995875 6.0347727 6.0347753V5.5512158h-3.5351825zm6.8910517 0v8.5343628l6.0352886-6.0347753-2.4995875-2.4995875h-3.5357011zm4.7221906 0l2.4995902 2.4995875-7.2217808 7.2217808v1.1864922h1.1870054l7.2212649-7.2217808 2.5001061 2.5001061V5.5512158h-6.1861858zM8.45546176 10.424301l-2.5001061 2.5001061v3.5346692h8.53487884L8.45546176 10.424301zm20.17240984 0l-6.0352886 6.0347753h8.5353947v-3.5346692l-2.5001061-2.5001061zM5.11664768 13.7631151L.74223592 18.1370109l4.37441176 4.3738905v-3.5346666H15.3289424l.8392266-.8392239-.8392266-.8392266H5.11664768v-3.5346692zm26.85055662.0005185v3.5341507H21.7538724l-.839224.8392266.839224.8392239h10.2133319v3.5341507l4.3738932-4.3733746-4.3738932-4.3733773zM5.95535567 19.8149428v3.5346692l2.5001061 2.5001061 6.03477273-6.0347753H5.95535567zm9.72188693 0l-7.22178084 7.2217808-2.5001061-2.5001034v6.1861831h6.18618584l-2.4995902-2.4995875 7.2217808-7.2217808v-1.1864922h-1.1864895zm4.5423587 0v1.1864922l7.2217808 7.2217808-2.4995902 2.4995875h6.1861858v-6.1861831l-2.5001061 2.5001034-7.2212649-7.2217808h-1.1870054zm2.3729817 0l6.0352886 6.0347753 2.5001061-2.5001061v-3.5346692H22.592583zm-4.0509163.6955658l-.838708.838708v10.2128133h-3.5351852l4.3738932 4.3738932 4.3744091-4.3738932h-3.5351825V21.3497325l-.8392266-.8392239zm-1.6779346 1.6779345l-6.0347727 6.0347727 2.4995902 2.4995875h3.5351825v-8.5343602zm3.3558692 0v8.5343602h3.5357011l2.4995875-2.4995875-6.0352886-6.0347727z"></path>
</svg>
