<svg id="logo-debian" viewBox="0 0 41 50" width="100%" height="100%" xmlns="http://www.w3.org/2000/svg" xmlns:xlink="http://www.w3.org/1999/xlink">
  <title>Debian Logo</title>
  <path d="M24.4092809 26.2830275c-.8278315.0114679.1566292.4247707 1.2373708.590367.2985168-.2321101.5693932-.4669725.8107865-.6954128-.6730449.1642201-1.3580674.1678899-2.0481573.1050458m4.4432022-1.1027523c.4929214-.6775229.8522472-1.419266.9789326-2.1862385-.1105618.546789-.4086179 1.0188073-.6891685 1.5169725-1.5474045.9701835-.145573-.5761468-.0009214-1.1637615-1.663955 2.0853211-.2284943 1.2504587-.2888427 1.8330275m1.6763371-4.2495413c.1085-1.4844036-.3185-1.0151376-.462-.4486238.1675.0798165.3 1.0463303.462.4486238M21.2702472.64174312c.4417865.086.9545168.152.8826517.2665.4832472-.115.5928876-.221-.8826517-.2665"></path>
  <path d="M22.1795618.88623853l-.339.07.3155-.028.0235-.042"></path>
  <path d="M35.9288989 21.493578c.0492921 1.3330275-.3915731 1.9798165-.7891349 3.1247706l-.7154269.3559633c-.5855169 1.1321101.0566629.7188074-.3625506 1.6192661-.9139775.8091743-2.7737191 2.5321101-3.3689101 2.6894495-.4344157-.009633.2943708-.5105504.3897303-.7068807-1.2235505.8366972-.9816966 1.2559633-2.852955 1.7642202l-.0548202-.1211009c-4.6150337 2.1619266-11.0257753-2.1224771-10.9414719-7.9683487-.0492922.3711009-.140045.2784404-.2423147.4284404-.2381685-3.0077982 1.3949214-6.0288991 4.1492922-7.2623853 2.6940225-1.3279817 5.8524045-.7830275 7.7821685 1.0077981-1.0600112-1.3825688-3.1698989-2.8481651-5.6704382-2.7110091-2.4494045.0385321-4.7407977 1.5885321-5.5055168 3.2711009-1.2548764.7866972-1.4004495 3.0325688-1.9472697 3.443578-.7356966 5.3839449 1.3838652 7.7100917 4.9692921 10.4463302.5643259.3788991.1589326.4362386.2354045.7247707-1.1913033-.5555046-2.2821797-1.3940367-3.1791123-2.4206422.4758764.693578.9895281 1.3678899 1.6533595 1.8977064-1.1231236-.3788991-2.6235393-2.7100917-3.0616404-2.8050459 1.9362135 3.4518349 7.8554157 6.0536698 10.9548314 4.7628441-1.4340786.0527523-3.2560449.0293578-4.8674831-.5637615-.6767304-.346789-1.5971573-1.0651376-1.4326966-1.1995413 4.2299101 1.5733945 8.5994044 1.1917431 12.2594606-1.7298165.9310225-.7220183 1.948191-1.9504587 2.2421012-1.9674312-.4427079.662844.0755505.3188074-.264427.9041285.9277977-1.4899083-.4030899-.6064221.9591236-2.5729358l.5030562.6899082c-.1870337-1.2366972 1.542337-2.7385321 1.3668202-4.6944954.3966404-.5981651.4427079.643578.0216517 2.0197248.5841348-1.5266055.1538651-1.7720184.3040449-3.0316514.1621573.4233945.3749888.8733945.4841686 1.3201835-.3805169-1.4752294.3906516-2.4844037.5813707-3.3417431-.187955-.0830275-.5873595.6522936-.678573-1.090367.0133596-.7568807.2114494-.396789.2879214-.5830275-.1492585-.0853211-.5408315-.6655963-.779-1.7784404.1727528-.2614679.4615955.6779817.6965393.7165138-.1511011-.8848624-.411382-1.5596331-.4219775-2.2385321-.6864045-1.4284404-.2427753.1903669-.7997304-.6133028-.7306292-2.269266.6062472-.5266055.6965393-1.5577982 1.1074607 1.5977065 1.739045 4.0738533 2.028809 5.0995413-.2211236-1.2504587-.5786067-2.4619266-1.0148651-3.6339449.3362921.1408257-.5417528-2.5729358.4371797-.7756881C38.9357191 8.58073394 35.506 5.00091743 32.3508427 3.32110092c.3860449.35183486.8734382.79357798.698382.86284403-1.5690562-.93027523-1.2931123-1.0027523-1.5179213-1.39587156-1.2783708-.5178899-1.3622135.0417431-2.2089326.0009174-2.4093259-1.2724771-2.8736854-1.137156-5.0909101-1.9344037l.1008876.469266c-1.5962359-.5293578-1.8597416.20091743-3.5849663.00183486-.1050337-.08165137.552809-.29541284 1.0941011-.3738532-1.5432584.2027523-1.4709325-.3027523-2.9810224.0559633.3722247-.26009175.7656404-.4321101 1.1627415-.653211-1.2585618.07614677-3.0045168.7293578-2.465528.1353211-2.0527641.9119266-5.6985394 2.19220182-7.7443933 4.10229356l-.06449438-.42798166c-.9374719 1.1206422-4.08802248 3.346789-4.3390899 4.79816516l-.25060673.0582569c-.487854.82247705-.8034158 1.7545872-1.1903821 2.6009174-.6380337 1.0825688-.93516857.4165138-.84441577.5862386-1.2548764 2.5334862-1.8781685 4.6623853-2.4166966 6.4082568.38374157.571101.0092135 3.4380734.15432584 5.7325689C.2317191 35.6807339 8.8490899 46.6834862 18.2684944 49.2238532c1.3806404.4917431 3.4338652.4729358 5.1802809.5233945-2.0605955-.5866972-2.3268652-.3110092-4.3340225-1.0077982-1.4478989-.678899-1.7653034-1.4541284-2.790764-2.3403669l.4058539.7142202c-2.0113034-.7087156-1.1696517-.8770643-2.8059663-1.3931193l.4334944-.5637615c-.6518539-.0490826-1.7266068-1.0940367-2.0205169-1.672477l-.7131236.0279816c-.8568539-1.0527523-1.313382-1.8114679-1.2802134-2.3990826l-.2303371.4087156c-.26120227-.4463302-3.15239328-3.9481651-1.65243823-3.1330275-.27870786-.2536697-.64908988-.412844-1.05079775-1.1394495l.30542697-.3477065c-.7218765-.9247706-1.3285843-2.1100917-1.2825169-2.5050458.3851236.5178899.6523146.6146789.9167416.703211-1.8228877-4.5036697-1.9251573-.2481652-3.3057978-4.5844037l.2920674-.0233945c-.22388766-.3357798-.3597865-.7004587-.5399101-1.0582569l.12714603-1.2614679c-1.31246067-1.5110091-.3671573-6.4247706-.1778202-9.1197247.1312921-1.0958716 1.09548312-2.2623853 1.8288764-4.0917431l-.44685395-.0766055c.85408994-1.4834863 4.8766967-5.9577982 6.739663-5.72752298.9024607-1.12889908-.1792023-.00412844-.3556405-.2885321 1.9822809-2.04266056 2.6055731-1.44311928 3.9433708-1.81055047 1.4428315-.8527523-1.2382921.3325688-.554191-.32522936 2.4940899-.6344037 1.7676068-1.4422019 5.0213483-1.7642202.3432023.1944954-.7965056.3004587-1.0825842.5527523 2.0781011-1.0123854 6.5761236-.7821101 9.4977191.5619266 3.3901011 1.5775229 7.198955 6.2408257 7.3491348 10.6284404l.1709101.0458715c-.0866067 1.7440367.2681124 3.7610092-.346427 5.6137615l.4182922-.8770642"></path>
  <path d="M15.373618 27.4146789l-.1160899.5779817c.5440562.7357798.9757079 1.5330275 1.6704045 2.1082568-.4998315-.9715596-.8711348-1.3729357-1.5543146-2.6862385m1.2862022-.0504587c-.2879213-.3169725-.4583708-.6986239-.6490899-1.0788991.182427.6683486.5560337 1.2426606.9038427 1.8266055l-.2547528-.7477064m22.7591461-4.9256881l-.121618.3036697c-.2229663 1.5770643-.7043708 3.1376147-1.4423708 4.5844037.8153933-1.5266055 1.3428652-3.1963303 1.5639888-4.8880734M21.4337865.2685C21.9935056.046 22.8098202.1465 23.4036292 0c-.7739326.0705-1.5441798.1125-2.3047528.219l.3349101.0495M1.78373034 10.6509174c.12898876 1.1889909-.8983146 1.6504587.22757303.8665138.60348315-1.3536697-.23586517-.3738532-.22757303-.8665138M.46390317 16.1536697c.2815-.7926605.3325-1.2688073.44-1.7275229-.778.9123853-.358 1.1068807-.44 1.7275229"></path>
</svg>
