<svg id="logo-fedora" viewBox="0 0 72 71" width="100%" height="100%" xmlns="http://www.w3.org/2000/svg">
  <g fill="none">
    <path
      d="M36.0227666.27700027C16.5782096.27700027.81390614 16.0340329.80011077 35.4758859v27.2577662c.0104775 4.4143956 3.5906101 7.9881438 8.00778117 7.9881438H36.0367207c19.4468086-.00762 35.2092203-15.7728309 35.2092203-35.2211053 0-19.4534497-15.7698703-35.22369033-35.2231744-35.22369033zm10.3420041 8.3395422c9.0785208 0 16.5230226 7.44450443 16.5230226 16.52302263 0 9.0785234-7.4444965 16.5230225-16.5230226 16.5230225h-8.725564v8.7524378c0 7.4206681-4.8907541 13.7002544-11.6246141 15.790767-1.5522258.4873678-3.200445.7503425-4.9066767.7503425-9.0785235 0-16.52353855-7.4450204-16.52353855-16.5235386 0-9.0785234 7.44501245-16.5230225 16.52353855-16.5230225h8.725048V25.157652c0-7.4217609 4.8919315-13.7016965 11.6271965-15.791283 1.5515246-.48683598 3.1992966-.74982652 4.9046103-.74982652zm-.0005292 7.81502693c-4.8131967 0-8.7176397 3.898937-8.7260826 8.7121311v7.581966c0 .6068193.4415314 1.1079692 1.0206091 1.2087119h7.7059894c4.8969295 0 8.7942949-3.8978813 8.7942949-8.7948133 0-4.2270071-2.9050694-7.7071114-6.849192-8.5808713-.4897702-.0596821-1.0185003-.1271244-1.9456188-.1271244zM21.1079026 41.6382989c-4.8969294 0-8.7948134 3.8973654-8.7948134 8.7942974 0 4.2280073 2.9066384 7.7091725 6.8522955 8.5819032.4887675.0595815 1.0171668.1266084 1.942002.1266084 4.8131968 0 8.7176371-3.8989369 8.7260799-8.7121311v-7.581966c0-.6068192-.4411001-1.1079692-1.0200904-1.2087119h-7.7054736z"
      fill="currentColor"></path>
    <path
      d="M46.3642547 8.61654248c-1.7052977 0-3.3526041.26298524-4.9040943.7498265 1.5494952-.4807241 3.1966085-.74000782 4.9040943-.74000782 1.3850779 0 2.3698385.1563026 3.6519723.49144237 1.8695326.48924633 3.397197 2.02201987 3.3977262 3.80493587 0 2.1550656-1.5642352 3.7227721-3.9026041 3.7227721-.4822984 0-.8331703-.0418015-1.2066455-.0873337 3.9467393.8718947 6.8543619 4.3527318 6.8543619 8.5813873 0 4.8968421-3.8979713 8.7948133-8.7948108 8.7948133h-7.7054735c.0692467.0120386.1397053.0211932.2123916.0211932l5.7319491.0010583c2.1357484 0 3.861263 1.7036441 3.861263 3.8452425.0010584 2.1549148-1.7432787 3.8514469-3.9020882 3.8514469h-6.92309v.009816h8.725048c9.0786161 0 16.5235386-7.4449224 16.5235386-16.5235385 0-9.0786108-7.4451104-16.52302257-16.5235386-16.52302257v-.00003175zM21.1073999 33.9095738c-9.078616 0-16.52302255 7.4451129-16.52302255 16.5235385 0 9.0784202 7.44459435 16.5230226 16.52302255 16.5230226 1.7052952 0 3.3525751-.2629959 4.9040917-.7498265-1.5495216.4807241-3.1966058.7400078-4.9040917.7400078-1.3850778 0-2.3693252-.1562973-3.6514589-.4914424-1.8695326-.4892463-3.397713-2.0220199-3.3982422-3.8049358 0-2.1550656 1.5642352-3.7227721 3.9026041-3.7227721.4822984 0 .8331703.0418015 1.2066455.0873336-3.9466334-.8718576-6.8538459-4.3525677-6.8538459-8.5813872 0-4.89703 3.8974553-8.7948134 8.7942974-8.7948134h7.7059895c-.0692361-.0120385-.1397053-.0211931-.2123916-.0211931l-5.7324651-.0010584c-2.1357484 0-3.861263-1.7036441-3.861263-3.8452424-.0010583-2.1549148 1.7432761-3.8514443 3.9020856-3.8514443h6.9236086v-.009816l-8.725564.0000291z"
      fill="#000" opacity="0.331974638"></path>
  </g>
</svg>
