<svg id="logo-ubuntu" viewBox="0 0 49 50" width="100%" height="100%" xmlns="http://www.w3.org/2000/svg" xmlns:xlink="http://www.w3.org/1999/xlink">
  <title>Ubuntu Logo</title>
  <path d="M4.62048446 20.3802849C2.06814476 20.3802849 0 22.4484297 0 25.0007694c0 2.551363 2.06814476 4.6197519 4.62048446 4.6197519 2.551363 0 4.61975194-2.0683889 4.61975194-4.6197519 0-2.5525839-2.06814477-4.6204845-4.61975194-4.6204845zM37.6099573 41.3796457c-2.2100093 1.2758036-2.966457 4.1003961-1.6911418 6.3094287 1.2760478 2.2100092 4.1003961 2.9669453 6.3104053 1.6911417 2.2092768-1.2755594 2.9662129-4.1001519 1.6904093-6.309917-1.2755594-2.2090325-4.1003961-2.9662128-6.3096728-1.6906534zM14.6564805 25.0000368c0-4.566278 2.269099-8.5995266 5.7390406-11.0417443l-3.3778884-5.6582194c-4.0435038 2.7015293-7.051226 6.8314704-8.3006589 11.6685362 1.4594216 1.1896106 2.3919181 3.0011296 2.3919181 5.0319159 0 2.0302979-.9324965 3.841817-2.39216228 5.0311833 1.24918874 4.8375542 4.25715518 8.9674953 8.30065898 11.6687804l3.3781325-5.6587077c-3.4699416-2.4417294-5.7390406-6.4747338-5.7390406-11.0417444zm13.496659-13.496659c7.0509818 0 12.8347061 5.406233 13.4409875 12.2997233l6.5848558-.0962041c-.3240175-5.0895407-2.5472121-9.6599697-5.963924-13.0190568-1.7565801.6636621-3.7859013.5630628-5.5397955-.4497665-1.7560918-1.01380605-2.8580443-2.7239933-3.159842-4.57995177-1.7072572-.47247463-3.5041258-.73007708-5.3620377-.73007708-3.195247 0-6.213957.75009926-8.8954642 2.07840003l3.2098974 5.75271432c1.7280119-.8040614 3.6535597-1.2557814 5.6853227-1.2557814zm0 26.9935622c-2.0320072 0-3.9573108-.4517199-5.6855668-1.2557814l-3.2103858 5.7532027c2.6817514 1.3278124 5.7007055 2.0781559 8.8959526 2.0781559 1.8579118 0 3.6547805-.2576025 5.3622818-.7300771.3017977-1.8559585 1.4039944-3.5661457 3.1603303-4.5806843 1.7538942-1.012341 3.7832155-1.1129402 5.5397956-.449034 3.4164677-3.3593312 5.6396623-7.9297603 5.9631914-13.0193009l-6.5848557-.0962042C40.9880898 33.0916838 35.2041213 38.49694 28.1531395 38.49694zm9.4560852-29.8767562c2.2097651 1.27629194 5.0346018.51911167 6.309917-1.68992088 1.2760478-2.21000924.5196-5.03460175-1.6904092-6.3106495C40.0192116-.655946 37.1946191.1009901 35.9185713 2.31099932c-1.2755594 2.20903256-.5186233 5.03386925 1.6906534 6.3091845z"></path>
</svg>
