<?xml version="1.0" encoding="UTF-8" standalone="no"?>
<!DOCTYPE svg PUBLIC "-//W3C//DTD SVG 1.1//EN"
 "http://www.w3.org/Graphics/SVG/1.1/DTD/svg11.dtd">
<!-- Generated by graphviz version 2.40.1 (20161225.0304)
 -->
<!-- Title: dependencies Pages: 1 -->
<svg width="4185pt" height="284pt"
 viewBox="0.00 0.00 4185.00 284.00" xmlns="http://www.w3.org/2000/svg" xmlns:xlink="http://www.w3.org/1999/xlink">
<g id="graph0" class="graph" transform="scale(1 1) rotate(0) translate(4 280)">
<title>dependencies</title>
<polygon fill="#ffffff" stroke="transparent" points="-4,4 -4,-280 4181,-280 4181,4 -4,4"/>
<text text-anchor="start" x="2067.5091" y="-42.4" font-family="sans-serif" font-weight="bold" font-size="14.00" fill="#000000">Legend</text>
<polygon fill="#ffffb3" stroke="transparent" points="1854.5,-10 1854.5,-30 1874.5,-30 1874.5,-10 1854.5,-10"/>
<text text-anchor="start" x="1878.129" y="-15.4" font-family="sans-serif" font-size="14.00" fill="#000000"> &#160;Declarations</text>
<polygon fill="#8dd3c7" stroke="transparent" points="1967.5,-10 1967.5,-30 1987.5,-30 1987.5,-10 1967.5,-10"/>
<text text-anchor="start" x="1991.2251" y="-15.4" font-family="sans-serif" font-size="14.00" fill="#000000"> &#160;Module</text>
<polygon fill="#80b1d3" stroke="transparent" points="2053.5,-10 2053.5,-30 2073.5,-30 2073.5,-10 2053.5,-10"/>
<text text-anchor="start" x="2077.2812" y="-15.4" font-family="sans-serif" font-size="14.00" fill="#000000"> &#160;Bootstrap</text>
<polygon fill="#fdb462" stroke="transparent" points="2150.5,-10 2150.5,-30 2170.5,-30 2170.5,-10 2150.5,-10"/>
<text text-anchor="start" x="2174.1732" y="-15.4" font-family="sans-serif" font-size="14.00" fill="#000000"> &#160;Providers</text>
<polygon fill="#fb8072" stroke="transparent" points="2246.5,-10 2246.5,-30 2266.5,-30 2266.5,-10 2246.5,-10"/>
<text text-anchor="start" x="2270.2258" y="-15.4" font-family="sans-serif" font-size="14.00" fill="#000000"> &#160;Exports</text>
<g id="clust1" class="cluster">
<title>cluster_AppModule</title>
<polygon fill="none" stroke="#000000" stroke-dasharray="1,5" points="8,-70 8,-268 4169,-268 4169,-70 8,-70"/>
</g>
<g id="clust2" class="cluster">
<title>cluster_AppModule_declarations</title>
<polygon fill="none" stroke="#000000" points="450,-78 450,-130 4161,-130 4161,-78 450,-78"/>
</g>
<g id="clust31" class="cluster">
<title>cluster_AppModule_imports</title>
<polygon fill="none" stroke="#000000" points="16,-78 16,-130 442,-130 442,-78 16,-78"/>
</g>
<g id="clust33" class="cluster">
<title>cluster_AppModule_bootstrap</title>
<polygon fill="none" stroke="#000000" points="2223,-208 2223,-260 2311,-260 2311,-208 2223,-208"/>
</g>
<!-- MyApp -->
<g id="node1" class="node">
<title>MyApp</title>
<polygon fill="#ffffb3" stroke="#000000" points="4152.5529,-122 4093.4471,-122 4093.4471,-86 4152.5529,-86 4152.5529,-122"/>
<text text-anchor="middle" x="4123" y="-99.8" font-family="Times,serif" font-size="14.00" fill="#000000">MyApp</text>
</g>
<!-- AppModule -->
<g id="node29" class="node">
<title>AppModule</title>
<polygon fill="#8dd3c7" stroke="#000000" points="2308.6571,-187 2305.6571,-191 2284.6571,-191 2281.6571,-187 2225.3429,-187 2225.3429,-151 2308.6571,-151 2308.6571,-187"/>
<text text-anchor="middle" x="2267" y="-164.8" font-family="Times,serif" font-size="14.00" fill="#000000">AppModule</text>
</g>
<!-- MyApp&#45;&gt;AppModule -->
<g id="edge1" class="edge">
<title>MyApp&#45;&gt;AppModule</title>
<path fill="none" stroke="#000000" d="M4123,-122.3802C4123,-146.2785 4123,-185 4123,-185 4123,-185 2318.8088,-185 2318.8088,-185"/>
<polygon fill="#000000" stroke="#000000" points="2318.8088,-181.5001 2308.8088,-185 2318.8088,-188.5001 2318.8088,-181.5001"/>
</g>
<!-- AboutPage -->
<g id="node2" class="node">
<title>AboutPage</title>
<polygon fill="#ffffb3" stroke="#000000" points="4075.2093,-122 3996.7907,-122 3996.7907,-86 4075.2093,-86 4075.2093,-122"/>
<text text-anchor="middle" x="4036" y="-99.8" font-family="Times,serif" font-size="14.00" fill="#000000">AboutPage</text>
</g>
<!-- AboutPage&#45;&gt;AppModule -->
<g id="edge2" class="edge">
<title>AboutPage&#45;&gt;AppModule</title>
<path fill="none" stroke="#000000" d="M4036,-122.3228C4036,-145.6602 4036,-183 4036,-183 4036,-183 2318.9835,-183 2318.9835,-183"/>
<polygon fill="#000000" stroke="#000000" points="2318.9836,-179.5001 2308.9835,-183 2318.9835,-186.5001 2318.9836,-179.5001"/>
</g>
<!-- HomePage -->
<g id="node3" class="node">
<title>HomePage</title>
<polygon fill="#ffffb3" stroke="#000000" points="3978.9248,-122 3901.0752,-122 3901.0752,-86 3978.9248,-86 3978.9248,-122"/>
<text text-anchor="middle" x="3940" y="-99.8" font-family="Times,serif" font-size="14.00" fill="#000000">HomePage</text>
</g>
<!-- HomePage&#45;&gt;AppModule -->
<g id="edge3" class="edge">
<title>HomePage&#45;&gt;AppModule</title>
<path fill="none" stroke="#000000" d="M3940,-122.2479C3940,-145.0179 3940,-181 3940,-181 3940,-181 2318.7727,-181 2318.7727,-181"/>
<polygon fill="#000000" stroke="#000000" points="2318.7727,-177.5001 2308.7727,-181 2318.7726,-184.5001 2318.7727,-177.5001"/>
</g>
<!-- ProjectsPage -->
<g id="node4" class="node">
<title>ProjectsPage</title>
<polygon fill="#ffffb3" stroke="#000000" points="3883.3105,-122 3794.6895,-122 3794.6895,-86 3883.3105,-86 3883.3105,-122"/>
<text text-anchor="middle" x="3839" y="-99.8" font-family="Times,serif" font-size="14.00" fill="#000000">ProjectsPage</text>
</g>
<!-- ProjectsPage&#45;&gt;AppModule -->
<g id="edge4" class="edge">
<title>ProjectsPage&#45;&gt;AppModule</title>
<path fill="none" stroke="#000000" d="M3839,-122.2921C3839,-144.2057 3839,-178 3839,-178 3839,-178 2319.0472,-178 2319.0472,-178"/>
<polygon fill="#000000" stroke="#000000" points="2319.0472,-174.5001 2309.0472,-178 2319.0472,-181.5001 2319.0472,-174.5001"/>
</g>
<!-- addProjectModal -->
<g id="node5" class="node">
<title>addProjectModal</title>
<polygon fill="#ffffb3" stroke="#000000" points="3777.4188,-122 3664.5812,-122 3664.5812,-86 3777.4188,-86 3777.4188,-122"/>
<text text-anchor="middle" x="3721" y="-99.8" font-family="Times,serif" font-size="14.00" fill="#000000">addProjectModal</text>
</g>
<!-- addProjectModal&#45;&gt;AppModule -->
<g id="edge5" class="edge">
<title>addProjectModal&#45;&gt;AppModule</title>
<path fill="none" stroke="#000000" d="M3721,-122.1686C3721,-143.498 3721,-176 3721,-176 3721,-176 2318.9473,-176 2318.9473,-176"/>
<polygon fill="#000000" stroke="#000000" points="2318.9474,-172.5001 2308.9473,-176 2318.9473,-179.5001 2318.9474,-172.5001"/>
</g>
<!-- ServersPage -->
<g id="node6" class="node">
<title>ServersPage</title>
<polygon fill="#ffffb3" stroke="#000000" points="3646.6896,-122 3561.3104,-122 3561.3104,-86 3646.6896,-86 3646.6896,-122"/>
<text text-anchor="middle" x="3604" y="-99.8" font-family="Times,serif" font-size="14.00" fill="#000000">ServersPage</text>
</g>
<!-- ServersPage&#45;&gt;AppModule -->
<g id="edge6" class="edge">
<title>ServersPage&#45;&gt;AppModule</title>
<path fill="none" stroke="#000000" d="M3604,-122.0267C3604,-142.7672 3604,-174 3604,-174 3604,-174 2318.8502,-174 2318.8502,-174"/>
<polygon fill="#000000" stroke="#000000" points="2318.8502,-170.5001 2308.8502,-174 2318.8501,-177.5001 2318.8502,-170.5001"/>
</g>
<!-- ServerPage -->
<g id="node7" class="node">
<title>ServerPage</title>
<polygon fill="#ffffb3" stroke="#000000" points="3543.7452,-122 3464.2548,-122 3464.2548,-86 3543.7452,-86 3543.7452,-122"/>
<text text-anchor="middle" x="3504" y="-99.8" font-family="Times,serif" font-size="14.00" fill="#000000">ServerPage</text>
</g>
<!-- ServerPage&#45;&gt;AppModule -->
<g id="edge7" class="edge">
<title>ServerPage&#45;&gt;AppModule</title>
<path fill="none" stroke="#000000" d="M3504,-122.2228C3504,-142.3652 3504,-172 3504,-172 3504,-172 2318.866,-172 2318.866,-172"/>
<polygon fill="#000000" stroke="#000000" points="2318.866,-168.5001 2308.866,-172 2318.866,-175.5001 2318.866,-168.5001"/>
</g>
<!-- addServerModal -->
<g id="node8" class="node">
<title>addServerModal</title>
<polygon fill="#ffffb3" stroke="#000000" points="3445.7978,-122 3336.2022,-122 3336.2022,-86 3445.7978,-86 3445.7978,-122"/>
<text text-anchor="middle" x="3391" y="-99.8" font-family="Times,serif" font-size="14.00" fill="#000000">addServerModal</text>
</g>
<!-- addServerModal&#45;&gt;AppModule -->
<g id="edge8" class="edge">
<title>addServerModal&#45;&gt;AppModule</title>
<path fill="none" stroke="#000000" d="M3391,-122.1061C3391,-141.3391 3391,-169 3391,-169 3391,-169 2318.6731,-169 2318.6731,-169"/>
<polygon fill="#000000" stroke="#000000" points="2318.6732,-165.5001 2308.6731,-169 2318.6731,-172.5001 2318.6732,-165.5001"/>
</g>
<!-- editServerModal -->
<g id="node9" class="node">
<title>editServerModal</title>
<polygon fill="#ffffb3" stroke="#000000" points="3318.0786,-122 3207.9214,-122 3207.9214,-86 3318.0786,-86 3318.0786,-122"/>
<text text-anchor="middle" x="3263" y="-99.8" font-family="Times,serif" font-size="14.00" fill="#000000">editServerModal</text>
</g>
<!-- editServerModal&#45;&gt;AppModule -->
<g id="edge9" class="edge">
<title>editServerModal&#45;&gt;AppModule</title>
<path fill="none" stroke="#000000" d="M3263,-122.2222C3263,-140.8285 3263,-167 3263,-167 3263,-167 2318.8442,-167 2318.8442,-167"/>
<polygon fill="#000000" stroke="#000000" points="2318.8443,-163.5001 2308.8442,-167 2318.8442,-170.5001 2318.8443,-163.5001"/>
</g>
<!-- powerSettingsModal -->
<g id="node10" class="node">
<title>powerSettingsModal</title>
<polygon fill="#ffffb3" stroke="#000000" points="3190.1457,-122 3057.8543,-122 3057.8543,-86 3190.1457,-86 3190.1457,-122"/>
<text text-anchor="middle" x="3124" y="-99.8" font-family="Times,serif" font-size="14.00" fill="#000000">powerSettingsModal</text>
</g>
<!-- powerSettingsModal&#45;&gt;AppModule -->
<g id="edge10" class="edge">
<title>powerSettingsModal&#45;&gt;AppModule</title>
<path fill="none" stroke="#000000" d="M3124,-122.302C3124,-140.2699 3124,-165 3124,-165 3124,-165 2318.915,-165 2318.915,-165"/>
<polygon fill="#000000" stroke="#000000" points="2318.9151,-161.5001 2308.915,-165 2318.915,-168.5001 2318.9151,-161.5001"/>
</g>
<!-- rescueModeModal -->
<g id="node11" class="node">
<title>rescueModeModal</title>
<polygon fill="#ffffb3" stroke="#000000" points="3039.458,-122 2918.542,-122 2918.542,-86 3039.458,-86 3039.458,-122"/>
<text text-anchor="middle" x="2979" y="-99.8" font-family="Times,serif" font-size="14.00" fill="#000000">rescueModeModal</text>
</g>
<!-- rescueModeModal&#45;&gt;AppModule -->
<g id="edge11" class="edge">
<title>rescueModeModal&#45;&gt;AppModule</title>
<path fill="none" stroke="#000000" d="M2979,-122.0225C2979,-139.3734 2979,-163 2979,-163 2979,-163 2318.8807,-163 2318.8807,-163"/>
<polygon fill="#000000" stroke="#000000" points="2318.8807,-159.5001 2308.8807,-163 2318.8807,-166.5001 2318.8807,-159.5001"/>
</g>
<!-- resizeServerModal -->
<g id="node12" class="node">
<title>resizeServerModal</title>
<polygon fill="#ffffb3" stroke="#000000" points="2900.7227,-122 2779.2773,-122 2779.2773,-86 2900.7227,-86 2900.7227,-122"/>
<text text-anchor="middle" x="2840" y="-99.8" font-family="Times,serif" font-size="14.00" fill="#000000">resizeServerModal</text>
</g>
<!-- resizeServerModal&#45;&gt;AppModule -->
<g id="edge12" class="edge">
<title>resizeServerModal&#45;&gt;AppModule</title>
<path fill="none" stroke="#000000" d="M2840,-122.027C2840,-138.3976 2840,-160 2840,-160 2840,-160 2318.6703,-160 2318.6703,-160"/>
<polygon fill="#000000" stroke="#000000" points="2318.6703,-156.5001 2308.6703,-160 2318.6703,-163.5001 2318.6703,-156.5001"/>
</g>
<!-- backupSettingsModal -->
<g id="node13" class="node">
<title>backupSettingsModal</title>
<polygon fill="#ffffb3" stroke="#000000" points="2761.0926,-122 2622.9074,-122 2622.9074,-86 2761.0926,-86 2761.0926,-122"/>
<text text-anchor="middle" x="2692" y="-99.8" font-family="Times,serif" font-size="14.00" fill="#000000">backupSettingsModal</text>
</g>
<!-- backupSettingsModal&#45;&gt;AppModule -->
<g id="edge13" class="edge">
<title>backupSettingsModal&#45;&gt;AppModule</title>
<path fill="none" stroke="#000000" d="M2692,-122.2819C2692,-137.9478 2692,-158 2692,-158 2692,-158 2318.9138,-158 2318.9138,-158"/>
<polygon fill="#000000" stroke="#000000" points="2318.9138,-154.5001 2308.9138,-158 2318.9137,-161.5001 2318.9138,-154.5001"/>
</g>
<!-- FloatingIPsPage -->
<g id="node14" class="node">
<title>FloatingIPsPage</title>
<polygon fill="#ffffb3" stroke="#000000" points="2604.7688,-122 2497.2312,-122 2497.2312,-86 2604.7688,-86 2604.7688,-122"/>
<text text-anchor="middle" x="2551" y="-99.8" font-family="Times,serif" font-size="14.00" fill="#000000">FloatingIPsPage</text>
</g>
<!-- FloatingIPsPage&#45;&gt;AppModule -->
<g id="edge14" class="edge">
<title>FloatingIPsPage&#45;&gt;AppModule</title>
<path fill="none" stroke="#000000" d="M2551,-122.1871C2551,-137.1824 2551,-156 2551,-156 2551,-156 2318.9052,-156 2318.9052,-156"/>
<polygon fill="#000000" stroke="#000000" points="2318.9052,-152.5001 2308.9052,-156 2318.9051,-159.5001 2318.9052,-152.5001"/>
</g>
<!-- addFloatingIPModal -->
<g id="node15" class="node">
<title>addFloatingIPModal</title>
<polygon fill="#ffffb3" stroke="#000000" points="2478.8767,-122 2347.1233,-122 2347.1233,-86 2478.8767,-86 2478.8767,-122"/>
<text text-anchor="middle" x="2413" y="-99.8" font-family="Times,serif" font-size="14.00" fill="#000000">addFloatingIPModal</text>
</g>
<!-- addFloatingIPModal&#45;&gt;AppModule -->
<g id="edge15" class="edge">
<title>addFloatingIPModal&#45;&gt;AppModule</title>
<path fill="none" stroke="#000000" d="M2413,-122.0511C2413,-136.373 2413,-154 2413,-154 2413,-154 2318.8377,-154 2318.8377,-154"/>
<polygon fill="#000000" stroke="#000000" points="2318.8378,-150.5001 2308.8377,-154 2318.8377,-157.5001 2318.8378,-150.5001"/>
</g>
<!-- DeleteAllDataPage -->
<g id="node16" class="node">
<title>DeleteAllDataPage</title>
<polygon fill="#ffffb3" stroke="#000000" points="2329.0576,-122 2204.9424,-122 2204.9424,-86 2329.0576,-86 2329.0576,-122"/>
<text text-anchor="middle" x="2267" y="-99.8" font-family="Times,serif" font-size="14.00" fill="#000000">DeleteAllDataPage</text>
</g>
<!-- DeleteAllDataPage&#45;&gt;AppModule -->
<g id="edge16" class="edge">
<title>DeleteAllDataPage&#45;&gt;AppModule</title>
<path fill="none" stroke="#000000" d="M2267,-122.1061C2267,-122.1061 2267,-140.991 2267,-140.991"/>
<polygon fill="#000000" stroke="#000000" points="2263.5001,-140.9909 2267,-150.991 2270.5001,-140.991 2263.5001,-140.9909"/>
</g>
<!-- changeIPv4ReverseDNSModal -->
<g id="node17" class="node">
<title>changeIPv4ReverseDNSModal</title>
<polygon fill="#ffffb3" stroke="#000000" points="2186.7184,-122 1995.2816,-122 1995.2816,-86 2186.7184,-86 2186.7184,-122"/>
<text text-anchor="middle" x="2091" y="-99.8" font-family="Times,serif" font-size="14.00" fill="#000000">changeIPv4ReverseDNSModal</text>
</g>
<!-- changeIPv4ReverseDNSModal&#45;&gt;AppModule -->
<g id="edge17" class="edge">
<title>changeIPv4ReverseDNSModal&#45;&gt;AppModule</title>
<path fill="none" stroke="#000000" d="M2091,-122.0511C2091,-136.373 2091,-154 2091,-154 2091,-154 2215.2905,-154 2215.2905,-154"/>
<polygon fill="#000000" stroke="#000000" points="2215.2905,-157.5001 2225.2905,-154 2215.2904,-150.5001 2215.2905,-157.5001"/>
</g>
<!-- changeIPv6ReverseDNSModal -->
<g id="node18" class="node">
<title>changeIPv6ReverseDNSModal</title>
<polygon fill="#ffffb3" stroke="#000000" points="1976.7184,-122 1785.2816,-122 1785.2816,-86 1976.7184,-86 1976.7184,-122"/>
<text text-anchor="middle" x="1881" y="-99.8" font-family="Times,serif" font-size="14.00" fill="#000000">changeIPv6ReverseDNSModal</text>
</g>
<!-- changeIPv6ReverseDNSModal&#45;&gt;AppModule -->
<g id="edge18" class="edge">
<title>changeIPv6ReverseDNSModal&#45;&gt;AppModule</title>
<path fill="none" stroke="#000000" d="M1881,-122.1871C1881,-137.1824 1881,-156 1881,-156 1881,-156 2215.3245,-156 2215.3245,-156"/>
<polygon fill="#000000" stroke="#000000" points="2215.3245,-159.5001 2225.3245,-156 2215.3245,-152.5001 2215.3245,-159.5001"/>
</g>
<!-- editFloatingIpModal -->
<g id="node19" class="node">
<title>editFloatingIpModal</title>
<polygon fill="#ffffb3" stroke="#000000" points="1766.8753,-122 1635.1247,-122 1635.1247,-86 1766.8753,-86 1766.8753,-122"/>
<text text-anchor="middle" x="1701" y="-99.8" font-family="Times,serif" font-size="14.00" fill="#000000">editFloatingIpModal</text>
</g>
<!-- editFloatingIpModal&#45;&gt;AppModule -->
<g id="edge19" class="edge">
<title>editFloatingIpModal&#45;&gt;AppModule</title>
<path fill="none" stroke="#000000" d="M1701,-122.2819C1701,-137.9478 1701,-158 1701,-158 1701,-158 2214.9204,-158 2214.9204,-158"/>
<polygon fill="#000000" stroke="#000000" points="2214.9205,-161.5001 2224.9204,-158 2214.9204,-154.5001 2214.9205,-161.5001"/>
</g>
<!-- FloatingIPPage -->
<g id="node20" class="node">
<title>FloatingIPPage</title>
<polygon fill="#ffffb3" stroke="#000000" points="1617.3245,-122 1514.6755,-122 1514.6755,-86 1617.3245,-86 1617.3245,-122"/>
<text text-anchor="middle" x="1566" y="-99.8" font-family="Times,serif" font-size="14.00" fill="#000000">FloatingIPPage</text>
</g>
<!-- FloatingIPPage&#45;&gt;AppModule -->
<g id="edge20" class="edge">
<title>FloatingIPPage&#45;&gt;AppModule</title>
<path fill="none" stroke="#000000" d="M1566,-122.027C1566,-138.3976 1566,-160 1566,-160 1566,-160 2215.2486,-160 2215.2486,-160"/>
<polygon fill="#000000" stroke="#000000" points="2215.2486,-163.5001 2225.2486,-160 2215.2485,-156.5001 2215.2486,-163.5001"/>
</g>
<!-- ImagesPage -->
<g id="node21" class="node">
<title>ImagesPage</title>
<polygon fill="#ffffb3" stroke="#000000" points="1496.6376,-122 1413.3624,-122 1413.3624,-86 1496.6376,-86 1496.6376,-122"/>
<text text-anchor="middle" x="1455" y="-99.8" font-family="Times,serif" font-size="14.00" fill="#000000">ImagesPage</text>
</g>
<!-- ImagesPage&#45;&gt;AppModule -->
<g id="edge21" class="edge">
<title>ImagesPage&#45;&gt;AppModule</title>
<path fill="none" stroke="#000000" d="M1455,-122.0225C1455,-139.3734 1455,-163 1455,-163 1455,-163 2215.3353,-163 2215.3353,-163"/>
<polygon fill="#000000" stroke="#000000" points="2215.3353,-166.5001 2225.3353,-163 2215.3352,-159.5001 2215.3353,-166.5001"/>
</g>
<!-- editImageModal -->
<g id="node22" class="node">
<title>editImageModal</title>
<polygon fill="#ffffb3" stroke="#000000" points="1395.027,-122 1286.973,-122 1286.973,-86 1395.027,-86 1395.027,-122"/>
<text text-anchor="middle" x="1341" y="-99.8" font-family="Times,serif" font-size="14.00" fill="#000000">editImageModal</text>
</g>
<!-- editImageModal&#45;&gt;AppModule -->
<g id="edge22" class="edge">
<title>editImageModal&#45;&gt;AppModule</title>
<path fill="none" stroke="#000000" d="M1341,-122.302C1341,-140.2699 1341,-165 1341,-165 1341,-165 2215.1096,-165 2215.1096,-165"/>
<polygon fill="#000000" stroke="#000000" points="2215.1096,-168.5001 2225.1096,-165 2215.1096,-161.5001 2215.1096,-168.5001"/>
</g>
<!-- assignToServerModal -->
<g id="node23" class="node">
<title>assignToServerModal</title>
<polygon fill="#ffffb3" stroke="#000000" points="1268.6303,-122 1129.3697,-122 1129.3697,-86 1268.6303,-86 1268.6303,-122"/>
<text text-anchor="middle" x="1199" y="-99.8" font-family="Times,serif" font-size="14.00" fill="#000000">assignToServerModal</text>
</g>
<!-- assignToServerModal&#45;&gt;AppModule -->
<g id="edge23" class="edge">
<title>assignToServerModal&#45;&gt;AppModule</title>
<path fill="none" stroke="#000000" d="M1199,-122.2222C1199,-140.8285 1199,-167 1199,-167 1199,-167 2215.1331,-167 2215.1331,-167"/>
<polygon fill="#000000" stroke="#000000" points="2215.1332,-170.5001 2225.1331,-167 2215.1331,-163.5001 2215.1332,-170.5001"/>
</g>
<!-- HetznerStatusSettingPage -->
<g id="node24" class="node">
<title>HetznerStatusSettingPage</title>
<polygon fill="#ffffb3" stroke="#000000" points="1110.9059,-122 949.0941,-122 949.0941,-86 1110.9059,-86 1110.9059,-122"/>
<text text-anchor="middle" x="1030" y="-99.8" font-family="Times,serif" font-size="14.00" fill="#000000">HetznerStatusSettingPage</text>
</g>
<!-- HetznerStatusSettingPage&#45;&gt;AppModule -->
<g id="edge24" class="edge">
<title>HetznerStatusSettingPage&#45;&gt;AppModule</title>
<path fill="none" stroke="#000000" d="M1030,-122.1061C1030,-141.3391 1030,-169 1030,-169 1030,-169 2215.134,-169 2215.134,-169"/>
<polygon fill="#000000" stroke="#000000" points="2215.134,-172.5001 2225.134,-169 2215.134,-165.5001 2215.134,-172.5001"/>
</g>
<!-- HetznerStatusPage -->
<g id="node25" class="node">
<title>HetznerStatusPage</title>
<polygon fill="#ffffb3" stroke="#000000" points="930.7367,-122 809.2633,-122 809.2633,-86 930.7367,-86 930.7367,-122"/>
<text text-anchor="middle" x="870" y="-99.8" font-family="Times,serif" font-size="14.00" fill="#000000">HetznerStatusPage</text>
</g>
<!-- HetznerStatusPage&#45;&gt;AppModule -->
<g id="edge25" class="edge">
<title>HetznerStatusPage&#45;&gt;AppModule</title>
<path fill="none" stroke="#000000" d="M870,-122.2228C870,-142.3652 870,-172 870,-172 870,-172 2215.1906,-172 2215.1906,-172"/>
<polygon fill="#000000" stroke="#000000" points="2215.1906,-175.5001 2225.1906,-172 2215.1905,-168.5001 2215.1906,-175.5001"/>
</g>
<!-- ServerMetricsPage -->
<g id="node26" class="node">
<title>ServerMetricsPage</title>
<polygon fill="#ffffb3" stroke="#000000" points="791.006,-122 668.994,-122 668.994,-86 791.006,-86 791.006,-122"/>
<text text-anchor="middle" x="730" y="-99.8" font-family="Times,serif" font-size="14.00" fill="#000000">ServerMetricsPage</text>
</g>
<!-- ServerMetricsPage&#45;&gt;AppModule -->
<g id="edge26" class="edge">
<title>ServerMetricsPage&#45;&gt;AppModule</title>
<path fill="none" stroke="#000000" d="M730,-122.0267C730,-142.7672 730,-174 730,-174 730,-174 2215.0918,-174 2215.0918,-174"/>
<polygon fill="#000000" stroke="#000000" points="2215.0919,-177.5001 2225.0918,-174 2215.0918,-170.5001 2215.0919,-177.5001"/>
</g>
<!-- SettingsPage -->
<g id="node27" class="node">
<title>SettingsPage</title>
<polygon fill="#ffffb3" stroke="#000000" points="651.326,-122 562.674,-122 562.674,-86 651.326,-86 651.326,-122"/>
<text text-anchor="middle" x="607" y="-99.8" font-family="Times,serif" font-size="14.00" fill="#000000">SettingsPage</text>
</g>
<!-- SettingsPage&#45;&gt;AppModule -->
<g id="edge27" class="edge">
<title>SettingsPage&#45;&gt;AppModule</title>
<path fill="none" stroke="#000000" d="M607,-122.1686C607,-143.498 607,-176 607,-176 607,-176 2215.1358,-176 2215.1358,-176"/>
<polygon fill="#000000" stroke="#000000" points="2215.1359,-179.5001 2225.1358,-176 2215.1358,-172.5001 2215.1359,-179.5001"/>
</g>
<!-- ActionsPage -->
<g id="node28" class="node">
<title>ActionsPage</title>
<polygon fill="#ffffb3" stroke="#000000" points="544.2591,-122 457.7409,-122 457.7409,-86 544.2591,-86 544.2591,-122"/>
<text text-anchor="middle" x="501" y="-99.8" font-family="Times,serif" font-size="14.00" fill="#000000">ActionsPage</text>
</g>
<!-- ActionsPage&#45;&gt;AppModule -->
<g id="edge28" class="edge">
<title>ActionsPage&#45;&gt;AppModule</title>
<path fill="none" stroke="#000000" d="M501,-122.2921C501,-144.2057 501,-178 501,-178 501,-178 2215.0877,-178 2215.0877,-178"/>
<polygon fill="#000000" stroke="#000000" points="2215.0877,-181.5001 2225.0877,-178 2215.0876,-174.5001 2215.0877,-181.5001"/>
</g>
<!-- IonicApp  -->
<g id="node33" class="node">
<title>IonicApp </title>
<polygon fill="#80b1d3" stroke="#000000" points="2303.3734,-252 2230.6266,-252 2230.6266,-216 2303.3734,-216 2303.3734,-252"/>
<text text-anchor="middle" x="2267" y="-229.8" font-family="Times,serif" font-size="14.00" fill="#000000">IonicApp </text>
</g>
<!-- AppModule&#45;&gt;IonicApp  -->
<g id="edge32" class="edge">
<title>AppModule&#45;&gt;IonicApp </title>
<path fill="none" stroke="#000000" stroke-dasharray="1,5" d="M2267,-187.1061C2267,-187.1061 2267,-205.991 2267,-205.991"/>
<polygon fill="#000000" stroke="#000000" points="2263.5001,-205.9909 2267,-215.991 2270.5001,-205.991 2263.5001,-205.9909"/>
</g>
<!-- ProjectModule -->
<g id="node30" class="node">
<title>ProjectModule</title>
<polygon fill="#8dd3c7" stroke="#000000" points="433.7036,-122 430.7036,-126 409.7036,-126 406.7036,-122 334.2964,-122 334.2964,-86 433.7036,-86 433.7036,-122"/>
<text text-anchor="middle" x="384" y="-99.8" font-family="Times,serif" font-size="14.00" fill="#000000">ProjectModule</text>
</g>
<!-- ProjectModule&#45;&gt;AppModule -->
<g id="edge29" class="edge">
<title>ProjectModule&#45;&gt;AppModule</title>
<path fill="none" stroke="#000000" d="M384,-122.2479C384,-145.0179 384,-181 384,-181 384,-181 2215.0308,-181 2215.0308,-181"/>
<polygon fill="#000000" stroke="#000000" points="2215.0308,-184.5001 2225.0308,-181 2215.0307,-177.5001 2215.0308,-184.5001"/>
</g>
<!-- ServersModule -->
<g id="node31" class="node">
<title>ServersModule</title>
<polygon fill="#8dd3c7" stroke="#000000" points="316.5285,-122 313.5285,-126 292.5285,-126 289.5285,-122 215.4715,-122 215.4715,-86 316.5285,-86 316.5285,-122"/>
<text text-anchor="middle" x="266" y="-99.8" font-family="Times,serif" font-size="14.00" fill="#000000">ServersModule</text>
</g>
<!-- ServersModule&#45;&gt;AppModule -->
<g id="edge30" class="edge">
<title>ServersModule&#45;&gt;AppModule</title>
<path fill="none" stroke="#000000" d="M266,-122.3228C266,-145.6602 266,-183 266,-183 266,-183 2215.2063,-183 2215.2063,-183"/>
<polygon fill="#000000" stroke="#000000" points="2215.2063,-186.5001 2225.2063,-183 2215.2062,-179.5001 2215.2063,-186.5001"/>
</g>
<!-- HetznerApiProviderModule -->
<g id="node32" class="node">
<title>HetznerApiProviderModule</title>
<polygon fill="#8dd3c7" stroke="#000000" points="197.5576,-122 194.5576,-126 173.5576,-126 170.5576,-122 24.4424,-122 24.4424,-86 197.5576,-86 197.5576,-122"/>
<text text-anchor="middle" x="111" y="-99.8" font-family="Times,serif" font-size="14.00" fill="#000000">HetznerApiProviderModule</text>
</g>
<!-- HetznerApiProviderModule&#45;&gt;AppModule -->
<g id="edge31" class="edge">
<title>HetznerApiProviderModule&#45;&gt;AppModule</title>
<path fill="none" stroke="#000000" d="M111,-122.3802C111,-146.2785 111,-185 111,-185 111,-185 2214.8998,-185 2214.8998,-185"/>
<polygon fill="#000000" stroke="#000000" points="2214.8998,-188.5001 2224.8998,-185 2214.8998,-181.5001 2214.8998,-188.5001"/>
</g>
</g>
</svg>
