<?xml version="1.0" encoding="UTF-8" standalone="no"?>
<!DOCTYPE svg PUBLIC "-//W3C//DTD SVG 1.1//EN"
 "http://www.w3.org/Graphics/SVG/1.1/DTD/svg11.dtd">
<!-- Generated by graphviz version 2.40.1 (20161225.0304)
 -->
<!-- Title: dependencies Pages: 1 -->
<svg width="1609pt" height="284pt"
 viewBox="0.00 0.00 1609.00 284.00" xmlns="http://www.w3.org/2000/svg" xmlns:xlink="http://www.w3.org/1999/xlink">
<g id="graph0" class="graph" transform="scale(1 1) rotate(0) translate(4 280)">
<title>dependencies</title>
<polygon fill="#ffffff" stroke="transparent" points="-4,4 -4,-280 1605,-280 1605,4 -4,4"/>
<text text-anchor="start" x="779.5091" y="-42.4" font-family="sans-serif" font-weight="bold" font-size="14.00" fill="#000000">Legend</text>
<polygon fill="#ffffb3" stroke="transparent" points="566.5,-10 566.5,-30 586.5,-30 586.5,-10 566.5,-10"/>
<text text-anchor="start" x="590.129" y="-15.4" font-family="sans-serif" font-size="14.00" fill="#000000"> &#160;Declarations</text>
<polygon fill="#8dd3c7" stroke="transparent" points="679.5,-10 679.5,-30 699.5,-30 699.5,-10 679.5,-10"/>
<text text-anchor="start" x="703.2251" y="-15.4" font-family="sans-serif" font-size="14.00" fill="#000000"> &#160;Module</text>
<polygon fill="#80b1d3" stroke="transparent" points="765.5,-10 765.5,-30 785.5,-30 785.5,-10 765.5,-10"/>
<text text-anchor="start" x="789.2812" y="-15.4" font-family="sans-serif" font-size="14.00" fill="#000000"> &#160;Bootstrap</text>
<polygon fill="#fdb462" stroke="transparent" points="862.5,-10 862.5,-30 882.5,-30 882.5,-10 862.5,-10"/>
<text text-anchor="start" x="886.1732" y="-15.4" font-family="sans-serif" font-size="14.00" fill="#000000"> &#160;Providers</text>
<polygon fill="#fb8072" stroke="transparent" points="958.5,-10 958.5,-30 978.5,-30 978.5,-10 958.5,-10"/>
<text text-anchor="start" x="982.2258" y="-15.4" font-family="sans-serif" font-size="14.00" fill="#000000"> &#160;Exports</text>
<g id="clust1" class="cluster">
<title>cluster_AppModule</title>
<polygon fill="none" stroke="#000000" stroke-dasharray="1,5" points="8,-70 8,-268 1593,-268 1593,-70 8,-70"/>
</g>
<g id="clust2" class="cluster">
<title>cluster_AppModule_declarations</title>
<polygon fill="none" stroke="#000000" points="1445,-78 1445,-130 1585,-130 1585,-78 1445,-78"/>
</g>
<g id="clust4" class="cluster">
<title>cluster_AppModule_imports</title>
<polygon fill="none" stroke="#000000" points="16,-78 16,-130 1437,-130 1437,-78 16,-78"/>
</g>
<g id="clust6" class="cluster">
<title>cluster_AppModule_bootstrap</title>
<polygon fill="none" stroke="#000000" points="770,-208 770,-260 858,-260 858,-208 770,-208"/>
</g>
<!-- HetznerMobileApp -->
<g id="node1" class="node">
<title>HetznerMobileApp</title>
<polygon fill="#ffffb3" stroke="#000000" points="1577.3487,-122 1452.6513,-122 1452.6513,-86 1577.3487,-86 1577.3487,-122"/>
<text text-anchor="middle" x="1515" y="-99.8" font-family="Times,serif" font-size="14.00" fill="#000000">HetznerMobileApp</text>
</g>
<!-- AppModule -->
<g id="node2" class="node">
<title>AppModule</title>
<polygon fill="#8dd3c7" stroke="#000000" points="855.6571,-187 852.6571,-191 831.6571,-191 828.6571,-187 772.3429,-187 772.3429,-151 855.6571,-151 855.6571,-187"/>
<text text-anchor="middle" x="814" y="-164.8" font-family="Times,serif" font-size="14.00" fill="#000000">AppModule</text>
</g>
<!-- HetznerMobileApp&#45;&gt;AppModule -->
<g id="edge1" class="edge">
<title>HetznerMobileApp&#45;&gt;AppModule</title>
<path fill="none" stroke="#000000" d="M1515,-122.0109C1515,-144.4852 1515,-180 1515,-180 1515,-180 865.7514,-180 865.7514,-180"/>
<polygon fill="#000000" stroke="#000000" points="865.7515,-176.5001 855.7514,-180 865.7514,-183.5001 865.7515,-176.5001"/>
</g>
<!-- IonicApp  -->
<g id="node11" class="node">
<title>IonicApp </title>
<polygon fill="#80b1d3" stroke="#000000" points="850.3734,-252 777.6266,-252 777.6266,-216 850.3734,-216 850.3734,-252"/>
<text text-anchor="middle" x="814" y="-229.8" font-family="Times,serif" font-size="14.00" fill="#000000">IonicApp </text>
</g>
<!-- AppModule&#45;&gt;IonicApp  -->
<g id="edge10" class="edge">
<title>AppModule&#45;&gt;IonicApp </title>
<path fill="none" stroke="#000000" stroke-dasharray="1,5" d="M814,-187.1061C814,-187.1061 814,-205.991 814,-205.991"/>
<polygon fill="#000000" stroke="#000000" points="810.5001,-205.9909 814,-215.991 817.5001,-205.991 810.5001,-205.9909"/>
</g>
<!-- HetznerAppModule -->
<g id="node3" class="node">
<title>HetznerAppModule</title>
<polygon fill="#8dd3c7" stroke="#000000" points="1428.958,-122 1425.958,-126 1404.958,-126 1401.958,-122 1301.042,-122 1301.042,-86 1428.958,-86 1428.958,-122"/>
<text text-anchor="middle" x="1365" y="-99.8" font-family="Times,serif" font-size="14.00" fill="#000000">HetznerAppModule</text>
</g>
<!-- HetznerAppModule&#45;&gt;AppModule -->
<g id="edge2" class="edge">
<title>HetznerAppModule&#45;&gt;AppModule</title>
<path fill="none" stroke="#000000" d="M1365,-122.1289C1365,-142.5724 1365,-173 1365,-173 1365,-173 865.8668,-173 865.8668,-173"/>
<polygon fill="#000000" stroke="#000000" points="865.8668,-169.5001 855.8668,-173 865.8668,-176.5001 865.8668,-169.5001"/>
</g>
<!-- HetznerCloudDataModule -->
<g id="node4" class="node">
<title>HetznerCloudDataModule</title>
<polygon fill="#8dd3c7" stroke="#000000" points="1283.0057,-122 1280.0057,-126 1259.0057,-126 1256.0057,-122 1118.9943,-122 1118.9943,-86 1283.0057,-86 1283.0057,-122"/>
<text text-anchor="middle" x="1201" y="-99.8" font-family="Times,serif" font-size="14.00" fill="#000000">HetznerCloudDataModule</text>
</g>
<!-- HetznerCloudDataModule&#45;&gt;AppModule -->
<g id="edge3" class="edge">
<title>HetznerCloudDataModule&#45;&gt;AppModule</title>
<path fill="none" stroke="#000000" d="M1201,-122.2667C1201,-140.5552 1201,-166 1201,-166 1201,-166 865.7835,-166 865.7835,-166"/>
<polygon fill="#000000" stroke="#000000" points="865.7835,-162.5001 855.7835,-166 865.7834,-169.5001 865.7835,-162.5001"/>
</g>
<!-- HetznerRobotDataModule -->
<g id="node5" class="node">
<title>HetznerRobotDataModule</title>
<polygon fill="#8dd3c7" stroke="#000000" points="1100.0057,-122 1097.0057,-126 1076.0057,-126 1073.0057,-122 935.9943,-122 935.9943,-86 1100.0057,-86 1100.0057,-122"/>
<text text-anchor="middle" x="1018" y="-99.8" font-family="Times,serif" font-size="14.00" fill="#000000">HetznerRobotDataModule</text>
</g>
<!-- HetznerRobotDataModule&#45;&gt;AppModule -->
<g id="edge4" class="edge">
<title>HetznerRobotDataModule&#45;&gt;AppModule</title>
<path fill="none" stroke="#000000" d="M1018,-122.0091C1018,-138.0494 1018,-159 1018,-159 1018,-159 865.7747,-159 865.7747,-159"/>
<polygon fill="#000000" stroke="#000000" points="865.7747,-155.5001 855.7747,-159 865.7747,-162.5001 865.7747,-155.5001"/>
</g>
<!-- HetznerCloudApiProviderModule -->
<g id="node6" class="node">
<title>HetznerCloudApiProviderModule</title>
<polygon fill="#8dd3c7" stroke="#000000" points="917.785,-122 914.785,-126 893.785,-126 890.785,-122 710.215,-122 710.215,-86 917.785,-86 917.785,-122"/>
<text text-anchor="middle" x="814" y="-99.8" font-family="Times,serif" font-size="14.00" fill="#000000">HetznerCloudApiProviderModule</text>
</g>
<!-- HetznerCloudApiProviderModule&#45;&gt;AppModule -->
<g id="edge5" class="edge">
<title>HetznerCloudApiProviderModule&#45;&gt;AppModule</title>
<path fill="none" stroke="#000000" d="M814,-122.1061C814,-122.1061 814,-140.991 814,-140.991"/>
<polygon fill="#000000" stroke="#000000" points="810.5001,-140.9909 814,-150.991 817.5001,-140.991 810.5001,-140.9909"/>
</g>
<!-- HetznerRobotApiModule -->
<g id="node7" class="node">
<title>HetznerRobotApiModule</title>
<polygon fill="#8dd3c7" stroke="#000000" points="692.5758,-122 689.5758,-126 668.5758,-126 665.5758,-122 533.4242,-122 533.4242,-86 692.5758,-86 692.5758,-122"/>
<text text-anchor="middle" x="613" y="-99.8" font-family="Times,serif" font-size="14.00" fill="#000000">HetznerRobotApiModule</text>
</g>
<!-- HetznerRobotApiModule&#45;&gt;AppModule -->
<g id="edge6" class="edge">
<title>HetznerRobotApiModule&#45;&gt;AppModule</title>
<path fill="none" stroke="#000000" d="M613,-122.0091C613,-138.0494 613,-159 613,-159 613,-159 761.8638,-159 761.8638,-159"/>
<polygon fill="#000000" stroke="#000000" points="761.8638,-162.5001 771.8638,-159 761.8638,-155.5001 761.8638,-162.5001"/>
</g>
<!-- GlobalAppPagesModule -->
<g id="node8" class="node">
<title>GlobalAppPagesModule</title>
<polygon fill="#8dd3c7" stroke="#000000" points="515.4158,-122 512.4158,-126 491.4158,-126 488.4158,-122 360.5842,-122 360.5842,-86 515.4158,-86 515.4158,-122"/>
<text text-anchor="middle" x="438" y="-99.8" font-family="Times,serif" font-size="14.00" fill="#000000">GlobalAppPagesModule</text>
</g>
<!-- GlobalAppPagesModule&#45;&gt;AppModule -->
<g id="edge7" class="edge">
<title>GlobalAppPagesModule&#45;&gt;AppModule</title>
<path fill="none" stroke="#000000" d="M438,-122.2667C438,-140.5552 438,-166 438,-166 438,-166 762.3248,-166 762.3248,-166"/>
<polygon fill="#000000" stroke="#000000" points="762.3248,-169.5001 772.3248,-166 762.3248,-162.5001 762.3248,-169.5001"/>
</g>
<!-- CloudAppPagesModule -->
<g id="node9" class="node">
<title>CloudAppPagesModule</title>
<polygon fill="#8dd3c7" stroke="#000000" points="343.0407,-122 340.0407,-126 319.0407,-126 316.0407,-122 192.9593,-122 192.9593,-86 343.0407,-86 343.0407,-122"/>
<text text-anchor="middle" x="268" y="-99.8" font-family="Times,serif" font-size="14.00" fill="#000000">CloudAppPagesModule</text>
</g>
<!-- CloudAppPagesModule&#45;&gt;AppModule -->
<g id="edge8" class="edge">
<title>CloudAppPagesModule&#45;&gt;AppModule</title>
<path fill="none" stroke="#000000" d="M268,-122.1289C268,-142.5724 268,-173 268,-173 268,-173 762.0629,-173 762.0629,-173"/>
<polygon fill="#000000" stroke="#000000" points="762.0629,-176.5001 772.0629,-173 762.0629,-169.5001 762.0629,-176.5001"/>
</g>
<!-- RobotAppPagesModule -->
<g id="node10" class="node">
<title>RobotAppPagesModule</title>
<polygon fill="#8dd3c7" stroke="#000000" points="174.0407,-122 171.0407,-126 150.0407,-126 147.0407,-122 23.9593,-122 23.9593,-86 174.0407,-86 174.0407,-122"/>
<text text-anchor="middle" x="99" y="-99.8" font-family="Times,serif" font-size="14.00" fill="#000000">RobotAppPagesModule</text>
</g>
<!-- RobotAppPagesModule&#45;&gt;AppModule -->
<g id="edge9" class="edge">
<title>RobotAppPagesModule&#45;&gt;AppModule</title>
<path fill="none" stroke="#000000" d="M99,-122.0109C99,-144.4852 99,-180 99,-180 99,-180 762.2058,-180 762.2058,-180"/>
<polygon fill="#000000" stroke="#000000" points="762.2059,-183.5001 772.2058,-180 762.2058,-176.5001 762.2059,-183.5001"/>
</g>
</g>
</svg>
