<?xml version="1.0" encoding="UTF-8" standalone="no"?>
<!DOCTYPE svg PUBLIC "-//W3C//DTD SVG 1.1//EN"
 "http://www.w3.org/Graphics/SVG/1.1/DTD/svg11.dtd">
<!-- Generated by graphviz version 2.40.1 (20161225.0304)
 -->
<!-- Title: dependencies Pages: 1 -->
<svg width="5008pt" height="284pt"
 viewBox="0.00 0.00 5008.00 284.00" xmlns="http://www.w3.org/2000/svg" xmlns:xlink="http://www.w3.org/1999/xlink">
<g id="graph0" class="graph" transform="scale(1 1) rotate(0) translate(4 280)">
<title>dependencies</title>
<polygon fill="#ffffff" stroke="transparent" points="-4,4 -4,-280 5004,-280 5004,4 -4,4"/>
<text text-anchor="start" x="2479.0091" y="-42.4" font-family="sans-serif" font-weight="bold" font-size="14.00" fill="#000000">Legend</text>
<polygon fill="#ffffb3" stroke="transparent" points="2266,-10 2266,-30 2286,-30 2286,-10 2266,-10"/>
<text text-anchor="start" x="2289.629" y="-15.4" font-family="sans-serif" font-size="14.00" fill="#000000"> &#160;Declarations</text>
<polygon fill="#8dd3c7" stroke="transparent" points="2379,-10 2379,-30 2399,-30 2399,-10 2379,-10"/>
<text text-anchor="start" x="2402.7251" y="-15.4" font-family="sans-serif" font-size="14.00" fill="#000000"> &#160;Module</text>
<polygon fill="#80b1d3" stroke="transparent" points="2465,-10 2465,-30 2485,-30 2485,-10 2465,-10"/>
<text text-anchor="start" x="2488.7812" y="-15.4" font-family="sans-serif" font-size="14.00" fill="#000000"> &#160;Bootstrap</text>
<polygon fill="#fdb462" stroke="transparent" points="2562,-10 2562,-30 2582,-30 2582,-10 2562,-10"/>
<text text-anchor="start" x="2585.6732" y="-15.4" font-family="sans-serif" font-size="14.00" fill="#000000"> &#160;Providers</text>
<polygon fill="#fb8072" stroke="transparent" points="2658,-10 2658,-30 2678,-30 2678,-10 2658,-10"/>
<text text-anchor="start" x="2681.7258" y="-15.4" font-family="sans-serif" font-size="14.00" fill="#000000"> &#160;Exports</text>
<g id="clust1" class="cluster">
<title>cluster_AppModule</title>
<polygon fill="none" stroke="#000000" stroke-dasharray="1,5" points="8,-70 8,-268 4992,-268 4992,-70 8,-70"/>
</g>
<g id="clust2" class="cluster">
<title>cluster_AppModule_declarations</title>
<polygon fill="none" stroke="#000000" points="542,-78 542,-130 4984,-130 4984,-78 542,-78"/>
</g>
<g id="clust36" class="cluster">
<title>cluster_AppModule_imports</title>
<polygon fill="none" stroke="#000000" points="16,-78 16,-130 534,-130 534,-78 16,-78"/>
</g>
<g id="clust38" class="cluster">
<title>cluster_AppModule_bootstrap</title>
<polygon fill="none" stroke="#000000" points="2588,-208 2588,-260 2676,-260 2676,-208 2588,-208"/>
</g>
<!-- HetznerCloudMobileApp -->
<g id="node1" class="node">
<title>HetznerCloudMobileApp</title>
<polygon fill="#ffffb3" stroke="#000000" points="4975.5758,-122 4816.4242,-122 4816.4242,-86 4975.5758,-86 4975.5758,-122"/>
<text text-anchor="middle" x="4896" y="-99.8" font-family="Times,serif" font-size="14.00" fill="#000000">HetznerCloudMobileApp</text>
</g>
<!-- AppModule -->
<g id="node34" class="node">
<title>AppModule</title>
<polygon fill="#8dd3c7" stroke="#000000" points="2673.6571,-187 2670.6571,-191 2649.6571,-191 2646.6571,-187 2590.3429,-187 2590.3429,-151 2673.6571,-151 2673.6571,-187"/>
<text text-anchor="middle" x="2632" y="-164.8" font-family="Times,serif" font-size="14.00" fill="#000000">AppModule</text>
</g>
<!-- HetznerCloudMobileApp&#45;&gt;AppModule -->
<g id="edge1" class="edge">
<title>HetznerCloudMobileApp&#45;&gt;AppModule</title>
<path fill="none" stroke="#000000" d="M4896,-122.3802C4896,-146.2785 4896,-185 4896,-185 4896,-185 2683.7186,-185 2683.7186,-185"/>
<polygon fill="#000000" stroke="#000000" points="2683.7186,-181.5001 2673.7186,-185 2683.7185,-188.5001 2683.7186,-181.5001"/>
</g>
<!-- AboutPage -->
<g id="node2" class="node">
<title>AboutPage</title>
<polygon fill="#ffffb3" stroke="#000000" points="4798.2093,-122 4719.7907,-122 4719.7907,-86 4798.2093,-86 4798.2093,-122"/>
<text text-anchor="middle" x="4759" y="-99.8" font-family="Times,serif" font-size="14.00" fill="#000000">AboutPage</text>
</g>
<!-- AboutPage&#45;&gt;AppModule -->
<g id="edge2" class="edge">
<title>AboutPage&#45;&gt;AppModule</title>
<path fill="none" stroke="#000000" d="M4759,-122.3228C4759,-145.6602 4759,-183 4759,-183 4759,-183 2684.0095,-183 2684.0095,-183"/>
<polygon fill="#000000" stroke="#000000" points="2684.0095,-179.5001 2674.0095,-183 2684.0095,-186.5001 2684.0095,-179.5001"/>
</g>
<!-- HomePage -->
<g id="node3" class="node">
<title>HomePage</title>
<polygon fill="#ffffb3" stroke="#000000" points="4701.9248,-122 4624.0752,-122 4624.0752,-86 4701.9248,-86 4701.9248,-122"/>
<text text-anchor="middle" x="4663" y="-99.8" font-family="Times,serif" font-size="14.00" fill="#000000">HomePage</text>
</g>
<!-- HomePage&#45;&gt;AppModule -->
<g id="edge3" class="edge">
<title>HomePage&#45;&gt;AppModule</title>
<path fill="none" stroke="#000000" d="M4663,-122.2479C4663,-145.0179 4663,-181 4663,-181 4663,-181 2683.9541,-181 2683.9541,-181"/>
<polygon fill="#000000" stroke="#000000" points="2683.9542,-177.5001 2673.9541,-181 2683.9541,-184.5001 2683.9542,-177.5001"/>
</g>
<!-- ProjectsPage -->
<g id="node4" class="node">
<title>ProjectsPage</title>
<polygon fill="#ffffb3" stroke="#000000" points="4606.3105,-122 4517.6895,-122 4517.6895,-86 4606.3105,-86 4606.3105,-122"/>
<text text-anchor="middle" x="4562" y="-99.8" font-family="Times,serif" font-size="14.00" fill="#000000">ProjectsPage</text>
</g>
<!-- ProjectsPage&#45;&gt;AppModule -->
<g id="edge4" class="edge">
<title>ProjectsPage&#45;&gt;AppModule</title>
<path fill="none" stroke="#000000" d="M4562,-122.1554C4562,-144.3519 4562,-179 4562,-179 4562,-179 2684.1057,-179 2684.1057,-179"/>
<polygon fill="#000000" stroke="#000000" points="2684.1057,-175.5001 2674.1057,-179 2684.1057,-182.5001 2684.1057,-175.5001"/>
</g>
<!-- addProjectModal -->
<g id="node5" class="node">
<title>addProjectModal</title>
<polygon fill="#ffffb3" stroke="#000000" points="4500.4188,-122 4387.5812,-122 4387.5812,-86 4500.4188,-86 4500.4188,-122"/>
<text text-anchor="middle" x="4444" y="-99.8" font-family="Times,serif" font-size="14.00" fill="#000000">addProjectModal</text>
</g>
<!-- addProjectModal&#45;&gt;AppModule -->
<g id="edge5" class="edge">
<title>addProjectModal&#45;&gt;AppModule</title>
<path fill="none" stroke="#000000" d="M4444,-122.0449C4444,-143.6623 4444,-177 4444,-177 4444,-177 2683.6858,-177 2683.6858,-177"/>
<polygon fill="#000000" stroke="#000000" points="2683.6859,-173.5001 2673.6858,-177 2683.6858,-180.5001 2683.6859,-173.5001"/>
</g>
<!-- shareProjectModal -->
<g id="node6" class="node">
<title>shareProjectModal</title>
<polygon fill="#ffffb3" stroke="#000000" points="4369.7381,-122 4248.2619,-122 4248.2619,-86 4369.7381,-86 4369.7381,-122"/>
<text text-anchor="middle" x="4309" y="-99.8" font-family="Times,serif" font-size="14.00" fill="#000000">shareProjectModal</text>
</g>
<!-- shareProjectModal&#45;&gt;AppModule -->
<g id="edge6" class="edge">
<title>shareProjectModal&#45;&gt;AppModule</title>
<path fill="none" stroke="#000000" d="M4309,-122.2843C4309,-143.3211 4309,-175 4309,-175 4309,-175 2683.8726,-175 2683.8726,-175"/>
<polygon fill="#000000" stroke="#000000" points="2683.8726,-171.5001 2673.8726,-175 2683.8725,-178.5001 2683.8726,-171.5001"/>
</g>
<!-- editProjectModal -->
<g id="node7" class="node">
<title>editProjectModal</title>
<polygon fill="#ffffb3" stroke="#000000" points="4230.6994,-122 4117.3006,-122 4117.3006,-86 4230.6994,-86 4230.6994,-122"/>
<text text-anchor="middle" x="4174" y="-99.8" font-family="Times,serif" font-size="14.00" fill="#000000">editProjectModal</text>
</g>
<!-- editProjectModal&#45;&gt;AppModule -->
<g id="edge7" class="edge">
<title>editProjectModal&#45;&gt;AppModule</title>
<path fill="none" stroke="#000000" d="M4174,-122.1289C4174,-142.5724 4174,-173 4174,-173 4174,-173 2684.0445,-173 2684.0445,-173"/>
<polygon fill="#000000" stroke="#000000" points="2684.0445,-169.5001 2674.0445,-173 2684.0445,-176.5001 2684.0445,-169.5001"/>
</g>
<!-- ServersPage -->
<g id="node8" class="node">
<title>ServersPage</title>
<polygon fill="#ffffb3" stroke="#000000" points="4099.6896,-122 4014.3104,-122 4014.3104,-86 4099.6896,-86 4099.6896,-122"/>
<text text-anchor="middle" x="4057" y="-99.8" font-family="Times,serif" font-size="14.00" fill="#000000">ServersPage</text>
</g>
<!-- ServersPage&#45;&gt;AppModule -->
<g id="edge8" class="edge">
<title>ServersPage&#45;&gt;AppModule</title>
<path fill="none" stroke="#000000" d="M4057,-122.308C4057,-142.1455 4057,-171 4057,-171 4057,-171 2683.8758,-171 2683.8758,-171"/>
<polygon fill="#000000" stroke="#000000" points="2683.8758,-167.5001 2673.8758,-171 2683.8758,-174.5001 2683.8758,-167.5001"/>
</g>
<!-- ServerPage -->
<g id="node9" class="node">
<title>ServerPage</title>
<polygon fill="#ffffb3" stroke="#000000" points="3996.7452,-122 3917.2548,-122 3917.2548,-86 3996.7452,-86 3996.7452,-122"/>
<text text-anchor="middle" x="3957" y="-99.8" font-family="Times,serif" font-size="14.00" fill="#000000">ServerPage</text>
</g>
<!-- ServerPage&#45;&gt;AppModule -->
<g id="edge9" class="edge">
<title>ServerPage&#45;&gt;AppModule</title>
<path fill="none" stroke="#000000" d="M3957,-122.1061C3957,-141.3391 3957,-169 3957,-169 3957,-169 2683.843,-169 2683.843,-169"/>
<polygon fill="#000000" stroke="#000000" points="2683.8431,-165.5001 2673.843,-169 2683.843,-172.5001 2683.8431,-165.5001"/>
</g>
<!-- addServerModal -->
<g id="node10" class="node">
<title>addServerModal</title>
<polygon fill="#ffffb3" stroke="#000000" points="3898.7978,-122 3789.2022,-122 3789.2022,-86 3898.7978,-86 3898.7978,-122"/>
<text text-anchor="middle" x="3844" y="-99.8" font-family="Times,serif" font-size="14.00" fill="#000000">addServerModal</text>
</g>
<!-- addServerModal&#45;&gt;AppModule -->
<g id="edge10" class="edge">
<title>addServerModal&#45;&gt;AppModule</title>
<path fill="none" stroke="#000000" d="M3844,-122.2222C3844,-140.8285 3844,-167 3844,-167 3844,-167 2683.7198,-167 2683.7198,-167"/>
<polygon fill="#000000" stroke="#000000" points="2683.7198,-163.5001 2673.7198,-167 2683.7197,-170.5001 2683.7198,-163.5001"/>
</g>
<!-- editServerModal -->
<g id="node11" class="node">
<title>editServerModal</title>
<polygon fill="#ffffb3" stroke="#000000" points="3771.0786,-122 3660.9214,-122 3660.9214,-86 3771.0786,-86 3771.0786,-122"/>
<text text-anchor="middle" x="3716" y="-99.8" font-family="Times,serif" font-size="14.00" fill="#000000">editServerModal</text>
</g>
<!-- editServerModal&#45;&gt;AppModule -->
<g id="edge11" class="edge">
<title>editServerModal&#45;&gt;AppModule</title>
<path fill="none" stroke="#000000" d="M3716,-122.302C3716,-140.2699 3716,-165 3716,-165 3716,-165 2683.8299,-165 2683.8299,-165"/>
<polygon fill="#000000" stroke="#000000" points="2683.8299,-161.5001 2673.8299,-165 2683.8298,-168.5001 2683.8299,-161.5001"/>
</g>
<!-- powerSettingsModal -->
<g id="node12" class="node">
<title>powerSettingsModal</title>
<polygon fill="#ffffb3" stroke="#000000" points="3643.1457,-122 3510.8543,-122 3510.8543,-86 3643.1457,-86 3643.1457,-122"/>
<text text-anchor="middle" x="3577" y="-99.8" font-family="Times,serif" font-size="14.00" fill="#000000">powerSettingsModal</text>
</g>
<!-- powerSettingsModal&#45;&gt;AppModule -->
<g id="edge12" class="edge">
<title>powerSettingsModal&#45;&gt;AppModule</title>
<path fill="none" stroke="#000000" d="M3577,-122.0225C3577,-139.3734 3577,-163 3577,-163 3577,-163 2683.8248,-163 2683.8248,-163"/>
<polygon fill="#000000" stroke="#000000" points="2683.8248,-159.5001 2673.8248,-163 2683.8248,-166.5001 2683.8248,-159.5001"/>
</g>
<!-- rescueModeModal -->
<g id="node13" class="node">
<title>rescueModeModal</title>
<polygon fill="#ffffb3" stroke="#000000" points="3492.458,-122 3371.542,-122 3371.542,-86 3492.458,-86 3492.458,-122"/>
<text text-anchor="middle" x="3432" y="-99.8" font-family="Times,serif" font-size="14.00" fill="#000000">rescueModeModal</text>
</g>
<!-- rescueModeModal&#45;&gt;AppModule -->
<g id="edge13" class="edge">
<title>rescueModeModal&#45;&gt;AppModule</title>
<path fill="none" stroke="#000000" d="M3432,-122.0352C3432,-138.7344 3432,-161 3432,-161 3432,-161 2683.8851,-161 2683.8851,-161"/>
<polygon fill="#000000" stroke="#000000" points="2683.8851,-157.5001 2673.8851,-161 2683.8851,-164.5001 2683.8851,-157.5001"/>
</g>
<!-- resizeServerModal -->
<g id="node14" class="node">
<title>resizeServerModal</title>
<polygon fill="#ffffb3" stroke="#000000" points="3353.7227,-122 3232.2773,-122 3232.2773,-86 3353.7227,-86 3353.7227,-122"/>
<text text-anchor="middle" x="3293" y="-99.8" font-family="Times,serif" font-size="14.00" fill="#000000">resizeServerModal</text>
</g>
<!-- resizeServerModal&#45;&gt;AppModule -->
<g id="edge14" class="edge">
<title>resizeServerModal&#45;&gt;AppModule</title>
<path fill="none" stroke="#000000" d="M3293,-122.0091C3293,-138.0494 3293,-159 3293,-159 3293,-159 2683.85,-159 2683.85,-159"/>
<polygon fill="#000000" stroke="#000000" points="2683.85,-155.5001 2673.85,-159 2683.8499,-162.5001 2683.85,-155.5001"/>
</g>
<!-- backupSettingsModal -->
<g id="node15" class="node">
<title>backupSettingsModal</title>
<polygon fill="#ffffb3" stroke="#000000" points="3214.0926,-122 3075.9074,-122 3075.9074,-86 3214.0926,-86 3214.0926,-122"/>
<text text-anchor="middle" x="3145" y="-99.8" font-family="Times,serif" font-size="14.00" fill="#000000">backupSettingsModal</text>
</g>
<!-- backupSettingsModal&#45;&gt;AppModule -->
<g id="edge15" class="edge">
<title>backupSettingsModal&#45;&gt;AppModule</title>
<path fill="none" stroke="#000000" d="M3145,-122.2396C3145,-137.5706 3145,-157 3145,-157 3145,-157 2683.9809,-157 2683.9809,-157"/>
<polygon fill="#000000" stroke="#000000" points="2683.981,-153.5001 2673.9809,-157 2683.9809,-160.5001 2683.981,-153.5001"/>
</g>
<!-- FloatingIPsPage -->
<g id="node16" class="node">
<title>FloatingIPsPage</title>
<polygon fill="#ffffb3" stroke="#000000" points="3057.7688,-122 2950.2312,-122 2950.2312,-86 3057.7688,-86 3057.7688,-122"/>
<text text-anchor="middle" x="3004" y="-99.8" font-family="Times,serif" font-size="14.00" fill="#000000">FloatingIPsPage</text>
</g>
<!-- FloatingIPsPage&#45;&gt;AppModule -->
<g id="edge16" class="edge">
<title>FloatingIPsPage&#45;&gt;AppModule</title>
<path fill="none" stroke="#000000" d="M3004,-122.1243C3004,-136.7832 3004,-155 3004,-155 3004,-155 2683.95,-155 2683.95,-155"/>
<polygon fill="#000000" stroke="#000000" points="2683.95,-151.5001 2673.95,-155 2683.95,-158.5001 2683.95,-151.5001"/>
</g>
<!-- addFloatingIPModal -->
<g id="node17" class="node">
<title>addFloatingIPModal</title>
<polygon fill="#ffffb3" stroke="#000000" points="2931.8767,-122 2800.1233,-122 2800.1233,-86 2931.8767,-86 2931.8767,-122"/>
<text text-anchor="middle" x="2866" y="-99.8" font-family="Times,serif" font-size="14.00" fill="#000000">addFloatingIPModal</text>
</g>
<!-- addFloatingIPModal&#45;&gt;AppModule -->
<g id="edge17" class="edge">
<title>addFloatingIPModal&#45;&gt;AppModule</title>
<path fill="none" stroke="#000000" d="M2866,-122.2458C2866,-136.1772 2866,-153 2866,-153 2866,-153 2683.8345,-153 2683.8345,-153"/>
<polygon fill="#000000" stroke="#000000" points="2683.8345,-149.5001 2673.8345,-153 2683.8345,-156.5001 2683.8345,-149.5001"/>
</g>
<!-- DeleteAllDataPage -->
<g id="node18" class="node">
<title>DeleteAllDataPage</title>
<polygon fill="#ffffb3" stroke="#000000" points="2782.0576,-122 2657.9424,-122 2657.9424,-86 2782.0576,-86 2782.0576,-122"/>
<text text-anchor="middle" x="2720" y="-99.8" font-family="Times,serif" font-size="14.00" fill="#000000">DeleteAllDataPage</text>
</g>
<!-- DeleteAllDataPage&#45;&gt;AppModule -->
<g id="edge18" class="edge">
<title>DeleteAllDataPage&#45;&gt;AppModule</title>
<path fill="none" stroke="#000000" d="M2665.8997,-122.1061C2665.8997,-122.1061 2665.8997,-140.991 2665.8997,-140.991"/>
<polygon fill="#000000" stroke="#000000" points="2662.3998,-140.9909 2665.8997,-150.991 2669.3998,-140.991 2662.3998,-140.9909"/>
</g>
<!-- changeIPv4ReverseDNSModal -->
<g id="node19" class="node">
<title>changeIPv4ReverseDNSModal</title>
<polygon fill="#ffffb3" stroke="#000000" points="2639.7184,-122 2448.2816,-122 2448.2816,-86 2639.7184,-86 2639.7184,-122"/>
<text text-anchor="middle" x="2544" y="-99.8" font-family="Times,serif" font-size="14.00" fill="#000000">changeIPv4ReverseDNSModal</text>
</g>
<!-- changeIPv4ReverseDNSModal&#45;&gt;AppModule -->
<g id="edge19" class="edge">
<title>changeIPv4ReverseDNSModal&#45;&gt;AppModule</title>
<path fill="none" stroke="#000000" d="M2615.0155,-122.1061C2615.0155,-122.1061 2615.0155,-140.991 2615.0155,-140.991"/>
<polygon fill="#000000" stroke="#000000" points="2611.5155,-140.9909 2615.0155,-150.991 2618.5155,-140.991 2611.5155,-140.9909"/>
</g>
<!-- changeIPv6ReverseDNSModal -->
<g id="node20" class="node">
<title>changeIPv6ReverseDNSModal</title>
<polygon fill="#ffffb3" stroke="#000000" points="2429.7184,-122 2238.2816,-122 2238.2816,-86 2429.7184,-86 2429.7184,-122"/>
<text text-anchor="middle" x="2334" y="-99.8" font-family="Times,serif" font-size="14.00" fill="#000000">changeIPv6ReverseDNSModal</text>
</g>
<!-- changeIPv6ReverseDNSModal&#45;&gt;AppModule -->
<g id="edge20" class="edge">
<title>changeIPv6ReverseDNSModal&#45;&gt;AppModule</title>
<path fill="none" stroke="#000000" d="M2334,-122.2458C2334,-136.1772 2334,-153 2334,-153 2334,-153 2580.2506,-153 2580.2506,-153"/>
<polygon fill="#000000" stroke="#000000" points="2580.2506,-156.5001 2590.2506,-153 2580.2506,-149.5001 2580.2506,-156.5001"/>
</g>
<!-- editFloatingIpModal -->
<g id="node21" class="node">
<title>editFloatingIpModal</title>
<polygon fill="#ffffb3" stroke="#000000" points="2219.8753,-122 2088.1247,-122 2088.1247,-86 2219.8753,-86 2219.8753,-122"/>
<text text-anchor="middle" x="2154" y="-99.8" font-family="Times,serif" font-size="14.00" fill="#000000">editFloatingIpModal</text>
</g>
<!-- editFloatingIpModal&#45;&gt;AppModule -->
<g id="edge21" class="edge">
<title>editFloatingIpModal&#45;&gt;AppModule</title>
<path fill="none" stroke="#000000" d="M2154,-122.1243C2154,-136.7832 2154,-155 2154,-155 2154,-155 2579.9996,-155 2579.9996,-155"/>
<polygon fill="#000000" stroke="#000000" points="2579.9997,-158.5001 2589.9996,-155 2579.9996,-151.5001 2579.9997,-158.5001"/>
</g>
<!-- FloatingIPPage -->
<g id="node22" class="node">
<title>FloatingIPPage</title>
<polygon fill="#ffffb3" stroke="#000000" points="2070.3245,-122 1967.6755,-122 1967.6755,-86 2070.3245,-86 2070.3245,-122"/>
<text text-anchor="middle" x="2019" y="-99.8" font-family="Times,serif" font-size="14.00" fill="#000000">FloatingIPPage</text>
</g>
<!-- FloatingIPPage&#45;&gt;AppModule -->
<g id="edge22" class="edge">
<title>FloatingIPPage&#45;&gt;AppModule</title>
<path fill="none" stroke="#000000" d="M2019,-122.2396C2019,-137.5706 2019,-157 2019,-157 2019,-157 2579.866,-157 2579.866,-157"/>
<polygon fill="#000000" stroke="#000000" points="2579.8661,-160.5001 2589.866,-157 2579.866,-153.5001 2579.8661,-160.5001"/>
</g>
<!-- ImagesPage -->
<g id="node23" class="node">
<title>ImagesPage</title>
<polygon fill="#ffffb3" stroke="#000000" points="1949.6376,-122 1866.3624,-122 1866.3624,-86 1949.6376,-86 1949.6376,-122"/>
<text text-anchor="middle" x="1908" y="-99.8" font-family="Times,serif" font-size="14.00" fill="#000000">ImagesPage</text>
</g>
<!-- ImagesPage&#45;&gt;AppModule -->
<g id="edge23" class="edge">
<title>ImagesPage&#45;&gt;AppModule</title>
<path fill="none" stroke="#000000" d="M1908,-122.0091C1908,-138.0494 1908,-159 1908,-159 1908,-159 2580.2101,-159 2580.2101,-159"/>
<polygon fill="#000000" stroke="#000000" points="2580.2102,-162.5001 2590.2101,-159 2580.2101,-155.5001 2580.2102,-162.5001"/>
</g>
<!-- editImageModal -->
<g id="node24" class="node">
<title>editImageModal</title>
<polygon fill="#ffffb3" stroke="#000000" points="1848.027,-122 1739.973,-122 1739.973,-86 1848.027,-86 1848.027,-122"/>
<text text-anchor="middle" x="1794" y="-99.8" font-family="Times,serif" font-size="14.00" fill="#000000">editImageModal</text>
</g>
<!-- editImageModal&#45;&gt;AppModule -->
<g id="edge24" class="edge">
<title>editImageModal&#45;&gt;AppModule</title>
<path fill="none" stroke="#000000" d="M1794,-122.0352C1794,-138.7344 1794,-161 1794,-161 1794,-161 2580.1567,-161 2580.1567,-161"/>
<polygon fill="#000000" stroke="#000000" points="2580.1568,-164.5001 2590.1567,-161 2580.1567,-157.5001 2580.1568,-164.5001"/>
</g>
<!-- assignToServerModal -->
<g id="node25" class="node">
<title>assignToServerModal</title>
<polygon fill="#ffffb3" stroke="#000000" points="1721.6303,-122 1582.3697,-122 1582.3697,-86 1721.6303,-86 1721.6303,-122"/>
<text text-anchor="middle" x="1652" y="-99.8" font-family="Times,serif" font-size="14.00" fill="#000000">assignToServerModal</text>
</g>
<!-- assignToServerModal&#45;&gt;AppModule -->
<g id="edge25" class="edge">
<title>assignToServerModal&#45;&gt;AppModule</title>
<path fill="none" stroke="#000000" d="M1652,-122.0225C1652,-139.3734 1652,-163 1652,-163 1652,-163 2580.2041,-163 2580.2041,-163"/>
<polygon fill="#000000" stroke="#000000" points="2580.2042,-166.5001 2590.2041,-163 2580.2041,-159.5001 2580.2042,-166.5001"/>
</g>
<!-- HetznerStatusSettingPage -->
<g id="node26" class="node">
<title>HetznerStatusSettingPage</title>
<polygon fill="#ffffb3" stroke="#000000" points="1563.9059,-122 1402.0941,-122 1402.0941,-86 1563.9059,-86 1563.9059,-122"/>
<text text-anchor="middle" x="1483" y="-99.8" font-family="Times,serif" font-size="14.00" fill="#000000">HetznerStatusSettingPage</text>
</g>
<!-- HetznerStatusSettingPage&#45;&gt;AppModule -->
<g id="edge26" class="edge">
<title>HetznerStatusSettingPage&#45;&gt;AppModule</title>
<path fill="none" stroke="#000000" d="M1483,-122.302C1483,-140.2699 1483,-165 1483,-165 1483,-165 2580.0864,-165 2580.0864,-165"/>
<polygon fill="#000000" stroke="#000000" points="2580.0864,-168.5001 2590.0864,-165 2580.0863,-161.5001 2580.0864,-168.5001"/>
</g>
<!-- HetznerStatusPage -->
<g id="node27" class="node">
<title>HetznerStatusPage</title>
<polygon fill="#ffffb3" stroke="#000000" points="1383.7367,-122 1262.2633,-122 1262.2633,-86 1383.7367,-86 1383.7367,-122"/>
<text text-anchor="middle" x="1323" y="-99.8" font-family="Times,serif" font-size="14.00" fill="#000000">HetznerStatusPage</text>
</g>
<!-- HetznerStatusPage&#45;&gt;AppModule -->
<g id="edge27" class="edge">
<title>HetznerStatusPage&#45;&gt;AppModule</title>
<path fill="none" stroke="#000000" d="M1323,-122.2222C1323,-140.8285 1323,-167 1323,-167 1323,-167 2580.2968,-167 2580.2968,-167"/>
<polygon fill="#000000" stroke="#000000" points="2580.2968,-170.5001 2590.2968,-167 2580.2967,-163.5001 2580.2968,-170.5001"/>
</g>
<!-- ServerMetricsPage -->
<g id="node28" class="node">
<title>ServerMetricsPage</title>
<polygon fill="#ffffb3" stroke="#000000" points="1244.006,-122 1121.994,-122 1121.994,-86 1244.006,-86 1244.006,-122"/>
<text text-anchor="middle" x="1183" y="-99.8" font-family="Times,serif" font-size="14.00" fill="#000000">ServerMetricsPage</text>
</g>
<!-- ServerMetricsPage&#45;&gt;AppModule -->
<g id="edge28" class="edge">
<title>ServerMetricsPage&#45;&gt;AppModule</title>
<path fill="none" stroke="#000000" d="M1183,-122.1061C1183,-141.3391 1183,-169 1183,-169 1183,-169 2580.1969,-169 2580.1969,-169"/>
<polygon fill="#000000" stroke="#000000" points="2580.197,-172.5001 2590.1969,-169 2580.1969,-165.5001 2580.197,-172.5001"/>
</g>
<!-- SettingsPage -->
<g id="node29" class="node">
<title>SettingsPage</title>
<polygon fill="#ffffb3" stroke="#000000" points="1104.326,-122 1015.674,-122 1015.674,-86 1104.326,-86 1104.326,-122"/>
<text text-anchor="middle" x="1060" y="-99.8" font-family="Times,serif" font-size="14.00" fill="#000000">SettingsPage</text>
</g>
<!-- SettingsPage&#45;&gt;AppModule -->
<g id="edge29" class="edge">
<title>SettingsPage&#45;&gt;AppModule</title>
<path fill="none" stroke="#000000" d="M1060,-122.308C1060,-142.1455 1060,-171 1060,-171 1060,-171 2579.9528,-171 2579.9528,-171"/>
<polygon fill="#000000" stroke="#000000" points="2579.9528,-174.5001 2589.9528,-171 2579.9528,-167.5001 2579.9528,-174.5001"/>
</g>
<!-- ActionsPage -->
<g id="node30" class="node">
<title>ActionsPage</title>
<polygon fill="#ffffb3" stroke="#000000" points="997.2591,-122 910.7409,-122 910.7409,-86 997.2591,-86 997.2591,-122"/>
<text text-anchor="middle" x="954" y="-99.8" font-family="Times,serif" font-size="14.00" fill="#000000">ActionsPage</text>
</g>
<!-- ActionsPage&#45;&gt;AppModule -->
<g id="edge30" class="edge">
<title>ActionsPage&#45;&gt;AppModule</title>
<path fill="none" stroke="#000000" d="M954,-122.1289C954,-142.5724 954,-173 954,-173 954,-173 2580.1025,-173 2580.1025,-173"/>
<polygon fill="#000000" stroke="#000000" points="2580.1025,-176.5001 2590.1025,-173 2580.1024,-169.5001 2580.1025,-176.5001"/>
</g>
<!-- consoleModal -->
<g id="node31" class="node">
<title>consoleModal</title>
<polygon fill="#ffffb3" stroke="#000000" points="892.8147,-122 797.1853,-122 797.1853,-86 892.8147,-86 892.8147,-122"/>
<text text-anchor="middle" x="845" y="-99.8" font-family="Times,serif" font-size="14.00" fill="#000000">consoleModal</text>
</g>
<!-- consoleModal&#45;&gt;AppModule -->
<g id="edge31" class="edge">
<title>consoleModal&#45;&gt;AppModule</title>
<path fill="none" stroke="#000000" d="M845,-122.2843C845,-143.3211 845,-175 845,-175 845,-175 2580.0247,-175 2580.0247,-175"/>
<polygon fill="#000000" stroke="#000000" points="2580.0247,-178.5001 2590.0247,-175 2580.0247,-171.5001 2580.0247,-178.5001"/>
</g>
<!-- SshkeysPage -->
<g id="node32" class="node">
<title>SshkeysPage</title>
<polygon fill="#ffffb3" stroke="#000000" points="779.5983,-122 690.4017,-122 690.4017,-86 779.5983,-86 779.5983,-122"/>
<text text-anchor="middle" x="735" y="-99.8" font-family="Times,serif" font-size="14.00" fill="#000000">SshkeysPage</text>
</g>
<!-- SshkeysPage&#45;&gt;AppModule -->
<g id="edge32" class="edge">
<title>SshkeysPage&#45;&gt;AppModule</title>
<path fill="none" stroke="#000000" d="M735,-122.0449C735,-143.6623 735,-177 735,-177 735,-177 2580.1676,-177 2580.1676,-177"/>
<polygon fill="#000000" stroke="#000000" points="2580.1676,-180.5001 2590.1676,-177 2580.1676,-173.5001 2580.1676,-180.5001"/>
</g>
<!-- editSSHKeyModal -->
<g id="node33" class="node">
<title>editSSHKeyModal</title>
<polygon fill="#ffffb3" stroke="#000000" points="672.0395,-122 549.9605,-122 549.9605,-86 672.0395,-86 672.0395,-122"/>
<text text-anchor="middle" x="611" y="-99.8" font-family="Times,serif" font-size="14.00" fill="#000000">editSSHKeyModal</text>
</g>
<!-- editSSHKeyModal&#45;&gt;AppModule -->
<g id="edge33" class="edge">
<title>editSSHKeyModal&#45;&gt;AppModule</title>
<path fill="none" stroke="#000000" d="M611,-122.1554C611,-144.3519 611,-179 611,-179 611,-179 2580.2524,-179 2580.2524,-179"/>
<polygon fill="#000000" stroke="#000000" points="2580.2525,-182.5001 2590.2524,-179 2580.2524,-175.5001 2580.2525,-182.5001"/>
</g>
<!-- IonicApp  -->
<g id="node38" class="node">
<title>IonicApp </title>
<polygon fill="#80b1d3" stroke="#000000" points="2668.3734,-252 2595.6266,-252 2595.6266,-216 2668.3734,-216 2668.3734,-252"/>
<text text-anchor="middle" x="2632" y="-229.8" font-family="Times,serif" font-size="14.00" fill="#000000">IonicApp </text>
</g>
<!-- AppModule&#45;&gt;IonicApp  -->
<g id="edge37" class="edge">
<title>AppModule&#45;&gt;IonicApp </title>
<path fill="none" stroke="#000000" stroke-dasharray="1,5" d="M2632,-187.1061C2632,-187.1061 2632,-205.991 2632,-205.991"/>
<polygon fill="#000000" stroke="#000000" points="2628.5001,-205.9909 2632,-215.991 2635.5001,-205.991 2628.5001,-205.9909"/>
</g>
<!-- HetznerAppModule -->
<g id="node35" class="node">
<title>HetznerAppModule</title>
<polygon fill="#8dd3c7" stroke="#000000" points="525.958,-122 522.958,-126 501.958,-126 498.958,-122 398.042,-122 398.042,-86 525.958,-86 525.958,-122"/>
<text text-anchor="middle" x="462" y="-99.8" font-family="Times,serif" font-size="14.00" fill="#000000">HetznerAppModule</text>
</g>
<!-- HetznerAppModule&#45;&gt;AppModule -->
<g id="edge34" class="edge">
<title>HetznerAppModule&#45;&gt;AppModule</title>
<path fill="none" stroke="#000000" d="M462,-122.2479C462,-145.0179 462,-181 462,-181 462,-181 2580.109,-181 2580.109,-181"/>
<polygon fill="#000000" stroke="#000000" points="2580.1091,-184.5001 2590.109,-181 2580.109,-177.5001 2580.1091,-184.5001"/>
</g>
<!-- HetznerCloudDataModule -->
<g id="node36" class="node">
<title>HetznerCloudDataModule</title>
<polygon fill="#8dd3c7" stroke="#000000" points="380.0057,-122 377.0057,-126 356.0057,-126 353.0057,-122 215.9943,-122 215.9943,-86 380.0057,-86 380.0057,-122"/>
<text text-anchor="middle" x="298" y="-99.8" font-family="Times,serif" font-size="14.00" fill="#000000">HetznerCloudDataModule</text>
</g>
<!-- HetznerCloudDataModule&#45;&gt;AppModule -->
<g id="edge35" class="edge">
<title>HetznerCloudDataModule&#45;&gt;AppModule</title>
<path fill="none" stroke="#000000" d="M298,-122.3228C298,-145.6602 298,-183 298,-183 298,-183 2579.999,-183 2579.999,-183"/>
<polygon fill="#000000" stroke="#000000" points="2579.999,-186.5001 2589.999,-183 2579.9989,-179.5001 2579.999,-186.5001"/>
</g>
<!-- HetznerApiProviderModule -->
<g id="node37" class="node">
<title>HetznerApiProviderModule</title>
<polygon fill="#8dd3c7" stroke="#000000" points="197.5576,-122 194.5576,-126 173.5576,-126 170.5576,-122 24.4424,-122 24.4424,-86 197.5576,-86 197.5576,-122"/>
<text text-anchor="middle" x="111" y="-99.8" font-family="Times,serif" font-size="14.00" fill="#000000">HetznerApiProviderModule</text>
</g>
<!-- HetznerApiProviderModule&#45;&gt;AppModule -->
<g id="edge36" class="edge">
<title>HetznerApiProviderModule&#45;&gt;AppModule</title>
<path fill="none" stroke="#000000" d="M111,-122.3802C111,-146.2785 111,-185 111,-185 111,-185 2580.0864,-185 2580.0864,-185"/>
<polygon fill="#000000" stroke="#000000" points="2580.0865,-188.5001 2590.0864,-185 2580.0864,-181.5001 2580.0865,-188.5001"/>
</g>
</g>
</svg>
