<?xml version="1.0" encoding="UTF-8" standalone="no"?>
<!DOCTYPE svg PUBLIC "-//W3C//DTD SVG 1.1//EN"
 "http://www.w3.org/Graphics/SVG/1.1/DTD/svg11.dtd">
<!-- Generated by graphviz version 2.40.1 (20161225.0304)
 -->
<!-- Title: dependencies Pages: 1 -->
<svg width="1116pt" height="284pt"
 viewBox="0.00 0.00 1116.00 284.00" xmlns="http://www.w3.org/2000/svg" xmlns:xlink="http://www.w3.org/1999/xlink">
<g id="graph0" class="graph" transform="scale(1 1) rotate(0) translate(4 280)">
<title>dependencies</title>
<polygon fill="#ffffff" stroke="transparent" points="-4,4 -4,-280 1112,-280 1112,4 -4,4"/>
<text text-anchor="start" x="533.0091" y="-42.4" font-family="sans-serif" font-weight="bold" font-size="14.00" fill="#000000">Legend</text>
<polygon fill="#ffffb3" stroke="transparent" points="320,-10 320,-30 340,-30 340,-10 320,-10"/>
<text text-anchor="start" x="343.629" y="-15.4" font-family="sans-serif" font-size="14.00" fill="#000000"> &#160;Declarations</text>
<polygon fill="#8dd3c7" stroke="transparent" points="433,-10 433,-30 453,-30 453,-10 433,-10"/>
<text text-anchor="start" x="456.7251" y="-15.4" font-family="sans-serif" font-size="14.00" fill="#000000"> &#160;Module</text>
<polygon fill="#80b1d3" stroke="transparent" points="519,-10 519,-30 539,-30 539,-10 519,-10"/>
<text text-anchor="start" x="542.7812" y="-15.4" font-family="sans-serif" font-size="14.00" fill="#000000"> &#160;Bootstrap</text>
<polygon fill="#fdb462" stroke="transparent" points="616,-10 616,-30 636,-30 636,-10 616,-10"/>
<text text-anchor="start" x="639.6732" y="-15.4" font-family="sans-serif" font-size="14.00" fill="#000000"> &#160;Providers</text>
<polygon fill="#fb8072" stroke="transparent" points="712,-10 712,-30 732,-30 732,-10 712,-10"/>
<text text-anchor="start" x="735.7258" y="-15.4" font-family="sans-serif" font-size="14.00" fill="#000000"> &#160;Exports</text>
<g id="clust1" class="cluster">
<title>cluster_AppModule</title>
<polygon fill="none" stroke="#000000" stroke-dasharray="1,5" points="8,-70 8,-268 1100,-268 1100,-70 8,-70"/>
</g>
<g id="clust2" class="cluster">
<title>cluster_AppModule_declarations</title>
<polygon fill="none" stroke="#000000" points="916,-78 916,-130 1092,-130 1092,-78 916,-78"/>
</g>
<g id="clust4" class="cluster">
<title>cluster_AppModule_imports</title>
<polygon fill="none" stroke="#000000" points="16,-78 16,-130 908,-130 908,-78 16,-78"/>
</g>
<g id="clust6" class="cluster">
<title>cluster_AppModule_bootstrap</title>
<polygon fill="none" stroke="#000000" points="526,-208 526,-260 614,-260 614,-208 526,-208"/>
</g>
<!-- HetznerCloudMobileApp -->
<g id="node1" class="node">
<title>HetznerCloudMobileApp</title>
<polygon fill="#ffffb3" stroke="#000000" points="1083.5758,-122 924.4242,-122 924.4242,-86 1083.5758,-86 1083.5758,-122"/>
<text text-anchor="middle" x="1004" y="-99.8" font-family="Times,serif" font-size="14.00" fill="#000000">HetznerCloudMobileApp</text>
</g>
<!-- AppModule -->
<g id="node2" class="node">
<title>AppModule</title>
<polygon fill="#8dd3c7" stroke="#000000" points="611.6571,-187 608.6571,-191 587.6571,-191 584.6571,-187 528.3429,-187 528.3429,-151 611.6571,-151 611.6571,-187"/>
<text text-anchor="middle" x="570" y="-164.8" font-family="Times,serif" font-size="14.00" fill="#000000">AppModule</text>
</g>
<!-- HetznerCloudMobileApp&#45;&gt;AppModule -->
<g id="edge1" class="edge">
<title>HetznerCloudMobileApp&#45;&gt;AppModule</title>
<path fill="none" stroke="#000000" d="M1004,-122.2843C1004,-143.3211 1004,-175 1004,-175 1004,-175 622.0081,-175 622.0081,-175"/>
<polygon fill="#000000" stroke="#000000" points="622.0081,-171.5001 612.0081,-175 622.0081,-178.5001 622.0081,-171.5001"/>
</g>
<!-- IonicApp  -->
<g id="node8" class="node">
<title>IonicApp </title>
<polygon fill="#80b1d3" stroke="#000000" points="606.3734,-252 533.6266,-252 533.6266,-216 606.3734,-216 606.3734,-252"/>
<text text-anchor="middle" x="570" y="-229.8" font-family="Times,serif" font-size="14.00" fill="#000000">IonicApp </text>
</g>
<!-- AppModule&#45;&gt;IonicApp  -->
<g id="edge7" class="edge">
<title>AppModule&#45;&gt;IonicApp </title>
<path fill="none" stroke="#000000" stroke-dasharray="1,5" d="M570,-187.1061C570,-187.1061 570,-205.991 570,-205.991"/>
<polygon fill="#000000" stroke="#000000" points="566.5001,-205.9909 570,-215.991 573.5001,-205.991 566.5001,-205.9909"/>
</g>
<!-- HetznerAppModule -->
<g id="node3" class="node">
<title>HetznerAppModule</title>
<polygon fill="#8dd3c7" stroke="#000000" points="899.958,-122 896.958,-126 875.958,-126 872.958,-122 772.042,-122 772.042,-86 899.958,-86 899.958,-122"/>
<text text-anchor="middle" x="836" y="-99.8" font-family="Times,serif" font-size="14.00" fill="#000000">HetznerAppModule</text>
</g>
<!-- HetznerAppModule&#45;&gt;AppModule -->
<g id="edge2" class="edge">
<title>HetznerAppModule&#45;&gt;AppModule</title>
<path fill="none" stroke="#000000" d="M836,-122.0225C836,-139.3734 836,-163 836,-163 836,-163 621.8551,-163 621.8551,-163"/>
<polygon fill="#000000" stroke="#000000" points="621.8552,-159.5001 611.8551,-163 621.8551,-166.5001 621.8552,-159.5001"/>
</g>
<!-- HetznerCloudDataModule -->
<g id="node4" class="node">
<title>HetznerCloudDataModule</title>
<polygon fill="#8dd3c7" stroke="#000000" points="754.0057,-122 751.0057,-126 730.0057,-126 727.0057,-122 589.9943,-122 589.9943,-86 754.0057,-86 754.0057,-122"/>
<text text-anchor="middle" x="672" y="-99.8" font-family="Times,serif" font-size="14.00" fill="#000000">HetznerCloudDataModule</text>
</g>
<!-- HetznerCloudDataModule&#45;&gt;AppModule -->
<g id="edge3" class="edge">
<title>HetznerCloudDataModule&#45;&gt;AppModule</title>
<path fill="none" stroke="#000000" d="M600.7878,-122.1061C600.7878,-122.1061 600.7878,-140.991 600.7878,-140.991"/>
<polygon fill="#000000" stroke="#000000" points="597.2879,-140.9909 600.7878,-150.991 604.2879,-140.991 597.2879,-140.9909"/>
</g>
<!-- HetznerCloudApiProviderModule -->
<g id="node5" class="node">
<title>HetznerCloudApiProviderModule</title>
<polygon fill="#8dd3c7" stroke="#000000" points="571.785,-122 568.785,-126 547.785,-126 544.785,-122 364.215,-122 364.215,-86 571.785,-86 571.785,-122"/>
<text text-anchor="middle" x="468" y="-99.8" font-family="Times,serif" font-size="14.00" fill="#000000">HetznerCloudApiProviderModule</text>
</g>
<!-- HetznerCloudApiProviderModule&#45;&gt;AppModule -->
<g id="edge4" class="edge">
<title>HetznerCloudApiProviderModule&#45;&gt;AppModule</title>
<path fill="none" stroke="#000000" d="M549.9071,-122.1061C549.9071,-122.1061 549.9071,-140.991 549.9071,-140.991"/>
<polygon fill="#000000" stroke="#000000" points="546.4072,-140.9909 549.9071,-150.991 553.4072,-140.991 546.4072,-140.9909"/>
</g>
<!-- GlobalAppPagesModule -->
<g id="node6" class="node">
<title>GlobalAppPagesModule</title>
<polygon fill="#8dd3c7" stroke="#000000" points="346.4158,-122 343.4158,-126 322.4158,-126 319.4158,-122 191.5842,-122 191.5842,-86 346.4158,-86 346.4158,-122"/>
<text text-anchor="middle" x="269" y="-99.8" font-family="Times,serif" font-size="14.00" fill="#000000">GlobalAppPagesModule</text>
</g>
<!-- GlobalAppPagesModule&#45;&gt;AppModule -->
<g id="edge5" class="edge">
<title>GlobalAppPagesModule&#45;&gt;AppModule</title>
<path fill="none" stroke="#000000" d="M269,-122.0225C269,-139.3734 269,-163 269,-163 269,-163 518.1472,-163 518.1472,-163"/>
<polygon fill="#000000" stroke="#000000" points="518.1473,-166.5001 528.1472,-163 518.1472,-159.5001 518.1473,-166.5001"/>
</g>
<!-- CloudAppPagesModule -->
<g id="node7" class="node">
<title>CloudAppPagesModule</title>
<polygon fill="#8dd3c7" stroke="#000000" points="174.0407,-122 171.0407,-126 150.0407,-126 147.0407,-122 23.9593,-122 23.9593,-86 174.0407,-86 174.0407,-122"/>
<text text-anchor="middle" x="99" y="-99.8" font-family="Times,serif" font-size="14.00" fill="#000000">CloudAppPagesModule</text>
</g>
<!-- CloudAppPagesModule&#45;&gt;AppModule -->
<g id="edge6" class="edge">
<title>CloudAppPagesModule&#45;&gt;AppModule</title>
<path fill="none" stroke="#000000" d="M99,-122.2843C99,-143.3211 99,-175 99,-175 99,-175 518.2019,-175 518.2019,-175"/>
<polygon fill="#000000" stroke="#000000" points="518.2019,-178.5001 528.2019,-175 518.2019,-171.5001 518.2019,-178.5001"/>
</g>
</g>
</svg>
