<?xml version="1.0" encoding="UTF-8" standalone="no"?>
<!DOCTYPE svg PUBLIC "-//W3C//DTD SVG 1.1//EN"
 "http://www.w3.org/Graphics/SVG/1.1/DTD/svg11.dtd">
<!-- Generated by graphviz version 2.40.1 (20161225.0304)
 -->
<!-- Title: dependencies Pages: 1 -->
<svg width="1432pt" height="284pt"
 viewBox="0.00 0.00 1432.00 284.00" xmlns="http://www.w3.org/2000/svg" xmlns:xlink="http://www.w3.org/1999/xlink">
<g id="graph0" class="graph" transform="scale(1 1) rotate(0) translate(4 280)">
<title>dependencies</title>
<polygon fill="#ffffff" stroke="transparent" points="-4,4 -4,-280 1428,-280 1428,4 -4,4"/>
<text text-anchor="start" x="691.0091" y="-42.4" font-family="sans-serif" font-weight="bold" font-size="14.00" fill="#000000">Legend</text>
<polygon fill="#ffffb3" stroke="transparent" points="478,-10 478,-30 498,-30 498,-10 478,-10"/>
<text text-anchor="start" x="501.629" y="-15.4" font-family="sans-serif" font-size="14.00" fill="#000000"> &#160;Declarations</text>
<polygon fill="#8dd3c7" stroke="transparent" points="591,-10 591,-30 611,-30 611,-10 591,-10"/>
<text text-anchor="start" x="614.7251" y="-15.4" font-family="sans-serif" font-size="14.00" fill="#000000"> &#160;Module</text>
<polygon fill="#80b1d3" stroke="transparent" points="677,-10 677,-30 697,-30 697,-10 677,-10"/>
<text text-anchor="start" x="700.7812" y="-15.4" font-family="sans-serif" font-size="14.00" fill="#000000"> &#160;Bootstrap</text>
<polygon fill="#fdb462" stroke="transparent" points="774,-10 774,-30 794,-30 794,-10 774,-10"/>
<text text-anchor="start" x="797.6732" y="-15.4" font-family="sans-serif" font-size="14.00" fill="#000000"> &#160;Providers</text>
<polygon fill="#fb8072" stroke="transparent" points="870,-10 870,-30 890,-30 890,-10 870,-10"/>
<text text-anchor="start" x="893.7258" y="-15.4" font-family="sans-serif" font-size="14.00" fill="#000000"> &#160;Exports</text>
<g id="clust1" class="cluster">
<title>cluster_AppModule</title>
<polygon fill="none" stroke="#000000" stroke-dasharray="1,5" points="8,-70 8,-268 1416,-268 1416,-70 8,-70"/>
</g>
<g id="clust2" class="cluster">
<title>cluster_AppModule_declarations</title>
<polygon fill="none" stroke="#000000" points="1268,-78 1268,-130 1408,-130 1408,-78 1268,-78"/>
</g>
<g id="clust4" class="cluster">
<title>cluster_AppModule_imports</title>
<polygon fill="none" stroke="#000000" points="16,-78 16,-130 1260,-130 1260,-78 16,-78"/>
</g>
<g id="clust6" class="cluster">
<title>cluster_AppModule_bootstrap</title>
<polygon fill="none" stroke="#000000" points="695,-208 695,-260 783,-260 783,-208 695,-208"/>
</g>
<!-- HetznerMobileApp -->
<g id="node1" class="node">
<title>HetznerMobileApp</title>
<polygon fill="#ffffb3" stroke="#000000" points="1400.3487,-122 1275.6513,-122 1275.6513,-86 1400.3487,-86 1400.3487,-122"/>
<text text-anchor="middle" x="1338" y="-99.8" font-family="Times,serif" font-size="14.00" fill="#000000">HetznerMobileApp</text>
</g>
<!-- AppModule -->
<g id="node2" class="node">
<title>AppModule</title>
<polygon fill="#8dd3c7" stroke="#000000" points="780.6571,-187 777.6571,-191 756.6571,-191 753.6571,-187 697.3429,-187 697.3429,-151 780.6571,-151 780.6571,-187"/>
<text text-anchor="middle" x="739" y="-164.8" font-family="Times,serif" font-size="14.00" fill="#000000">AppModule</text>
</g>
<!-- HetznerMobileApp&#45;&gt;AppModule -->
<g id="edge1" class="edge">
<title>HetznerMobileApp&#45;&gt;AppModule</title>
<path fill="none" stroke="#000000" d="M1338,-122.2921C1338,-144.2057 1338,-178 1338,-178 1338,-178 791.1205,-178 791.1205,-178"/>
<polygon fill="#000000" stroke="#000000" points="791.1206,-174.5001 781.1205,-178 791.1205,-181.5001 791.1206,-174.5001"/>
</g>
<!-- IonicApp  -->
<g id="node10" class="node">
<title>IonicApp </title>
<polygon fill="#80b1d3" stroke="#000000" points="775.3734,-252 702.6266,-252 702.6266,-216 775.3734,-216 775.3734,-252"/>
<text text-anchor="middle" x="739" y="-229.8" font-family="Times,serif" font-size="14.00" fill="#000000">IonicApp </text>
</g>
<!-- AppModule&#45;&gt;IonicApp  -->
<g id="edge9" class="edge">
<title>AppModule&#45;&gt;IonicApp </title>
<path fill="none" stroke="#000000" stroke-dasharray="1,5" d="M739,-187.1061C739,-187.1061 739,-205.991 739,-205.991"/>
<polygon fill="#000000" stroke="#000000" points="735.5001,-205.9909 739,-215.991 742.5001,-205.991 735.5001,-205.9909"/>
</g>
<!-- HetznerAppModule -->
<g id="node3" class="node">
<title>HetznerAppModule</title>
<polygon fill="#8dd3c7" stroke="#000000" points="1251.958,-122 1248.958,-126 1227.958,-126 1224.958,-122 1124.042,-122 1124.042,-86 1251.958,-86 1251.958,-122"/>
<text text-anchor="middle" x="1188" y="-99.8" font-family="Times,serif" font-size="14.00" fill="#000000">HetznerAppModule</text>
</g>
<!-- HetznerAppModule&#45;&gt;AppModule -->
<g id="edge2" class="edge">
<title>HetznerAppModule&#45;&gt;AppModule</title>
<path fill="none" stroke="#000000" d="M1188,-122.1061C1188,-141.3391 1188,-169 1188,-169 1188,-169 790.8376,-169 790.8376,-169"/>
<polygon fill="#000000" stroke="#000000" points="790.8377,-165.5001 780.8376,-169 790.8376,-172.5001 790.8377,-165.5001"/>
</g>
<!-- HetznerCloudDataModule -->
<g id="node4" class="node">
<title>HetznerCloudDataModule</title>
<polygon fill="#8dd3c7" stroke="#000000" points="1106.0057,-122 1103.0057,-126 1082.0057,-126 1079.0057,-122 941.9943,-122 941.9943,-86 1106.0057,-86 1106.0057,-122"/>
<text text-anchor="middle" x="1024" y="-99.8" font-family="Times,serif" font-size="14.00" fill="#000000">HetznerCloudDataModule</text>
</g>
<!-- HetznerCloudDataModule&#45;&gt;AppModule -->
<g id="edge3" class="edge">
<title>HetznerCloudDataModule&#45;&gt;AppModule</title>
<path fill="none" stroke="#000000" d="M1024,-122.027C1024,-138.3976 1024,-160 1024,-160 1024,-160 790.7467,-160 790.7467,-160"/>
<polygon fill="#000000" stroke="#000000" points="790.7467,-156.5001 780.7467,-160 790.7466,-163.5001 790.7467,-156.5001"/>
</g>
<!-- HetznerRobotDataModule -->
<g id="node5" class="node">
<title>HetznerRobotDataModule</title>
<polygon fill="#8dd3c7" stroke="#000000" points="923.0057,-122 920.0057,-126 899.0057,-126 896.0057,-122 758.9943,-122 758.9943,-86 923.0057,-86 923.0057,-122"/>
<text text-anchor="middle" x="841" y="-99.8" font-family="Times,serif" font-size="14.00" fill="#000000">HetznerRobotDataModule</text>
</g>
<!-- HetznerRobotDataModule&#45;&gt;AppModule -->
<g id="edge4" class="edge">
<title>HetznerRobotDataModule&#45;&gt;AppModule</title>
<path fill="none" stroke="#000000" d="M769.7878,-122.1061C769.7878,-122.1061 769.7878,-140.991 769.7878,-140.991"/>
<polygon fill="#000000" stroke="#000000" points="766.2879,-140.9909 769.7878,-150.991 773.2879,-140.991 766.2879,-140.9909"/>
</g>
<!-- HetznerCloudApiProviderModule -->
<g id="node6" class="node">
<title>HetznerCloudApiProviderModule</title>
<polygon fill="#8dd3c7" stroke="#000000" points="740.785,-122 737.785,-126 716.785,-126 713.785,-122 533.215,-122 533.215,-86 740.785,-86 740.785,-122"/>
<text text-anchor="middle" x="637" y="-99.8" font-family="Times,serif" font-size="14.00" fill="#000000">HetznerCloudApiProviderModule</text>
</g>
<!-- HetznerCloudApiProviderModule&#45;&gt;AppModule -->
<g id="edge5" class="edge">
<title>HetznerCloudApiProviderModule&#45;&gt;AppModule</title>
<path fill="none" stroke="#000000" d="M718.9071,-122.1061C718.9071,-122.1061 718.9071,-140.991 718.9071,-140.991"/>
<polygon fill="#000000" stroke="#000000" points="715.4072,-140.9909 718.9071,-150.991 722.4072,-140.991 715.4072,-140.9909"/>
</g>
<!-- GlobalAppPagesModule -->
<g id="node7" class="node">
<title>GlobalAppPagesModule</title>
<polygon fill="#8dd3c7" stroke="#000000" points="515.4158,-122 512.4158,-126 491.4158,-126 488.4158,-122 360.5842,-122 360.5842,-86 515.4158,-86 515.4158,-122"/>
<text text-anchor="middle" x="438" y="-99.8" font-family="Times,serif" font-size="14.00" fill="#000000">GlobalAppPagesModule</text>
</g>
<!-- GlobalAppPagesModule&#45;&gt;AppModule -->
<g id="edge6" class="edge">
<title>GlobalAppPagesModule&#45;&gt;AppModule</title>
<path fill="none" stroke="#000000" d="M438,-122.027C438,-138.3976 438,-160 438,-160 438,-160 687.1472,-160 687.1472,-160"/>
<polygon fill="#000000" stroke="#000000" points="687.1473,-163.5001 697.1472,-160 687.1472,-156.5001 687.1473,-163.5001"/>
</g>
<!-- CloudAppPagesModule -->
<g id="node8" class="node">
<title>CloudAppPagesModule</title>
<polygon fill="#8dd3c7" stroke="#000000" points="343.0407,-122 340.0407,-126 319.0407,-126 316.0407,-122 192.9593,-122 192.9593,-86 343.0407,-86 343.0407,-122"/>
<text text-anchor="middle" x="268" y="-99.8" font-family="Times,serif" font-size="14.00" fill="#000000">CloudAppPagesModule</text>
</g>
<!-- CloudAppPagesModule&#45;&gt;AppModule -->
<g id="edge7" class="edge">
<title>CloudAppPagesModule&#45;&gt;AppModule</title>
<path fill="none" stroke="#000000" d="M268,-122.1061C268,-141.3391 268,-169 268,-169 268,-169 687.2019,-169 687.2019,-169"/>
<polygon fill="#000000" stroke="#000000" points="687.2019,-172.5001 697.2019,-169 687.2019,-165.5001 687.2019,-172.5001"/>
</g>
<!-- RobotAppPagesModule -->
<g id="node9" class="node">
<title>RobotAppPagesModule</title>
<polygon fill="#8dd3c7" stroke="#000000" points="174.0407,-122 171.0407,-126 150.0407,-126 147.0407,-122 23.9593,-122 23.9593,-86 174.0407,-86 174.0407,-122"/>
<text text-anchor="middle" x="99" y="-99.8" font-family="Times,serif" font-size="14.00" fill="#000000">RobotAppPagesModule</text>
</g>
<!-- RobotAppPagesModule&#45;&gt;AppModule -->
<g id="edge8" class="edge">
<title>RobotAppPagesModule&#45;&gt;AppModule</title>
<path fill="none" stroke="#000000" d="M99,-122.2921C99,-144.2057 99,-178 99,-178 99,-178 687.0078,-178 687.0078,-178"/>
<polygon fill="#000000" stroke="#000000" points="687.0078,-181.5001 697.0078,-178 687.0078,-174.5001 687.0078,-181.5001"/>
</g>
</g>
</svg>
