<?xml version="1.0" encoding="UTF-8" standalone="no"?>
<!DOCTYPE svg PUBLIC "-//W3C//DTD SVG 1.1//EN"
 "http://www.w3.org/Graphics/SVG/1.1/DTD/svg11.dtd">
<!-- Generated by graphviz version 2.40.1 (20161225.0304)
 -->
<!-- Title: dependencies Pages: 1 -->
<svg width="5161pt" height="284pt"
 viewBox="0.00 0.00 5161.00 284.00" xmlns="http://www.w3.org/2000/svg" xmlns:xlink="http://www.w3.org/1999/xlink">
<g id="graph0" class="graph" transform="scale(1 1) rotate(0) translate(4 280)">
<title>dependencies</title>
<polygon fill="#ffffff" stroke="transparent" points="-4,4 -4,-280 5157,-280 5157,4 -4,4"/>
<text text-anchor="start" x="2555.5091" y="-42.4" font-family="sans-serif" font-weight="bold" font-size="14.00" fill="#000000">Legend</text>
<polygon fill="#ffffb3" stroke="transparent" points="2342.5,-10 2342.5,-30 2362.5,-30 2362.5,-10 2342.5,-10"/>
<text text-anchor="start" x="2366.129" y="-15.4" font-family="sans-serif" font-size="14.00" fill="#000000"> &#160;Declarations</text>
<polygon fill="#8dd3c7" stroke="transparent" points="2455.5,-10 2455.5,-30 2475.5,-30 2475.5,-10 2455.5,-10"/>
<text text-anchor="start" x="2479.2251" y="-15.4" font-family="sans-serif" font-size="14.00" fill="#000000"> &#160;Module</text>
<polygon fill="#80b1d3" stroke="transparent" points="2541.5,-10 2541.5,-30 2561.5,-30 2561.5,-10 2541.5,-10"/>
<text text-anchor="start" x="2565.2812" y="-15.4" font-family="sans-serif" font-size="14.00" fill="#000000"> &#160;Bootstrap</text>
<polygon fill="#fdb462" stroke="transparent" points="2638.5,-10 2638.5,-30 2658.5,-30 2658.5,-10 2638.5,-10"/>
<text text-anchor="start" x="2662.1732" y="-15.4" font-family="sans-serif" font-size="14.00" fill="#000000"> &#160;Providers</text>
<polygon fill="#fb8072" stroke="transparent" points="2734.5,-10 2734.5,-30 2754.5,-30 2754.5,-10 2734.5,-10"/>
<text text-anchor="start" x="2758.2258" y="-15.4" font-family="sans-serif" font-size="14.00" fill="#000000"> &#160;Exports</text>
<g id="clust1" class="cluster">
<title>cluster_AppModule</title>
<polygon fill="none" stroke="#000000" stroke-dasharray="1,5" points="8,-70 8,-268 5145,-268 5145,-70 8,-70"/>
</g>
<g id="clust2" class="cluster">
<title>cluster_AppModule_declarations</title>
<polygon fill="none" stroke="#000000" points="695,-78 695,-130 5137,-130 5137,-78 695,-78"/>
</g>
<g id="clust36" class="cluster">
<title>cluster_AppModule_imports</title>
<polygon fill="none" stroke="#000000" points="16,-78 16,-130 687,-130 687,-78 16,-78"/>
</g>
<g id="clust38" class="cluster">
<title>cluster_AppModule_bootstrap</title>
<polygon fill="none" stroke="#000000" points="2548,-208 2548,-260 2636,-260 2636,-208 2548,-208"/>
</g>
<!-- HetznerCloudMobileApp -->
<g id="node1" class="node">
<title>HetznerCloudMobileApp</title>
<polygon fill="#ffffb3" stroke="#000000" points="5128.5758,-122 4969.4242,-122 4969.4242,-86 5128.5758,-86 5128.5758,-122"/>
<text text-anchor="middle" x="5049" y="-99.8" font-family="Times,serif" font-size="14.00" fill="#000000">HetznerCloudMobileApp</text>
</g>
<!-- AppModule -->
<g id="node34" class="node">
<title>AppModule</title>
<polygon fill="#8dd3c7" stroke="#000000" points="2633.6571,-187 2630.6571,-191 2609.6571,-191 2606.6571,-187 2550.3429,-187 2550.3429,-151 2633.6571,-151 2633.6571,-187"/>
<text text-anchor="middle" x="2592" y="-164.8" font-family="Times,serif" font-size="14.00" fill="#000000">AppModule</text>
</g>
<!-- HetznerCloudMobileApp&#45;&gt;AppModule -->
<g id="edge1" class="edge">
<title>HetznerCloudMobileApp&#45;&gt;AppModule</title>
<path fill="none" stroke="#000000" d="M5049,-122.1985C5049,-146.3563 5049,-186 5049,-186 5049,-186 2643.8715,-186 2643.8715,-186"/>
<polygon fill="#000000" stroke="#000000" points="2643.8716,-182.5001 2633.8715,-186 2643.8715,-189.5001 2643.8716,-182.5001"/>
</g>
<!-- AboutPage -->
<g id="node2" class="node">
<title>AboutPage</title>
<polygon fill="#ffffb3" stroke="#000000" points="4951.2093,-122 4872.7907,-122 4872.7907,-86 4951.2093,-86 4951.2093,-122"/>
<text text-anchor="middle" x="4912" y="-99.8" font-family="Times,serif" font-size="14.00" fill="#000000">AboutPage</text>
</g>
<!-- AboutPage&#45;&gt;AppModule -->
<g id="edge2" class="edge">
<title>AboutPage&#45;&gt;AppModule</title>
<path fill="none" stroke="#000000" d="M4912,-122.1532C4912,-145.7566 4912,-184 4912,-184 4912,-184 2643.7491,-184 2643.7491,-184"/>
<polygon fill="#000000" stroke="#000000" points="2643.7491,-180.5001 2633.7491,-184 2643.7491,-187.5001 2643.7491,-180.5001"/>
</g>
<!-- HomePage -->
<g id="node3" class="node">
<title>HomePage</title>
<polygon fill="#ffffb3" stroke="#000000" points="4854.9248,-122 4777.0752,-122 4777.0752,-86 4854.9248,-86 4854.9248,-122"/>
<text text-anchor="middle" x="4816" y="-99.8" font-family="Times,serif" font-size="14.00" fill="#000000">HomePage</text>
</g>
<!-- HomePage&#45;&gt;AppModule -->
<g id="edge3" class="edge">
<title>HomePage&#45;&gt;AppModule</title>
<path fill="none" stroke="#000000" d="M4816,-122.0908C4816,-145.1328 4816,-182 4816,-182 4816,-182 2643.9521,-182 2643.9521,-182"/>
<polygon fill="#000000" stroke="#000000" points="2643.9522,-178.5001 2633.9521,-182 2643.9521,-185.5001 2643.9522,-178.5001"/>
</g>
<!-- ProjectsPage -->
<g id="node4" class="node">
<title>ProjectsPage</title>
<polygon fill="#ffffb3" stroke="#000000" points="4759.3105,-122 4670.6895,-122 4670.6895,-86 4759.3105,-86 4759.3105,-122"/>
<text text-anchor="middle" x="4715" y="-99.8" font-family="Times,serif" font-size="14.00" fill="#000000">ProjectsPage</text>
</g>
<!-- ProjectsPage&#45;&gt;AppModule -->
<g id="edge4" class="edge">
<title>ProjectsPage&#45;&gt;AppModule</title>
<path fill="none" stroke="#000000" d="M4715,-122.0109C4715,-144.4852 4715,-180 4715,-180 4715,-180 2643.9305,-180 2643.9305,-180"/>
<polygon fill="#000000" stroke="#000000" points="2643.9305,-176.5001 2633.9305,-180 2643.9305,-183.5001 2643.9305,-176.5001"/>
</g>
<!-- addProjectModal -->
<g id="node5" class="node">
<title>addProjectModal</title>
<polygon fill="#ffffb3" stroke="#000000" points="4653.4188,-122 4540.5812,-122 4540.5812,-86 4653.4188,-86 4653.4188,-122"/>
<text text-anchor="middle" x="4597" y="-99.8" font-family="Times,serif" font-size="14.00" fill="#000000">addProjectModal</text>
</g>
<!-- addProjectModal&#45;&gt;AppModule -->
<g id="edge5" class="edge">
<title>addProjectModal&#45;&gt;AppModule</title>
<path fill="none" stroke="#000000" d="M4597,-122.2921C4597,-144.2057 4597,-178 4597,-178 4597,-178 2643.8773,-178 2643.8773,-178"/>
<polygon fill="#000000" stroke="#000000" points="2643.8773,-174.5001 2633.8773,-178 2643.8772,-181.5001 2643.8773,-174.5001"/>
</g>
<!-- shareProjectModal -->
<g id="node6" class="node">
<title>shareProjectModal</title>
<polygon fill="#ffffb3" stroke="#000000" points="4522.7381,-122 4401.2619,-122 4401.2619,-86 4522.7381,-86 4522.7381,-122"/>
<text text-anchor="middle" x="4462" y="-99.8" font-family="Times,serif" font-size="14.00" fill="#000000">shareProjectModal</text>
</g>
<!-- shareProjectModal&#45;&gt;AppModule -->
<g id="edge6" class="edge">
<title>shareProjectModal&#45;&gt;AppModule</title>
<path fill="none" stroke="#000000" d="M4462,-122.1686C4462,-143.498 4462,-176 4462,-176 4462,-176 2643.6795,-176 2643.6795,-176"/>
<polygon fill="#000000" stroke="#000000" points="2643.6795,-172.5001 2633.6795,-176 2643.6795,-179.5001 2643.6795,-172.5001"/>
</g>
<!-- editProjectModal -->
<g id="node7" class="node">
<title>editProjectModal</title>
<polygon fill="#ffffb3" stroke="#000000" points="4383.6994,-122 4270.3006,-122 4270.3006,-86 4383.6994,-86 4383.6994,-122"/>
<text text-anchor="middle" x="4327" y="-99.8" font-family="Times,serif" font-size="14.00" fill="#000000">editProjectModal</text>
</g>
<!-- editProjectModal&#45;&gt;AppModule -->
<g id="edge7" class="edge">
<title>editProjectModal&#45;&gt;AppModule</title>
<path fill="none" stroke="#000000" d="M4327,-122.0267C4327,-142.7672 4327,-174 4327,-174 4327,-174 2644.0282,-174 2644.0282,-174"/>
<polygon fill="#000000" stroke="#000000" points="2644.0282,-170.5001 2634.0282,-174 2644.0282,-177.5001 2644.0282,-170.5001"/>
</g>
<!-- ServersPage -->
<g id="node8" class="node">
<title>ServersPage</title>
<polygon fill="#ffffb3" stroke="#000000" points="4252.6896,-122 4167.3104,-122 4167.3104,-86 4252.6896,-86 4252.6896,-122"/>
<text text-anchor="middle" x="4210" y="-99.8" font-family="Times,serif" font-size="14.00" fill="#000000">ServersPage</text>
</g>
<!-- ServersPage&#45;&gt;AppModule -->
<g id="edge8" class="edge">
<title>ServersPage&#45;&gt;AppModule</title>
<path fill="none" stroke="#000000" d="M4210,-122.2228C4210,-142.3652 4210,-172 4210,-172 4210,-172 2644.0329,-172 2644.0329,-172"/>
<polygon fill="#000000" stroke="#000000" points="2644.0329,-168.5001 2634.0329,-172 2644.0328,-175.5001 2644.0329,-168.5001"/>
</g>
<!-- ServerPage -->
<g id="node9" class="node">
<title>ServerPage</title>
<polygon fill="#ffffb3" stroke="#000000" points="4149.7452,-122 4070.2548,-122 4070.2548,-86 4149.7452,-86 4149.7452,-122"/>
<text text-anchor="middle" x="4110" y="-99.8" font-family="Times,serif" font-size="14.00" fill="#000000">ServerPage</text>
</g>
<!-- ServerPage&#45;&gt;AppModule -->
<g id="edge9" class="edge">
<title>ServerPage&#45;&gt;AppModule</title>
<path fill="none" stroke="#000000" d="M4110,-122.0348C4110,-141.5762 4110,-170 4110,-170 4110,-170 2643.7864,-170 2643.7864,-170"/>
<polygon fill="#000000" stroke="#000000" points="2643.7864,-166.5001 2633.7864,-170 2643.7863,-173.5001 2643.7864,-166.5001"/>
</g>
<!-- addServerModal -->
<g id="node10" class="node">
<title>addServerModal</title>
<polygon fill="#ffffb3" stroke="#000000" points="4051.7978,-122 3942.2022,-122 3942.2022,-86 4051.7978,-86 4051.7978,-122"/>
<text text-anchor="middle" x="3997" y="-99.8" font-family="Times,serif" font-size="14.00" fill="#000000">addServerModal</text>
</g>
<!-- addServerModal&#45;&gt;AppModule -->
<g id="edge10" class="edge">
<title>addServerModal&#45;&gt;AppModule</title>
<path fill="none" stroke="#000000" d="M3997,-122.1061C3997,-141.3391 3997,-169 3997,-169 3997,-169 2643.6677,-169 2643.6677,-169"/>
<polygon fill="#000000" stroke="#000000" points="2643.6677,-165.5001 2633.6677,-169 2643.6676,-172.5001 2643.6677,-165.5001"/>
</g>
<!-- editServerModal -->
<g id="node11" class="node">
<title>editServerModal</title>
<polygon fill="#ffffb3" stroke="#000000" points="3924.0786,-122 3813.9214,-122 3813.9214,-86 3924.0786,-86 3924.0786,-122"/>
<text text-anchor="middle" x="3869" y="-99.8" font-family="Times,serif" font-size="14.00" fill="#000000">editServerModal</text>
</g>
<!-- editServerModal&#45;&gt;AppModule -->
<g id="edge11" class="edge">
<title>editServerModal&#45;&gt;AppModule</title>
<path fill="none" stroke="#000000" d="M3869,-122.2222C3869,-140.8285 3869,-167 3869,-167 3869,-167 2643.7621,-167 2643.7621,-167"/>
<polygon fill="#000000" stroke="#000000" points="2643.7621,-163.5001 2633.7621,-167 2643.762,-170.5001 2643.7621,-163.5001"/>
</g>
<!-- powerSettingsModal -->
<g id="node12" class="node">
<title>powerSettingsModal</title>
<polygon fill="#ffffb3" stroke="#000000" points="3796.1457,-122 3663.8543,-122 3663.8543,-86 3796.1457,-86 3796.1457,-122"/>
<text text-anchor="middle" x="3730" y="-99.8" font-family="Times,serif" font-size="14.00" fill="#000000">powerSettingsModal</text>
</g>
<!-- powerSettingsModal&#45;&gt;AppModule -->
<g id="edge12" class="edge">
<title>powerSettingsModal&#45;&gt;AppModule</title>
<path fill="none" stroke="#000000" d="M3730,-122.302C3730,-140.2699 3730,-165 3730,-165 3730,-165 2643.8517,-165 2643.8517,-165"/>
<polygon fill="#000000" stroke="#000000" points="2643.8517,-161.5001 2633.8517,-165 2643.8516,-168.5001 2643.8517,-161.5001"/>
</g>
<!-- rescueModeModal -->
<g id="node13" class="node">
<title>rescueModeModal</title>
<polygon fill="#ffffb3" stroke="#000000" points="3645.458,-122 3524.542,-122 3524.542,-86 3645.458,-86 3645.458,-122"/>
<text text-anchor="middle" x="3585" y="-99.8" font-family="Times,serif" font-size="14.00" fill="#000000">rescueModeModal</text>
</g>
<!-- rescueModeModal&#45;&gt;AppModule -->
<g id="edge13" class="edge">
<title>rescueModeModal&#45;&gt;AppModule</title>
<path fill="none" stroke="#000000" d="M3585,-122.0225C3585,-139.3734 3585,-163 3585,-163 3585,-163 2643.7182,-163 2643.7182,-163"/>
<polygon fill="#000000" stroke="#000000" points="2643.7182,-159.5001 2633.7182,-163 2643.7182,-166.5001 2643.7182,-159.5001"/>
</g>
<!-- resizeServerModal -->
<g id="node14" class="node">
<title>resizeServerModal</title>
<polygon fill="#ffffb3" stroke="#000000" points="3506.7227,-122 3385.2773,-122 3385.2773,-86 3506.7227,-86 3506.7227,-122"/>
<text text-anchor="middle" x="3446" y="-99.8" font-family="Times,serif" font-size="14.00" fill="#000000">resizeServerModal</text>
</g>
<!-- resizeServerModal&#45;&gt;AppModule -->
<g id="edge14" class="edge">
<title>resizeServerModal&#45;&gt;AppModule</title>
<path fill="none" stroke="#000000" d="M3446,-122.0352C3446,-138.7344 3446,-161 3446,-161 3446,-161 2643.7683,-161 2643.7683,-161"/>
<polygon fill="#000000" stroke="#000000" points="2643.7683,-157.5001 2633.7683,-161 2643.7683,-164.5001 2643.7683,-157.5001"/>
</g>
<!-- backupSettingsModal -->
<g id="node15" class="node">
<title>backupSettingsModal</title>
<polygon fill="#ffffb3" stroke="#000000" points="3367.0926,-122 3228.9074,-122 3228.9074,-86 3367.0926,-86 3367.0926,-122"/>
<text text-anchor="middle" x="3298" y="-99.8" font-family="Times,serif" font-size="14.00" fill="#000000">backupSettingsModal</text>
</g>
<!-- backupSettingsModal&#45;&gt;AppModule -->
<g id="edge15" class="edge">
<title>backupSettingsModal&#45;&gt;AppModule</title>
<path fill="none" stroke="#000000" d="M3298,-122.0091C3298,-138.0494 3298,-159 3298,-159 3298,-159 2643.7881,-159 2643.7881,-159"/>
<polygon fill="#000000" stroke="#000000" points="2643.7882,-155.5001 2633.7881,-159 2643.7881,-162.5001 2643.7882,-155.5001"/>
</g>
<!-- FloatingIPsPage -->
<g id="node16" class="node">
<title>FloatingIPsPage</title>
<polygon fill="#ffffb3" stroke="#000000" points="3210.7688,-122 3103.2312,-122 3103.2312,-86 3210.7688,-86 3210.7688,-122"/>
<text text-anchor="middle" x="3157" y="-99.8" font-family="Times,serif" font-size="14.00" fill="#000000">FloatingIPsPage</text>
</g>
<!-- FloatingIPsPage&#45;&gt;AppModule -->
<g id="edge16" class="edge">
<title>FloatingIPsPage&#45;&gt;AppModule</title>
<path fill="none" stroke="#000000" d="M3157,-122.2396C3157,-137.5706 3157,-157 3157,-157 3157,-157 2644.0052,-157 2644.0052,-157"/>
<polygon fill="#000000" stroke="#000000" points="2644.0053,-153.5001 2634.0052,-157 2644.0052,-160.5001 2644.0053,-153.5001"/>
</g>
<!-- addFloatingIPModal -->
<g id="node17" class="node">
<title>addFloatingIPModal</title>
<polygon fill="#ffffb3" stroke="#000000" points="3084.8767,-122 2953.1233,-122 2953.1233,-86 3084.8767,-86 3084.8767,-122"/>
<text text-anchor="middle" x="3019" y="-99.8" font-family="Times,serif" font-size="14.00" fill="#000000">addFloatingIPModal</text>
</g>
<!-- addFloatingIPModal&#45;&gt;AppModule -->
<g id="edge17" class="edge">
<title>addFloatingIPModal&#45;&gt;AppModule</title>
<path fill="none" stroke="#000000" d="M3019,-122.1243C3019,-136.7832 3019,-155 3019,-155 3019,-155 2643.72,-155 2643.72,-155"/>
<polygon fill="#000000" stroke="#000000" points="2643.7201,-151.5001 2633.72,-155 2643.72,-158.5001 2643.7201,-151.5001"/>
</g>
<!-- DeleteAllDataPage -->
<g id="node18" class="node">
<title>DeleteAllDataPage</title>
<polygon fill="#ffffb3" stroke="#000000" points="2935.0576,-122 2810.9424,-122 2810.9424,-86 2935.0576,-86 2935.0576,-122"/>
<text text-anchor="middle" x="2873" y="-99.8" font-family="Times,serif" font-size="14.00" fill="#000000">DeleteAllDataPage</text>
</g>
<!-- DeleteAllDataPage&#45;&gt;AppModule -->
<g id="edge18" class="edge">
<title>DeleteAllDataPage&#45;&gt;AppModule</title>
<path fill="none" stroke="#000000" d="M2873,-122.2458C2873,-136.1772 2873,-153 2873,-153 2873,-153 2643.7651,-153 2643.7651,-153"/>
<polygon fill="#000000" stroke="#000000" points="2643.7652,-149.5001 2633.7651,-153 2643.7651,-156.5001 2643.7652,-149.5001"/>
</g>
<!-- changeIPv4ReverseDNSModal -->
<g id="node19" class="node">
<title>changeIPv4ReverseDNSModal</title>
<polygon fill="#ffffb3" stroke="#000000" points="2792.7184,-122 2601.2816,-122 2601.2816,-86 2792.7184,-86 2792.7184,-122"/>
<text text-anchor="middle" x="2697" y="-99.8" font-family="Times,serif" font-size="14.00" fill="#000000">changeIPv4ReverseDNSModal</text>
</g>
<!-- changeIPv4ReverseDNSModal&#45;&gt;AppModule -->
<g id="edge19" class="edge">
<title>changeIPv4ReverseDNSModal&#45;&gt;AppModule</title>
<path fill="none" stroke="#000000" d="M2617.4846,-122.1061C2617.4846,-122.1061 2617.4846,-140.991 2617.4846,-140.991"/>
<polygon fill="#000000" stroke="#000000" points="2613.9846,-140.9909 2617.4846,-150.991 2620.9846,-140.991 2613.9846,-140.9909"/>
</g>
<!-- changeIPv6ReverseDNSModal -->
<g id="node20" class="node">
<title>changeIPv6ReverseDNSModal</title>
<polygon fill="#ffffb3" stroke="#000000" points="2582.7184,-122 2391.2816,-122 2391.2816,-86 2582.7184,-86 2582.7184,-122"/>
<text text-anchor="middle" x="2487" y="-99.8" font-family="Times,serif" font-size="14.00" fill="#000000">changeIPv6ReverseDNSModal</text>
</g>
<!-- changeIPv6ReverseDNSModal&#45;&gt;AppModule -->
<g id="edge20" class="edge">
<title>changeIPv6ReverseDNSModal&#45;&gt;AppModule</title>
<path fill="none" stroke="#000000" d="M2566.5155,-122.1061C2566.5155,-122.1061 2566.5155,-140.991 2566.5155,-140.991"/>
<polygon fill="#000000" stroke="#000000" points="2563.0155,-140.9909 2566.5155,-150.991 2570.0155,-140.991 2563.0155,-140.9909"/>
</g>
<!-- editFloatingIpModal -->
<g id="node21" class="node">
<title>editFloatingIpModal</title>
<polygon fill="#ffffb3" stroke="#000000" points="2372.8753,-122 2241.1247,-122 2241.1247,-86 2372.8753,-86 2372.8753,-122"/>
<text text-anchor="middle" x="2307" y="-99.8" font-family="Times,serif" font-size="14.00" fill="#000000">editFloatingIpModal</text>
</g>
<!-- editFloatingIpModal&#45;&gt;AppModule -->
<g id="edge21" class="edge">
<title>editFloatingIpModal&#45;&gt;AppModule</title>
<path fill="none" stroke="#000000" d="M2307,-122.2458C2307,-136.1772 2307,-153 2307,-153 2307,-153 2540.2533,-153 2540.2533,-153"/>
<polygon fill="#000000" stroke="#000000" points="2540.2534,-156.5001 2550.2533,-153 2540.2533,-149.5001 2540.2534,-156.5001"/>
</g>
<!-- FloatingIPPage -->
<g id="node22" class="node">
<title>FloatingIPPage</title>
<polygon fill="#ffffb3" stroke="#000000" points="2223.3245,-122 2120.6755,-122 2120.6755,-86 2223.3245,-86 2223.3245,-122"/>
<text text-anchor="middle" x="2172" y="-99.8" font-family="Times,serif" font-size="14.00" fill="#000000">FloatingIPPage</text>
</g>
<!-- FloatingIPPage&#45;&gt;AppModule -->
<g id="edge22" class="edge">
<title>FloatingIPPage&#45;&gt;AppModule</title>
<path fill="none" stroke="#000000" d="M2172,-122.1243C2172,-136.7832 2172,-155 2172,-155 2172,-155 2540.1933,-155 2540.1933,-155"/>
<polygon fill="#000000" stroke="#000000" points="2540.1933,-158.5001 2550.1933,-155 2540.1933,-151.5001 2540.1933,-158.5001"/>
</g>
<!-- ImagesPage -->
<g id="node23" class="node">
<title>ImagesPage</title>
<polygon fill="#ffffb3" stroke="#000000" points="2102.6376,-122 2019.3624,-122 2019.3624,-86 2102.6376,-86 2102.6376,-122"/>
<text text-anchor="middle" x="2061" y="-99.8" font-family="Times,serif" font-size="14.00" fill="#000000">ImagesPage</text>
</g>
<!-- ImagesPage&#45;&gt;AppModule -->
<g id="edge23" class="edge">
<title>ImagesPage&#45;&gt;AppModule</title>
<path fill="none" stroke="#000000" d="M2061,-122.2396C2061,-137.5706 2061,-157 2061,-157 2061,-157 2540.3333,-157 2540.3333,-157"/>
<polygon fill="#000000" stroke="#000000" points="2540.3334,-160.5001 2550.3333,-157 2540.3333,-153.5001 2540.3334,-160.5001"/>
</g>
<!-- editImageModal -->
<g id="node24" class="node">
<title>editImageModal</title>
<polygon fill="#ffffb3" stroke="#000000" points="2001.027,-122 1892.973,-122 1892.973,-86 2001.027,-86 2001.027,-122"/>
<text text-anchor="middle" x="1947" y="-99.8" font-family="Times,serif" font-size="14.00" fill="#000000">editImageModal</text>
</g>
<!-- editImageModal&#45;&gt;AppModule -->
<g id="edge24" class="edge">
<title>editImageModal&#45;&gt;AppModule</title>
<path fill="none" stroke="#000000" d="M1947,-122.0091C1947,-138.0494 1947,-159 1947,-159 1947,-159 2540.1767,-159 2540.1767,-159"/>
<polygon fill="#000000" stroke="#000000" points="2540.1768,-162.5001 2550.1767,-159 2540.1767,-155.5001 2540.1768,-162.5001"/>
</g>
<!-- assignToServerModal -->
<g id="node25" class="node">
<title>assignToServerModal</title>
<polygon fill="#ffffb3" stroke="#000000" points="1874.6303,-122 1735.3697,-122 1735.3697,-86 1874.6303,-86 1874.6303,-122"/>
<text text-anchor="middle" x="1805" y="-99.8" font-family="Times,serif" font-size="14.00" fill="#000000">assignToServerModal</text>
</g>
<!-- assignToServerModal&#45;&gt;AppModule -->
<g id="edge25" class="edge">
<title>assignToServerModal&#45;&gt;AppModule</title>
<path fill="none" stroke="#000000" d="M1805,-122.0352C1805,-138.7344 1805,-161 1805,-161 1805,-161 2540.2431,-161 2540.2431,-161"/>
<polygon fill="#000000" stroke="#000000" points="2540.2432,-164.5001 2550.2431,-161 2540.2431,-157.5001 2540.2432,-164.5001"/>
</g>
<!-- HetznerStatusSettingPage -->
<g id="node26" class="node">
<title>HetznerStatusSettingPage</title>
<polygon fill="#ffffb3" stroke="#000000" points="1716.9059,-122 1555.0941,-122 1555.0941,-86 1716.9059,-86 1716.9059,-122"/>
<text text-anchor="middle" x="1636" y="-99.8" font-family="Times,serif" font-size="14.00" fill="#000000">HetznerStatusSettingPage</text>
</g>
<!-- HetznerStatusSettingPage&#45;&gt;AppModule -->
<g id="edge26" class="edge">
<title>HetznerStatusSettingPage&#45;&gt;AppModule</title>
<path fill="none" stroke="#000000" d="M1636,-122.0225C1636,-139.3734 1636,-163 1636,-163 1636,-163 2540.3072,-163 2540.3072,-163"/>
<polygon fill="#000000" stroke="#000000" points="2540.3072,-166.5001 2550.3072,-163 2540.3071,-159.5001 2540.3072,-166.5001"/>
</g>
<!-- HetznerStatusPage -->
<g id="node27" class="node">
<title>HetznerStatusPage</title>
<polygon fill="#ffffb3" stroke="#000000" points="1536.7367,-122 1415.2633,-122 1415.2633,-86 1536.7367,-86 1536.7367,-122"/>
<text text-anchor="middle" x="1476" y="-99.8" font-family="Times,serif" font-size="14.00" fill="#000000">HetznerStatusPage</text>
</g>
<!-- HetznerStatusPage&#45;&gt;AppModule -->
<g id="edge27" class="edge">
<title>HetznerStatusPage&#45;&gt;AppModule</title>
<path fill="none" stroke="#000000" d="M1476,-122.302C1476,-140.2699 1476,-165 1476,-165 1476,-165 2540.2883,-165 2540.2883,-165"/>
<polygon fill="#000000" stroke="#000000" points="2540.2883,-168.5001 2550.2883,-165 2540.2882,-161.5001 2540.2883,-168.5001"/>
</g>
<!-- ServerMetricsPage -->
<g id="node28" class="node">
<title>ServerMetricsPage</title>
<polygon fill="#ffffb3" stroke="#000000" points="1397.006,-122 1274.994,-122 1274.994,-86 1397.006,-86 1397.006,-122"/>
<text text-anchor="middle" x="1336" y="-99.8" font-family="Times,serif" font-size="14.00" fill="#000000">ServerMetricsPage</text>
</g>
<!-- ServerMetricsPage&#45;&gt;AppModule -->
<g id="edge28" class="edge">
<title>ServerMetricsPage&#45;&gt;AppModule</title>
<path fill="none" stroke="#000000" d="M1336,-122.2222C1336,-140.8285 1336,-167 1336,-167 1336,-167 2540.2106,-167 2540.2106,-167"/>
<polygon fill="#000000" stroke="#000000" points="2540.2107,-170.5001 2550.2106,-167 2540.2106,-163.5001 2540.2107,-170.5001"/>
</g>
<!-- SettingsPage -->
<g id="node29" class="node">
<title>SettingsPage</title>
<polygon fill="#ffffb3" stroke="#000000" points="1257.326,-122 1168.674,-122 1168.674,-86 1257.326,-86 1257.326,-122"/>
<text text-anchor="middle" x="1213" y="-99.8" font-family="Times,serif" font-size="14.00" fill="#000000">SettingsPage</text>
</g>
<!-- SettingsPage&#45;&gt;AppModule -->
<g id="edge29" class="edge">
<title>SettingsPage&#45;&gt;AppModule</title>
<path fill="none" stroke="#000000" d="M1213,-122.1061C1213,-141.3391 1213,-169 1213,-169 1213,-169 2539.9763,-169 2539.9763,-169"/>
<polygon fill="#000000" stroke="#000000" points="2539.9763,-172.5001 2549.9763,-169 2539.9763,-165.5001 2539.9763,-172.5001"/>
</g>
<!-- ActionsPage -->
<g id="node30" class="node">
<title>ActionsPage</title>
<polygon fill="#ffffb3" stroke="#000000" points="1150.2591,-122 1063.7409,-122 1063.7409,-86 1150.2591,-86 1150.2591,-122"/>
<text text-anchor="middle" x="1107" y="-99.8" font-family="Times,serif" font-size="14.00" fill="#000000">ActionsPage</text>
</g>
<!-- ActionsPage&#45;&gt;AppModule -->
<g id="edge30" class="edge">
<title>ActionsPage&#45;&gt;AppModule</title>
<path fill="none" stroke="#000000" d="M1107,-122.0348C1107,-141.5762 1107,-170 1107,-170 1107,-170 2540.3417,-170 2540.3417,-170"/>
<polygon fill="#000000" stroke="#000000" points="2540.3417,-173.5001 2550.3417,-170 2540.3416,-166.5001 2540.3417,-173.5001"/>
</g>
<!-- consoleModal -->
<g id="node31" class="node">
<title>consoleModal</title>
<polygon fill="#ffffb3" stroke="#000000" points="1045.8147,-122 950.1853,-122 950.1853,-86 1045.8147,-86 1045.8147,-122"/>
<text text-anchor="middle" x="998" y="-99.8" font-family="Times,serif" font-size="14.00" fill="#000000">consoleModal</text>
</g>
<!-- consoleModal&#45;&gt;AppModule -->
<g id="edge31" class="edge">
<title>consoleModal&#45;&gt;AppModule</title>
<path fill="none" stroke="#000000" d="M998,-122.2228C998,-142.3652 998,-172 998,-172 998,-172 2540.1837,-172 2540.1837,-172"/>
<polygon fill="#000000" stroke="#000000" points="2540.1837,-175.5001 2550.1837,-172 2540.1837,-168.5001 2540.1837,-175.5001"/>
</g>
<!-- SshkeysPage -->
<g id="node32" class="node">
<title>SshkeysPage</title>
<polygon fill="#ffffb3" stroke="#000000" points="932.5983,-122 843.4017,-122 843.4017,-86 932.5983,-86 932.5983,-122"/>
<text text-anchor="middle" x="888" y="-99.8" font-family="Times,serif" font-size="14.00" fill="#000000">SshkeysPage</text>
</g>
<!-- SshkeysPage&#45;&gt;AppModule -->
<g id="edge32" class="edge">
<title>SshkeysPage&#45;&gt;AppModule</title>
<path fill="none" stroke="#000000" d="M888,-122.0267C888,-142.7672 888,-174 888,-174 888,-174 2540.3016,-174 2540.3016,-174"/>
<polygon fill="#000000" stroke="#000000" points="2540.3016,-177.5001 2550.3016,-174 2540.3015,-170.5001 2540.3016,-177.5001"/>
</g>
<!-- editSSHKeyModal -->
<g id="node33" class="node">
<title>editSSHKeyModal</title>
<polygon fill="#ffffb3" stroke="#000000" points="825.0395,-122 702.9605,-122 702.9605,-86 825.0395,-86 825.0395,-122"/>
<text text-anchor="middle" x="764" y="-99.8" font-family="Times,serif" font-size="14.00" fill="#000000">editSSHKeyModal</text>
</g>
<!-- editSSHKeyModal&#45;&gt;AppModule -->
<g id="edge33" class="edge">
<title>editSSHKeyModal&#45;&gt;AppModule</title>
<path fill="none" stroke="#000000" d="M764,-122.1686C764,-143.498 764,-176 764,-176 764,-176 2539.9461,-176 2539.9461,-176"/>
<polygon fill="#000000" stroke="#000000" points="2539.9461,-179.5001 2549.9461,-176 2539.946,-172.5001 2539.9461,-179.5001"/>
</g>
<!-- IonicApp  -->
<g id="node40" class="node">
<title>IonicApp </title>
<polygon fill="#80b1d3" stroke="#000000" points="2628.3734,-252 2555.6266,-252 2555.6266,-216 2628.3734,-216 2628.3734,-252"/>
<text text-anchor="middle" x="2592" y="-229.8" font-family="Times,serif" font-size="14.00" fill="#000000">IonicApp </text>
</g>
<!-- AppModule&#45;&gt;IonicApp  -->
<g id="edge39" class="edge">
<title>AppModule&#45;&gt;IonicApp </title>
<path fill="none" stroke="#000000" stroke-dasharray="1,5" d="M2592,-187.1061C2592,-187.1061 2592,-205.991 2592,-205.991"/>
<polygon fill="#000000" stroke="#000000" points="2588.5001,-205.9909 2592,-215.991 2595.5001,-205.991 2588.5001,-205.9909"/>
</g>
<!-- ProjectModule -->
<g id="node35" class="node">
<title>ProjectModule</title>
<polygon fill="#8dd3c7" stroke="#000000" points="678.7036,-122 675.7036,-126 654.7036,-126 651.7036,-122 579.2964,-122 579.2964,-86 678.7036,-86 678.7036,-122"/>
<text text-anchor="middle" x="629" y="-99.8" font-family="Times,serif" font-size="14.00" fill="#000000">ProjectModule</text>
</g>
<!-- ProjectModule&#45;&gt;AppModule -->
<g id="edge34" class="edge">
<title>ProjectModule&#45;&gt;AppModule</title>
<path fill="none" stroke="#000000" d="M629,-122.2921C629,-144.2057 629,-178 629,-178 629,-178 2540.0918,-178 2540.0918,-178"/>
<polygon fill="#000000" stroke="#000000" points="2540.0918,-181.5001 2550.0918,-178 2540.0918,-174.5001 2540.0918,-181.5001"/>
</g>
<!-- PricingModule -->
<g id="node36" class="node">
<title>PricingModule</title>
<polygon fill="#8dd3c7" stroke="#000000" points="560.9888,-122 557.9888,-126 536.9888,-126 533.9888,-122 461.0112,-122 461.0112,-86 560.9888,-86 560.9888,-122"/>
<text text-anchor="middle" x="511" y="-99.8" font-family="Times,serif" font-size="14.00" fill="#000000">PricingModule</text>
</g>
<!-- PricingModule&#45;&gt;AppModule -->
<g id="edge35" class="edge">
<title>PricingModule&#45;&gt;AppModule</title>
<path fill="none" stroke="#000000" d="M511,-122.0109C511,-144.4852 511,-180 511,-180 511,-180 2539.961,-180 2539.961,-180"/>
<polygon fill="#000000" stroke="#000000" points="2539.961,-183.5001 2549.961,-180 2539.9609,-176.5001 2539.961,-183.5001"/>
</g>
<!-- ServersModule -->
<g id="node37" class="node">
<title>ServersModule</title>
<polygon fill="#8dd3c7" stroke="#000000" points="442.5285,-122 439.5285,-126 418.5285,-126 415.5285,-122 341.4715,-122 341.4715,-86 442.5285,-86 442.5285,-122"/>
<text text-anchor="middle" x="392" y="-99.8" font-family="Times,serif" font-size="14.00" fill="#000000">ServersModule</text>
</g>
<!-- ServersModule&#45;&gt;AppModule -->
<g id="edge36" class="edge">
<title>ServersModule&#45;&gt;AppModule</title>
<path fill="none" stroke="#000000" d="M392,-122.0908C392,-145.1328 392,-182 392,-182 392,-182 2540.0166,-182 2540.0166,-182"/>
<polygon fill="#000000" stroke="#000000" points="2540.0166,-185.5001 2550.0166,-182 2540.0165,-178.5001 2540.0166,-185.5001"/>
</g>
<!-- HetznerApiProviderModule -->
<g id="node38" class="node">
<title>HetznerApiProviderModule</title>
<polygon fill="#8dd3c7" stroke="#000000" points="323.5576,-122 320.5576,-126 299.5576,-126 296.5576,-122 150.4424,-122 150.4424,-86 323.5576,-86 323.5576,-122"/>
<text text-anchor="middle" x="237" y="-99.8" font-family="Times,serif" font-size="14.00" fill="#000000">HetznerApiProviderModule</text>
</g>
<!-- HetznerApiProviderModule&#45;&gt;AppModule -->
<g id="edge37" class="edge">
<title>HetznerApiProviderModule&#45;&gt;AppModule</title>
<path fill="none" stroke="#000000" d="M237,-122.1532C237,-145.7566 237,-184 237,-184 237,-184 2540.1251,-184 2540.1251,-184"/>
<polygon fill="#000000" stroke="#000000" points="2540.1251,-187.5001 2550.1251,-184 2540.125,-180.5001 2540.1251,-187.5001"/>
</g>
<!-- NetworkModule -->
<g id="node39" class="node">
<title>NetworkModule</title>
<polygon fill="#8dd3c7" stroke="#000000" points="132.0298,-122 129.0298,-126 108.0298,-126 105.0298,-122 23.9702,-122 23.9702,-86 132.0298,-86 132.0298,-122"/>
<text text-anchor="middle" x="78" y="-99.8" font-family="Times,serif" font-size="14.00" fill="#000000">NetworkModule</text>
</g>
<!-- NetworkModule&#45;&gt;AppModule -->
<g id="edge38" class="edge">
<title>NetworkModule&#45;&gt;AppModule</title>
<path fill="none" stroke="#000000" d="M78,-122.1985C78,-146.3563 78,-186 78,-186 78,-186 2540.2028,-186 2540.2028,-186"/>
<polygon fill="#000000" stroke="#000000" points="2540.2028,-189.5001 2550.2028,-186 2540.2028,-182.5001 2540.2028,-189.5001"/>
</g>
</g>
</svg>
