<?xml version="1.0" encoding="UTF-8" standalone="no"?>
<!DOCTYPE svg PUBLIC "-//W3C//DTD SVG 1.1//EN"
 "http://www.w3.org/Graphics/SVG/1.1/DTD/svg11.dtd">
<!-- Generated by graphviz version 2.40.1 (20161225.0304)
 -->
<!-- Title: dependencies Pages: 1 -->
<svg width="5277pt" height="284pt"
 viewBox="0.00 0.00 5277.00 284.00" xmlns="http://www.w3.org/2000/svg" xmlns:xlink="http://www.w3.org/1999/xlink">
<g id="graph0" class="graph" transform="scale(1 1) rotate(0) translate(4 280)">
<title>dependencies</title>
<polygon fill="#ffffff" stroke="transparent" points="-4,4 -4,-280 5273,-280 5273,4 -4,4"/>
<text text-anchor="start" x="2613.5091" y="-42.4" font-family="sans-serif" font-weight="bold" font-size="14.00" fill="#000000">Legend</text>
<polygon fill="#ffffb3" stroke="transparent" points="2400.5,-10 2400.5,-30 2420.5,-30 2420.5,-10 2400.5,-10"/>
<text text-anchor="start" x="2424.129" y="-15.4" font-family="sans-serif" font-size="14.00" fill="#000000"> &#160;Declarations</text>
<polygon fill="#8dd3c7" stroke="transparent" points="2513.5,-10 2513.5,-30 2533.5,-30 2533.5,-10 2513.5,-10"/>
<text text-anchor="start" x="2537.2251" y="-15.4" font-family="sans-serif" font-size="14.00" fill="#000000"> &#160;Module</text>
<polygon fill="#80b1d3" stroke="transparent" points="2599.5,-10 2599.5,-30 2619.5,-30 2619.5,-10 2599.5,-10"/>
<text text-anchor="start" x="2623.2812" y="-15.4" font-family="sans-serif" font-size="14.00" fill="#000000"> &#160;Bootstrap</text>
<polygon fill="#fdb462" stroke="transparent" points="2696.5,-10 2696.5,-30 2716.5,-30 2716.5,-10 2696.5,-10"/>
<text text-anchor="start" x="2720.1732" y="-15.4" font-family="sans-serif" font-size="14.00" fill="#000000"> &#160;Providers</text>
<polygon fill="#fb8072" stroke="transparent" points="2792.5,-10 2792.5,-30 2812.5,-30 2812.5,-10 2792.5,-10"/>
<text text-anchor="start" x="2816.2258" y="-15.4" font-family="sans-serif" font-size="14.00" fill="#000000"> &#160;Exports</text>
<g id="clust1" class="cluster">
<title>cluster_AppModule</title>
<polygon fill="none" stroke="#000000" stroke-dasharray="1,5" points="8,-70 8,-268 5261,-268 5261,-70 8,-70"/>
</g>
<g id="clust2" class="cluster">
<title>cluster_AppModule_declarations</title>
<polygon fill="none" stroke="#000000" points="811,-78 811,-130 5253,-130 5253,-78 811,-78"/>
</g>
<g id="clust36" class="cluster">
<title>cluster_AppModule_imports</title>
<polygon fill="none" stroke="#000000" points="16,-78 16,-130 803,-130 803,-78 16,-78"/>
</g>
<g id="clust38" class="cluster">
<title>cluster_AppModule_bootstrap</title>
<polygon fill="none" stroke="#000000" points="2559,-208 2559,-260 2647,-260 2647,-208 2559,-208"/>
</g>
<!-- HetznerCloudMobileApp -->
<g id="node1" class="node">
<title>HetznerCloudMobileApp</title>
<polygon fill="#ffffb3" stroke="#000000" points="5244.5758,-122 5085.4242,-122 5085.4242,-86 5244.5758,-86 5244.5758,-122"/>
<text text-anchor="middle" x="5165" y="-99.8" font-family="Times,serif" font-size="14.00" fill="#000000">HetznerCloudMobileApp</text>
</g>
<!-- AppModule -->
<g id="node34" class="node">
<title>AppModule</title>
<polygon fill="#8dd3c7" stroke="#000000" points="2644.6571,-187 2641.6571,-191 2620.6571,-191 2617.6571,-187 2561.3429,-187 2561.3429,-151 2644.6571,-151 2644.6571,-187"/>
<text text-anchor="middle" x="2603" y="-164.8" font-family="Times,serif" font-size="14.00" fill="#000000">AppModule</text>
</g>
<!-- HetznerCloudMobileApp&#45;&gt;AppModule -->
<g id="edge1" class="edge">
<title>HetznerCloudMobileApp&#45;&gt;AppModule</title>
<path fill="none" stroke="#000000" d="M5165,-122.1985C5165,-146.3563 5165,-186 5165,-186 5165,-186 2654.8041,-186 2654.8041,-186"/>
<polygon fill="#000000" stroke="#000000" points="2654.8042,-182.5001 2644.8041,-186 2654.8041,-189.5001 2654.8042,-182.5001"/>
</g>
<!-- AboutPage -->
<g id="node2" class="node">
<title>AboutPage</title>
<polygon fill="#ffffb3" stroke="#000000" points="5067.2093,-122 4988.7907,-122 4988.7907,-86 5067.2093,-86 5067.2093,-122"/>
<text text-anchor="middle" x="5028" y="-99.8" font-family="Times,serif" font-size="14.00" fill="#000000">AboutPage</text>
</g>
<!-- AboutPage&#45;&gt;AppModule -->
<g id="edge2" class="edge">
<title>AboutPage&#45;&gt;AppModule</title>
<path fill="none" stroke="#000000" d="M5028,-122.1532C5028,-145.7566 5028,-184 5028,-184 5028,-184 2654.8349,-184 2654.8349,-184"/>
<polygon fill="#000000" stroke="#000000" points="2654.835,-180.5001 2644.8349,-184 2654.8349,-187.5001 2654.835,-180.5001"/>
</g>
<!-- HomePage -->
<g id="node3" class="node">
<title>HomePage</title>
<polygon fill="#ffffb3" stroke="#000000" points="4970.9248,-122 4893.0752,-122 4893.0752,-86 4970.9248,-86 4970.9248,-122"/>
<text text-anchor="middle" x="4932" y="-99.8" font-family="Times,serif" font-size="14.00" fill="#000000">HomePage</text>
</g>
<!-- HomePage&#45;&gt;AppModule -->
<g id="edge3" class="edge">
<title>HomePage&#45;&gt;AppModule</title>
<path fill="none" stroke="#000000" d="M4932,-122.0908C4932,-145.1328 4932,-182 4932,-182 4932,-182 2654.9111,-182 2654.9111,-182"/>
<polygon fill="#000000" stroke="#000000" points="2654.9111,-178.5001 2644.9111,-182 2654.911,-185.5001 2654.9111,-178.5001"/>
</g>
<!-- ProjectsPage -->
<g id="node4" class="node">
<title>ProjectsPage</title>
<polygon fill="#ffffb3" stroke="#000000" points="4875.3105,-122 4786.6895,-122 4786.6895,-86 4875.3105,-86 4875.3105,-122"/>
<text text-anchor="middle" x="4831" y="-99.8" font-family="Times,serif" font-size="14.00" fill="#000000">ProjectsPage</text>
</g>
<!-- ProjectsPage&#45;&gt;AppModule -->
<g id="edge4" class="edge">
<title>ProjectsPage&#45;&gt;AppModule</title>
<path fill="none" stroke="#000000" d="M4831,-122.0109C4831,-144.4852 4831,-180 4831,-180 4831,-180 2655.0276,-180 2655.0276,-180"/>
<polygon fill="#000000" stroke="#000000" points="2655.0276,-176.5001 2645.0276,-180 2655.0275,-183.5001 2655.0276,-176.5001"/>
</g>
<!-- addProjectModal -->
<g id="node5" class="node">
<title>addProjectModal</title>
<polygon fill="#ffffb3" stroke="#000000" points="4769.4188,-122 4656.5812,-122 4656.5812,-86 4769.4188,-86 4769.4188,-122"/>
<text text-anchor="middle" x="4713" y="-99.8" font-family="Times,serif" font-size="14.00" fill="#000000">addProjectModal</text>
</g>
<!-- addProjectModal&#45;&gt;AppModule -->
<g id="edge5" class="edge">
<title>addProjectModal&#45;&gt;AppModule</title>
<path fill="none" stroke="#000000" d="M4713,-122.2921C4713,-144.2057 4713,-178 4713,-178 4713,-178 2654.6737,-178 2654.6737,-178"/>
<polygon fill="#000000" stroke="#000000" points="2654.6738,-174.5001 2644.6737,-178 2654.6737,-181.5001 2654.6738,-174.5001"/>
</g>
<!-- shareProjectModal -->
<g id="node6" class="node">
<title>shareProjectModal</title>
<polygon fill="#ffffb3" stroke="#000000" points="4638.7381,-122 4517.2619,-122 4517.2619,-86 4638.7381,-86 4638.7381,-122"/>
<text text-anchor="middle" x="4578" y="-99.8" font-family="Times,serif" font-size="14.00" fill="#000000">shareProjectModal</text>
</g>
<!-- shareProjectModal&#45;&gt;AppModule -->
<g id="edge6" class="edge">
<title>shareProjectModal&#45;&gt;AppModule</title>
<path fill="none" stroke="#000000" d="M4578,-122.0449C4578,-143.6623 4578,-177 4578,-177 4578,-177 2654.7064,-177 2654.7064,-177"/>
<polygon fill="#000000" stroke="#000000" points="2654.7064,-173.5001 2644.7064,-177 2654.7063,-180.5001 2654.7064,-173.5001"/>
</g>
<!-- editProjectModal -->
<g id="node7" class="node">
<title>editProjectModal</title>
<polygon fill="#ffffb3" stroke="#000000" points="4499.6994,-122 4386.3006,-122 4386.3006,-86 4499.6994,-86 4499.6994,-122"/>
<text text-anchor="middle" x="4443" y="-99.8" font-family="Times,serif" font-size="14.00" fill="#000000">editProjectModal</text>
</g>
<!-- editProjectModal&#45;&gt;AppModule -->
<g id="edge7" class="edge">
<title>editProjectModal&#45;&gt;AppModule</title>
<path fill="none" stroke="#000000" d="M4443,-122.2843C4443,-143.3211 4443,-175 4443,-175 4443,-175 2654.8881,-175 2654.8881,-175"/>
<polygon fill="#000000" stroke="#000000" points="2654.8881,-171.5001 2644.8881,-175 2654.8881,-178.5001 2654.8881,-171.5001"/>
</g>
<!-- ServersPage -->
<g id="node8" class="node">
<title>ServersPage</title>
<polygon fill="#ffffb3" stroke="#000000" points="4368.6896,-122 4283.3104,-122 4283.3104,-86 4368.6896,-86 4368.6896,-122"/>
<text text-anchor="middle" x="4326" y="-99.8" font-family="Times,serif" font-size="14.00" fill="#000000">ServersPage</text>
</g>
<!-- ServersPage&#45;&gt;AppModule -->
<g id="edge8" class="edge">
<title>ServersPage&#45;&gt;AppModule</title>
<path fill="none" stroke="#000000" d="M4326,-122.1289C4326,-142.5724 4326,-173 4326,-173 4326,-173 2654.7375,-173 2654.7375,-173"/>
<polygon fill="#000000" stroke="#000000" points="2654.7376,-169.5001 2644.7375,-173 2654.7375,-176.5001 2654.7376,-169.5001"/>
</g>
<!-- ServerPage -->
<g id="node9" class="node">
<title>ServerPage</title>
<polygon fill="#ffffb3" stroke="#000000" points="4265.7452,-122 4186.2548,-122 4186.2548,-86 4265.7452,-86 4265.7452,-122"/>
<text text-anchor="middle" x="4226" y="-99.8" font-family="Times,serif" font-size="14.00" fill="#000000">ServerPage</text>
</g>
<!-- ServerPage&#45;&gt;AppModule -->
<g id="edge9" class="edge">
<title>ServerPage&#45;&gt;AppModule</title>
<path fill="none" stroke="#000000" d="M4226,-122.308C4226,-142.1455 4226,-171 4226,-171 4226,-171 2654.7503,-171 2654.7503,-171"/>
<polygon fill="#000000" stroke="#000000" points="2654.7503,-167.5001 2644.7503,-171 2654.7503,-174.5001 2654.7503,-167.5001"/>
</g>
<!-- addServerModal -->
<g id="node10" class="node">
<title>addServerModal</title>
<polygon fill="#ffffb3" stroke="#000000" points="4167.7978,-122 4058.2022,-122 4058.2022,-86 4167.7978,-86 4167.7978,-122"/>
<text text-anchor="middle" x="4113" y="-99.8" font-family="Times,serif" font-size="14.00" fill="#000000">addServerModal</text>
</g>
<!-- addServerModal&#45;&gt;AppModule -->
<g id="edge10" class="edge">
<title>addServerModal&#45;&gt;AppModule</title>
<path fill="none" stroke="#000000" d="M4113,-122.1061C4113,-141.3391 4113,-169 4113,-169 4113,-169 2654.962,-169 2654.962,-169"/>
<polygon fill="#000000" stroke="#000000" points="2654.9621,-165.5001 2644.962,-169 2654.962,-172.5001 2654.9621,-165.5001"/>
</g>
<!-- editServerModal -->
<g id="node11" class="node">
<title>editServerModal</title>
<polygon fill="#ffffb3" stroke="#000000" points="4040.0786,-122 3929.9214,-122 3929.9214,-86 4040.0786,-86 4040.0786,-122"/>
<text text-anchor="middle" x="3985" y="-99.8" font-family="Times,serif" font-size="14.00" fill="#000000">editServerModal</text>
</g>
<!-- editServerModal&#45;&gt;AppModule -->
<g id="edge11" class="edge">
<title>editServerModal&#45;&gt;AppModule</title>
<path fill="none" stroke="#000000" d="M3985,-122.1686C3985,-141.0898 3985,-168 3985,-168 3985,-168 2654.737,-168 2654.737,-168"/>
<polygon fill="#000000" stroke="#000000" points="2654.7371,-164.5001 2644.737,-168 2654.737,-171.5001 2654.7371,-164.5001"/>
</g>
<!-- powerSettingsModal -->
<g id="node12" class="node">
<title>powerSettingsModal</title>
<polygon fill="#ffffb3" stroke="#000000" points="3912.1457,-122 3779.8543,-122 3779.8543,-86 3912.1457,-86 3912.1457,-122"/>
<text text-anchor="middle" x="3846" y="-99.8" font-family="Times,serif" font-size="14.00" fill="#000000">powerSettingsModal</text>
</g>
<!-- powerSettingsModal&#45;&gt;AppModule -->
<g id="edge12" class="edge">
<title>powerSettingsModal&#45;&gt;AppModule</title>
<path fill="none" stroke="#000000" d="M3846,-122.2667C3846,-140.5552 3846,-166 3846,-166 3846,-166 2654.7123,-166 2654.7123,-166"/>
<polygon fill="#000000" stroke="#000000" points="2654.7123,-162.5001 2644.7123,-166 2654.7122,-169.5001 2654.7123,-162.5001"/>
</g>
<!-- rescueModeModal -->
<g id="node13" class="node">
<title>rescueModeModal</title>
<polygon fill="#ffffb3" stroke="#000000" points="3761.458,-122 3640.542,-122 3640.542,-86 3761.458,-86 3761.458,-122"/>
<text text-anchor="middle" x="3701" y="-99.8" font-family="Times,serif" font-size="14.00" fill="#000000">rescueModeModal</text>
</g>
<!-- rescueModeModal&#45;&gt;AppModule -->
<g id="edge13" class="edge">
<title>rescueModeModal&#45;&gt;AppModule</title>
<path fill="none" stroke="#000000" d="M3701,-122.002C3701,-139.6754 3701,-164 3701,-164 3701,-164 2654.7021,-164 2654.7021,-164"/>
<polygon fill="#000000" stroke="#000000" points="2654.7022,-160.5001 2644.7021,-164 2654.7021,-167.5001 2654.7022,-160.5001"/>
</g>
<!-- resizeServerModal -->
<g id="node14" class="node">
<title>resizeServerModal</title>
<polygon fill="#ffffb3" stroke="#000000" points="3622.7227,-122 3501.2773,-122 3501.2773,-86 3622.7227,-86 3622.7227,-122"/>
<text text-anchor="middle" x="3562" y="-99.8" font-family="Times,serif" font-size="14.00" fill="#000000">resizeServerModal</text>
</g>
<!-- resizeServerModal&#45;&gt;AppModule -->
<g id="edge14" class="edge">
<title>resizeServerModal&#45;&gt;AppModule</title>
<path fill="none" stroke="#000000" d="M3562,-122.0336C3562,-139.0597 3562,-162 3562,-162 3562,-162 2654.8237,-162 2654.8237,-162"/>
<polygon fill="#000000" stroke="#000000" points="2654.8237,-158.5001 2644.8237,-162 2654.8236,-165.5001 2654.8237,-158.5001"/>
</g>
<!-- backupSettingsModal -->
<g id="node15" class="node">
<title>backupSettingsModal</title>
<polygon fill="#ffffb3" stroke="#000000" points="3483.0926,-122 3344.9074,-122 3344.9074,-86 3483.0926,-86 3483.0926,-122"/>
<text text-anchor="middle" x="3414" y="-99.8" font-family="Times,serif" font-size="14.00" fill="#000000">backupSettingsModal</text>
</g>
<!-- backupSettingsModal&#45;&gt;AppModule -->
<g id="edge15" class="edge">
<title>backupSettingsModal&#45;&gt;AppModule</title>
<path fill="none" stroke="#000000" d="M3414,-122.027C3414,-138.3976 3414,-160 3414,-160 3414,-160 2654.8951,-160 2654.8951,-160"/>
<polygon fill="#000000" stroke="#000000" points="2654.8952,-156.5001 2644.8951,-160 2654.8951,-163.5001 2654.8952,-156.5001"/>
</g>
<!-- FloatingIPsPage -->
<g id="node16" class="node">
<title>FloatingIPsPage</title>
<polygon fill="#ffffb3" stroke="#000000" points="3326.7688,-122 3219.2312,-122 3219.2312,-86 3326.7688,-86 3326.7688,-122"/>
<text text-anchor="middle" x="3273" y="-99.8" font-family="Times,serif" font-size="14.00" fill="#000000">FloatingIPsPage</text>
</g>
<!-- FloatingIPsPage&#45;&gt;AppModule -->
<g id="edge16" class="edge">
<title>FloatingIPsPage&#45;&gt;AppModule</title>
<path fill="none" stroke="#000000" d="M3273,-122.0091C3273,-138.0494 3273,-159 3273,-159 3273,-159 2654.6584,-159 2654.6584,-159"/>
<polygon fill="#000000" stroke="#000000" points="2654.6584,-155.5001 2644.6584,-159 2654.6583,-162.5001 2654.6584,-155.5001"/>
</g>
<!-- addFloatingIPModal -->
<g id="node17" class="node">
<title>addFloatingIPModal</title>
<polygon fill="#ffffb3" stroke="#000000" points="3200.8767,-122 3069.1233,-122 3069.1233,-86 3200.8767,-86 3200.8767,-122"/>
<text text-anchor="middle" x="3135" y="-99.8" font-family="Times,serif" font-size="14.00" fill="#000000">addFloatingIPModal</text>
</g>
<!-- addFloatingIPModal&#45;&gt;AppModule -->
<g id="edge17" class="edge">
<title>addFloatingIPModal&#45;&gt;AppModule</title>
<path fill="none" stroke="#000000" d="M3135,-122.2396C3135,-137.5706 3135,-157 3135,-157 3135,-157 2654.7451,-157 2654.7451,-157"/>
<polygon fill="#000000" stroke="#000000" points="2654.7452,-153.5001 2644.7451,-157 2654.7451,-160.5001 2654.7452,-153.5001"/>
</g>
<!-- DeleteAllDataPage -->
<g id="node18" class="node">
<title>DeleteAllDataPage</title>
<polygon fill="#ffffb3" stroke="#000000" points="3051.0576,-122 2926.9424,-122 2926.9424,-86 3051.0576,-86 3051.0576,-122"/>
<text text-anchor="middle" x="2989" y="-99.8" font-family="Times,serif" font-size="14.00" fill="#000000">DeleteAllDataPage</text>
</g>
<!-- DeleteAllDataPage&#45;&gt;AppModule -->
<g id="edge18" class="edge">
<title>DeleteAllDataPage&#45;&gt;AppModule</title>
<path fill="none" stroke="#000000" d="M2989,-122.1243C2989,-136.7832 2989,-155 2989,-155 2989,-155 2654.6755,-155 2654.6755,-155"/>
<polygon fill="#000000" stroke="#000000" points="2654.6755,-151.5001 2644.6755,-155 2654.6755,-158.5001 2654.6755,-151.5001"/>
</g>
<!-- changeIPv4ReverseDNSModal -->
<g id="node19" class="node">
<title>changeIPv4ReverseDNSModal</title>
<polygon fill="#ffffb3" stroke="#000000" points="2908.7184,-122 2717.2816,-122 2717.2816,-86 2908.7184,-86 2908.7184,-122"/>
<text text-anchor="middle" x="2813" y="-99.8" font-family="Times,serif" font-size="14.00" fill="#000000">changeIPv4ReverseDNSModal</text>
</g>
<!-- changeIPv4ReverseDNSModal&#45;&gt;AppModule -->
<g id="edge19" class="edge">
<title>changeIPv4ReverseDNSModal&#45;&gt;AppModule</title>
<path fill="none" stroke="#000000" d="M2813,-122.2458C2813,-136.1772 2813,-153 2813,-153 2813,-153 2654.7403,-153 2654.7403,-153"/>
<polygon fill="#000000" stroke="#000000" points="2654.7404,-149.5001 2644.7403,-153 2654.7403,-156.5001 2654.7404,-149.5001"/>
</g>
<!-- changeIPv6ReverseDNSModal -->
<g id="node20" class="node">
<title>changeIPv6ReverseDNSModal</title>
<polygon fill="#ffffb3" stroke="#000000" points="2698.7184,-122 2507.2816,-122 2507.2816,-86 2698.7184,-86 2698.7184,-122"/>
<text text-anchor="middle" x="2603" y="-99.8" font-family="Times,serif" font-size="14.00" fill="#000000">changeIPv6ReverseDNSModal</text>
</g>
<!-- changeIPv6ReverseDNSModal&#45;&gt;AppModule -->
<g id="edge20" class="edge">
<title>changeIPv6ReverseDNSModal&#45;&gt;AppModule</title>
<path fill="none" stroke="#000000" d="M2603,-122.1061C2603,-122.1061 2603,-140.991 2603,-140.991"/>
<polygon fill="#000000" stroke="#000000" points="2599.5001,-140.9909 2603,-150.991 2606.5001,-140.991 2599.5001,-140.9909"/>
</g>
<!-- editFloatingIpModal -->
<g id="node21" class="node">
<title>editFloatingIpModal</title>
<polygon fill="#ffffb3" stroke="#000000" points="2488.8753,-122 2357.1247,-122 2357.1247,-86 2488.8753,-86 2488.8753,-122"/>
<text text-anchor="middle" x="2423" y="-99.8" font-family="Times,serif" font-size="14.00" fill="#000000">editFloatingIpModal</text>
</g>
<!-- editFloatingIpModal&#45;&gt;AppModule -->
<g id="edge21" class="edge">
<title>editFloatingIpModal&#45;&gt;AppModule</title>
<path fill="none" stroke="#000000" d="M2423,-122.2458C2423,-136.1772 2423,-153 2423,-153 2423,-153 2551.252,-153 2551.252,-153"/>
<polygon fill="#000000" stroke="#000000" points="2551.252,-156.5001 2561.252,-153 2551.2519,-149.5001 2551.252,-156.5001"/>
</g>
<!-- FloatingIPPage -->
<g id="node22" class="node">
<title>FloatingIPPage</title>
<polygon fill="#ffffb3" stroke="#000000" points="2339.3245,-122 2236.6755,-122 2236.6755,-86 2339.3245,-86 2339.3245,-122"/>
<text text-anchor="middle" x="2288" y="-99.8" font-family="Times,serif" font-size="14.00" fill="#000000">FloatingIPPage</text>
</g>
<!-- FloatingIPPage&#45;&gt;AppModule -->
<g id="edge22" class="edge">
<title>FloatingIPPage&#45;&gt;AppModule</title>
<path fill="none" stroke="#000000" d="M2288,-122.1243C2288,-136.7832 2288,-155 2288,-155 2288,-155 2551.1704,-155 2551.1704,-155"/>
<polygon fill="#000000" stroke="#000000" points="2551.1705,-158.5001 2561.1704,-155 2551.1704,-151.5001 2551.1705,-158.5001"/>
</g>
<!-- ImagesPage -->
<g id="node23" class="node">
<title>ImagesPage</title>
<polygon fill="#ffffb3" stroke="#000000" points="2218.6376,-122 2135.3624,-122 2135.3624,-86 2218.6376,-86 2218.6376,-122"/>
<text text-anchor="middle" x="2177" y="-99.8" font-family="Times,serif" font-size="14.00" fill="#000000">ImagesPage</text>
</g>
<!-- ImagesPage&#45;&gt;AppModule -->
<g id="edge23" class="edge">
<title>ImagesPage&#45;&gt;AppModule</title>
<path fill="none" stroke="#000000" d="M2177,-122.2396C2177,-137.5706 2177,-157 2177,-157 2177,-157 2550.9876,-157 2550.9876,-157"/>
<polygon fill="#000000" stroke="#000000" points="2550.9877,-160.5001 2560.9876,-157 2550.9876,-153.5001 2550.9877,-160.5001"/>
</g>
<!-- editImageModal -->
<g id="node24" class="node">
<title>editImageModal</title>
<polygon fill="#ffffb3" stroke="#000000" points="2117.027,-122 2008.973,-122 2008.973,-86 2117.027,-86 2117.027,-122"/>
<text text-anchor="middle" x="2063" y="-99.8" font-family="Times,serif" font-size="14.00" fill="#000000">editImageModal</text>
</g>
<!-- editImageModal&#45;&gt;AppModule -->
<g id="edge24" class="edge">
<title>editImageModal&#45;&gt;AppModule</title>
<path fill="none" stroke="#000000" d="M2063,-122.0091C2063,-138.0494 2063,-159 2063,-159 2063,-159 2551.0764,-159 2551.0764,-159"/>
<polygon fill="#000000" stroke="#000000" points="2551.0765,-162.5001 2561.0764,-159 2551.0764,-155.5001 2551.0765,-162.5001"/>
</g>
<!-- assignToServerModal -->
<g id="node25" class="node">
<title>assignToServerModal</title>
<polygon fill="#ffffb3" stroke="#000000" points="1990.6303,-122 1851.3697,-122 1851.3697,-86 1990.6303,-86 1990.6303,-122"/>
<text text-anchor="middle" x="1921" y="-99.8" font-family="Times,serif" font-size="14.00" fill="#000000">assignToServerModal</text>
</g>
<!-- assignToServerModal&#45;&gt;AppModule -->
<g id="edge25" class="edge">
<title>assignToServerModal&#45;&gt;AppModule</title>
<path fill="none" stroke="#000000" d="M1921,-122.027C1921,-138.3976 1921,-160 1921,-160 1921,-160 2551.1088,-160 2551.1088,-160"/>
<polygon fill="#000000" stroke="#000000" points="2551.1089,-163.5001 2561.1088,-160 2551.1088,-156.5001 2551.1089,-163.5001"/>
</g>
<!-- HetznerStatusSettingPage -->
<g id="node26" class="node">
<title>HetznerStatusSettingPage</title>
<polygon fill="#ffffb3" stroke="#000000" points="1832.9059,-122 1671.0941,-122 1671.0941,-86 1832.9059,-86 1832.9059,-122"/>
<text text-anchor="middle" x="1752" y="-99.8" font-family="Times,serif" font-size="14.00" fill="#000000">HetznerStatusSettingPage</text>
</g>
<!-- HetznerStatusSettingPage&#45;&gt;AppModule -->
<g id="edge26" class="edge">
<title>HetznerStatusSettingPage&#45;&gt;AppModule</title>
<path fill="none" stroke="#000000" d="M1752,-122.0336C1752,-139.0597 1752,-162 1752,-162 1752,-162 2551.089,-162 2551.089,-162"/>
<polygon fill="#000000" stroke="#000000" points="2551.0891,-165.5001 2561.089,-162 2551.089,-158.5001 2551.0891,-165.5001"/>
</g>
<!-- HetznerStatusPage -->
<g id="node27" class="node">
<title>HetznerStatusPage</title>
<polygon fill="#ffffb3" stroke="#000000" points="1652.7367,-122 1531.2633,-122 1531.2633,-86 1652.7367,-86 1652.7367,-122"/>
<text text-anchor="middle" x="1592" y="-99.8" font-family="Times,serif" font-size="14.00" fill="#000000">HetznerStatusPage</text>
</g>
<!-- HetznerStatusPage&#45;&gt;AppModule -->
<g id="edge27" class="edge">
<title>HetznerStatusPage&#45;&gt;AppModule</title>
<path fill="none" stroke="#000000" d="M1592,-122.002C1592,-139.6754 1592,-164 1592,-164 1592,-164 2551.1648,-164 2551.1648,-164"/>
<polygon fill="#000000" stroke="#000000" points="2551.1648,-167.5001 2561.1648,-164 2551.1648,-160.5001 2551.1648,-167.5001"/>
</g>
<!-- ServerMetricsPage -->
<g id="node28" class="node">
<title>ServerMetricsPage</title>
<polygon fill="#ffffb3" stroke="#000000" points="1513.006,-122 1390.994,-122 1390.994,-86 1513.006,-86 1513.006,-122"/>
<text text-anchor="middle" x="1452" y="-99.8" font-family="Times,serif" font-size="14.00" fill="#000000">ServerMetricsPage</text>
</g>
<!-- ServerMetricsPage&#45;&gt;AppModule -->
<g id="edge28" class="edge">
<title>ServerMetricsPage&#45;&gt;AppModule</title>
<path fill="none" stroke="#000000" d="M1452,-122.2667C1452,-140.5552 1452,-166 1452,-166 1452,-166 2551.0134,-166 2551.0134,-166"/>
<polygon fill="#000000" stroke="#000000" points="2551.0135,-169.5001 2561.0134,-166 2551.0134,-162.5001 2551.0135,-169.5001"/>
</g>
<!-- SettingsPage -->
<g id="node29" class="node">
<title>SettingsPage</title>
<polygon fill="#ffffb3" stroke="#000000" points="1373.326,-122 1284.674,-122 1284.674,-86 1373.326,-86 1373.326,-122"/>
<text text-anchor="middle" x="1329" y="-99.8" font-family="Times,serif" font-size="14.00" fill="#000000">SettingsPage</text>
</g>
<!-- SettingsPage&#45;&gt;AppModule -->
<g id="edge29" class="edge">
<title>SettingsPage&#45;&gt;AppModule</title>
<path fill="none" stroke="#000000" d="M1329,-122.1686C1329,-141.0898 1329,-168 1329,-168 1329,-168 2551.3361,-168 2551.3361,-168"/>
<polygon fill="#000000" stroke="#000000" points="2551.3361,-171.5001 2561.3361,-168 2551.336,-164.5001 2551.3361,-171.5001"/>
</g>
<!-- ActionsPage -->
<g id="node30" class="node">
<title>ActionsPage</title>
<polygon fill="#ffffb3" stroke="#000000" points="1266.2591,-122 1179.7409,-122 1179.7409,-86 1266.2591,-86 1266.2591,-122"/>
<text text-anchor="middle" x="1223" y="-99.8" font-family="Times,serif" font-size="14.00" fill="#000000">ActionsPage</text>
</g>
<!-- ActionsPage&#45;&gt;AppModule -->
<g id="edge30" class="edge">
<title>ActionsPage&#45;&gt;AppModule</title>
<path fill="none" stroke="#000000" d="M1223,-122.1061C1223,-141.3391 1223,-169 1223,-169 1223,-169 2551.3234,-169 2551.3234,-169"/>
<polygon fill="#000000" stroke="#000000" points="2551.3234,-172.5001 2561.3234,-169 2551.3233,-165.5001 2551.3234,-172.5001"/>
</g>
<!-- consoleModal -->
<g id="node31" class="node">
<title>consoleModal</title>
<polygon fill="#ffffb3" stroke="#000000" points="1161.8147,-122 1066.1853,-122 1066.1853,-86 1161.8147,-86 1161.8147,-122"/>
<text text-anchor="middle" x="1114" y="-99.8" font-family="Times,serif" font-size="14.00" fill="#000000">consoleModal</text>
</g>
<!-- consoleModal&#45;&gt;AppModule -->
<g id="edge31" class="edge">
<title>consoleModal&#45;&gt;AppModule</title>
<path fill="none" stroke="#000000" d="M1114,-122.308C1114,-142.1455 1114,-171 1114,-171 1114,-171 2551.2294,-171 2551.2294,-171"/>
<polygon fill="#000000" stroke="#000000" points="2551.2295,-174.5001 2561.2294,-171 2551.2294,-167.5001 2551.2295,-174.5001"/>
</g>
<!-- SshkeysPage -->
<g id="node32" class="node">
<title>SshkeysPage</title>
<polygon fill="#ffffb3" stroke="#000000" points="1048.5983,-122 959.4017,-122 959.4017,-86 1048.5983,-86 1048.5983,-122"/>
<text text-anchor="middle" x="1004" y="-99.8" font-family="Times,serif" font-size="14.00" fill="#000000">SshkeysPage</text>
</g>
<!-- SshkeysPage&#45;&gt;AppModule -->
<g id="edge32" class="edge">
<title>SshkeysPage&#45;&gt;AppModule</title>
<path fill="none" stroke="#000000" d="M1004,-122.1289C1004,-142.5724 1004,-173 1004,-173 1004,-173 2551.0525,-173 2551.0525,-173"/>
<polygon fill="#000000" stroke="#000000" points="2551.0526,-176.5001 2561.0525,-173 2551.0525,-169.5001 2551.0526,-176.5001"/>
</g>
<!-- editSSHKeyModal -->
<g id="node33" class="node">
<title>editSSHKeyModal</title>
<polygon fill="#ffffb3" stroke="#000000" points="941.0395,-122 818.9605,-122 818.9605,-86 941.0395,-86 941.0395,-122"/>
<text text-anchor="middle" x="880" y="-99.8" font-family="Times,serif" font-size="14.00" fill="#000000">editSSHKeyModal</text>
</g>
<!-- editSSHKeyModal&#45;&gt;AppModule -->
<g id="edge33" class="edge">
<title>editSSHKeyModal&#45;&gt;AppModule</title>
<path fill="none" stroke="#000000" d="M880,-122.2843C880,-143.3211 880,-175 880,-175 880,-175 2551.2625,-175 2551.2625,-175"/>
<polygon fill="#000000" stroke="#000000" points="2551.2625,-178.5001 2561.2625,-175 2551.2624,-171.5001 2551.2625,-178.5001"/>
</g>
<!-- IonicApp  -->
<g id="node41" class="node">
<title>IonicApp </title>
<polygon fill="#80b1d3" stroke="#000000" points="2639.3734,-252 2566.6266,-252 2566.6266,-216 2639.3734,-216 2639.3734,-252"/>
<text text-anchor="middle" x="2603" y="-229.8" font-family="Times,serif" font-size="14.00" fill="#000000">IonicApp </text>
</g>
<!-- AppModule&#45;&gt;IonicApp  -->
<g id="edge40" class="edge">
<title>AppModule&#45;&gt;IonicApp </title>
<path fill="none" stroke="#000000" stroke-dasharray="1,5" d="M2603,-187.1061C2603,-187.1061 2603,-205.991 2603,-205.991"/>
<polygon fill="#000000" stroke="#000000" points="2599.5001,-205.9909 2603,-215.991 2606.5001,-205.991 2599.5001,-205.9909"/>
</g>
<!-- ConfigModule -->
<g id="node35" class="node">
<title>ConfigModule</title>
<polygon fill="#8dd3c7" stroke="#000000" points="795.4386,-122 792.4386,-126 771.4386,-126 768.4386,-122 696.5614,-122 696.5614,-86 795.4386,-86 795.4386,-122"/>
<text text-anchor="middle" x="746" y="-99.8" font-family="Times,serif" font-size="14.00" fill="#000000">ConfigModule</text>
</g>
<!-- ConfigModule&#45;&gt;AppModule -->
<g id="edge34" class="edge">
<title>ConfigModule&#45;&gt;AppModule</title>
<path fill="none" stroke="#000000" d="M746,-122.0449C746,-143.6623 746,-177 746,-177 746,-177 2551.1687,-177 2551.1687,-177"/>
<polygon fill="#000000" stroke="#000000" points="2551.1687,-180.5001 2561.1687,-177 2551.1686,-173.5001 2551.1687,-180.5001"/>
</g>
<!-- ProjectModule -->
<g id="node36" class="node">
<title>ProjectModule</title>
<polygon fill="#8dd3c7" stroke="#000000" points="678.7036,-122 675.7036,-126 654.7036,-126 651.7036,-122 579.2964,-122 579.2964,-86 678.7036,-86 678.7036,-122"/>
<text text-anchor="middle" x="629" y="-99.8" font-family="Times,serif" font-size="14.00" fill="#000000">ProjectModule</text>
</g>
<!-- ProjectModule&#45;&gt;AppModule -->
<g id="edge35" class="edge">
<title>ProjectModule&#45;&gt;AppModule</title>
<path fill="none" stroke="#000000" d="M629,-122.2921C629,-144.2057 629,-178 629,-178 629,-178 2551.3148,-178 2551.3148,-178"/>
<polygon fill="#000000" stroke="#000000" points="2551.3148,-181.5001 2561.3148,-178 2551.3147,-174.5001 2551.3148,-181.5001"/>
</g>
<!-- PricingModule -->
<g id="node37" class="node">
<title>PricingModule</title>
<polygon fill="#8dd3c7" stroke="#000000" points="560.9888,-122 557.9888,-126 536.9888,-126 533.9888,-122 461.0112,-122 461.0112,-86 560.9888,-86 560.9888,-122"/>
<text text-anchor="middle" x="511" y="-99.8" font-family="Times,serif" font-size="14.00" fill="#000000">PricingModule</text>
</g>
<!-- PricingModule&#45;&gt;AppModule -->
<g id="edge36" class="edge">
<title>PricingModule&#45;&gt;AppModule</title>
<path fill="none" stroke="#000000" d="M511,-122.0109C511,-144.4852 511,-180 511,-180 511,-180 2551.2115,-180 2551.2115,-180"/>
<polygon fill="#000000" stroke="#000000" points="2551.2115,-183.5001 2561.2115,-180 2551.2115,-176.5001 2551.2115,-183.5001"/>
</g>
<!-- ServersModule -->
<g id="node38" class="node">
<title>ServersModule</title>
<polygon fill="#8dd3c7" stroke="#000000" points="442.5285,-122 439.5285,-126 418.5285,-126 415.5285,-122 341.4715,-122 341.4715,-86 442.5285,-86 442.5285,-122"/>
<text text-anchor="middle" x="392" y="-99.8" font-family="Times,serif" font-size="14.00" fill="#000000">ServersModule</text>
</g>
<!-- ServersModule&#45;&gt;AppModule -->
<g id="edge37" class="edge">
<title>ServersModule&#45;&gt;AppModule</title>
<path fill="none" stroke="#000000" d="M392,-122.0908C392,-145.1328 392,-182 392,-182 392,-182 2551.2931,-182 2551.2931,-182"/>
<polygon fill="#000000" stroke="#000000" points="2551.2931,-185.5001 2561.2931,-182 2551.2931,-178.5001 2551.2931,-185.5001"/>
</g>
<!-- HetznerApiProviderModule -->
<g id="node39" class="node">
<title>HetznerApiProviderModule</title>
<polygon fill="#8dd3c7" stroke="#000000" points="323.5576,-122 320.5576,-126 299.5576,-126 296.5576,-122 150.4424,-122 150.4424,-86 323.5576,-86 323.5576,-122"/>
<text text-anchor="middle" x="237" y="-99.8" font-family="Times,serif" font-size="14.00" fill="#000000">HetznerApiProviderModule</text>
</g>
<!-- HetznerApiProviderModule&#45;&gt;AppModule -->
<g id="edge38" class="edge">
<title>HetznerApiProviderModule&#45;&gt;AppModule</title>
<path fill="none" stroke="#000000" d="M237,-122.1532C237,-145.7566 237,-184 237,-184 237,-184 2551.1816,-184 2551.1816,-184"/>
<polygon fill="#000000" stroke="#000000" points="2551.1816,-187.5001 2561.1816,-184 2551.1816,-180.5001 2551.1816,-187.5001"/>
</g>
<!-- NetworkModule -->
<g id="node40" class="node">
<title>NetworkModule</title>
<polygon fill="#8dd3c7" stroke="#000000" points="132.0298,-122 129.0298,-126 108.0298,-126 105.0298,-122 23.9702,-122 23.9702,-86 132.0298,-86 132.0298,-122"/>
<text text-anchor="middle" x="78" y="-99.8" font-family="Times,serif" font-size="14.00" fill="#000000">NetworkModule</text>
</g>
<!-- NetworkModule&#45;&gt;AppModule -->
<g id="edge39" class="edge">
<title>NetworkModule&#45;&gt;AppModule</title>
<path fill="none" stroke="#000000" d="M78,-122.1985C78,-146.3563 78,-186 78,-186 78,-186 2551.2806,-186 2551.2806,-186"/>
<polygon fill="#000000" stroke="#000000" points="2551.2806,-189.5001 2561.2806,-186 2551.2805,-182.5001 2551.2806,-189.5001"/>
</g>
</g>
</svg>
