<?xml version="1.0" encoding="UTF-8" standalone="no"?>
<!DOCTYPE svg PUBLIC "-//W3C//DTD SVG 1.1//EN"
 "http://www.w3.org/Graphics/SVG/1.1/DTD/svg11.dtd">
<!-- Generated by graphviz version 2.40.1 (20161225.0304)
 -->
<!-- Title: dependencies Pages: 1 -->
<svg width="4569pt" height="284pt"
 viewBox="0.00 0.00 4569.00 284.00" xmlns="http://www.w3.org/2000/svg" xmlns:xlink="http://www.w3.org/1999/xlink">
<g id="graph0" class="graph" transform="scale(1 1) rotate(0) translate(4 280)">
<title>dependencies</title>
<polygon fill="#ffffff" stroke="transparent" points="-4,4 -4,-280 4565,-280 4565,4 -4,4"/>
<text text-anchor="start" x="2259.5091" y="-42.4" font-family="sans-serif" font-weight="bold" font-size="14.00" fill="#000000">Legend</text>
<polygon fill="#ffffb3" stroke="transparent" points="2046.5,-10 2046.5,-30 2066.5,-30 2066.5,-10 2046.5,-10"/>
<text text-anchor="start" x="2070.129" y="-15.4" font-family="sans-serif" font-size="14.00" fill="#000000"> &#160;Declarations</text>
<polygon fill="#8dd3c7" stroke="transparent" points="2159.5,-10 2159.5,-30 2179.5,-30 2179.5,-10 2159.5,-10"/>
<text text-anchor="start" x="2183.2251" y="-15.4" font-family="sans-serif" font-size="14.00" fill="#000000"> &#160;Module</text>
<polygon fill="#80b1d3" stroke="transparent" points="2245.5,-10 2245.5,-30 2265.5,-30 2265.5,-10 2245.5,-10"/>
<text text-anchor="start" x="2269.2812" y="-15.4" font-family="sans-serif" font-size="14.00" fill="#000000"> &#160;Bootstrap</text>
<polygon fill="#fdb462" stroke="transparent" points="2342.5,-10 2342.5,-30 2362.5,-30 2362.5,-10 2342.5,-10"/>
<text text-anchor="start" x="2366.1732" y="-15.4" font-family="sans-serif" font-size="14.00" fill="#000000"> &#160;Providers</text>
<polygon fill="#fb8072" stroke="transparent" points="2438.5,-10 2438.5,-30 2458.5,-30 2458.5,-10 2438.5,-10"/>
<text text-anchor="start" x="2462.2258" y="-15.4" font-family="sans-serif" font-size="14.00" fill="#000000"> &#160;Exports</text>
<g id="clust1" class="cluster">
<title>cluster_AppModule</title>
<polygon fill="none" stroke="#000000" stroke-dasharray="1,5" points="8,-70 8,-268 4553,-268 4553,-70 8,-70"/>
</g>
<g id="clust2" class="cluster">
<title>cluster_AppModule_declarations</title>
<polygon fill="none" stroke="#000000" points="450,-78 450,-130 4545,-130 4545,-78 450,-78"/>
</g>
<g id="clust34" class="cluster">
<title>cluster_AppModule_imports</title>
<polygon fill="none" stroke="#000000" points="16,-78 16,-130 442,-130 442,-78 16,-78"/>
</g>
<g id="clust36" class="cluster">
<title>cluster_AppModule_bootstrap</title>
<polygon fill="none" stroke="#000000" points="2410,-208 2410,-260 2498,-260 2498,-208 2410,-208"/>
</g>
<!-- MyApp -->
<g id="node1" class="node">
<title>MyApp</title>
<polygon fill="#ffffb3" stroke="#000000" points="4536.5529,-122 4477.4471,-122 4477.4471,-86 4536.5529,-86 4536.5529,-122"/>
<text text-anchor="middle" x="4507" y="-99.8" font-family="Times,serif" font-size="14.00" fill="#000000">MyApp</text>
</g>
<!-- AppModule -->
<g id="node32" class="node">
<title>AppModule</title>
<polygon fill="#8dd3c7" stroke="#000000" points="2495.6571,-187 2492.6571,-191 2471.6571,-191 2468.6571,-187 2412.3429,-187 2412.3429,-151 2495.6571,-151 2495.6571,-187"/>
<text text-anchor="middle" x="2454" y="-164.8" font-family="Times,serif" font-size="14.00" fill="#000000">AppModule</text>
</g>
<!-- MyApp&#45;&gt;AppModule -->
<g id="edge1" class="edge">
<title>MyApp&#45;&gt;AppModule</title>
<path fill="none" stroke="#000000" d="M4507,-122.3802C4507,-146.2785 4507,-185 4507,-185 4507,-185 2505.9398,-185 2505.9398,-185"/>
<polygon fill="#000000" stroke="#000000" points="2505.9398,-181.5001 2495.9398,-185 2505.9397,-188.5001 2505.9398,-181.5001"/>
</g>
<!-- AboutPage -->
<g id="node2" class="node">
<title>AboutPage</title>
<polygon fill="#ffffb3" stroke="#000000" points="4459.2093,-122 4380.7907,-122 4380.7907,-86 4459.2093,-86 4459.2093,-122"/>
<text text-anchor="middle" x="4420" y="-99.8" font-family="Times,serif" font-size="14.00" fill="#000000">AboutPage</text>
</g>
<!-- AboutPage&#45;&gt;AppModule -->
<g id="edge2" class="edge">
<title>AboutPage&#45;&gt;AppModule</title>
<path fill="none" stroke="#000000" d="M4420,-122.3228C4420,-145.6602 4420,-183 4420,-183 4420,-183 2505.9722,-183 2505.9722,-183"/>
<polygon fill="#000000" stroke="#000000" points="2505.9723,-179.5001 2495.9722,-183 2505.9722,-186.5001 2505.9723,-179.5001"/>
</g>
<!-- HomePage -->
<g id="node3" class="node">
<title>HomePage</title>
<polygon fill="#ffffb3" stroke="#000000" points="4362.9248,-122 4285.0752,-122 4285.0752,-86 4362.9248,-86 4362.9248,-122"/>
<text text-anchor="middle" x="4324" y="-99.8" font-family="Times,serif" font-size="14.00" fill="#000000">HomePage</text>
</g>
<!-- HomePage&#45;&gt;AppModule -->
<g id="edge3" class="edge">
<title>HomePage&#45;&gt;AppModule</title>
<path fill="none" stroke="#000000" d="M4324,-122.2479C4324,-145.0179 4324,-181 4324,-181 4324,-181 2505.6795,-181 2505.6795,-181"/>
<polygon fill="#000000" stroke="#000000" points="2505.6795,-177.5001 2495.6795,-181 2505.6795,-184.5001 2505.6795,-177.5001"/>
</g>
<!-- ProjectsPage -->
<g id="node4" class="node">
<title>ProjectsPage</title>
<polygon fill="#ffffb3" stroke="#000000" points="4267.3105,-122 4178.6895,-122 4178.6895,-86 4267.3105,-86 4267.3105,-122"/>
<text text-anchor="middle" x="4223" y="-99.8" font-family="Times,serif" font-size="14.00" fill="#000000">ProjectsPage</text>
</g>
<!-- ProjectsPage&#45;&gt;AppModule -->
<g id="edge4" class="edge">
<title>ProjectsPage&#45;&gt;AppModule</title>
<path fill="none" stroke="#000000" d="M4223,-122.1554C4223,-144.3519 4223,-179 4223,-179 4223,-179 2505.9835,-179 2505.9835,-179"/>
<polygon fill="#000000" stroke="#000000" points="2505.9836,-175.5001 2495.9835,-179 2505.9835,-182.5001 2505.9836,-175.5001"/>
</g>
<!-- addProjectModal -->
<g id="node5" class="node">
<title>addProjectModal</title>
<polygon fill="#ffffb3" stroke="#000000" points="4161.4188,-122 4048.5812,-122 4048.5812,-86 4161.4188,-86 4161.4188,-122"/>
<text text-anchor="middle" x="4105" y="-99.8" font-family="Times,serif" font-size="14.00" fill="#000000">addProjectModal</text>
</g>
<!-- addProjectModal&#45;&gt;AppModule -->
<g id="edge5" class="edge">
<title>addProjectModal&#45;&gt;AppModule</title>
<path fill="none" stroke="#000000" d="M4105,-122.0449C4105,-143.6623 4105,-177 4105,-177 4105,-177 2506.0529,-177 2506.0529,-177"/>
<polygon fill="#000000" stroke="#000000" points="2506.053,-173.5001 2496.0529,-177 2506.0529,-180.5001 2506.053,-173.5001"/>
</g>
<!-- shareProjectModal -->
<g id="node6" class="node">
<title>shareProjectModal</title>
<polygon fill="#ffffb3" stroke="#000000" points="4030.7381,-122 3909.2619,-122 3909.2619,-86 4030.7381,-86 4030.7381,-122"/>
<text text-anchor="middle" x="3970" y="-99.8" font-family="Times,serif" font-size="14.00" fill="#000000">shareProjectModal</text>
</g>
<!-- shareProjectModal&#45;&gt;AppModule -->
<g id="edge6" class="edge">
<title>shareProjectModal&#45;&gt;AppModule</title>
<path fill="none" stroke="#000000" d="M3970,-122.2843C3970,-143.3211 3970,-175 3970,-175 3970,-175 2505.7313,-175 2505.7313,-175"/>
<polygon fill="#000000" stroke="#000000" points="2505.7313,-171.5001 2495.7313,-175 2505.7313,-178.5001 2505.7313,-171.5001"/>
</g>
<!-- editProjectModal -->
<g id="node7" class="node">
<title>editProjectModal</title>
<polygon fill="#ffffb3" stroke="#000000" points="3891.6994,-122 3778.3006,-122 3778.3006,-86 3891.6994,-86 3891.6994,-122"/>
<text text-anchor="middle" x="3835" y="-99.8" font-family="Times,serif" font-size="14.00" fill="#000000">editProjectModal</text>
</g>
<!-- editProjectModal&#45;&gt;AppModule -->
<g id="edge7" class="edge">
<title>editProjectModal&#45;&gt;AppModule</title>
<path fill="none" stroke="#000000" d="M3835,-122.1289C3835,-142.5724 3835,-173 3835,-173 3835,-173 2505.7068,-173 2505.7068,-173"/>
<polygon fill="#000000" stroke="#000000" points="2505.7069,-169.5001 2495.7068,-173 2505.7068,-176.5001 2505.7069,-169.5001"/>
</g>
<!-- ServersPage -->
<g id="node8" class="node">
<title>ServersPage</title>
<polygon fill="#ffffb3" stroke="#000000" points="3760.6896,-122 3675.3104,-122 3675.3104,-86 3760.6896,-86 3760.6896,-122"/>
<text text-anchor="middle" x="3718" y="-99.8" font-family="Times,serif" font-size="14.00" fill="#000000">ServersPage</text>
</g>
<!-- ServersPage&#45;&gt;AppModule -->
<g id="edge8" class="edge">
<title>ServersPage&#45;&gt;AppModule</title>
<path fill="none" stroke="#000000" d="M3718,-122.308C3718,-142.1455 3718,-171 3718,-171 3718,-171 2505.6955,-171 2505.6955,-171"/>
<polygon fill="#000000" stroke="#000000" points="2505.6956,-167.5001 2495.6955,-171 2505.6955,-174.5001 2505.6956,-167.5001"/>
</g>
<!-- ServerPage -->
<g id="node9" class="node">
<title>ServerPage</title>
<polygon fill="#ffffb3" stroke="#000000" points="3657.7452,-122 3578.2548,-122 3578.2548,-86 3657.7452,-86 3657.7452,-122"/>
<text text-anchor="middle" x="3618" y="-99.8" font-family="Times,serif" font-size="14.00" fill="#000000">ServerPage</text>
</g>
<!-- ServerPage&#45;&gt;AppModule -->
<g id="edge9" class="edge">
<title>ServerPage&#45;&gt;AppModule</title>
<path fill="none" stroke="#000000" d="M3618,-122.1686C3618,-141.0898 3618,-168 3618,-168 3618,-168 2505.7706,-168 2505.7706,-168"/>
<polygon fill="#000000" stroke="#000000" points="2505.7706,-164.5001 2495.7706,-168 2505.7705,-171.5001 2505.7706,-164.5001"/>
</g>
<!-- addServerModal -->
<g id="node10" class="node">
<title>addServerModal</title>
<polygon fill="#ffffb3" stroke="#000000" points="3559.7978,-122 3450.2022,-122 3450.2022,-86 3559.7978,-86 3559.7978,-122"/>
<text text-anchor="middle" x="3505" y="-99.8" font-family="Times,serif" font-size="14.00" fill="#000000">addServerModal</text>
</g>
<!-- addServerModal&#45;&gt;AppModule -->
<g id="edge10" class="edge">
<title>addServerModal&#45;&gt;AppModule</title>
<path fill="none" stroke="#000000" d="M3505,-122.2667C3505,-140.5552 3505,-166 3505,-166 3505,-166 2505.849,-166 2505.849,-166"/>
<polygon fill="#000000" stroke="#000000" points="2505.849,-162.5001 2495.849,-166 2505.849,-169.5001 2505.849,-162.5001"/>
</g>
<!-- editServerModal -->
<g id="node11" class="node">
<title>editServerModal</title>
<polygon fill="#ffffb3" stroke="#000000" points="3432.0786,-122 3321.9214,-122 3321.9214,-86 3432.0786,-86 3432.0786,-122"/>
<text text-anchor="middle" x="3377" y="-99.8" font-family="Times,serif" font-size="14.00" fill="#000000">editServerModal</text>
</g>
<!-- editServerModal&#45;&gt;AppModule -->
<g id="edge11" class="edge">
<title>editServerModal&#45;&gt;AppModule</title>
<path fill="none" stroke="#000000" d="M3377,-122.002C3377,-139.6754 3377,-164 3377,-164 3377,-164 2505.7547,-164 2505.7547,-164"/>
<polygon fill="#000000" stroke="#000000" points="2505.7547,-160.5001 2495.7547,-164 2505.7546,-167.5001 2505.7547,-160.5001"/>
</g>
<!-- powerSettingsModal -->
<g id="node12" class="node">
<title>powerSettingsModal</title>
<polygon fill="#ffffb3" stroke="#000000" points="3304.1457,-122 3171.8543,-122 3171.8543,-86 3304.1457,-86 3304.1457,-122"/>
<text text-anchor="middle" x="3238" y="-99.8" font-family="Times,serif" font-size="14.00" fill="#000000">powerSettingsModal</text>
</g>
<!-- powerSettingsModal&#45;&gt;AppModule -->
<g id="edge12" class="edge">
<title>powerSettingsModal&#45;&gt;AppModule</title>
<path fill="none" stroke="#000000" d="M3238,-122.0336C3238,-139.0597 3238,-162 3238,-162 3238,-162 2505.8741,-162 2505.8741,-162"/>
<polygon fill="#000000" stroke="#000000" points="2505.8741,-158.5001 2495.8741,-162 2505.874,-165.5001 2505.8741,-158.5001"/>
</g>
<!-- rescueModeModal -->
<g id="node13" class="node">
<title>rescueModeModal</title>
<polygon fill="#ffffb3" stroke="#000000" points="3153.458,-122 3032.542,-122 3032.542,-86 3153.458,-86 3153.458,-122"/>
<text text-anchor="middle" x="3093" y="-99.8" font-family="Times,serif" font-size="14.00" fill="#000000">rescueModeModal</text>
</g>
<!-- rescueModeModal&#45;&gt;AppModule -->
<g id="edge13" class="edge">
<title>rescueModeModal&#45;&gt;AppModule</title>
<path fill="none" stroke="#000000" d="M3093,-122.027C3093,-138.3976 3093,-160 3093,-160 3093,-160 2505.9266,-160 2505.9266,-160"/>
<polygon fill="#000000" stroke="#000000" points="2505.9266,-156.5001 2495.9266,-160 2505.9265,-163.5001 2505.9266,-156.5001"/>
</g>
<!-- resizeServerModal -->
<g id="node14" class="node">
<title>resizeServerModal</title>
<polygon fill="#ffffb3" stroke="#000000" points="3014.7227,-122 2893.2773,-122 2893.2773,-86 3014.7227,-86 3014.7227,-122"/>
<text text-anchor="middle" x="2954" y="-99.8" font-family="Times,serif" font-size="14.00" fill="#000000">resizeServerModal</text>
</g>
<!-- resizeServerModal&#45;&gt;AppModule -->
<g id="edge14" class="edge">
<title>resizeServerModal&#45;&gt;AppModule</title>
<path fill="none" stroke="#000000" d="M2954,-122.2819C2954,-137.9478 2954,-158 2954,-158 2954,-158 2505.7697,-158 2505.7697,-158"/>
<polygon fill="#000000" stroke="#000000" points="2505.7698,-154.5001 2495.7697,-158 2505.7697,-161.5001 2505.7698,-154.5001"/>
</g>
<!-- backupSettingsModal -->
<g id="node15" class="node">
<title>backupSettingsModal</title>
<polygon fill="#ffffb3" stroke="#000000" points="2875.0926,-122 2736.9074,-122 2736.9074,-86 2875.0926,-86 2875.0926,-122"/>
<text text-anchor="middle" x="2806" y="-99.8" font-family="Times,serif" font-size="14.00" fill="#000000">backupSettingsModal</text>
</g>
<!-- backupSettingsModal&#45;&gt;AppModule -->
<g id="edge15" class="edge">
<title>backupSettingsModal&#45;&gt;AppModule</title>
<path fill="none" stroke="#000000" d="M2806,-122.1871C2806,-137.1824 2806,-156 2806,-156 2806,-156 2505.7613,-156 2505.7613,-156"/>
<polygon fill="#000000" stroke="#000000" points="2505.7613,-152.5001 2495.7613,-156 2505.7613,-159.5001 2505.7613,-152.5001"/>
</g>
<!-- FloatingIPsPage -->
<g id="node16" class="node">
<title>FloatingIPsPage</title>
<polygon fill="#ffffb3" stroke="#000000" points="2718.7688,-122 2611.2312,-122 2611.2312,-86 2718.7688,-86 2718.7688,-122"/>
<text text-anchor="middle" x="2665" y="-99.8" font-family="Times,serif" font-size="14.00" fill="#000000">FloatingIPsPage</text>
</g>
<!-- FloatingIPsPage&#45;&gt;AppModule -->
<g id="edge16" class="edge">
<title>FloatingIPsPage&#45;&gt;AppModule</title>
<path fill="none" stroke="#000000" d="M2665,-122.0511C2665,-136.373 2665,-154 2665,-154 2665,-154 2505.6868,-154 2505.6868,-154"/>
<polygon fill="#000000" stroke="#000000" points="2505.6868,-150.5001 2495.6868,-154 2505.6868,-157.5001 2505.6868,-150.5001"/>
</g>
<!-- addFloatingIPModal -->
<g id="node17" class="node">
<title>addFloatingIPModal</title>
<polygon fill="#ffffb3" stroke="#000000" points="2592.8767,-122 2461.1233,-122 2461.1233,-86 2592.8767,-86 2592.8767,-122"/>
<text text-anchor="middle" x="2527" y="-99.8" font-family="Times,serif" font-size="14.00" fill="#000000">addFloatingIPModal</text>
</g>
<!-- addFloatingIPModal&#45;&gt;AppModule -->
<g id="edge17" class="edge">
<title>addFloatingIPModal&#45;&gt;AppModule</title>
<path fill="none" stroke="#000000" d="M2478.445,-122.1061C2478.445,-122.1061 2478.445,-140.991 2478.445,-140.991"/>
<polygon fill="#000000" stroke="#000000" points="2474.945,-140.9909 2478.445,-150.991 2481.945,-140.991 2474.945,-140.9909"/>
</g>
<!-- DeleteAllDataPage -->
<g id="node18" class="node">
<title>DeleteAllDataPage</title>
<polygon fill="#ffffb3" stroke="#000000" points="2443.0576,-122 2318.9424,-122 2318.9424,-86 2443.0576,-86 2443.0576,-122"/>
<text text-anchor="middle" x="2381" y="-99.8" font-family="Times,serif" font-size="14.00" fill="#000000">DeleteAllDataPage</text>
</g>
<!-- DeleteAllDataPage&#45;&gt;AppModule -->
<g id="edge18" class="edge">
<title>DeleteAllDataPage&#45;&gt;AppModule</title>
<path fill="none" stroke="#000000" d="M2427.6003,-122.1061C2427.6003,-122.1061 2427.6003,-140.991 2427.6003,-140.991"/>
<polygon fill="#000000" stroke="#000000" points="2424.1004,-140.9909 2427.6003,-150.991 2431.1004,-140.991 2424.1004,-140.9909"/>
</g>
<!-- changeIPv4ReverseDNSModal -->
<g id="node19" class="node">
<title>changeIPv4ReverseDNSModal</title>
<polygon fill="#ffffb3" stroke="#000000" points="2300.7184,-122 2109.2816,-122 2109.2816,-86 2300.7184,-86 2300.7184,-122"/>
<text text-anchor="middle" x="2205" y="-99.8" font-family="Times,serif" font-size="14.00" fill="#000000">changeIPv4ReverseDNSModal</text>
</g>
<!-- changeIPv4ReverseDNSModal&#45;&gt;AppModule -->
<g id="edge19" class="edge">
<title>changeIPv4ReverseDNSModal&#45;&gt;AppModule</title>
<path fill="none" stroke="#000000" d="M2205,-122.0511C2205,-136.373 2205,-154 2205,-154 2205,-154 2402.323,-154 2402.323,-154"/>
<polygon fill="#000000" stroke="#000000" points="2402.323,-157.5001 2412.323,-154 2402.323,-150.5001 2402.323,-157.5001"/>
</g>
<!-- changeIPv6ReverseDNSModal -->
<g id="node20" class="node">
<title>changeIPv6ReverseDNSModal</title>
<polygon fill="#ffffb3" stroke="#000000" points="2090.7184,-122 1899.2816,-122 1899.2816,-86 2090.7184,-86 2090.7184,-122"/>
<text text-anchor="middle" x="1995" y="-99.8" font-family="Times,serif" font-size="14.00" fill="#000000">changeIPv6ReverseDNSModal</text>
</g>
<!-- changeIPv6ReverseDNSModal&#45;&gt;AppModule -->
<g id="edge20" class="edge">
<title>changeIPv6ReverseDNSModal&#45;&gt;AppModule</title>
<path fill="none" stroke="#000000" d="M1995,-122.1871C1995,-137.1824 1995,-156 1995,-156 1995,-156 2402.05,-156 2402.05,-156"/>
<polygon fill="#000000" stroke="#000000" points="2402.05,-159.5001 2412.05,-156 2402.05,-152.5001 2402.05,-159.5001"/>
</g>
<!-- editFloatingIpModal -->
<g id="node21" class="node">
<title>editFloatingIpModal</title>
<polygon fill="#ffffb3" stroke="#000000" points="1880.8753,-122 1749.1247,-122 1749.1247,-86 1880.8753,-86 1880.8753,-122"/>
<text text-anchor="middle" x="1815" y="-99.8" font-family="Times,serif" font-size="14.00" fill="#000000">editFloatingIpModal</text>
</g>
<!-- editFloatingIpModal&#45;&gt;AppModule -->
<g id="edge21" class="edge">
<title>editFloatingIpModal&#45;&gt;AppModule</title>
<path fill="none" stroke="#000000" d="M1815,-122.2819C1815,-137.9478 1815,-158 1815,-158 1815,-158 2402.0734,-158 2402.0734,-158"/>
<polygon fill="#000000" stroke="#000000" points="2402.0735,-161.5001 2412.0734,-158 2402.0734,-154.5001 2402.0735,-161.5001"/>
</g>
<!-- FloatingIPPage -->
<g id="node22" class="node">
<title>FloatingIPPage</title>
<polygon fill="#ffffb3" stroke="#000000" points="1731.3245,-122 1628.6755,-122 1628.6755,-86 1731.3245,-86 1731.3245,-122"/>
<text text-anchor="middle" x="1680" y="-99.8" font-family="Times,serif" font-size="14.00" fill="#000000">FloatingIPPage</text>
</g>
<!-- FloatingIPPage&#45;&gt;AppModule -->
<g id="edge22" class="edge">
<title>FloatingIPPage&#45;&gt;AppModule</title>
<path fill="none" stroke="#000000" d="M1680,-122.027C1680,-138.3976 1680,-160 1680,-160 1680,-160 2402.112,-160 2402.112,-160"/>
<polygon fill="#000000" stroke="#000000" points="2402.112,-163.5001 2412.112,-160 2402.1119,-156.5001 2402.112,-163.5001"/>
</g>
<!-- ImagesPage -->
<g id="node23" class="node">
<title>ImagesPage</title>
<polygon fill="#ffffb3" stroke="#000000" points="1610.6376,-122 1527.3624,-122 1527.3624,-86 1610.6376,-86 1610.6376,-122"/>
<text text-anchor="middle" x="1569" y="-99.8" font-family="Times,serif" font-size="14.00" fill="#000000">ImagesPage</text>
</g>
<!-- ImagesPage&#45;&gt;AppModule -->
<g id="edge23" class="edge">
<title>ImagesPage&#45;&gt;AppModule</title>
<path fill="none" stroke="#000000" d="M1569,-122.0336C1569,-139.0597 1569,-162 1569,-162 1569,-162 2402.2063,-162 2402.2063,-162"/>
<polygon fill="#000000" stroke="#000000" points="2402.2063,-165.5001 2412.2063,-162 2402.2062,-158.5001 2402.2063,-165.5001"/>
</g>
<!-- editImageModal -->
<g id="node24" class="node">
<title>editImageModal</title>
<polygon fill="#ffffb3" stroke="#000000" points="1509.027,-122 1400.973,-122 1400.973,-86 1509.027,-86 1509.027,-122"/>
<text text-anchor="middle" x="1455" y="-99.8" font-family="Times,serif" font-size="14.00" fill="#000000">editImageModal</text>
</g>
<!-- editImageModal&#45;&gt;AppModule -->
<g id="edge24" class="edge">
<title>editImageModal&#45;&gt;AppModule</title>
<path fill="none" stroke="#000000" d="M1455,-122.002C1455,-139.6754 1455,-164 1455,-164 1455,-164 2402.0297,-164 2402.0297,-164"/>
<polygon fill="#000000" stroke="#000000" points="2402.0298,-167.5001 2412.0297,-164 2402.0297,-160.5001 2402.0298,-167.5001"/>
</g>
<!-- assignToServerModal -->
<g id="node25" class="node">
<title>assignToServerModal</title>
<polygon fill="#ffffb3" stroke="#000000" points="1382.6303,-122 1243.3697,-122 1243.3697,-86 1382.6303,-86 1382.6303,-122"/>
<text text-anchor="middle" x="1313" y="-99.8" font-family="Times,serif" font-size="14.00" fill="#000000">assignToServerModal</text>
</g>
<!-- assignToServerModal&#45;&gt;AppModule -->
<g id="edge25" class="edge">
<title>assignToServerModal&#45;&gt;AppModule</title>
<path fill="none" stroke="#000000" d="M1313,-122.2667C1313,-140.5552 1313,-166 1313,-166 1313,-166 2402.038,-166 2402.038,-166"/>
<polygon fill="#000000" stroke="#000000" points="2402.0381,-169.5001 2412.038,-166 2402.038,-162.5001 2402.0381,-169.5001"/>
</g>
<!-- HetznerStatusSettingPage -->
<g id="node26" class="node">
<title>HetznerStatusSettingPage</title>
<polygon fill="#ffffb3" stroke="#000000" points="1224.9059,-122 1063.0941,-122 1063.0941,-86 1224.9059,-86 1224.9059,-122"/>
<text text-anchor="middle" x="1144" y="-99.8" font-family="Times,serif" font-size="14.00" fill="#000000">HetznerStatusSettingPage</text>
</g>
<!-- HetznerStatusSettingPage&#45;&gt;AppModule -->
<g id="edge26" class="edge">
<title>HetznerStatusSettingPage&#45;&gt;AppModule</title>
<path fill="none" stroke="#000000" d="M1144,-122.1686C1144,-141.0898 1144,-168 1144,-168 1144,-168 2402.2649,-168 2402.2649,-168"/>
<polygon fill="#000000" stroke="#000000" points="2402.2649,-171.5001 2412.2649,-168 2402.2649,-164.5001 2402.2649,-171.5001"/>
</g>
<!-- HetznerStatusPage -->
<g id="node27" class="node">
<title>HetznerStatusPage</title>
<polygon fill="#ffffb3" stroke="#000000" points="1044.7367,-122 923.2633,-122 923.2633,-86 1044.7367,-86 1044.7367,-122"/>
<text text-anchor="middle" x="984" y="-99.8" font-family="Times,serif" font-size="14.00" fill="#000000">HetznerStatusPage</text>
</g>
<!-- HetznerStatusPage&#45;&gt;AppModule -->
<g id="edge27" class="edge">
<title>HetznerStatusPage&#45;&gt;AppModule</title>
<path fill="none" stroke="#000000" d="M984,-122.308C984,-142.1455 984,-171 984,-171 984,-171 2401.9832,-171 2401.9832,-171"/>
<polygon fill="#000000" stroke="#000000" points="2401.9833,-174.5001 2411.9832,-171 2401.9832,-167.5001 2401.9833,-174.5001"/>
</g>
<!-- ServerMetricsPage -->
<g id="node28" class="node">
<title>ServerMetricsPage</title>
<polygon fill="#ffffb3" stroke="#000000" points="905.006,-122 782.994,-122 782.994,-86 905.006,-86 905.006,-122"/>
<text text-anchor="middle" x="844" y="-99.8" font-family="Times,serif" font-size="14.00" fill="#000000">ServerMetricsPage</text>
</g>
<!-- ServerMetricsPage&#45;&gt;AppModule -->
<g id="edge28" class="edge">
<title>ServerMetricsPage&#45;&gt;AppModule</title>
<path fill="none" stroke="#000000" d="M844,-122.1289C844,-142.5724 844,-173 844,-173 844,-173 2402.175,-173 2402.175,-173"/>
<polygon fill="#000000" stroke="#000000" points="2402.175,-176.5001 2412.175,-173 2402.1749,-169.5001 2402.175,-176.5001"/>
</g>
<!-- SettingsPage -->
<g id="node29" class="node">
<title>SettingsPage</title>
<polygon fill="#ffffb3" stroke="#000000" points="765.326,-122 676.674,-122 676.674,-86 765.326,-86 765.326,-122"/>
<text text-anchor="middle" x="721" y="-99.8" font-family="Times,serif" font-size="14.00" fill="#000000">SettingsPage</text>
</g>
<!-- SettingsPage&#45;&gt;AppModule -->
<g id="edge29" class="edge">
<title>SettingsPage&#45;&gt;AppModule</title>
<path fill="none" stroke="#000000" d="M721,-122.2843C721,-143.3211 721,-175 721,-175 721,-175 2402.0202,-175 2402.0202,-175"/>
<polygon fill="#000000" stroke="#000000" points="2402.0203,-178.5001 2412.0202,-175 2402.0202,-171.5001 2402.0203,-178.5001"/>
</g>
<!-- ActionsPage -->
<g id="node30" class="node">
<title>ActionsPage</title>
<polygon fill="#ffffb3" stroke="#000000" points="658.2591,-122 571.7409,-122 571.7409,-86 658.2591,-86 658.2591,-122"/>
<text text-anchor="middle" x="615" y="-99.8" font-family="Times,serif" font-size="14.00" fill="#000000">ActionsPage</text>
</g>
<!-- ActionsPage&#45;&gt;AppModule -->
<g id="edge30" class="edge">
<title>ActionsPage&#45;&gt;AppModule</title>
<path fill="none" stroke="#000000" d="M615,-122.0449C615,-143.6623 615,-177 615,-177 615,-177 2402.1347,-177 2402.1347,-177"/>
<polygon fill="#000000" stroke="#000000" points="2402.1347,-180.5001 2412.1347,-177 2402.1346,-173.5001 2402.1347,-180.5001"/>
</g>
<!-- consoleModal -->
<g id="node31" class="node">
<title>consoleModal</title>
<polygon fill="#ffffb3" stroke="#000000" points="553.8147,-122 458.1853,-122 458.1853,-86 553.8147,-86 553.8147,-122"/>
<text text-anchor="middle" x="506" y="-99.8" font-family="Times,serif" font-size="14.00" fill="#000000">consoleModal</text>
</g>
<!-- consoleModal&#45;&gt;AppModule -->
<g id="edge31" class="edge">
<title>consoleModal&#45;&gt;AppModule</title>
<path fill="none" stroke="#000000" d="M506,-122.1554C506,-144.3519 506,-179 506,-179 506,-179 2401.958,-179 2401.958,-179"/>
<polygon fill="#000000" stroke="#000000" points="2401.958,-182.5001 2411.958,-179 2401.9579,-175.5001 2401.958,-182.5001"/>
</g>
<!-- IonicApp  -->
<g id="node36" class="node">
<title>IonicApp </title>
<polygon fill="#80b1d3" stroke="#000000" points="2490.3734,-252 2417.6266,-252 2417.6266,-216 2490.3734,-216 2490.3734,-252"/>
<text text-anchor="middle" x="2454" y="-229.8" font-family="Times,serif" font-size="14.00" fill="#000000">IonicApp </text>
</g>
<!-- AppModule&#45;&gt;IonicApp  -->
<g id="edge35" class="edge">
<title>AppModule&#45;&gt;IonicApp </title>
<path fill="none" stroke="#000000" stroke-dasharray="1,5" d="M2454,-187.1061C2454,-187.1061 2454,-205.991 2454,-205.991"/>
<polygon fill="#000000" stroke="#000000" points="2450.5001,-205.9909 2454,-215.991 2457.5001,-205.991 2450.5001,-205.9909"/>
</g>
<!-- ProjectModule -->
<g id="node33" class="node">
<title>ProjectModule</title>
<polygon fill="#8dd3c7" stroke="#000000" points="433.7036,-122 430.7036,-126 409.7036,-126 406.7036,-122 334.2964,-122 334.2964,-86 433.7036,-86 433.7036,-122"/>
<text text-anchor="middle" x="384" y="-99.8" font-family="Times,serif" font-size="14.00" fill="#000000">ProjectModule</text>
</g>
<!-- ProjectModule&#45;&gt;AppModule -->
<g id="edge32" class="edge">
<title>ProjectModule&#45;&gt;AppModule</title>
<path fill="none" stroke="#000000" d="M384,-122.2479C384,-145.0179 384,-181 384,-181 384,-181 2402.1832,-181 2402.1832,-181"/>
<polygon fill="#000000" stroke="#000000" points="2402.1832,-184.5001 2412.1832,-181 2402.1832,-177.5001 2402.1832,-184.5001"/>
</g>
<!-- ServersModule -->
<g id="node34" class="node">
<title>ServersModule</title>
<polygon fill="#8dd3c7" stroke="#000000" points="316.5285,-122 313.5285,-126 292.5285,-126 289.5285,-122 215.4715,-122 215.4715,-86 316.5285,-86 316.5285,-122"/>
<text text-anchor="middle" x="266" y="-99.8" font-family="Times,serif" font-size="14.00" fill="#000000">ServersModule</text>
</g>
<!-- ServersModule&#45;&gt;AppModule -->
<g id="edge33" class="edge">
<title>ServersModule&#45;&gt;AppModule</title>
<path fill="none" stroke="#000000" d="M266,-122.3228C266,-145.6602 266,-183 266,-183 266,-183 2402.2456,-183 2402.2456,-183"/>
<polygon fill="#000000" stroke="#000000" points="2402.2456,-186.5001 2412.2456,-183 2402.2455,-179.5001 2402.2456,-186.5001"/>
</g>
<!-- HetznerApiProviderModule -->
<g id="node35" class="node">
<title>HetznerApiProviderModule</title>
<polygon fill="#8dd3c7" stroke="#000000" points="197.5576,-122 194.5576,-126 173.5576,-126 170.5576,-122 24.4424,-122 24.4424,-86 197.5576,-86 197.5576,-122"/>
<text text-anchor="middle" x="111" y="-99.8" font-family="Times,serif" font-size="14.00" fill="#000000">HetznerApiProviderModule</text>
</g>
<!-- HetznerApiProviderModule&#45;&gt;AppModule -->
<g id="edge34" class="edge">
<title>HetznerApiProviderModule&#45;&gt;AppModule</title>
<path fill="none" stroke="#000000" d="M111,-122.3802C111,-146.2785 111,-185 111,-185 111,-185 2402.3384,-185 2402.3384,-185"/>
<polygon fill="#000000" stroke="#000000" points="2402.3385,-188.5001 2412.3384,-185 2402.3384,-181.5001 2402.3385,-188.5001"/>
</g>
</g>
</svg>
