<?xml version="1.0" encoding="UTF-8" standalone="no"?>
<!DOCTYPE svg PUBLIC "-//W3C//DTD SVG 1.1//EN"
 "http://www.w3.org/Graphics/SVG/1.1/DTD/svg11.dtd">
<!-- Generated by graphviz version 2.40.1 (20161225.0304)
 -->
<!-- Title: dependencies Pages: 1 -->
<svg width="700pt" height="284pt"
 viewBox="0.00 0.00 700.00 284.00" xmlns="http://www.w3.org/2000/svg" xmlns:xlink="http://www.w3.org/1999/xlink">
<g id="graph0" class="graph" transform="scale(1 1) rotate(0) translate(4 280)">
<title>dependencies</title>
<polygon fill="#ffffff" stroke="transparent" points="-4,4 -4,-280 696,-280 696,4 -4,4"/>
<text text-anchor="start" x="325.0091" y="-42.4" font-family="sans-serif" font-weight="bold" font-size="14.00" fill="#000000">Legend</text>
<polygon fill="#ffffb3" stroke="transparent" points="112,-10 112,-30 132,-30 132,-10 112,-10"/>
<text text-anchor="start" x="135.629" y="-15.4" font-family="sans-serif" font-size="14.00" fill="#000000"> &#160;Declarations</text>
<polygon fill="#8dd3c7" stroke="transparent" points="225,-10 225,-30 245,-30 245,-10 225,-10"/>
<text text-anchor="start" x="248.7251" y="-15.4" font-family="sans-serif" font-size="14.00" fill="#000000"> &#160;Module</text>
<polygon fill="#80b1d3" stroke="transparent" points="311,-10 311,-30 331,-30 331,-10 311,-10"/>
<text text-anchor="start" x="334.7812" y="-15.4" font-family="sans-serif" font-size="14.00" fill="#000000"> &#160;Bootstrap</text>
<polygon fill="#fdb462" stroke="transparent" points="408,-10 408,-30 428,-30 428,-10 408,-10"/>
<text text-anchor="start" x="431.6732" y="-15.4" font-family="sans-serif" font-size="14.00" fill="#000000"> &#160;Providers</text>
<polygon fill="#fb8072" stroke="transparent" points="504,-10 504,-30 524,-30 524,-10 504,-10"/>
<text text-anchor="start" x="527.7258" y="-15.4" font-family="sans-serif" font-size="14.00" fill="#000000"> &#160;Exports</text>
<g id="clust1" class="cluster">
<title>cluster_ComponentsModule</title>
<polygon fill="none" stroke="#000000" stroke-dasharray="1,5" points="8,-70 8,-268 684,-268 684,-70 8,-70"/>
</g>
<g id="clust2" class="cluster">
<title>cluster_ComponentsModule_declarations</title>
<polygon fill="none" stroke="#000000" points="22,-78 22,-130 671,-130 671,-78 22,-78"/>
</g>
<g id="clust7" class="cluster">
<title>cluster_ComponentsModule_exports</title>
<polygon fill="none" stroke="#000000" points="16,-208 16,-260 676,-260 676,-208 16,-208"/>
</g>
<!-- ServerStatusIndicatorComponent -->
<g id="node1" class="node">
<title>ServerStatusIndicatorComponent</title>
<polygon fill="#ffffb3" stroke="#000000" points="663.1204,-122 460.8796,-122 460.8796,-86 663.1204,-86 663.1204,-122"/>
<text text-anchor="middle" x="562" y="-99.8" font-family="Times,serif" font-size="14.00" fill="#000000">ServerStatusIndicatorComponent</text>
</g>
<!-- ComponentsModule -->
<g id="node4" class="node">
<title>ComponentsModule</title>
<polygon fill="#8dd3c7" stroke="#000000" points="418.3272,-187 415.3272,-191 394.3272,-191 391.3272,-187 287.6728,-187 287.6728,-151 418.3272,-151 418.3272,-187"/>
<text text-anchor="middle" x="353" y="-164.8" font-family="Times,serif" font-size="14.00" fill="#000000">ComponentsModule</text>
</g>
<!-- ServerStatusIndicatorComponent&#45;&gt;ComponentsModule -->
<g id="edge1" class="edge">
<title>ServerStatusIndicatorComponent&#45;&gt;ComponentsModule</title>
<path fill="none" stroke="#000000" d="M596.1867,-122.0225C596.1867,-139.3734 596.1867,-163 596.1867,-163 596.1867,-163 428.1696,-163 428.1696,-163"/>
<polygon fill="#000000" stroke="#000000" points="428.1696,-159.5001 418.1696,-163 428.1695,-166.5001 428.1696,-159.5001"/>
</g>
<!-- LoadingIndicatorComponent -->
<g id="node2" class="node">
<title>LoadingIndicatorComponent</title>
<polygon fill="#ffffb3" stroke="#000000" points="442.0224,-122 263.9776,-122 263.9776,-86 442.0224,-86 442.0224,-122"/>
<text text-anchor="middle" x="353" y="-99.8" font-family="Times,serif" font-size="14.00" fill="#000000">LoadingIndicatorComponent</text>
</g>
<!-- LoadingIndicatorComponent&#45;&gt;ComponentsModule -->
<g id="edge2" class="edge">
<title>LoadingIndicatorComponent&#45;&gt;ComponentsModule</title>
<path fill="none" stroke="#000000" d="M353,-122.1061C353,-122.1061 353,-140.991 353,-140.991"/>
<polygon fill="#000000" stroke="#000000" points="349.5001,-140.9909 353,-150.991 356.5001,-140.991 349.5001,-140.9909"/>
</g>
<!-- ServerBasicInformationComponent -->
<g id="node3" class="node">
<title>ServerBasicInformationComponent</title>
<polygon fill="#ffffb3" stroke="#000000" points="245.8347,-122 30.1653,-122 30.1653,-86 245.8347,-86 245.8347,-122"/>
<text text-anchor="middle" x="138" y="-99.8" font-family="Times,serif" font-size="14.00" fill="#000000">ServerBasicInformationComponent</text>
</g>
<!-- ServerBasicInformationComponent&#45;&gt;ComponentsModule -->
<g id="edge3" class="edge">
<title>ServerBasicInformationComponent&#45;&gt;ComponentsModule</title>
<path fill="none" stroke="#000000" d="M172.4724,-122.0225C172.4724,-139.3734 172.4724,-163 172.4724,-163 172.4724,-163 277.8254,-163 277.8254,-163"/>
<polygon fill="#000000" stroke="#000000" points="277.8254,-166.5001 287.8254,-163 277.8254,-159.5001 277.8254,-166.5001"/>
</g>
<!-- ServerStatusIndicatorComponent  -->
<g id="node5" class="node">
<title>ServerStatusIndicatorComponent </title>
<polygon fill="#fb8072" stroke="#000000" points="668.12,-252 461.88,-252 461.88,-216 668.12,-216 668.12,-252"/>
<text text-anchor="middle" x="565" y="-229.8" font-family="Times,serif" font-size="14.00" fill="#000000">ServerStatusIndicatorComponent </text>
</g>
<!-- ComponentsModule&#45;&gt;ServerStatusIndicatorComponent  -->
<g id="edge4" class="edge">
<title>ComponentsModule&#45;&gt;ServerStatusIndicatorComponent </title>
<path fill="none" stroke="#000000" stroke-dasharray="5,2" d="M418.5595,-175C468.6168,-175 529.0633,-175 529.0633,-175 529.0633,-175 529.0633,-205.9775 529.0633,-205.9775"/>
<polygon fill="#000000" stroke="#000000" points="525.5634,-205.9774 529.0633,-215.9775 532.5634,-205.9775 525.5634,-205.9774"/>
</g>
<!-- LoadingIndicatorComponent  -->
<g id="node6" class="node">
<title>LoadingIndicatorComponent </title>
<polygon fill="#fb8072" stroke="#000000" points="444.0218,-252 261.9782,-252 261.9782,-216 444.0218,-216 444.0218,-252"/>
<text text-anchor="middle" x="353" y="-229.8" font-family="Times,serif" font-size="14.00" fill="#000000">LoadingIndicatorComponent </text>
</g>
<!-- ComponentsModule&#45;&gt;LoadingIndicatorComponent  -->
<g id="edge5" class="edge">
<title>ComponentsModule&#45;&gt;LoadingIndicatorComponent </title>
<path fill="none" stroke="#000000" stroke-dasharray="5,2" d="M353,-187.1061C353,-187.1061 353,-205.991 353,-205.991"/>
<polygon fill="#000000" stroke="#000000" points="349.5001,-205.9909 353,-215.991 356.5001,-205.991 349.5001,-205.9909"/>
</g>
<!-- ServerBasicInformationComponent  -->
<g id="node7" class="node">
<title>ServerBasicInformationComponent </title>
<polygon fill="#fb8072" stroke="#000000" points="243.8349,-252 24.1651,-252 24.1651,-216 243.8349,-216 243.8349,-252"/>
<text text-anchor="middle" x="134" y="-229.8" font-family="Times,serif" font-size="14.00" fill="#000000">ServerBasicInformationComponent </text>
</g>
<!-- ComponentsModule&#45;&gt;ServerBasicInformationComponent  -->
<g id="edge6" class="edge">
<title>ComponentsModule&#45;&gt;ServerBasicInformationComponent </title>
<path fill="none" stroke="#000000" stroke-dasharray="5,2" d="M287.52,-175C212.9358,-175 101.2776,-175 101.2776,-175 101.2776,-175 101.2776,-205.9775 101.2776,-205.9775"/>
<polygon fill="#000000" stroke="#000000" points="97.7777,-205.9774 101.2776,-215.9775 104.7777,-205.9775 97.7777,-205.9774"/>
</g>
</g>
</svg>
