<?xml version="1.0" encoding="UTF-8" standalone="no"?>
<!DOCTYPE svg PUBLIC "-//W3C//DTD SVG 1.1//EN"
 "http://www.w3.org/Graphics/SVG/1.1/DTD/svg11.dtd">
<!-- Generated by graphviz version 2.40.1 (20161225.0304)
 -->
<!-- Title: dependencies Pages: 1 -->
<svg width="504pt" height="284pt"
 viewBox="0.00 0.00 504.00 284.00" xmlns="http://www.w3.org/2000/svg" xmlns:xlink="http://www.w3.org/1999/xlink">
<g id="graph0" class="graph" transform="scale(1 1) rotate(0) translate(4 280)">
<title>dependencies</title>
<polygon fill="#ffffff" stroke="transparent" points="-4,4 -4,-280 500,-280 500,4 -4,4"/>
<text text-anchor="start" x="227.0091" y="-42.4" font-family="sans-serif" font-weight="bold" font-size="14.00" fill="#000000">Legend</text>
<polygon fill="#ffffb3" stroke="transparent" points="14,-10 14,-30 34,-30 34,-10 14,-10"/>
<text text-anchor="start" x="37.629" y="-15.4" font-family="sans-serif" font-size="14.00" fill="#000000"> &#160;Declarations</text>
<polygon fill="#8dd3c7" stroke="transparent" points="127,-10 127,-30 147,-30 147,-10 127,-10"/>
<text text-anchor="start" x="150.7251" y="-15.4" font-family="sans-serif" font-size="14.00" fill="#000000"> &#160;Module</text>
<polygon fill="#80b1d3" stroke="transparent" points="213,-10 213,-30 233,-30 233,-10 213,-10"/>
<text text-anchor="start" x="236.7812" y="-15.4" font-family="sans-serif" font-size="14.00" fill="#000000"> &#160;Bootstrap</text>
<polygon fill="#fdb462" stroke="transparent" points="310,-10 310,-30 330,-30 330,-10 310,-10"/>
<text text-anchor="start" x="333.6732" y="-15.4" font-family="sans-serif" font-size="14.00" fill="#000000"> &#160;Providers</text>
<polygon fill="#fb8072" stroke="transparent" points="406,-10 406,-30 426,-30 426,-10 406,-10"/>
<text text-anchor="start" x="429.7258" y="-15.4" font-family="sans-serif" font-size="14.00" fill="#000000"> &#160;Exports</text>
<g id="clust1" class="cluster">
<title>cluster_ComponentsModule</title>
<polygon fill="none" stroke="#000000" stroke-dasharray="1,5" points="29,-70 29,-268 467,-268 467,-70 29,-70"/>
</g>
<g id="clust2" class="cluster">
<title>cluster_ComponentsModule_declarations</title>
<polygon fill="none" stroke="#000000" points="41,-78 41,-130 456,-130 456,-78 41,-78"/>
</g>
<g id="clust6" class="cluster">
<title>cluster_ComponentsModule_exports</title>
<polygon fill="none" stroke="#000000" points="37,-208 37,-260 459,-260 459,-208 37,-208"/>
</g>
<!-- ServerStatusIndicatorComponent -->
<g id="node1" class="node">
<title>ServerStatusIndicatorComponent</title>
<polygon fill="#ffffb3" stroke="#000000" points="448.1204,-122 245.8796,-122 245.8796,-86 448.1204,-86 448.1204,-122"/>
<text text-anchor="middle" x="347" y="-99.8" font-family="Times,serif" font-size="14.00" fill="#000000">ServerStatusIndicatorComponent</text>
</g>
<!-- ComponentsModule -->
<g id="node3" class="node">
<title>ComponentsModule</title>
<polygon fill="#8dd3c7" stroke="#000000" points="204.3272,-187 201.3272,-191 180.3272,-191 177.3272,-187 73.6728,-187 73.6728,-151 204.3272,-151 204.3272,-187"/>
<text text-anchor="middle" x="139" y="-164.8" font-family="Times,serif" font-size="14.00" fill="#000000">ComponentsModule</text>
</g>
<!-- ServerStatusIndicatorComponent&#45;&gt;ComponentsModule -->
<g id="edge1" class="edge">
<title>ServerStatusIndicatorComponent&#45;&gt;ComponentsModule</title>
<path fill="none" stroke="#000000" d="M380.77,-122.0225C380.77,-139.3734 380.77,-163 380.77,-163 380.77,-163 214.4264,-163 214.4264,-163"/>
<polygon fill="#000000" stroke="#000000" points="214.4265,-159.5001 204.4264,-163 214.4264,-166.5001 214.4265,-159.5001"/>
</g>
<!-- LoadingIndicatorComponent -->
<g id="node2" class="node">
<title>LoadingIndicatorComponent</title>
<polygon fill="#ffffb3" stroke="#000000" points="227.0224,-122 48.9776,-122 48.9776,-86 227.0224,-86 227.0224,-122"/>
<text text-anchor="middle" x="138" y="-99.8" font-family="Times,serif" font-size="14.00" fill="#000000">LoadingIndicatorComponent</text>
</g>
<!-- LoadingIndicatorComponent&#45;&gt;ComponentsModule -->
<g id="edge2" class="edge">
<title>LoadingIndicatorComponent&#45;&gt;ComponentsModule</title>
<path fill="none" stroke="#000000" d="M139,-122.1061C139,-122.1061 139,-140.991 139,-140.991"/>
<polygon fill="#000000" stroke="#000000" points="135.5001,-140.9909 139,-150.991 142.5001,-140.991 135.5001,-140.9909"/>
</g>
<!-- ServerStatusIndicatorComponent  -->
<g id="node4" class="node">
<title>ServerStatusIndicatorComponent </title>
<polygon fill="#fb8072" stroke="#000000" points="451.12,-252 244.88,-252 244.88,-216 451.12,-216 451.12,-252"/>
<text text-anchor="middle" x="348" y="-229.8" font-family="Times,serif" font-size="14.00" fill="#000000">ServerStatusIndicatorComponent </text>
</g>
<!-- ComponentsModule&#45;&gt;ServerStatusIndicatorComponent  -->
<g id="edge3" class="edge">
<title>ComponentsModule&#45;&gt;ServerStatusIndicatorComponent </title>
<path fill="none" stroke="#000000" stroke-dasharray="5,2" d="M204.3725,-175C253.811,-175 313.23,-175 313.23,-175 313.23,-175 313.23,-205.9775 313.23,-205.9775"/>
<polygon fill="#000000" stroke="#000000" points="309.7301,-205.9774 313.23,-215.9775 316.7301,-205.9775 309.7301,-205.9774"/>
</g>
<!-- LoadingIndicatorComponent  -->
<g id="node5" class="node">
<title>LoadingIndicatorComponent </title>
<polygon fill="#fb8072" stroke="#000000" points="227.0218,-252 44.9782,-252 44.9782,-216 227.0218,-216 227.0218,-252"/>
<text text-anchor="middle" x="136" y="-229.8" font-family="Times,serif" font-size="14.00" fill="#000000">LoadingIndicatorComponent </text>
</g>
<!-- ComponentsModule&#45;&gt;LoadingIndicatorComponent  -->
<g id="edge4" class="edge">
<title>ComponentsModule&#45;&gt;LoadingIndicatorComponent </title>
<path fill="none" stroke="#000000" stroke-dasharray="5,2" d="M139,-187.1061C139,-187.1061 139,-205.991 139,-205.991"/>
<polygon fill="#000000" stroke="#000000" points="135.5001,-205.9909 139,-215.991 142.5001,-205.991 135.5001,-205.9909"/>
</g>
</g>
</svg>
