<?xml version="1.0" encoding="UTF-8" standalone="no"?>
<!DOCTYPE svg PUBLIC "-//W3C//DTD SVG 1.1//EN"
 "http://www.w3.org/Graphics/SVG/1.1/DTD/svg11.dtd">
<!-- Generated by graphviz version 2.40.1 (20161225.0304)
 -->
<!-- Title: dependencies Pages: 1 -->
<svg width="1963pt" height="211pt"
 viewBox="0.00 0.00 1963.00 211.00" xmlns="http://www.w3.org/2000/svg" xmlns:xlink="http://www.w3.org/1999/xlink">
<g id="graph0" class="graph" transform="scale(1 1) rotate(0) translate(4 207)">
<title>dependencies</title>
<polygon fill="#ffffff" stroke="transparent" points="-4,4 -4,-207 1959,-207 1959,4 -4,4"/>
<text text-anchor="start" x="956.5091" y="-42.4" font-family="sans-serif" font-weight="bold" font-size="14.00" fill="#000000">Legend</text>
<polygon fill="#ffffb3" stroke="transparent" points="743.5,-10 743.5,-30 763.5,-30 763.5,-10 743.5,-10"/>
<text text-anchor="start" x="767.129" y="-15.4" font-family="sans-serif" font-size="14.00" fill="#000000"> &#160;Declarations</text>
<polygon fill="#8dd3c7" stroke="transparent" points="856.5,-10 856.5,-30 876.5,-30 876.5,-10 856.5,-10"/>
<text text-anchor="start" x="880.2251" y="-15.4" font-family="sans-serif" font-size="14.00" fill="#000000"> &#160;Module</text>
<polygon fill="#80b1d3" stroke="transparent" points="942.5,-10 942.5,-30 962.5,-30 962.5,-10 942.5,-10"/>
<text text-anchor="start" x="966.2812" y="-15.4" font-family="sans-serif" font-size="14.00" fill="#000000"> &#160;Bootstrap</text>
<polygon fill="#fdb462" stroke="transparent" points="1039.5,-10 1039.5,-30 1059.5,-30 1059.5,-10 1039.5,-10"/>
<text text-anchor="start" x="1063.1732" y="-15.4" font-family="sans-serif" font-size="14.00" fill="#000000"> &#160;Providers</text>
<polygon fill="#fb8072" stroke="transparent" points="1135.5,-10 1135.5,-30 1155.5,-30 1155.5,-10 1135.5,-10"/>
<text text-anchor="start" x="1159.2258" y="-15.4" font-family="sans-serif" font-size="14.00" fill="#000000"> &#160;Exports</text>
<g id="clust1" class="cluster">
<title>cluster_HetznerApiProviderModule</title>
<polygon fill="none" stroke="#000000" stroke-dasharray="1,5" points="8,-70 8,-195 1947,-195 1947,-70 8,-70"/>
</g>
<g id="clust3" class="cluster">
<title>cluster_HetznerApiProviderModule_imports</title>
<polygon fill="none" stroke="#000000" points="1795,-78 1795,-130 1939,-130 1939,-78 1795,-78"/>
</g>
<g id="clust6" class="cluster">
<title>cluster_HetznerApiProviderModule_providers</title>
<polygon fill="none" stroke="#000000" points="16,-78 16,-130 1787,-130 1787,-78 16,-78"/>
</g>
<!-- HetznerAppModule -->
<g id="node1" class="node">
<title>HetznerAppModule</title>
<polygon fill="#8dd3c7" stroke="#000000" points="1930.958,-122 1927.958,-126 1906.958,-126 1903.958,-122 1803.042,-122 1803.042,-86 1930.958,-86 1930.958,-122"/>
<text text-anchor="middle" x="1867" y="-99.8" font-family="Times,serif" font-size="14.00" fill="#000000">HetznerAppModule</text>
</g>
<!-- HetznerApiProviderModule -->
<g id="node2" class="node">
<title>HetznerApiProviderModule</title>
<polygon fill="#8dd3c7" stroke="#000000" points="1044.5576,-187 1041.5576,-191 1020.5576,-191 1017.5576,-187 871.4424,-187 871.4424,-151 1044.5576,-151 1044.5576,-187"/>
<text text-anchor="middle" x="958" y="-164.8" font-family="Times,serif" font-size="14.00" fill="#000000">HetznerApiProviderModule</text>
</g>
<!-- HetznerAppModule&#45;&gt;HetznerApiProviderModule -->
<g id="edge1" class="edge">
<title>HetznerAppModule&#45;&gt;HetznerApiProviderModule</title>
<path fill="none" stroke="#000000" d="M1867,-122.0109C1867,-144.4852 1867,-180 1867,-180 1867,-180 1054.747,-180 1054.747,-180"/>
<polygon fill="#000000" stroke="#000000" points="1054.747,-176.5001 1044.747,-180 1054.7469,-183.5001 1054.747,-176.5001"/>
</g>
<!-- ServerApiProvider -->
<g id="node3" class="node">
<title>ServerApiProvider</title>
<ellipse fill="#fdb462" stroke="#000000" cx="1695" cy="-104" rx="83.947" ry="18"/>
<text text-anchor="middle" x="1695" y="-99.8" font-family="Times,serif" font-size="14.00" fill="#000000">ServerApiProvider</text>
</g>
<!-- ServerApiProvider&#45;&gt;HetznerApiProviderModule -->
<g id="edge2" class="edge">
<title>ServerApiProvider&#45;&gt;HetznerApiProviderModule</title>
<path fill="none" stroke="#000000" d="M1695,-122.1289C1695,-142.5724 1695,-173 1695,-173 1695,-173 1054.7105,-173 1054.7105,-173"/>
<polygon fill="#000000" stroke="#000000" points="1054.7105,-169.5001 1044.7105,-173 1054.7105,-176.5001 1054.7105,-169.5001"/>
</g>
<!-- ServerTypeApiProvider -->
<g id="node4" class="node">
<title>ServerTypeApiProvider</title>
<ellipse fill="#fdb462" stroke="#000000" cx="1489" cy="-104" rx="103.6335" ry="18"/>
<text text-anchor="middle" x="1489" y="-99.8" font-family="Times,serif" font-size="14.00" fill="#000000">ServerTypeApiProvider</text>
</g>
<!-- ServerTypeApiProvider&#45;&gt;HetznerApiProviderModule -->
<g id="edge3" class="edge">
<title>ServerTypeApiProvider&#45;&gt;HetznerApiProviderModule</title>
<path fill="none" stroke="#000000" d="M1489,-122.2667C1489,-140.5552 1489,-166 1489,-166 1489,-166 1054.7925,-166 1054.7925,-166"/>
<polygon fill="#000000" stroke="#000000" points="1054.7925,-162.5001 1044.7925,-166 1054.7925,-169.5001 1054.7925,-162.5001"/>
</g>
<!-- FloatingIpApiProvider -->
<g id="node5" class="node">
<title>FloatingIpApiProvider</title>
<ellipse fill="#fdb462" stroke="#000000" cx="1268" cy="-104" rx="99.0168" ry="18"/>
<text text-anchor="middle" x="1268" y="-99.8" font-family="Times,serif" font-size="14.00" fill="#000000">FloatingIpApiProvider</text>
</g>
<!-- FloatingIpApiProvider&#45;&gt;HetznerApiProviderModule -->
<g id="edge4" class="edge">
<title>FloatingIpApiProvider&#45;&gt;HetznerApiProviderModule</title>
<path fill="none" stroke="#000000" d="M1268,-122.0091C1268,-138.0494 1268,-159 1268,-159 1268,-159 1054.7645,-159 1054.7645,-159"/>
<polygon fill="#000000" stroke="#000000" points="1054.7645,-155.5001 1044.7645,-159 1054.7645,-162.5001 1054.7645,-155.5001"/>
</g>
<!-- LocationApiProvider -->
<g id="node6" class="node">
<title>LocationApiProvider</title>
<ellipse fill="#fdb462" stroke="#000000" cx="1058" cy="-104" rx="93.1987" ry="18"/>
<text text-anchor="middle" x="1058" y="-99.8" font-family="Times,serif" font-size="14.00" fill="#000000">LocationApiProvider</text>
</g>
<!-- LocationApiProvider&#45;&gt;HetznerApiProviderModule -->
<g id="edge5" class="edge">
<title>LocationApiProvider&#45;&gt;HetznerApiProviderModule</title>
<path fill="none" stroke="#000000" d="M1004.7148,-119.0757C1004.7148,-119.0757 1004.7148,-140.7642 1004.7148,-140.7642"/>
<polygon fill="#000000" stroke="#000000" points="1001.2149,-140.7642 1004.7148,-150.7642 1008.2149,-140.7642 1001.2149,-140.7642"/>
</g>
<!-- ActionsApiProvider -->
<g id="node7" class="node">
<title>ActionsApiProvider</title>
<ellipse fill="#fdb462" stroke="#000000" cx="858" cy="-104" rx="88.6236" ry="18"/>
<text text-anchor="middle" x="858" y="-99.8" font-family="Times,serif" font-size="14.00" fill="#000000">ActionsApiProvider</text>
</g>
<!-- ActionsApiProvider&#45;&gt;HetznerApiProviderModule -->
<g id="edge6" class="edge">
<title>ActionsApiProvider&#45;&gt;HetznerApiProviderModule</title>
<path fill="none" stroke="#000000" d="M909.1414,-118.7495C909.1414,-118.7495 909.1414,-140.5882 909.1414,-140.5882"/>
<polygon fill="#000000" stroke="#000000" points="905.6415,-140.5881 909.1414,-150.5882 912.6415,-140.5882 905.6415,-140.5881"/>
</g>
<!-- ImageApiProvider -->
<g id="node8" class="node">
<title>ImageApiProvider</title>
<ellipse fill="#fdb462" stroke="#000000" cx="668" cy="-104" rx="82.8052" ry="18"/>
<text text-anchor="middle" x="668" y="-99.8" font-family="Times,serif" font-size="14.00" fill="#000000">ImageApiProvider</text>
</g>
<!-- ImageApiProvider&#45;&gt;HetznerApiProviderModule -->
<g id="edge7" class="edge">
<title>ImageApiProvider&#45;&gt;HetznerApiProviderModule</title>
<path fill="none" stroke="#000000" d="M668,-122.0091C668,-138.0494 668,-159 668,-159 668,-159 861.3833,-159 861.3833,-159"/>
<polygon fill="#000000" stroke="#000000" points="861.3833,-162.5001 871.3833,-159 861.3832,-155.5001 861.3833,-162.5001"/>
</g>
<!-- SshKeyApiProvider -->
<g id="node9" class="node">
<title>SshKeyApiProvider</title>
<ellipse fill="#fdb462" stroke="#000000" cx="478" cy="-104" rx="88.6255" ry="18"/>
<text text-anchor="middle" x="478" y="-99.8" font-family="Times,serif" font-size="14.00" fill="#000000">SshKeyApiProvider</text>
</g>
<!-- SshKeyApiProvider&#45;&gt;HetznerApiProviderModule -->
<g id="edge8" class="edge">
<title>SshKeyApiProvider&#45;&gt;HetznerApiProviderModule</title>
<path fill="none" stroke="#000000" d="M478,-122.2667C478,-140.5552 478,-166 478,-166 478,-166 861.3536,-166 861.3536,-166"/>
<polygon fill="#000000" stroke="#000000" points="861.3536,-169.5001 871.3536,-166 861.3536,-162.5001 861.3536,-169.5001"/>
</g>
<!-- StatusApiProvider -->
<g id="node10" class="node">
<title>StatusApiProvider</title>
<ellipse fill="#fdb462" stroke="#000000" cx="289" cy="-104" rx="82.2603" ry="18"/>
<text text-anchor="middle" x="289" y="-99.8" font-family="Times,serif" font-size="14.00" fill="#000000">StatusApiProvider</text>
</g>
<!-- StatusApiProvider&#45;&gt;HetznerApiProviderModule -->
<g id="edge9" class="edge">
<title>StatusApiProvider&#45;&gt;HetznerApiProviderModule</title>
<path fill="none" stroke="#000000" d="M289,-122.1289C289,-142.5724 289,-173 289,-173 289,-173 861.2258,-173 861.2258,-173"/>
<polygon fill="#000000" stroke="#000000" points="861.2258,-176.5001 871.2258,-173 861.2257,-169.5001 861.2258,-176.5001"/>
</g>
<!-- PricesApiProvider -->
<g id="node11" class="node">
<title>PricesApiProvider</title>
<ellipse fill="#fdb462" stroke="#000000" cx="106" cy="-104" rx="82.2391" ry="18"/>
<text text-anchor="middle" x="106" y="-99.8" font-family="Times,serif" font-size="14.00" fill="#000000">PricesApiProvider</text>
</g>
<!-- PricesApiProvider&#45;&gt;HetznerApiProviderModule -->
<g id="edge10" class="edge">
<title>PricesApiProvider&#45;&gt;HetznerApiProviderModule</title>
<path fill="none" stroke="#000000" d="M106,-122.0109C106,-144.4852 106,-180 106,-180 106,-180 861.2214,-180 861.2214,-180"/>
<polygon fill="#000000" stroke="#000000" points="861.2214,-183.5001 871.2214,-180 861.2213,-176.5001 861.2214,-183.5001"/>
</g>
</g>
</svg>
